<?xml version="1.0" encoding="utf-8"?>
<!-- Generator: Adobe Illustrator 16.0.0, SVG Export Plug-In . SVG Version: 6.00 Build 0)  -->
<!DOCTYPE svg PUBLIC "-//W3C//DTD SVG 1.1//EN" "http://www.w3.org/Graphics/SVG/1.1/DTD/svg11.dtd">
<svg version="1.1" id="Layer_1" xmlns="http://www.w3.org/2000/svg" xmlns:xlink="http://www.w3.org/1999/xlink" x="0px" y="0px"
	 width="56.693px" height="56.693px" viewBox="0 0 56.693 56.693" enable-background="new 0 0 56.693 56.693" xml:space="preserve">
<g id="Camada_x0020_1">
	<path fill="#01002F" d="M28.346,47.695c-5.343,0-10.18-2.166-13.681-5.667c-3.502-3.502-5.667-8.339-5.667-13.682
		s2.165-10.181,5.667-13.682c3.501-3.501,8.338-5.667,13.681-5.667c5.342,0,10.18,2.166,13.682,5.667s5.666,8.339,5.666,13.682
		s-2.164,10.18-5.666,13.682C38.526,45.529,33.688,47.695,28.346,47.695z M15.27,41.423c3.347,3.347,7.97,5.417,13.076,5.417
		c5.108,0,9.731-2.07,13.077-5.417c3.348-3.347,5.416-7.97,5.416-13.076s-2.068-9.73-5.416-13.077
		c-3.346-3.347-7.969-5.416-13.077-5.416c-5.106,0-9.729,2.069-13.076,5.416S9.853,23.24,9.853,28.346S11.923,38.076,15.27,41.423z"
		/>
	<path fill="#01002F" d="M16.467,32.301l0.877-2.356l0.014-13.245l14.032,0.013l-0.008,6.943l0.881-0.229l0.088-1.522
		c0,0,0.035-0.843-0.01-0.848c-0.004-0.502,0.049-4.542-0.104-5.104c-0.477-0.252-2.818-0.136-3.606-0.135h-9.663
		c-2.978,0.018-2.508-0.505-2.509,2.511l-0.006,2.68c-0.053,0.01-0.024,0.908-0.024,0.908
		C16.487,22.155,16.478,29.446,16.467,32.301z"/>
	<path fill="#FF7020" d="M37.604,25.825c-0.029-0.808,0.029-1.219-0.465-1.757c-0.623-0.676-1.188-0.589-2.152-0.596
		c0.158-3.126-0.471-2.241-2.646-2.388l0.01,0.819l1.725,0.005l0.037,1.521l-1.848-0.004l-0.883,0.229
		c-0.295,0.303-0.525,0.317-0.742,0.778c-0.191,0.41-0.16,0.896-0.168,1.378c-0.57,0.066-1.549,0.029-2.151,0.019
		c-2.731-0.049-5.877-0.003-8.673-0.005c-0.954-0.001-0.864,0.258-1.148,1.024c-0.165,0.445-1.145,2.946-1.156,3.095
		c0,0-0.92,2.48-1.142,3.09l-0.336,0.915c-0.007,0.017-0.051,0.121-0.051,0.124c-0.002,0.009-0.004,0.012-0.006,0.019l-0.021-12.171
		l0.642-0.002l0.024-0.862c-0.924,0.078-1.552-0.25-1.549,1.36v13.007c-0.002,0.605-0.121,1.378,0.37,1.591
		c0.31,0.135,12.319,0.072,15.435,0.062l-0.48-0.836l-14.241,0.005c0.118-0.666,3.229-8.532,3.467-9.492l18.25-0.016l-0.93,2.541
		l0.846,0.329l0.797-2.179C38.817,26.346,39.046,25.821,37.604,25.825z M31.354,25.819c-0.08-1.879,0.789-1.444,2.727-1.479
		c2.057-0.036,2.701-0.197,2.641,1.488L31.354,25.819z"/>
	<path fill="#01002F" d="M41.876,34.431c0-1.614,0-1.191-1.389-1.39c-0.094-0.271-0.154-0.525-0.27-0.776
		c-0.158-0.344-0.303-0.368-0.08-0.629c0.182-0.212,0.385-0.324,0.49-0.581c0.162-0.391-0.109-0.565-0.277-0.728
		c-0.799-0.77-1.205-1.548-1.771-1.059l-0.598,0.53l-0.359-0.192l-0.846-0.329c-0.229-1.312,0.246-1.271-1.395-1.274
		c-1.688-0.003-1.246-0.123-1.486,1.288l-1.242,0.494c-0.354-0.229-0.85-1.137-1.504-0.329c-0.697,0.861-1.678,1.176-0.938,1.903
		c0.215,0.209,0.244,0.231,0.414,0.471c-0.096,0.214-0.199,0.4-0.289,0.603c-0.084,0.188-0.135,0.417-0.221,0.603
		c-1.362,0.211-1.291-0.185-1.288,1.458c0.004,1.74-0.056,1.153,1.323,1.437l0.078,0.31c0,0,0.363,0.836,0.48,0.836
		c-0.662,1.092-1.203,0.613,0.029,1.937c0.133,0.143,0.221,0.169,0.355,0.326c0.732,0.862,0.914,0.5,1.621-0.185
		c0.205,0.059,0.391,0.181,0.592,0.273c0.197,0.09,0.467,0.171,0.686,0.226c0.037,0.477,0,0.847,0.158,1.207
		c0.471,0.128,2.139,0.138,2.381,0.054c0.377-0.13,0.279-0.816,0.314-1.241c0.391-0.185,0.799-0.281,1.197-0.502
		c0.375,0.147,0.594,0.667,0.992,0.664c0.303-0.002,0.387-0.206,0.525-0.354c0.178-0.188,1.156-0.964,1.205-1.343
		c0.051-0.387-0.475-0.721-0.676-1.042c0.227-0.417,0.316-0.733,0.492-1.214C41.928,35.628,41.878,36.177,41.876,34.431z
		 M39.864,35.061c-0.213,0.471-0.324,1.091-0.594,1.593c-0.438,0.821-0.184,0.603,0.352,1.37l-0.699,0.716
		c-0.965-0.973-0.961-0.563-1.719-0.197c-1.232,0.596-1.176-0.159-1.328,1.464l-0.992,0.009c-0.082-0.43,0.074-0.923-0.268-1.105
		c-0.266-0.143-0.738-0.205-1.063-0.365c-0.277-0.138-0.648-0.481-0.949-0.416c-0.176,0.039-0.607,0.482-0.813,0.616l-0.699-0.721
		c0.992-0.806,0.463-1.166,0.215-1.741c-0.109-0.256-0.264-0.868-0.344-1.019c-0.283-0.531-1.031,0.045-1.121-0.466l0.012-0.814
		c0.42-0.083,0.932,0.043,1.104-0.264c0.1-0.177,0.221-0.778,0.328-1.031c0.338-0.796,0.818-0.913-0.209-1.787l0.703-0.726
		c0.525,0.288,0.521,0.939,1.355,0.405c0.484-0.311,1.281-0.404,1.6-0.625l0.098-0.999c0.385-0.07,0.596-0.034,1.006-0.018
		l0.1,1.076c0.537,0.185,1.133,0.302,1.607,0.587c0.93,0.561,0.756,0.001,1.365-0.378l0.711,0.64c-0.09,0.14-0.547,0.633-0.58,0.738
		c-0.111,0.362,0.25,0.72,0.393,1c0.164,0.321,0.201,0.729,0.346,1.015c0.188,0.373,0.703,0.281,1.113,0.318l0.018,1.054
		L39.864,35.061z"/>
	<path fill="#01002F" d="M33.122,34.679c-0.098-1.341,0.824-2.328,2.01-2.469c1.32-0.156,2.344,0.894,2.467,2.034
		c0.143,1.314-0.883,2.337-2.031,2.455C34.319,36.829,33.206,35.836,33.122,34.679z M34.987,31.343
		c-1.623,0.185-2.99,1.666-2.73,3.526c0.225,1.6,1.656,2.957,3.518,2.693c1.596-0.227,2.914-1.638,2.678-3.486
		C38.245,32.462,36.829,31.135,34.987,31.343z"/>
	<path fill="#01002F" d="M20.454,21.783h8.237c0.508,0.001,0.428,0.058,0.817-0.195c0.041-0.25,0.02-0.365-0.037-0.574
		c-0.494-0.218-2.915-0.116-3.691-0.117l-5.388,0.003c-0.526,0-1.181-0.149-1.158,0.466C19.256,21.931,19.993,21.782,20.454,21.783z
		"/>
	<path fill="#01002F" d="M19.318,19.1c0.465,0.221,2.422,0.111,3.057,0.109c1.117-0.005,6.527,0.116,7.093-0.102
		c0.283-0.892-0.387-0.772-1.085-0.766l-7.68-0.003C19.898,18.33,19.019,18.118,19.318,19.1z"/>
	<path fill="#01002F" d="M27.391,24.344c1.043-0.014,2.418,0.226,2.122-0.614c-0.133-0.372-0.742-0.255-1.192-0.261
		c-2.685-0.038-5.651,0.058-8.301-0.002c-0.56-0.013-0.849,0.03-0.754,0.661c0.424,0.313,0.592,0.21,1.188,0.215l4.149-0.007
		C25.531,24.334,26.466,24.356,27.391,24.344z"/>
</g>
<path fill="#01002F" d="M-20.698,49.829c-5.343,0-10.18-2.166-13.681-5.667c-3.502-3.502-5.667-8.339-5.667-13.682
	s2.165-10.181,5.667-13.682c3.501-3.501,8.338-5.667,13.681-5.667c5.342,0,10.18,2.166,13.682,5.667S-1.35,25.137-1.35,30.48
	s-2.164,10.18-5.666,13.682C-10.518,47.663-15.356,49.829-20.698,49.829z M-33.774,43.556c3.347,3.347,7.97,5.417,13.076,5.417
	c5.108,0,9.731-2.07,13.077-5.417c3.348-3.347,5.416-7.97,5.416-13.076s-2.068-9.73-5.416-13.077
	c-3.346-3.347-7.969-5.416-13.077-5.416c-5.106,0-9.729,2.069-13.076,5.416s-5.417,7.971-5.417,13.077S-37.121,40.21-33.774,43.556z
	"/>
<path fill="#FF7020" d="M-6.019,4.041c0.655,0.336,1.728,2.369,2.015,3.168c0.595,1.664-0.422,2.988-1.894,3.025
	c-1.588,0.041-2.655-1.354-2.085-2.945C-7.574,6.152-6.592,4.59-6.019,4.041z M-2.976,8.773c0.382-1.809-1.943-5.647-2.939-5.715
	c-0.438-0.03-0.784,0.333-1.063,0.684C-12.828,11.146-3.929,13.298-2.976,8.773z"/>
</svg>
