<?xml version="1.0" encoding="utf-8"?>
<!-- Generator: Adobe Illustrator 16.0.0, SVG Export Plug-In . SVG Version: 6.00 Build 0)  -->
<!DOCTYPE svg PUBLIC "-//W3C//DTD SVG 1.1//EN" "http://www.w3.org/Graphics/SVG/1.1/DTD/svg11.dtd">
<svg version="1.1" id="Layer_1" xmlns="http://www.w3.org/2000/svg" xmlns:xlink="http://www.w3.org/1999/xlink" x="0px" y="0px"
	 width="56.693px" height="56.693px" viewBox="0 0 56.693 56.693" enable-background="new 0 0 56.693 56.693" xml:space="preserve">
<g id="Camada_x0020_1">
	<path fill="#01002F" d="M28.346,47.695c-5.343,0-10.18-2.166-13.681-5.667c-3.502-3.502-5.667-8.339-5.667-13.682
		s2.165-10.181,5.667-13.682c3.501-3.501,8.338-5.667,13.681-5.667c5.342,0,10.18,2.166,13.682,5.667s5.666,8.339,5.666,13.682
		s-2.164,10.18-5.666,13.682C38.526,45.529,33.688,47.695,28.346,47.695z M15.27,41.423c3.347,3.347,7.97,5.417,13.076,5.417
		c5.107,0,9.73-2.07,13.076-5.417c3.348-3.347,5.416-7.97,5.416-13.076s-2.068-9.73-5.416-13.077
		c-3.346-3.347-7.969-5.416-13.076-5.416c-5.106,0-9.729,2.069-13.076,5.416S9.853,23.24,9.853,28.346S11.924,38.076,15.27,41.423z"
		/>
</g>
<g id="Camada_x0020_1_1_">
	<path fill="#017A00" d="M38.31,37.28l0.003-4.749c-0.01-0.861-0.685-0.603-2.25-0.603c-1.09,0-1.028-0.006-1.107,0.771
		c-0.866-0.1-3.834-1.606-4.825-1.461c-0.498,0.073-1.135,0.475-1.614,0.526l-0.933,0.318c-0.231,0.163-0.761,0.313-1.081,0.434
		l-0.827,0.31c-0.177,0.066-1.167,0.334-1.167,0.334c-0.497,0.158-0.234,0.215-0.751-0.092c-0.222-0.132-0.445-0.271-0.679-0.419
		c-1.154-0.729-3.441-2.316-4.612-1.34c-0.354,0.295-0.691,0.945-0.416,1.626c0.186,0.459,0.711,0.759,1.119,1.063
		c1.749,1.303,3.217,2.515,4.909,3.825c1.352,1.048,1.531,0.73,3.327,0.424c1.208-0.207,2.456-0.545,3.675-0.695
		c0.847-0.105,1.2-0.02,1.993,0.101c0.34,0.051,1.672,0.24,1.881,0.339c0.081,0.828-0.027,0.813,1.06,0.814
		C38.555,38.812,38.31,39.094,38.31,37.28z M33.442,36.823c-2.075-0.381-2.669-0.196-4.977,0.311
		c-0.564,0.124-2.793,0.609-3.204,0.413c-0.43-0.206-1.715-1.289-2.159-1.639c-1.208-0.953-2.501-1.962-3.746-2.853
		c-0.147-0.105-0.44-0.242-0.48-0.479c-0.125-0.725,0.699-0.668,1.176-0.495c0.451,0.165,0.814,0.37,1.261,0.629
		c0.796,0.465,1.54,0.97,2.348,1.445c-0.05,0.693-0.097,0.983,0.31,1.502c0.993,1.271,2.561,0.121,4.081-0.5
		c0.337-0.138,1.181-0.345,0.906-0.931c-0.227-0.486-0.993-0.035-1.337,0.118c-0.435,0.196-0.906,0.391-1.328,0.572
		c-0.333,0.143-1.064,0.571-1.436,0.326c-0.512-0.34-0.372-0.945,0.188-1.161c1.273-0.492,2.884-1.008,4.246-1.5
		c1.477-0.533,1.069-0.462,2.891,0.182l2.825,1.003l0.009,3.334C34.634,37.119,33.837,36.895,33.442,36.823z M37.421,37.76
		c-0.044,0.246-0.005,0.084-0.082,0.174l-1.402-0.019c-0.149-0.121-0.065-1.068-0.065-1.251c-0.003-0.659-0.046-3.57,0.034-3.813
		l1.463-0.014c0.109,0.257,0.048,3.146,0.05,3.827L37.421,37.76z"/>
</g>
<linearGradient id="SVGID_1_" gradientUnits="userSpaceOnUse" x1="11794.8975" y1="-13921.8682" x2="12591.8916" y2="-13918.1982" gradientTransform="matrix(0.0283 0 0 -0.0283 -263.9133 -383.5168)">
	<stop  offset="0" style="stop-color:#A8BA86"/>
	<stop  offset="1" style="stop-color:#749239"/>
</linearGradient>
<path fill="url(#SVGID_1_)" d="M94.664,23.109l-1.209-0.016c-0.129-0.104-0.057-0.921-0.057-1.078
	c-0.002-0.568-0.039-3.078,0.029-3.288l1.262-0.012c0.094,0.222,0.041,2.712,0.043,3.3l0.002,0.944
	C94.697,23.171,94.73,23.031,94.664,23.109z M82.871,19.852c-0.043,0.598-0.084,0.848,0.268,1.295
	c0.855,1.095,2.207,0.104,3.518-0.432c0.291-0.118,1.018-0.297,0.781-0.802c-0.195-0.42-0.855-0.03-1.152,0.102
	c-0.375,0.169-0.781,0.337-1.145,0.493c-0.287,0.123-0.918,0.493-1.238,0.281c-0.441-0.293-0.32-0.814,0.162-1.001
	c1.098-0.424,2.486-0.869,3.66-1.293c1.273-0.46,0.922-0.398,2.492,0.156l2.436,0.865l0.008,2.874
	c-0.328,0.016-1.016-0.177-1.355-0.239c-1.789-0.328-2.301-0.169-4.291,0.268c-0.486,0.107-2.408,0.525-2.762,0.356
	c-0.371-0.178-1.479-1.111-1.861-1.413c-1.041-0.821-2.156-1.691-3.23-2.459c-0.127-0.091-0.379-0.209-0.414-0.413
	c-0.107-0.625,0.604-0.576,1.014-0.427c0.389,0.142,0.703,0.318,1.088,0.542C81.533,19.006,82.174,19.442,82.871,19.852z
	 M74.373,18.394c-0.121-0.197-0.93-2.197-0.949-2.356c0.088-0.052,1.459-0.324,1.59-0.316
	C74.988,15.988,74.449,18.293,74.373,18.394z M86.254,18.066c-0.199,0.141-0.656,0.271-0.932,0.374l-0.713,0.267
	c-0.152,0.058-0.129,0.07-0.193,0.008l-0.693-5.836l2.746-1.22L86.254,18.066z M71.463,11.29l2.295,1.418l-1.309,0.945
	C72.355,13.569,71.502,11.518,71.463,11.29z M71.918,15.259c-0.002-0.326,0.602-0.738,0.836-0.923
	c1.857-1.452,6.008-3.414,8.111-4.336c1.201-0.527,9.682-4.179,10.795-3.07c0.82,0.815-3.129,2.816-3.752,3.121
	c-1.889,0.929-3.016,1.373-4.936,2.188C81.531,12.853,73.318,15.899,71.918,15.259z M78.59,4.287
	c0.068-0.056,1.854-0.714,1.967-0.713c0.139,0.001,0.578,0.477,0.719,0.603l2.127,1.967c0.195,0.175,1.346,1.188,1.396,1.336
	c-0.242,0.153-1.086,0.421-1.418,0.546c-0.225,0.084-1.244,0.54-1.396,0.548L78.59,4.287z M70.701-0.931l1.209-0.007
	c0.043,0.052,0.066-0.012,0.066,0.271c-0.004,0.775,0.039,3.902-0.041,4.121l-1.264-0.012C70.58,3.2,70.635-0.233,70.635-0.79
	C70.64-1.055,70.625-0.848,70.701-0.931z M72.756-0.156c0.496-0.028,1.867,0.382,2.887,0.341c1.578-0.062,4.977-1.126,5.553-0.762
	c0.266,0.167,0.623,0.488,0.916,0.725l2.756,2.115c0.279,0.209,1.721,1.174,1.734,1.495c0.018,0.423-0.688,0.511-1.096,0.357
	c-0.293-0.111-2.6-1.562-3.016-1.803c0.018-0.634,0.143-0.87-0.281-1.321c-0.785-0.832-1.5-0.388-2.377-0.002l-1.736,0.755
	c-0.186,0.129-0.238,0.397-0.082,0.578c0.266,0.31,0.885-0.075,1.182-0.205c0.406-0.178,0.762-0.314,1.156-0.489
	c0.301-0.133,0.85-0.49,1.182-0.206c0.24,0.207,0.439,0.757-0.252,1.012l-3.594,1.322c-0.393,0.144-0.855,0.392-1.285,0.266
	c-0.432-0.127-0.799-0.274-1.217-0.426l-2.441-0.847L72.756-0.156z M72.754,3.572c0.297,0.022,1.998,0.674,2.412,0.824
	c2.348,0.854,1.699,0.19,2.604,0.184c0.232,0.243,1.561,1.9,1.617,2.109c-0.594,0.284-1.674,0.498-1.154,1.066
	c0.326,0.356,1.311-0.374,1.762-0.412c0.209,0.351,1.074,1.264,1.17,1.529C80.98,9.034,79.607,9.61,79.25,9.784
	c-0.643,0.314-1.275,0.614-1.922,0.939L74.56,12.21c-0.236,0.046-3.623-2.358-3.955-2.408c-0.248-0.036-0.416,0.095-0.463,0.277
	c-0.098,0.386,1.613,3.827,1.58,4.074c-0.162,0.294-0.822,0.747-0.666,1.345c0.152,0.58,1.109,0.564,1.475,0.598
	c0.113,0.161,0.365,0.834,0.449,1.044l0.891,2.142c0.115,0.281,0.256,0.883,0.625,0.895c0.451,0.015,0.457-0.557,0.555-0.967
	c0.1-0.42,0.178-0.83,0.273-1.236c0.09-0.385,0.461-2.308,0.572-2.456c0.068-0.076,0.299-0.117,0.418-0.15
	c0.168-0.047,0.283-0.076,0.455-0.125c0.328-0.094,0.605-0.184,0.904-0.273c1.27-0.382,3.133-1.02,4.359-1.5
	c0.199-0.078,0.68-0.285,0.895-0.312c0.033,0.425,0.219,1.503,0.162,1.857c-0.648,0.381-1.564,0.394-1.48,0.937
	c0.115,0.764,1.238-0.067,1.631-0.114l0.363,3.158c-0.428,0.137-0.201,0.186-0.648-0.079c-0.191-0.113-0.383-0.234-0.584-0.361
	c-0.996-0.628-2.967-1.997-3.977-1.155c-0.307,0.255-0.596,0.815-0.359,1.402c0.16,0.396,0.613,0.654,0.965,0.917
	c1.508,1.123,2.773,2.168,4.232,3.298c1.166,0.903,1.32,0.63,2.869,0.365c1.041-0.179,2.117-0.47,3.168-0.6
	c0.73-0.091,1.035-0.017,1.719,0.087c0.293,0.044,1.441,0.207,1.621,0.292c0.07,0.714-0.023,0.7,0.914,0.702
	c2.189,0.004,1.979,0.247,1.979-1.316l0.002-4.095c-0.008-0.742-0.59-0.52-1.939-0.52c-0.939,0-0.887-0.005-0.955,0.665
	c-0.746-0.086-3.305-1.385-4.16-1.26c-0.43,0.063-0.979,0.409-1.391,0.454l0.227-6.526c0.209-0.141,0.51-0.27,0.746-0.395
	c0.803-0.422,1.436-0.782,2.18-1.26c0.707-0.454,2.09-1.447,2.277-2.31c0.344-1.573-2.293-1.268-3.145-1.101
	c-1.035,0.202-1.789,0.39-2.742,0.695c-0.264,0.084-0.674,0.258-0.959,0.275c-0.24-0.338-4.037-3.647-4.162-3.92
	c0.248-0.09,0.461-0.288,0.654-0.187c0.186,0.097,0.412,0.258,0.59,0.362c0.398,0.235,0.779,0.465,1.197,0.721
	c0.807,0.491,1.717,1.217,2.789,0.697c0.408-0.198,0.75-0.589,0.703-1.168c-0.051-0.612-0.477-0.825-0.816-1.097l-4.318-3.336
	c-1.309-1.004-1.113-0.809-2.906-0.512c-1.99,0.33-3.164,0.875-4.969,0.53c-0.545-0.104-1.115-0.164-1.645-0.282
	c-0.113-0.666,0.143-0.718-0.924-0.718c-2.178-0.002-1.973-0.254-1.973,1.316l-0.002,3.274c-0.002,1.596-0.23,1.391,1.893,1.381
	c0.199-0.001,0.607,0.028,0.766-0.04C72.769,4.087,72.724,3.877,72.754,3.572z"/>
<g>
	<path fill-rule="evenodd" clip-rule="evenodd" fill="#01002F" d="M15.14,26.457c0.08,0,0.16,0.001,0.239,0.001
		c0.066,0.021,0.048,0.066,0.031,0.111c-0.042,0.113-0.01,0.195,0.097,0.255c0.109,0.061,0.179,0.006,0.22-0.034
		c-0.053,0.076-0.15,0.092-0.258,0.01c-0.091-0.069-0.097-0.161-0.047-0.257c0.056-0.111,0.151-0.072,0.239-0.063
		c0.212,0.004,0.424,0.009,0.637,0.015c0.039,0.038,0.042,0.085,0.04,0.111c0.014-0.074,0.053-0.151,0.156-0.065
		c0.07,0.059,0.077-0.027,0.117-0.028c0.012,0.001,0.023,0.001,0.035,0.003c0.111,0.051,0.148,0.155,0.194,0.283
		c0.028-0.126,0.076-0.221,0.182-0.272c0.033,0,0.067,0,0.1,0c0.093,0,0.188-0.004,0.171,0.121
		c-0.031-0.095,0.004-0.138,0.118-0.109c0.016,0,0.031,0.003,0.046,0.008c0.014,0.028,0.046,0.032,0.077,0.013
		c0.036-0.024,0.077-0.024,0.114-0.011c0.053,0.02,0.059,0.063,0.056,0.113c-0.002,0.023-0.001,0.047,0,0.071
		c0-0.024,0-0.045,0-0.069c0.002-0.059,0.032-0.095,0.086-0.112c0.049-0.016,0.09-0.006,0.115,0.044
		c0.004,0.007,0.003,0.019,0.013,0.024c-0.002-0.018-0.001-0.034,0.005-0.049c0.006-0.006,0.011-0.012,0.017-0.018
		c0.034,0.003,0.068,0.006,0.103,0.009c0.035,0.022,0.047,0.062,0.07,0.093c0.106,0.145,0.166,0.136,0.241-0.028
		c0.006-0.015,0.021-0.025,0.032-0.038c0.035,0,0.069,0,0.104,0c0.063,0.085,0.128,0.166,0.235,0.207
		c0.086,0.033,0.066,0.088,0.019,0.134c0.042-0.03,0.049-0.076,0.041-0.136c-0.01-0.07-0.025-0.148,0.047-0.201
		c0.021,0,0.044,0,0.065,0c0.038,0.031,0.063,0.064,0.047,0.117c-0.022,0.072,0.024,0.104,0.069,0.124
		c-0.033-0.018-0.085-0.038-0.067-0.103c0.016-0.058,0.063-0.071,0.119-0.071c0.06-0.001,0.129,0.035,0.173-0.04
		c0.023,0.002,0.047,0.004,0.07,0.006c0.048,0.063,0.156,0.036,0.186,0.125c0.009-0.008,0-0.016,0-0.023
		c-0.001-0.052,0.034-0.063,0.077-0.067c0.617,0.005,1.232,0.065,1.849,0.078c0.368,0.007,0.733,0.048,1.101,0.039
		c0.176-0.004,0.351,0.021,0.526,0.02c0.394,0.068,0.793,0.015,1.189,0.052c0.212-0.01,0.425,0.014,0.637-0.013
		c0.14-0.006,0.281-0.013,0.42,0.022c-0.008,0.018-0.023,0.023-0.041,0.023c0.001,0.001,0.004,0.001,0.005,0.001
		c0.167-0.012,0.336,0.023,0.501-0.02c-0.008-0.102-0.017-0.206-0.026-0.308c0.02-0.181,0.02-0.361,0-0.542
		c0.041-0.171-0.029-0.225-0.203-0.247c-0.441-0.061-0.878-0.149-1.316-0.226c-0.156-0.086-0.335-0.077-0.502-0.103
		c-0.271-0.044-0.54-0.104-0.813-0.128c-0.512-0.102-1.028-0.183-1.544-0.258c-0.033-0.004-0.068-0.008-0.098-0.023
		c-0.034-0.017-0.052-0.048-0.045-0.083c0.008-0.046,0.044-0.04,0.08-0.035c0.083,0.012,0.167,0.021,0.25,0.042
		c0.249-0.015,0.491,0.04,0.736,0.059c0.302,0.024,0.603,0.063,0.905,0.091c0.471,0.043,0.94,0.097,1.411,0.146
		c0.205,0.041,0.412,0.067,0.621,0.052c0.167,0.017,0.335,0.026,0.501,0.053c0.1,0.016,0.14-0.012,0.166-0.106
		c0.028-0.101,0.076-0.197,0.116-0.295c0.009-0.006,0.019-0.013,0.029-0.014c0.188-0.024,0.188-0.024,0.108-0.199
		c-0.009-0.02-0.015-0.042-0.004-0.064c0.461-0.823,1.139-1.352,2.075-1.532c0.055-0.01,0.114-0.012,0.152-0.064
		c0.029-0.045,0.033-0.096,0.032-0.146c-0.01-0.388,0.032-0.774,0.035-1.162c0.01-0.507,0.048-1.015,0.058-1.521
		c0.006-0.331,0.061-0.661,0.016-0.994c-0.013-0.075-0.012-0.147,0.044-0.208c0.221-0.09,0.273-0.063,0.308,0.173
		c0.054,0.417,0.043,0.839,0.064,1.257c0.042,0.861,0.074,1.723,0.104,2.584c0,0.02,0.012,0.031,0.022,0.045
		c0.093,0.023,0.184,0.046,0.276,0.07c0.313,0.11,0.615,0.244,0.915,0.383c0.618,0.394,1.027,0.95,1.259,1.637
		c0.049,0.145,0.106,0.179,0.25,0.146c0.143-0.032,0.292-0.029,0.439-0.042c0.199,0.028,0.394-0.021,0.588-0.044
		c0.3-0.036,0.599-0.062,0.896-0.091c0.446-0.056,0.895-0.084,1.342-0.145c0.194-0.027,0.394-0.011,0.585-0.073
		c0.103-0.034,0.211,0.022,0.315-0.008c0.036-0.01,0.071,0.007,0.072,0.049c0.002,0.041-0.027,0.057-0.063,0.065
		c-0.105,0.022-0.212,0.036-0.314,0.064c-0.21,0.04-0.423,0.057-0.632,0.103c-0.334,0.051-0.667,0.107-1.001,0.164
		c-0.388,0.067-0.779,0.113-1.163,0.196c-0.283,0.062-0.582,0.046-0.855,0.163c-0.104,0.023-0.208,0.047-0.312,0.07
		c-0.045,0.076-0.008,0.156-0.002,0.229c0.025,0.238,0.006,0.474-0.024,0.708c-0.015,0.116,0.039,0.149,0.127,0.143
		c0.304-0.026,0.611,0.013,0.914-0.045c0.156,0,0.313-0.002,0.471,0.001c0.242,0.009,0.481-0.024,0.724-0.027
		c0.152,0,0.309,0.018,0.46-0.025c0.673-0.015,1.346-0.049,2.018-0.076c0.328-0.002,0.654-0.037,0.982-0.046
		c0.012-0.001,0.054,0.033,0.048-0.021c0.106-0.011,0.213-0.022,0.319-0.033c0.021-0.017,0.043-0.022,0.069-0.017
		c0.016,0.008,0.028,0.019,0.037,0.034c0.025,0.05,0.012,0.132,0.105,0.127c0.085-0.004,0.137-0.047,0.155-0.13
		c0.004-0.017,0.019-0.029,0.032-0.038c0.021-0.013,0.045-0.019,0.071-0.014c0.068,0.032,0.113,0.083,0.133,0.158
		c0.034-0.082,0.072-0.159,0.174-0.173c0.015,0.004,0.029,0.01,0.043,0.02c0.056,0.003,0.11,0.006,0.167,0.009
		c0.02,0.107,0.034,0.216,0.166,0.247c0.111,0.027,0.18-0.014,0.209-0.118c-0.032,0.104-0.102,0.153-0.214,0.115
		c-0.116-0.04-0.18-0.114-0.122-0.243c0.097,0.05,0.2,0.018,0.301,0.026c0.188-0.063,0.189-0.063,0.211,0.115
		c0.005,0.044,0.028,0.073,0.048,0.089c-0.074-0.074-0.057-0.139,0.052-0.171c0.066-0.02,0.127-0.041,0.172-0.095
		c0.022,0.001,0.045,0.001,0.067,0.001c0.087,0.03,0.065,0.104,0.069,0.168c0-0.066-0.015-0.138,0.068-0.17
		c0.022,0,0.044,0.001,0.068,0.002c0.047,0.063,0.093,0.065,0.135-0.006c0.023,0.001,0.047,0.001,0.07,0.002
		c0.109,0.026,0.098,0.141,0.166,0.22c0.027-0.108,0.074-0.2,0.178-0.246c0.077-0.001,0.156-0.002,0.234-0.003
		c0.037,0.034,0.035,0.081,0.036,0.122c0.006-0.038-0.013-0.08,0.002-0.121c0.045-0.003,0.089-0.005,0.134-0.007
		c0.081,0.022,0.067,0.088,0.068,0.146c0-0.048-0.001-0.096,0.055-0.119c0.155-0.033,0.16,0.064,0.15,0.161
		c-0.003-0.057,0-0.128,0.076-0.159c0.073-0.028,0.117,0.01,0.14,0.08c-0.002-0.022-0.005-0.042,0.006-0.062
		c0.035-0.048,0.085-0.048,0.136-0.042c0.071,0.025,0.038,0.099,0.069,0.144c0.032,0.05,0.069,0.093,0.132,0.092
		c0.074-0.002,0.066-0.067,0.071-0.114c0.005-0.062,0.028-0.107,0.083-0.136c0.042-0.002,0.08,0.007,0.115,0.028
		c0.033,0.098,0.053,0.196,0.172,0.244c0.127,0.054,0.123,0.124,0.002,0.194c-0.038,0.023-0.073,0.05-0.108,0.074
		c-0.274,0.028-0.545,0.074-0.82,0.079c-0.274,0.044-0.553,0.046-0.827,0.087c-0.621,0.074-1.242,0.138-1.864,0.188
		c-0.056,0.006-0.111,0.017-0.168,0.018c-0.003,0-0.009,0.007-0.009,0.011s0.004,0.008,0.007,0.013
		c-0.059,0.014-0.115,0.027-0.192,0.046c0.366,0.23,0.627,0.524,0.722,0.941c-0.01,0.021-0.017,0.043-0.01,0.064
		c0.066,0.253,0.018,0.502-0.023,0.752c-0.203,0.628-0.811,1.036-1.521,1.025c-0.667-0.012-1.26-0.463-1.438-1.096
		c-0.054-0.297-0.028-0.592,0.033-0.884c0.069-0.245,0.226-0.432,0.42-0.62c-0.086,0-0.154,0-0.222,0
		c-0.17-0.031-0.34-0.009-0.506,0.012c-0.405,0.047-0.811,0.086-1.216,0.131c-0.23,0.025-0.458,0.073-0.691,0.064
		c-0.11,0.008-0.218,0.039-0.327,0.052c-0.468,0.042-0.936,0.073-1.401,0.135c-0.196,0.024-0.394,0.035-0.592,0.052
		c-0.074,0.009-0.156,0.009-0.197,0.077c-0.087,0.154-0.226,0.265-0.325,0.408c-0.114,0.124-0.218,0.259-0.377,0.332
		c-0.063-0.011-0.104,0.033-0.151,0.063c-0.451,0.279-0.944,0.446-1.477,0.449c-0.501,0.002-0.972-0.132-1.406-0.393
		c-0.075-0.045-0.147-0.108-0.244-0.109c-0.178-0.126-0.348-0.261-0.482-0.435c-0.064-0.126-0.164-0.226-0.247-0.338
		c-0.044-0.061-0.122-0.049-0.188-0.052c-0.275-0.017-0.549-0.052-0.824-0.085c-0.255-0.045-0.515-0.045-0.771-0.071
		c-0.084-0.008-0.169-0.006-0.248-0.042c-0.105-0.114-0.223-0.114-0.35-0.041c-0.033-0.001-0.065,0-0.099-0.005
		c-0.069-0.102-0.158-0.033-0.24-0.027c-0.411-0.011-0.817-0.084-1.226-0.114c-0.276-0.021-0.547-0.056-0.818-0.106
		c-0.086-0.003-0.171-0.022-0.258-0.007c-0.036,0.008-0.083-0.03-0.107,0.026c0.021,0.031,0.041,0.063,0.062,0.093
		c0.091,0.129,0.192,0.251,0.268,0.391c0.118,0.214,0.154,0.448,0.153,0.689c0,0.062-0.013,0.125,0.012,0.186
		c-0.105,0.678-0.683,1.204-1.387,1.262c-0.725,0.06-1.399-0.368-1.609-1.022c-0.089-0.345-0.063-0.685,0.036-1.022
		c0.118-0.324,0.358-0.544,0.651-0.735c-0.075-0.019-0.132-0.031-0.19-0.045c-0.115-0.072-0.246-0.035-0.369-0.055
		c-0.182-0.029-0.366-0.038-0.55-0.054c-0.156-0.017-0.312-0.03-0.466-0.055c-0.452-0.033-0.9-0.103-1.353-0.132
		c-0.038-0.003-0.079-0.008-0.116,0.012c-0.063,0.006-0.125,0.005-0.185-0.023c-0.116-0.088-0.253-0.028-0.379-0.054
		c-0.234-0.045-0.475-0.046-0.712-0.073c-0.097-0.025-0.094-0.093-0.08-0.172c0.005-0.027,0.056-0.068,0.019-0.071
		c-0.093-0.008-0.009,0.054-0.015,0.083c-0.019,0.082-0.044,0.138-0.136,0.143c-0.261-0.036-0.523-0.067-0.786-0.1
		c-0.052-0.006-0.103,0.002-0.148,0.026c-0.153-0.019-0.308-0.014-0.458-0.055c-0.175-0.041-0.352-0.071-0.533-0.047
		c-0.353-0.013-0.6-0.183-0.742-0.502c-0.089-0.201-0.168-0.407-0.257-0.609c-0.051-0.119-0.007-0.145,0.104-0.126
		c0.139,0.024,0.235,0.106,0.307,0.222c0.126,0.203,0.265,0.396,0.485,0.509c0.088,0.074,0.195,0.082,0.302,0.086
		c0.383,0.012,0.765,0.053,1.148,0.034c0.034-0.002,0.066,0.014,0.101,0.01c0.053-0.014,0.091,0.006,0.101,0.059
		c0.01,0.057,0.039,0.106,0.042,0.165c0.001,0.034-0.004,0.088,0.059,0.083c0.035-0.002,0.071-0.011,0.077-0.052
		c0.007-0.049-0.038-0.065-0.07-0.086c-0.023-0.015-0.063-0.01-0.074-0.036c-0.025-0.055-0.094-0.131,0.045-0.13
		C14.749,26.442,14.944,26.495,15.14,26.457z"/>
	<path fill-rule="evenodd" clip-rule="evenodd" fill="#01002F" d="M42.614,26.448c0.161-0.037,0.325-0.029,0.486-0.026
		c0.289,0.036,0.575-0.007,0.862-0.013c0.134-0.004,0.271,0.005,0.405-0.012c0.07-0.009,0.146-0.023,0.198-0.082
		c0.221-0.114,0.359-0.305,0.484-0.509c0.075-0.122,0.18-0.204,0.323-0.225c0.087-0.012,0.137,0.012,0.093,0.113
		c-0.104,0.238-0.192,0.484-0.311,0.715c-0.142,0.274-0.386,0.402-0.693,0.413c-0.249-0.028-0.493,0.04-0.741,0.049
		c-0.039,0.002-0.079,0.006-0.119,0.009c-0.222,0.002-0.439,0.052-0.661,0.066c-0.072,0.005-0.144,0.027-0.213-0.013
		c-0.007-0.135-0.146-0.247-0.078-0.399c-0.003,0-0.001-0.016-0.003-0.016C42.635,26.495,42.617,26.475,42.614,26.448z"/>
	<path fill-rule="evenodd" clip-rule="evenodd" fill="#01002F" d="M21.525,27.579c0.201,0.038,0.4,0.106,0.601,0.107
		c0.335,0.002,0.66,0.078,0.991,0.099c0.175,0.011,0.348,0.044,0.525,0.033c0.073-0.019,0.144-0.025,0.205,0.033
		c0.034,0,0.068,0,0.102,0c0.117-0.015,0.235-0.049,0.342,0.034c0.22,0.084,0.453,0.064,0.68,0.079
		c0.119,0.008,0.233,0.011,0.344,0.058c-0.063,0.043-0.14-0.005-0.205,0.029c-0.274-0.023-0.549-0.045-0.823-0.072
		c-0.281-0.027-0.561-0.063-0.842-0.092c-0.419-0.044-0.839-0.088-1.258-0.13c-0.275-0.028-0.55-0.052-0.826-0.073
		c-0.057-0.005-0.112-0.01-0.165-0.031c-0.032-0.098,0.064-0.044,0.09-0.074C21.366,27.55,21.446,27.617,21.525,27.579z"/>
	<path fill-rule="evenodd" clip-rule="evenodd" fill="#01002F" d="M27.053,28.95c0.066-0.043,0.119,0.003,0.173,0.028
		c0.232,0.11,0.458,0.221,0.71,0.298c0.296,0.091,0.583,0.167,0.884,0.141c0.401-0.035,0.791-0.128,1.145-0.337
		c0.112-0.065,0.218-0.164,0.365-0.141c-0.425,0.301-0.89,0.486-1.413,0.526C28.234,29.518,27.611,29.352,27.053,28.95z"/>
	<path fill-rule="evenodd" clip-rule="evenodd" fill="#01002F" d="M35.555,25.088c0.121-0.027,0.24-0.052,0.361-0.079
		c-0.753-0.005-1.493,0.122-2.239,0.181c-0.021-0.021-0.019-0.042,0-0.063c0.586-0.06,1.173-0.113,1.757-0.183
		c0.224-0.026,0.442-0.065,0.667-0.063c0.039,0,0.095-0.023,0.103,0.051c0.006,0.065-0.017,0.112-0.085,0.123
		c-0.16,0.026-0.318,0.077-0.482,0.069C35.598,25.135,35.554,25.156,35.555,25.088z"/>
	<path fill-rule="evenodd" clip-rule="evenodd" fill="#01002F" d="M29.038,23.102c-0.054,0.009-0.052-0.025-0.053-0.062
		c-0.017-0.5-0.033-0.998-0.054-1.496c-0.031-0.788-0.066-1.577-0.1-2.363c0.009-0.017,0.019-0.017,0.028,0
		c0.067,0.254,0.021,0.518,0.045,0.774c0.049,0.515,0.055,1.03,0.076,1.544C29.003,22.033,29.018,22.568,29.038,23.102z"/>
	<path fill-rule="evenodd" clip-rule="evenodd" fill="#01002F" d="M31.947,25.74c-0.01-0.013-0.082-0.006-0.026-0.036
		c0.074-0.04,0.162-0.061,0.246-0.07c0.422-0.043,0.835-0.151,1.254-0.208c0.381-0.053,0.759-0.129,1.14-0.172
		c0.14-0.016,0.269-0.091,0.415-0.065c0.008,0.018,0.034,0.018,0.04,0.038c-0.238,0.085-0.491,0.091-0.738,0.133
		c-0.58,0.104-1.162,0.198-1.745,0.293C32.337,25.684,32.142,25.711,31.947,25.74z"/>
	<path fill-rule="evenodd" clip-rule="evenodd" fill="#01002F" d="M23.062,26.828c-0.928-0.045-1.856-0.091-2.784-0.131
		c-0.255-0.011-0.511-0.004-0.767-0.005c-0.063,0.01-0.127,0.024-0.137-0.07c0.396,0.002,0.79,0.013,1.184,0.064
		c0.145,0.019,0.294-0.011,0.441-0.002c0.372,0.022,0.746,0.012,1.115,0.048c0.317,0.031,0.633-0.006,0.947,0.032
		C23.082,26.786,23.083,26.806,23.062,26.828z"/>
	<path fill-rule="evenodd" clip-rule="evenodd" fill="#01002F" d="M30.708,28.607c0.161-0.221,0.245-0.51,0.604-0.529
		c0.643-0.035,1.279-0.137,1.922-0.159c0.035-0.016,0.039,0.002,0.034,0.03c-0.687,0.07-1.374,0.142-2.063,0.209
		c-0.074,0.009-0.121,0.034-0.168,0.094C30.938,28.379,30.854,28.523,30.708,28.607z"/>
	<path fill-rule="evenodd" clip-rule="evenodd" fill="#01002F" d="M24.596,25.258c-0.4-0.036-0.8-0.079-1.201-0.104
		c-0.362-0.022-0.716-0.104-1.08-0.117c-0.162-0.006-0.322-0.052-0.487-0.063c-0.103-0.006-0.202-0.007-0.303,0.01
		c-0.021-0.025-0.019-0.049,0.001-0.073c0.555,0.018,1.103,0.105,1.655,0.155c0.456,0.042,0.911,0.103,1.366,0.154
		c0.033,0.004,0.07-0.003,0.088,0.036C24.623,25.273,24.61,25.274,24.596,25.258z"/>
	<path fill-rule="evenodd" clip-rule="evenodd" fill="#01002F" d="M33.541,27.851c0.494-0.011,0.978-0.126,1.467-0.148
		c0.316-0.015,0.635-0.155,0.956-0.026c-0.785,0.08-1.569,0.158-2.354,0.237C33.589,27.891,33.52,27.918,33.541,27.851z"/>
	<path fill-rule="evenodd" clip-rule="evenodd" fill="#01002F" d="M21.527,24.911c0,0.025-0.001,0.049-0.001,0.073
		c-0.088-0.012-0.176-0.025-0.305-0.042c0.136,0.108,0.264,0.086,0.378,0.108c0.43,0.085,0.873,0.101,1.292,0.241
		c0.024,0.01,0.024,0.021,0,0.031c-0.32-0.048-0.641-0.093-0.96-0.145c-0.226-0.037-0.451-0.082-0.677-0.119
		c-0.077-0.012-0.111-0.049-0.102-0.125c0.009-0.083,0.073-0.05,0.118-0.054C21.357,24.875,21.448,24.845,21.527,24.911z"/>
	<path fill-rule="evenodd" clip-rule="evenodd" fill="#01002F" d="M28.495,19.25c0.077,0.002,0.035,0.056,0.034,0.086
		c-0.024,0.813-0.049,1.626-0.075,2.439c-0.02,0.021-0.041,0.021-0.061,0c-0.028-0.288,0.029-0.573,0.033-0.862
		C28.435,20.357,28.47,19.803,28.495,19.25z"/>
	<path fill-rule="evenodd" clip-rule="evenodd" fill="#01002F" d="M38.195,27.447c-0.033-0.003-0.067-0.007-0.102-0.011
		c0-0.011-0.002-0.02-0.002-0.03c0.714-0.068,1.427-0.136,2.141-0.205c0.05-0.013,0.105-0.05,0.136,0.031
		C39.644,27.316,38.921,27.391,38.195,27.447z"/>
	<path fill-rule="evenodd" clip-rule="evenodd" fill="#01002F" d="M32.62,26.862c-0.131,0.062-0.269,0.027-0.401,0.033
		c-0.183,0.008-0.362,0.014-0.543,0.01c-0.092-0.003-0.132-0.024-0.102-0.158c0.062-0.268,0.065-0.55,0.017-0.827
		c-0.006-0.035-0.059-0.108,0.045-0.11c0.05,0.299,0.052,0.598,0.004,0.895c-0.02,0.135,0.016,0.17,0.143,0.157
		c0.245-0.027,0.491,0.025,0.737-0.028C32.549,26.858,32.594,26.829,32.62,26.862z"/>
	<path fill-rule="evenodd" clip-rule="evenodd" fill="#01002F" d="M36.343,26.726c-0.021,0.008-0.043,0.023-0.064,0.023
		c-0.465-0.015-0.926,0.072-1.392,0.045c-0.201-0.012-0.395,0.046-0.595,0.033c-0.021-0.021-0.02-0.042,0-0.063
		c0.175-0.002,0.349,0,0.523-0.007c0.418-0.019,0.835-0.04,1.253-0.062C36.156,26.731,36.255,26.681,36.343,26.726z"/>
	<path fill-rule="evenodd" clip-rule="evenodd" fill="#01002F" d="M39.481,26.557c0.022,0.087,0.043,0.171-0.098,0.169
		c-0.037,0-0.113-0.015-0.104,0.045c0.012,0.072,0.076,0.039,0.122,0.019c0.021-0.008,0.04-0.012,0.08-0.024
		c-0.026,0.088-0.081,0.109-0.143,0.108c-0.08-0.002-0.155-0.049-0.163-0.123c-0.012-0.124-0.085-0.132-0.177-0.132
		C39.148,26.506,39.32,26.578,39.481,26.557z"/>
	<path fill-rule="evenodd" clip-rule="evenodd" fill="#01002F" d="M26.127,24.669c0.029,0.017,0.056,0.037,0.085,0.051
		c0.109,0.053,0.161,0.136,0.092,0.245c-0.067,0.107-0.164,0.104-0.26,0.026c-0.018-0.014-0.034-0.03-0.051-0.045
		C26.028,24.849,26.06,24.752,26.127,24.669z"/>
	<path fill-rule="evenodd" clip-rule="evenodd" fill="#01002F" d="M25.11,28.052c0.065-0.037,0.136-0.028,0.205-0.029
		c0.286,0.024,0.572,0.045,0.857,0.075c0.191,0.021,0.357,0.201,0.399,0.418c-0.027-0.028-0.064-0.052-0.082-0.085
		c-0.119-0.238-0.327-0.29-0.57-0.302C25.649,28.116,25.38,28.078,25.11,28.052z"/>
	<path fill-rule="evenodd" clip-rule="evenodd" fill="#01002F" d="M16.337,27.165c0.2-0.078,0.403-0.015,0.601-0.004
		c0.291,0.019,0.579,0.071,0.867,0.109c-0.039,0.039-0.095,0.001-0.136,0.029C17.225,27.255,16.781,27.21,16.337,27.165z"/>
	<path fill-rule="evenodd" clip-rule="evenodd" fill="#01002F" d="M22.891,25.322c0-0.01,0-0.021,0-0.031
		c0.442,0.039,0.879,0.11,1.313,0.203c0.009,0.002,0.016,0.012,0.025,0.018c-0.007,0.007-0.013,0.017-0.019,0.025
		C23.768,25.479,23.327,25.415,22.891,25.322z"/>
	<path fill-rule="evenodd" clip-rule="evenodd" fill="#01002F" d="M23.062,26.828c0-0.021,0-0.042,0-0.063
		c0.374,0.062,0.757-0.026,1.128,0.069c0.016,0.004,0.027,0.013,0.032,0.029c-0.137,0.069-0.278,0-0.418,0.002
		C23.557,26.868,23.306,26.894,23.062,26.828z"/>
	<path fill-rule="evenodd" clip-rule="evenodd" fill="#01002F" d="M42.722,26.895c0.217,0.046,0.429-0.002,0.641-0.034
		c0.071-0.012,0.143-0.047,0.215-0.001c-0.005,0.025-0.016,0.047-0.034,0.064c-0.376,0.035-0.752,0.068-1.128,0.104
		c-0.022-0.022-0.078,0.002-0.077-0.054c0.033-0.075,0.104-0.069,0.167-0.069c0.053,0,0.1-0.008,0.143-0.036
		C42.678,26.866,42.703,26.873,42.722,26.895z"/>
	<path fill-rule="evenodd" clip-rule="evenodd" fill="#01002F" d="M14.531,26.455c-0.041,0.063-0.011,0.082,0.049,0.074
		c0.095-0.012,0.169,0.017,0.205,0.11c0.025,0.062,0.019,0.124-0.03,0.173c-0.078,0.08-0.18,0.052-0.273,0.046
		c-0.076-0.006-0.036-0.065-0.035-0.106c0.003-0.103,0.043-0.214-0.055-0.301c-0.008-0.005-0.011-0.012-0.009-0.018
		c0.002-0.007,0.004-0.011,0.006-0.011c0.152-0.008,0.304-0.016,0.453,0.024C14.739,26.487,14.635,26.473,14.531,26.455z"/>
	<path fill-rule="evenodd" clip-rule="evenodd" fill="#01002F" d="M34.292,26.764c0,0.021,0,0.042,0,0.063
		c-0.233,0.048-0.472,0.025-0.707,0.027c-0.15,0.003-0.302,0.081-0.454,0.007c0.017-0.026,0.05-0.013,0.068-0.029
		C33.559,26.743,33.93,26.818,34.292,26.764z"/>
	<path fill-rule="evenodd" clip-rule="evenodd" fill="#01002F" d="M33.677,25.127c0,0.021,0,0.042,0,0.063
		c-0.391,0.017-0.777,0.077-1.166,0.121c-0.113,0.013-0.226,0.035-0.334-0.015c0.474-0.052,0.943-0.133,1.421-0.144
		C33.626,25.152,33.652,25.135,33.677,25.127z"/>
	<path fill-rule="evenodd" clip-rule="evenodd" fill="#01002F" d="M28.393,21.775c0.021,0,0.041,0,0.061,0
		c-0.036,0.384-0.031,0.77-0.039,1.154c-0.001,0.047,0.038,0.13-0.061,0.145C28.338,22.638,28.387,22.209,28.393,21.775z"/>
	<path fill-rule="evenodd" clip-rule="evenodd" fill="#01002F" d="M42.349,26.997c0.022,0.011,0.044,0.021,0.066,0.031
		c-0.411,0.045-0.821,0.089-1.231,0.137c-0.039,0.005-0.063-0.016-0.095-0.028c-0.038,0.016-0.045-0.003-0.038-0.036
		c0.277,0.004,0.549-0.042,0.818-0.098c0.04-0.051,0.1-0.031,0.148-0.047C42.132,26.949,42.253,26.875,42.349,26.997z"/>
	<path fill-rule="evenodd" clip-rule="evenodd" fill="#01002F" d="M15.661,26.48c-0.191,0.022-0.263,0.092-0.222,0.212
		c0.022,0.064,0.068,0.104,0.134,0.118c0.048,0.009,0.095-0.004,0.116-0.049c0.032-0.07-0.056-0.051-0.075-0.089
		c0.046-0.033,0.096-0.018,0.142-0.008c0.046,0.009,0.061,0.047,0.063,0.09c0.001,0.041-0.005,0.079-0.056,0.089
		c-0.104,0.021-0.208,0.063-0.308-0.014c-0.095-0.074-0.106-0.168-0.072-0.273c0.011-0.034,0.014-0.067-0.004-0.099
		C15.474,26.454,15.569,26.452,15.661,26.48z"/>
	<path fill-rule="evenodd" clip-rule="evenodd" fill="#01002F" d="M15.029,26.991c0.401,0.033,0.803,0.066,1.205,0.102
		c0,0.012-0.001,0.022-0.001,0.035c-0.027,0.004-0.054,0.009-0.08,0.014c-0.417-0.038-0.833-0.077-1.249-0.117
		c-0.009-0.017-0.007-0.032,0.008-0.046C14.953,26.953,14.993,26.956,15.029,26.991z"/>
	<path fill-rule="evenodd" clip-rule="evenodd" fill="#01002F" d="M44.566,26.315c0.012,0.094-0.071,0.082-0.115,0.086
		c-0.428,0.034-0.855,0.074-1.286,0.044c-0.021-0.001-0.042-0.015-0.064-0.023c0.318-0.013,0.636-0.031,0.952-0.039
		C44.228,26.38,44.4,26.376,44.566,26.315z"/>
	<path fill-rule="evenodd" clip-rule="evenodd" fill="#01002F" d="M42.86,26.486c-0.022,0.012-0.047,0.023-0.07,0.035
		c-0.045,0.05-0.109,0.027-0.164,0.047c-0.059,0.007-0.113,0.022-0.167,0.043c-0.058,0.003-0.115-0.002-0.171,0.007
		c-0.047-0.004-0.088-0.026-0.134-0.027c-0.121,0.001-0.242-0.001-0.358-0.037c-0.034-0.01-0.068-0.02-0.103-0.03
		c-0.104,0.118-0.224,0.046-0.34,0.03c-0.042,0.011-0.084,0.023-0.126,0.034c-0.053-0.018-0.074-0.046-0.037-0.098
		c0.352-0.031,0.705,0.022,1.058-0.033C42.451,26.495,42.658,26.441,42.86,26.486z"/>
	<path fill-rule="evenodd" clip-rule="evenodd" fill="#01002F" d="M21.691,29.011c-0.05-0.096-0.029-0.2-0.037-0.301
		c-0.026-0.333-0.155-0.621-0.367-0.875c-0.022-0.026-0.046-0.052-0.029-0.09C21.627,28.091,21.757,28.517,21.691,29.011z"/>
	<path fill-rule="evenodd" clip-rule="evenodd" fill="#01002F" d="M18.83,26.592c-0.003,0.079,0.003,0.16-0.01,0.238
		c-0.027,0.16-0.159,0.203-0.293,0.098c0.065-0.028,0.149,0.043,0.212-0.059c-0.088,0-0.174,0.016-0.233-0.055
		c-0.061-0.073-0.038-0.149-0.018-0.226c0.022,0.002,0.045,0.003,0.068,0.004c0.057,0.091,0.113,0.092,0.169,0
		C18.76,26.592,18.795,26.592,18.83,26.592z"/>
	<path fill-rule="evenodd" clip-rule="evenodd" fill="#01002F" d="M17.021,26.527c-0.06,0.133-0.148,0.253-0.158,0.406
		c-0.003,0.044-0.031,0.058-0.069,0.053c-0.024-0.002-0.05-0.021-0.041-0.043c0.073-0.17-0.06-0.288-0.108-0.426
		c0.045,0.002,0.09,0.004,0.135,0.006c0.033,0.038,0.066,0.039,0.1,0.002C16.928,26.525,16.975,26.525,17.021,26.527z"/>
	<path fill-rule="evenodd" clip-rule="evenodd" fill="#01002F" d="M41.19,26.49c0.013,0.032,0.024,0.064,0.037,0.098
		c0.007,0.072,0.013,0.145,0.022,0.216c0.004,0.036-0.011,0.056-0.045,0.056c-0.036,0-0.049-0.022-0.041-0.057
		c0.004-0.016,0.011-0.032,0.012-0.049c0.007-0.062,0.015-0.143-0.066-0.146c-0.098-0.006-0.083,0.083-0.087,0.149
		c-0.002,0.035,0.056,0.101-0.031,0.098c-0.067-0.002-0.043-0.067-0.042-0.108c0.001-0.077-0.001-0.149-0.103-0.162
		c-0.039-0.057-0.006-0.076,0.046-0.081c0.042-0.005,0.087,0.025,0.126-0.012C41.075,26.491,41.133,26.49,41.19,26.49z"/>
	<path fill-rule="evenodd" clip-rule="evenodd" fill="#01002F" d="M16.611,26.513c-0.043,0.105-0.03,0.218-0.044,0.345
		c-0.082-0.062-0.052-0.136-0.065-0.196c-0.009-0.044-0.021-0.104-0.067-0.104c-0.054-0.001-0.051,0.062-0.061,0.104
		c-0.013,0.059,0.023,0.122-0.032,0.194c-0.052-0.126-0.054-0.243-0.043-0.36C16.404,26.482,16.508,26.487,16.611,26.513z"/>
	<path fill-rule="evenodd" clip-rule="evenodd" fill="#01002F" d="M40.303,26.528c-0.063,0.132-0.149,0.253-0.159,0.406
		c-0.003,0.045-0.033,0.058-0.071,0.052c-0.032-0.007-0.047-0.028-0.033-0.062c0.056-0.142-0.049-0.249-0.08-0.37
		C40.071,26.509,40.187,26.518,40.303,26.528z"/>
	<path fill-rule="evenodd" clip-rule="evenodd" fill="#01002F" d="M14.388,26.423c0.001,0.009,0.002,0.019,0.003,0.029
		c-0.475,0.019-0.947-0.014-1.419-0.043c-0.059-0.004-0.125-0.014-0.168-0.066c-0.002-0.003,0.001-0.01,0.004-0.016
		c0.002-0.004,0.007-0.006,0.012-0.011c0.455,0.105,0.919,0.09,1.381,0.102C14.264,26.419,14.326,26.421,14.388,26.423z"/>
	<path fill-rule="evenodd" clip-rule="evenodd" fill="#01002F" d="M30.229,23.554c-0.1,0.05-0.161-0.032-0.23-0.07
		c-0.219-0.122-0.464-0.175-0.691-0.275c-0.005-0.002-0.01-0.01-0.009-0.011c0.004-0.01,0.01-0.018,0.016-0.027
		C29.649,23.227,29.95,23.367,30.229,23.554z"/>
	<path fill-rule="evenodd" clip-rule="evenodd" fill="#01002F" d="M19.236,26.618c-0.002,0.082-0.051,0.104-0.123,0.108
		c-0.039,0.002-0.115-0.021-0.104,0.045c0.011,0.063,0.077,0.048,0.128,0.027c0.019-0.007,0.038-0.03,0.067,0.001
		c-0.047,0.068-0.109,0.093-0.188,0.065c-0.071-0.025-0.111-0.077-0.117-0.154c-0.003-0.039-0.002-0.079-0.004-0.119
		C19.01,26.585,19.124,26.586,19.236,26.618z"/>
	<path fill-rule="evenodd" clip-rule="evenodd" fill="#01002F" d="M14.903,26.998c0,0.009,0,0.018,0,0.026
		c-0.33-0.033-0.659-0.067-0.989-0.101c0.132-0.117,0.283-0.028,0.423-0.03c0.181-0.002,0.354,0.081,0.539,0.069
		C14.905,26.958,14.914,26.969,14.903,26.998z"/>
	<path fill-rule="evenodd" clip-rule="evenodd" fill="#01002F" d="M36.343,26.726c-0.092-0.006-0.188,0.015-0.274-0.031
		c0.429-0.014,0.856-0.031,1.284-0.045c0.09,0.004,0.181,0.009,0.27,0.012c0,0.008,0.001,0.017,0.001,0.024
		C37.195,26.7,36.768,26.714,36.343,26.726z"/>
	<path fill-rule="evenodd" clip-rule="evenodd" fill="#01002F" d="M18.316,27.305c0.327,0.049,0.661,0.041,1.03,0.123
		c-0.081,0.01-0.117,0.015-0.154,0.02c-0.294,0.006-0.583-0.061-0.875-0.079C18.296,27.346,18.296,27.326,18.316,27.305z"/>
	<path fill-rule="evenodd" clip-rule="evenodd" fill="#01002F" d="M38.698,26.594c0.009,0.102,0.043,0.188,0.154,0.215
		c0.049,0.013,0.096-0.002,0.117-0.047c0.033-0.07-0.052-0.054-0.072-0.089c0.045-0.034,0.094-0.019,0.141-0.009
		c0.046,0.009,0.062,0.047,0.063,0.09c0.002,0.034,0,0.076-0.039,0.084c-0.104,0.021-0.209,0.074-0.313,0.005
		c-0.09-0.061-0.122-0.145-0.09-0.25C38.673,26.593,38.684,26.593,38.698,26.594z"/>
	<path fill-rule="evenodd" clip-rule="evenodd" fill="#01002F" d="M18.384,26.588c0,0.021-0.002,0.044,0.001,0.066
		c0.017,0.131,0.007,0.231-0.173,0.212c-0.159-0.017-0.199-0.1-0.176-0.239c0.004-0.023,0.004-0.045,0.005-0.068
		c0.073-0.004,0.146-0.006,0.216,0.021c-0.003,0.011-0.006,0.029-0.004,0.03c0.021,0.005,0.019-0.019,0.03-0.027
		C18.317,26.585,18.35,26.586,18.384,26.588z"/>
	<path fill-rule="evenodd" clip-rule="evenodd" fill="#01002F" d="M18.731,28.228c0.031,0.024,0.039,0.053,0.024,0.09
		c-0.112,0.267-0.121,0.539-0.049,0.817c0.01,0.039,0.011,0.077-0.011,0.115C18.574,28.905,18.586,28.564,18.731,28.228z"/>
	<path fill-rule="evenodd" clip-rule="evenodd" fill="#01002F" d="M41.052,27.1c0.013,0.013,0.025,0.025,0.038,0.036
		c-0.233,0.086-0.479,0.07-0.722,0.096c-0.046-0.011-0.091-0.02-0.136-0.031c0.145-0.086,0.311-0.027,0.466-0.063
		C40.812,27.113,40.932,27.112,41.052,27.1z"/>
	<path fill-rule="evenodd" clip-rule="evenodd" fill="#01002F" d="M35.765,28.297c0.033,0.054,0.018,0.109,0.006,0.165
		c-0.046,0.194-0.066,0.39-0.021,0.589c0.011,0.045,0.005,0.089-0.019,0.13C35.648,28.883,35.648,28.587,35.765,28.297z"/>
	<path fill-rule="evenodd" clip-rule="evenodd" fill="#01002F" d="M18.725,26.592c0.034,0.071,0.048,0.141-0.022,0.198
		c-0.04,0.032-0.083,0.032-0.123,0c-0.069-0.057-0.056-0.127-0.024-0.198C18.613,26.592,18.669,26.592,18.725,26.592z"/>
	<path fill-rule="evenodd" clip-rule="evenodd" fill="#01002F" d="M18.283,26.584c0.009,0.028,0.021,0.053,0.024,0.081
		c0.009,0.078-0.021,0.137-0.103,0.147c-0.059,0.007-0.099-0.031-0.109-0.085c-0.014-0.073,0.021-0.119,0.095-0.134
		c0.022-0.004,0.044-0.007,0.066-0.011C18.266,26.58,18.275,26.58,18.283,26.584z"/>
	<path fill-rule="evenodd" clip-rule="evenodd" fill="#01002F" d="M43.544,26.925c0.012-0.021,0.022-0.043,0.034-0.064
		c0.224-0.022,0.447-0.046,0.672-0.065c0.07-0.007,0.146-0.009,0.213,0.027C44.156,26.856,43.85,26.89,43.544,26.925z"/>
	<path fill-rule="evenodd" clip-rule="evenodd" fill="#01002F" d="M41.018,26.491c-0.031,0.079-0.146,0.004-0.172,0.093
		c-0.037,0.056-0.037,0.118-0.034,0.182c0.003,0.038,0.015,0.089-0.045,0.09c-0.074,0.002-0.033-0.054-0.029-0.087
		c0.014-0.086-0.007-0.168-0.028-0.251C40.809,26.484,40.914,26.489,41.018,26.491z"/>
	<path fill-rule="evenodd" clip-rule="evenodd" fill="#01002F" d="M19.375,26.622c0.035,0.043,0.091,0.047,0.137,0.07
		c0.028,0.061,0.04,0.121-0.029,0.163c-0.073,0.046-0.135,0.02-0.2-0.028c0.048-0.091,0.113,0.027,0.159-0.047
		c-0.005-0.074-0.139-0.063-0.136-0.155C19.329,26.624,19.352,26.624,19.375,26.622z"/>
	<path fill-rule="evenodd" clip-rule="evenodd" fill="#01002F" d="M35.015,25.226c-0.021-0.005-0.038-0.012-0.04-0.038
		c0.067-0.07,0.153-0.038,0.233-0.046c0.117-0.011,0.231-0.036,0.347-0.054c0.026,0.011,0.054,0.024,0.081,0.038
		C35.433,25.189,35.224,25.204,35.015,25.226z"/>
	<path fill-rule="evenodd" clip-rule="evenodd" fill="#01002F" d="M17.43,26.552c-0.129-0.007-0.104,0.083-0.107,0.162
		c-0.002,0.049,0.044,0.138-0.041,0.138c-0.109,0.001-0.032-0.086-0.028-0.126c0.01-0.108-0.023-0.176-0.133-0.2
		c0.022-0.004,0.044-0.008,0.066-0.013c0.06-0.056,0.118-0.057,0.175,0.004c0.021,0.002,0.042,0.005,0.064,0.008l0.011,0.011
		L17.43,26.552z"/>
	<path fill-rule="evenodd" clip-rule="evenodd" fill="#01002F" d="M38.691,29.251c-0.025-0.043-0.017-0.088-0.006-0.133
		c0.041-0.172,0.061-0.345,0.017-0.52c-0.014-0.056-0.006-0.113,0.022-0.164C38.782,28.709,38.8,28.983,38.691,29.251z"/>
	<path fill-rule="evenodd" clip-rule="evenodd" fill="#01002F" d="M18.316,27.305c0,0.022,0,0.041,0,0.063
		c-0.216-0.024-0.432-0.046-0.647-0.069c0.045-0.01,0.09-0.02,0.136-0.029C17.976,27.282,18.146,27.295,18.316,27.305z"/>
	<path fill-rule="evenodd" clip-rule="evenodd" fill="#01002F" d="M12.924,26.822c0.205-0.081,0.405,0.021,0.61,0.03
		c-0.026,0.006-0.051,0.012-0.077,0.017C13.28,26.852,13.101,26.838,12.924,26.822z"/>
	<path fill-rule="evenodd" clip-rule="evenodd" fill="#01002F" d="M25.755,26.86c-0.229,0.087-0.466,0.003-0.7,0.014
		c0.079-0.006,0.156-0.012,0.235-0.019C25.446,26.858,25.6,26.86,25.755,26.86z"/>
	<path fill-rule="evenodd" clip-rule="evenodd" fill="#01002F" d="M40.576,26.525c0.037,0.078,0.027,0.165,0.034,0.247
		c0.002,0.04,0.005,0.086-0.051,0.086c-0.066,0-0.041-0.046-0.037-0.084c0.009-0.083,0.011-0.166,0.016-0.25
		C40.551,26.524,40.563,26.525,40.576,26.525z"/>
	<path fill-rule="evenodd" clip-rule="evenodd" fill="#01002F" d="M24.596,25.258c0.013-0.001,0.026-0.001,0.039-0.002
		c0.193-0.015,0.384,0.008,0.576,0.04C25.001,25.364,24.799,25.299,24.596,25.258z"/>
	<path fill-rule="evenodd" clip-rule="evenodd" fill="#01002F" d="M39.889,26.552c-0.054,0.087-0.02,0.189-0.042,0.298
		c-0.108-0.084-0.029-0.213-0.093-0.292C39.8,26.556,39.844,26.554,39.889,26.552z"/>
	<path fill-rule="evenodd" clip-rule="evenodd" fill="#01002F" d="M39.686,26.556c-0.054,0.086-0.024,0.187-0.036,0.3
		c-0.111-0.09-0.033-0.219-0.102-0.298C39.594,26.558,39.639,26.558,39.686,26.556z"/>
	<path fill-rule="evenodd" clip-rule="evenodd" fill="#01002F" d="M33.199,26.833c-0.022,0.01-0.044,0.019-0.068,0.029
		c-0.17,0-0.34,0-0.511,0c-0.033-0.01-0.067-0.019-0.101-0.028C32.747,26.818,32.972,26.818,33.199,26.833z"/>
	<path fill-rule="evenodd" clip-rule="evenodd" fill="#01002F" d="M24.222,26.862c-0.011-0.01-0.021-0.019-0.032-0.029
		c0.226-0.02,0.453-0.013,0.68,0C24.656,26.895,24.437,26.846,24.222,26.862z"/>
	<path fill-rule="evenodd" clip-rule="evenodd" fill="#01002F" d="M42.86,26.486c-0.203-0.013-0.41,0.033-0.612-0.028
		c0.122-0.003,0.244-0.006,0.366-0.009C42.694,26.475,42.786,26.425,42.86,26.486z"/>
	<path fill-rule="evenodd" clip-rule="evenodd" fill="#01002F" d="M16.881,26.524c0.007,0.098,0.007,0.098-0.045,0.196
		c-0.069-0.057-0.051-0.13-0.055-0.198C16.815,26.522,16.848,26.524,16.881,26.524z"/>
	<path fill-rule="evenodd" clip-rule="evenodd" fill="#01002F" d="M14.531,26.455c0.103-0.002,0.206-0.005,0.31-0.008
		c0.1,0.003,0.2,0.007,0.3,0.01C14.937,26.504,14.734,26.506,14.531,26.455z"/>
	<path fill-rule="evenodd" clip-rule="evenodd" fill="#01002F" d="M33.541,27.851c0.023,0.021,0.046,0.042,0.068,0.063
		c-0.115,0.004-0.225,0.055-0.342,0.035c-0.012-0.011-0.022-0.021-0.034-0.03C33.332,27.874,33.438,27.873,33.541,27.851z"/>
	<path fill-rule="evenodd" clip-rule="evenodd" fill="#01002F" d="M28.859,19.181c-0.009,0-0.019,0-0.028,0
		c-0.036-0.177-0.159-0.168-0.292-0.139c0.07-0.095,0.164-0.099,0.256-0.05C28.872,19.031,28.891,19.1,28.859,19.181z"/>
	<path fill-rule="evenodd" clip-rule="evenodd" fill="#01002F" d="M25.729,26.01c0.046,0.182,0.046,0.362,0,0.542
		C25.715,26.371,25.716,26.191,25.729,26.01z"/>
	<path fill-rule="evenodd" clip-rule="evenodd" fill="#01002F" d="M19.683,29.88c-0.312-0.137-0.534-0.363-0.681-0.669
		c-0.107-0.191-0.117-0.395-0.068-0.603c0.129-0.501,0.424-0.843,0.942-0.967c0.676-0.161,1.34,0.248,1.495,0.924
		c0.139,0.606-0.287,1.221-0.952,1.373c-0.021,0.006-0.042,0.018-0.062,0.027C20.126,29.998,19.895,30.015,19.683,29.88z"/>
	<path fill-rule="evenodd" clip-rule="evenodd" fill="#01002F" d="M38.385,29.21c-0.153,0.318-0.393,0.547-0.715,0.688
		c-0.304,0.137-0.607,0.129-0.909-0.005c-0.362-0.179-0.635-0.431-0.733-0.841c-0.169-0.692,0.362-1.394,1.078-1.442
		c0.523-0.034,1.157,0.219,1.347,1C38.497,28.819,38.49,29.018,38.385,29.21z"/>
	<path fill-rule="evenodd" clip-rule="evenodd" fill="#01002F" d="M28.453,25.226c0.113,0.01,0.143-0.046,0.138-0.151
		c-0.006-0.21-0.002-0.419-0.002-0.628c0.005-0.005,0.012-0.01,0.018-0.016c0.079,0.014,0.066,0.076,0.069,0.129
		c0.008,0.104-0.014,0.21,0.016,0.311c0-0.004,0.008-0.002,0.008-0.004c0.037-0.138-0.021-0.281,0.036-0.416
		c0.021-0.018,0.042-0.028,0.068-0.009c-0.004,0.222-0.004,0.442-0.011,0.664c-0.004,0.092,0.035,0.116,0.12,0.117
		c0.112,0.002,0.227-0.022,0.336,0.027c-0.101,0.002-0.108,0.031-0.053,0.117c0.151,0.239,0.105,0.504-0.104,0.672
		c-0.197,0.157-0.491,0.148-0.678-0.019c-0.197-0.177-0.224-0.469-0.06-0.677C28.386,25.303,28.42,25.265,28.453,25.226z"/>
	<path fill-rule="evenodd" clip-rule="evenodd" fill="#01002F" d="M30.674,25.393c0.114,0.09,0.151-0.036,0.192-0.084
		c0.133-0.154,0.29-0.18,0.487-0.133c-0.071,0.138-0.204,0.201-0.302,0.296c-0.093,0.091-0.111,0.157-0.007,0.249
		c0.106,0.093,0.203,0.199,0.303,0.3c0.023,0.022,0.057,0.047,0.042,0.085c-0.015,0.039-0.056,0.032-0.088,0.035
		c-0.119,0.009-0.222-0.017-0.309-0.109c-0.087-0.093-0.183-0.178-0.299-0.29c-0.006,0.113-0.013,0.201-0.019,0.289
		c-0.003,0.079-0.049,0.108-0.122,0.107c-0.077,0-0.118-0.036-0.118-0.113c0-0.165,0-0.33-0.001-0.494
		c0.006-0.016,0.014-0.029,0.026-0.04c0.067-0.02,0.106-0.085,0.17-0.113C30.647,25.378,30.66,25.383,30.674,25.393z"/>
	<path fill-rule="evenodd" clip-rule="evenodd" fill="#01002F" d="M29.89,25.358c-0.041,0.019-0.084,0.033-0.123,0.056
		c-0.135,0.078-0.182,0.222-0.117,0.35c0.063,0.124,0.209,0.174,0.35,0.118c0.025-0.01,0.05-0.026,0.075-0.041
		c0.085-0.049,0.145,0.001,0.188,0.06c0.054,0.074-0.017,0.115-0.062,0.153c-0.179,0.149-0.533,0.121-0.706-0.054
		c-0.19-0.192-0.184-0.481,0.018-0.703l-0.004-0.017C29.708,25.194,29.819,25.218,29.89,25.358z"/>
	<path fill-rule="evenodd" clip-rule="evenodd" fill="#01002F" d="M27.226,25.428c0.127,0.135,0.187,0.291,0.101,0.465
		c-0.092,0.186-0.257,0.258-0.462,0.254c-0.128-0.003-0.245-0.04-0.354-0.106c-0.058-0.035-0.124-0.074-0.064-0.158
		c0.05-0.071,0.101-0.122,0.193-0.054c0.044,0.033,0.101,0.057,0.154,0.067c0.117,0.022,0.245,0.022,0.279-0.119
		c0.035-0.143-0.069-0.199-0.195-0.219c0.002-0.117,0.057-0.2,0.167-0.246c0.056-0.006,0.11-0.001,0.152,0.043
		C27.218,25.375,27.226,25.4,27.226,25.428z"/>
	<path fill-rule="evenodd" clip-rule="evenodd" fill="#01002F" d="M28.251,25.216c0.023,0.005,0.045,0.008,0.068,0.013
		c-0.13,0.062-0.224,0.178-0.392,0.191c-0.092,0.006-0.044,0.156-0.052,0.242c-0.013,0.136,0.007,0.25,0.186,0.254
		c0.091,0.002,0.101,0.083,0.103,0.151c0.001,0.083-0.069,0.075-0.124,0.079c-0.259,0.018-0.418-0.123-0.434-0.386
		c-0.005-0.084-0.004-0.17-0.002-0.254c0.002-0.079-0.025-0.131-0.106-0.148c-0.006-0.038,0.011-0.072,0.042-0.084
		C27.77,25.184,28.007,25.151,28.251,25.216z"/>
	<path fill-rule="evenodd" clip-rule="evenodd" fill="#01002F" d="M26.034,25.64c0-0.12,0-0.239,0-0.359
		c0-0.084,0.042-0.123,0.126-0.123c0.088-0.002,0.143,0.027,0.143,0.125c-0.001,0.244-0.001,0.488,0,0.733
		c0,0.085-0.043,0.121-0.126,0.123c-0.088,0.002-0.143-0.028-0.143-0.125C26.034,25.89,26.034,25.765,26.034,25.64z"/>
	<path fill-rule="evenodd" clip-rule="evenodd" fill="#01002F" d="M27.064,24.719c-0.059,0.077-0.118,0.154-0.176,0.23
		c-0.077,0.074-0.153,0.147-0.112,0.269c-0.026,0.135-0.052,0.27-0.015,0.407c-0.051-0.117-0.133-0.206-0.225-0.296
		c-0.171-0.168-0.106-0.433,0.12-0.554c0.114-0.062,0.238-0.07,0.364-0.062C27.036,24.696,27.051,24.697,27.064,24.719z"/>
	<path fill-rule="evenodd" clip-rule="evenodd" fill="#01002F" d="M28.804,24.443c-0.016,0.012-0.032,0.024-0.049,0.038
		c-0.034,0.213,0.017,0.432-0.026,0.645c-0.023,0.009-0.046,0.019-0.07,0.027c-0.035-0.194-0.005-0.389-0.018-0.583
		c-0.003-0.049,0.037-0.117-0.047-0.141c-0.004,0.005-0.005,0.011-0.005,0.018c-0.375,0.017-0.75,0.04-1.116,0.13
		c-0.076,0.064-0.077,0.064-0.111-0.002c0.169-0.201,0.411-0.161,0.632-0.183c0.161-0.017,0.333,0.08,0.48-0.069
		c0.032-0.034,0.083,0.02,0.125,0.029c0.05,0.01,0.102,0.047,0.106-0.058c0.003-0.055,0.076-0.066,0.116-0.01
		c0.032,0.046,0.051,0.101,0.077,0.152C28.868,24.439,28.835,24.441,28.804,24.443z"/>
	<path fill-rule="evenodd" clip-rule="evenodd" fill="#01002F" d="M27.363,24.575c0.036,0.022,0.073,0.014,0.111,0.002
		c-0.03,0.202-0.146,0.376-0.187,0.576c-0.034,0.079-0.069,0.158-0.104,0.237c-0.042-0.01-0.084-0.02-0.127-0.031
		c0.049-0.247,0.2-0.462,0.24-0.718c-0.095-0.016-0.161,0.04-0.233,0.078c-0.015-0.002-0.029-0.003-0.044-0.005
		C27.079,24.532,27.229,24.573,27.363,24.575z"/>
	<path fill-rule="evenodd" clip-rule="evenodd" fill="#01002F" d="M30.148,25.229c-0.028-0.06-0.06-0.119-0.088-0.18
		c-0.046-0.145-0.093-0.29-0.142-0.435c0.234-0.107,0.423-0.038,0.478,0.177c-0.143-0.126-0.146-0.127-0.317-0.153
		c0.077,0.22,0.152,0.435,0.229,0.651C30.256,25.268,30.22,25.199,30.148,25.229z"/>
	<path fill-rule="evenodd" clip-rule="evenodd" fill="#01002F" d="M27.237,26.65c0.076,0.007,0.122,0.006,0.165,0.015
		c0.045,0.01,0.057,0.051,0.058,0.093c0,0.036-0.003,0.072-0.044,0.082c-0.121,0.029-0.246,0.076-0.349-0.037
		c-0.072-0.078-0.089-0.17-0.033-0.266c0.072-0.123,0.188-0.133,0.312-0.113c0.04,0.006,0.087,0.02,0.068,0.074
		c-0.016,0.044-0.055,0.021-0.086,0.01c-0.067-0.028-0.133-0.032-0.19,0.02c-0.045,0.04-0.07,0.089-0.059,0.151
		c0.014,0.067,0.059,0.108,0.123,0.128c0.054,0.016,0.107,0.004,0.13-0.05C27.359,26.692,27.273,26.708,27.237,26.65z"/>
	<path fill-rule="evenodd" clip-rule="evenodd" fill="#01002F" d="M41.796,26.554c0.108-0.063,0.23-0.002,0.342-0.032
		c0.087,0.233,0.043,0.387-0.133,0.475c-0.044,0.001-0.089,0.004-0.135,0.006c-0.022-0.023-0.062-0.032-0.062-0.086
		c0.065-0.007,0.145,0.046,0.213-0.043c-0.096-0.022-0.205,0.012-0.258-0.095C41.722,26.693,41.759,26.624,41.796,26.554z"/>
	<path fill-rule="evenodd" clip-rule="evenodd" fill="#01002F" d="M29.114,26.725c-0.07-0.226,0.057-0.207,0.185-0.188
		c0.021,0.003,0.043,0.017,0.065,0.017c0.208,0.001,0.236,0.029,0.242,0.24c0.001,0.033,0.005,0.059-0.033,0.063
		c-0.047,0.004-0.06-0.021-0.047-0.064c0.007-0.028,0.013-0.057,0.013-0.083c-0.001-0.055-0.013-0.11-0.082-0.108
		c-0.056,0.003-0.071,0.05-0.075,0.098c-0.002,0.022,0.002,0.046,0.001,0.068c-0.001,0.033,0.048,0.089-0.029,0.086
		c-0.06,0-0.046-0.051-0.046-0.09c0.001-0.022,0.002-0.045,0-0.069c-0.002-0.04-0.009-0.085-0.058-0.09
		c-0.062-0.006-0.072,0.043-0.076,0.09c-0.002,0.005,0,0.012-0.002,0.017c-0.015,0.048,0.039,0.145-0.043,0.138
		C29.03,26.844,29.133,26.75,29.114,26.725z"/>
	<path fill-rule="evenodd" clip-rule="evenodd" fill="#01002F" d="M30.15,26.93c0.115-0.001,0.132-0.004,0.214-0.044
		c-0.006-0.007-0.013-0.021-0.019-0.021c-0.093,0-0.187,0.006-0.228-0.103c-0.027-0.073-0.004-0.134,0.045-0.187
		c0.079-0.086,0.181-0.036,0.272-0.042c0.007-0.001,0.011,0.001,0.016,0.004c0.039,0.023,0.027,0.307-0.02,0.369
		C30.354,27.009,30.267,27.028,30.15,26.93z"/>
	<path fill-rule="evenodd" clip-rule="evenodd" fill="#01002F" d="M30.461,24.918c-0.019-0.035-0.038-0.071-0.059-0.106
		c0.061-0.064,0.134-0.089,0.214-0.056c0.081,0.034,0.062,0.115,0.062,0.18c0.002,0.153-0.002,0.306-0.004,0.458
		c-0.01,0-0.02,0-0.028,0c-0.091-0.015-0.107-0.09-0.121-0.16C30.502,25.129,30.469,25.026,30.461,24.918z"/>
	<path fill-rule="evenodd" clip-rule="evenodd" fill="#01002F" d="M27.868,26.773c-0.107,0.116-0.194,0.134-0.285,0.051
		c-0.084-0.077-0.092-0.169-0.007-0.251c0.077-0.074,0.167-0.069,0.241,0.005c0.055,0.055,0.078,0.117-0.034,0.146
		c-0.051,0.012-0.161-0.023-0.139,0.058C27.67,26.868,27.759,26.773,27.868,26.773z"/>
	<path fill-rule="evenodd" clip-rule="evenodd" fill="#01002F" d="M16.187,26.784c-0.083,0.106-0.159,0.121-0.243,0.043
		c-0.083-0.079-0.096-0.17-0.01-0.253c0.078-0.075,0.165-0.063,0.243,0.01c0.025,0.024,0.045,0.053,0.038,0.089
		c-0.009,0.041-0.047,0.042-0.08,0.051c-0.048,0.013-0.15-0.024-0.134,0.05c0.021,0.09,0.101,0.012,0.156,0.002
		C16.166,26.775,16.177,26.781,16.187,26.784z"/>
	<path fill-rule="evenodd" clip-rule="evenodd" fill="#01002F" d="M30.837,26.793c-0.074,0.098-0.161,0.11-0.245,0.031
		c-0.072-0.069-0.072-0.154-0.013-0.231c0.054-0.071,0.13-0.086,0.213-0.051c0.044,0.021,0.073,0.056,0.076,0.104
		c0.002,0.049-0.034,0.063-0.075,0.076c-0.05,0.016-0.158-0.031-0.136,0.059C30.676,26.858,30.772,26.795,30.837,26.793z"/>
	<path fill-rule="evenodd" clip-rule="evenodd" fill="#01002F" d="M17.43,26.552c0.171,0.004,0.343,0.006,0.515,0.009
		c0.006,0.078,0.012,0.157,0.022,0.235c0.003,0.032,0.004,0.057-0.034,0.062c-0.043,0.004-0.062-0.018-0.048-0.062
		c0.006-0.021,0.013-0.044,0.014-0.067c0.001-0.058-0.002-0.126-0.078-0.126c-0.073,0-0.078,0.068-0.08,0.126
		c-0.001,0.012,0.003,0.023,0.002,0.034c-0.004,0.033,0.048,0.084-0.022,0.092c-0.059,0.009-0.052-0.041-0.055-0.082
		c-0.003-0.063,0.033-0.162-0.063-0.164c-0.095-0.002-0.065,0.097-0.069,0.16c-0.002,0.039,0.009,0.091-0.05,0.087
		c-0.075-0.003-0.029-0.056-0.026-0.088C17.464,26.694,17.464,26.621,17.43,26.552z"/>
	<path fill-rule="evenodd" clip-rule="evenodd" fill="#01002F" d="M41.353,26.554c0.108-0.062,0.228-0.002,0.34-0.03
		c-0.009,0.044-0.012,0.09-0.025,0.134c-0.021,0.066,0.057,0.173-0.063,0.197c-0.081,0.018-0.175,0.034-0.244-0.033
		C41.276,26.738,41.31,26.644,41.353,26.554z"/>
	<path fill-rule="evenodd" clip-rule="evenodd" fill="#01002F" d="M30.019,26.681c0.039,0.147-0.024,0.189-0.156,0.186
		c-0.123-0.005-0.2-0.055-0.191-0.182c0.01-0.123,0.096-0.166,0.217-0.16C30.001,26.531,30.085,26.547,30.019,26.681z"/>
	<path fill-rule="evenodd" clip-rule="evenodd" fill="#01002F" d="M14.903,26.998c-0.009-0.012-0.019-0.023-0.027-0.035
		c0.11-0.104,0.036-0.208-0.003-0.312c-0.012-0.035-0.058-0.065-0.027-0.107c0.01-0.012,0.042-0.017,0.062-0.012
		c0.054,0.012,0.036,0.061,0.039,0.099c0.002,0.032,0.005,0.067,0.053,0.085c0.011-0.015,0.023-0.034,0.037-0.05
		c0.035-0.039-0.011-0.164,0.087-0.122c0.075,0.033-0.017,0.103-0.033,0.154c-0.03,0.098-0.083,0.187-0.061,0.294
		C14.987,26.993,14.945,26.995,14.903,26.998z"/>
	<path fill-rule="evenodd" clip-rule="evenodd" fill="#01002F" d="M28.468,26.714c0.045-0.014,0.049-0.05,0.06-0.081
		c0.015-0.043-0.001-0.126,0.079-0.095c0.069,0.026,0.001,0.075-0.011,0.111c-0.031,0.09-0.086,0.173-0.09,0.271
		c-0.003,0.051-0.025,0.075-0.075,0.065c-0.046-0.011-0.039-0.042-0.025-0.078c0.038-0.104-0.027-0.186-0.059-0.274
		c-0.011-0.03-0.049-0.058-0.017-0.09c0.012-0.012,0.042-0.016,0.061-0.012c0.043,0.011,0.039,0.048,0.038,0.083
		C28.427,26.654,28.434,26.691,28.468,26.714z"/>
	<path fill-rule="evenodd" clip-rule="evenodd" fill="#01002F" d="M26.077,26.431c0.062,0.066,0.117,0.106,0.213,0.102
		c0.095-0.004,0.148,0.076,0.146,0.174c-0.002,0.103-0.066,0.151-0.165,0.156c-0.113,0.006-0.236,0.025-0.18-0.164
		C26.116,26.615,26.081,26.527,26.077,26.431z"/>
	<path fill-rule="evenodd" clip-rule="evenodd" fill="#01002F" d="M26.635,26.722c0.017-0.023,0.027-0.042,0.042-0.059
		c0.034-0.04-0.013-0.162,0.087-0.122c0.076,0.03-0.014,0.091-0.027,0.14c-0.021,0.081-0.074,0.153-0.076,0.24
		c-0.001,0.052-0.028,0.074-0.075,0.063s-0.035-0.046-0.022-0.08c0.036-0.103-0.028-0.185-0.061-0.273
		c-0.011-0.03-0.048-0.056-0.016-0.09c0.01-0.01,0.031-0.013,0.047-0.012c0.057,0.004,0.053,0.045,0.052,0.087
		C26.584,26.65,26.589,26.683,26.635,26.722z"/>
	<path fill-rule="evenodd" clip-rule="evenodd" fill="#01002F" d="M38.15,26.62c0.101-0.035,0.204-0.025,0.308-0.026
		c-0.101,0.077-0.125,0.196-0.153,0.308c-0.013,0.047-0.009,0.094-0.073,0.083c-0.063-0.012-0.035-0.055-0.024-0.092
		C38.233,26.794,38.177,26.709,38.15,26.62z"/>
	<path fill-rule="evenodd" clip-rule="evenodd" fill="#01002F" d="M30.924,26.81c0.021-0.014,0.029-0.024,0.039-0.027
		c0.039-0.006,0.089,0.064,0.117,0.001c0.021-0.049-0.045-0.055-0.075-0.075c-0.048-0.034-0.067-0.077-0.04-0.131
		c0.027-0.054,0.078-0.061,0.132-0.046c0.021,0.006,0.047,0.04,0.034,0.045c-0.173,0.076-0.004,0.102,0.021,0.145
		c0.034,0.054,0.025,0.101-0.024,0.13C31.052,26.896,30.981,26.885,30.924,26.81z"/>
	<path fill-rule="evenodd" clip-rule="evenodd" fill="#01002F" d="M36.76,29.893c0.302,0.094,0.605,0.101,0.909,0.005
		c0.009,0.101-0.082,0.086-0.129,0.093c-0.224,0.026-0.449,0.026-0.673-0.016C36.825,29.969,36.76,29.969,36.76,29.893z"/>
	<path fill-rule="evenodd" clip-rule="evenodd" fill="#01002F" d="M38.011,26.626c0.022-0.002,0.047-0.004,0.069-0.005
		c0.006,0.122-0.013,0.23-0.16,0.253c-0.162,0.025-0.197-0.024-0.183-0.246c0.023,0,0.048-0.001,0.07-0.002
		C37.878,26.735,37.945,26.696,38.011,26.626z"/>
	<path fill-rule="evenodd" clip-rule="evenodd" fill="#01002F" d="M28.961,26.656c-0.031,0.05,0.07,0.19-0.046,0.19
		c-0.091,0,0.004-0.128-0.018-0.198c-0.015-0.042-0.009-0.089-0.018-0.134c-0.009-0.038-0.036-0.082,0.031-0.088
		c0.053-0.005,0.069,0.026,0.063,0.075C28.969,26.545,28.967,26.59,28.961,26.656z"/>
	<path fill-rule="evenodd" clip-rule="evenodd" fill="#01002F" d="M28.183,26.44c0.104,0.135-0.015,0.267,0.067,0.426
		C28.119,26.75,28.102,26.558,28.183,26.44z"/>
	<path fill-rule="evenodd" clip-rule="evenodd" fill="#01002F" d="M27.973,26.409c0.087,0.172,0.024,0.299,0.013,0.428
		C27.943,26.711,27.904,26.586,27.973,26.409z"/>
	<path fill-rule="evenodd" clip-rule="evenodd" fill="#01002F" d="M24.291,27.885c-0.114-0.009-0.233,0.024-0.342-0.034
		C24.135,27.725,24.158,27.727,24.291,27.885z"/>
	<path fill-rule="evenodd" clip-rule="evenodd" fill="#01002F" d="M18.935,28.608c-0.018,0.205,0.007,0.406,0.068,0.603
		C18.838,29.027,18.859,28.821,18.935,28.608z"/>
	<path fill-rule="evenodd" clip-rule="evenodd" fill="#01002F" d="M19.683,29.88c0.218,0.085,0.445,0.1,0.675,0.086
		C20.209,30.055,19.824,30.008,19.683,29.88z"/>
	<path fill-rule="evenodd" clip-rule="evenodd" fill="#01002F" d="M38.385,29.21c0.056-0.195,0.088-0.396,0.067-0.6
		C38.534,28.79,38.5,29.094,38.385,29.21z"/>
	<path fill-rule="evenodd" clip-rule="evenodd" fill="#01002F" d="M23.847,27.851c-0.074,0.021-0.142,0.007-0.205-0.033
		C23.727,27.729,23.797,27.729,23.847,27.851z"/>
	<path fill-rule="evenodd" clip-rule="evenodd" fill="#01002F" d="M21.525,27.579c-0.08,0.119-0.159,0.008-0.239,0
		C21.366,27.5,21.446,27.549,21.525,27.579z"/>
	<path fill-rule="evenodd" clip-rule="evenodd" fill="#01002F" d="M42.621,26.52c0.058,0,0.112,0,0.169,0
		c0.007,0.074-0.04,0.095-0.16,0.08c0.149,0.103,0.27,0.179,0.093,0.295c-0.021-0.002-0.043-0.004-0.065-0.006
		c-0.116,0.034-0.165-0.021-0.137-0.127C42.544,26.679,42.5,26.563,42.621,26.52z"/>
	<path fill-rule="evenodd" clip-rule="evenodd" fill="#01002F" d="M38.011,26.626c0.002,0.089-0.005,0.19-0.121,0.182
		c-0.101-0.008-0.116-0.092-0.082-0.182C37.877,26.626,37.945,26.626,38.011,26.626z"/>
	<path fill-rule="evenodd" clip-rule="evenodd" fill="#01002F" d="M42.621,26.52c-0.097,0.139,0.046,0.186,0.106,0.251
		c-0.04,0.097-0.127-0.054-0.15,0.044c-0.011,0.044,0.052,0.05,0.08,0.074c-0.07,0.13-0.218,0.036-0.308,0.107
		c-0.115,0-0.23,0-0.345,0c0.152-0.128,0.077-0.32,0.133-0.475c0.049,0,0.096-0.001,0.144-0.002
		c0.041,0.063,0.001,0.104-0.034,0.151c-0.045,0.055-0.041,0.11,0.014,0.145c-0.072-0.062-0.049-0.12,0.034-0.161
		c0.063-0.031,0.121-0.061,0.148-0.129C42.503,26.522,42.562,26.522,42.621,26.52z"/>
	<path fill-rule="evenodd" clip-rule="evenodd" fill="#01002F" d="M14.629,26.814c-0.068-0.002-0.107-0.041-0.113-0.105
		c-0.006-0.066,0.035-0.107,0.1-0.111c0.068-0.007,0.107,0.031,0.11,0.098C14.73,26.762,14.693,26.8,14.629,26.814z"/>
	<path fill-rule="evenodd" clip-rule="evenodd" fill="#01002F" d="M42.443,26.525c0.093,0.139,0.093,0.139-0.158,0.236
		c0.079,0.054,0.079,0.054,0.186,0.022c-0.065,0.096-0.114,0.115-0.192,0.074c-0.088-0.049-0.119-0.125-0.085-0.216
		c0.017-0.045,0.058-0.081,0.088-0.122C42.336,26.522,42.39,26.523,42.443,26.525z"/>
	<path fill-rule="evenodd" clip-rule="evenodd" fill="#01002F" d="M40.113,26.563c0.04,0.004,0.06,0.027,0.055,0.067
		c-0.004,0.032-0.014,0.075-0.046,0.079c-0.052,0.007-0.055-0.045-0.062-0.079C40.052,26.59,40.074,26.569,40.113,26.563z"/>
	<path fill-rule="evenodd" clip-rule="evenodd" fill="#01002F" d="M20.432,27.955c0.303,0.072,0.498,0.262,0.608,0.547
		c-0.005,0.012-0.015,0.023-0.012,0.032c0.069,0.234,0.024,0.459-0.059,0.681c-0.15,0.262-0.382,0.396-0.673,0.439
		c-0.173-0.004-0.341-0.042-0.51-0.068c-0.512-0.224-0.704-0.774-0.434-1.235c0.078-0.133,0.214-0.196,0.319-0.298
		C19.914,27.94,20.17,27.919,20.432,27.955z"/>
	<path fill-rule="evenodd" clip-rule="evenodd" fill="#01002F" d="M20.969,29.215c-0.009-0.02-0.031-0.045-0.025-0.058
		c0.09-0.183,0.131-0.368,0.056-0.568c-0.013-0.033,0.014-0.063,0.04-0.087C21.109,28.749,21.116,28.99,20.969,29.215z"/>
	<path fill-rule="evenodd" clip-rule="evenodd" fill="#01002F" d="M20.432,27.955c-0.256,0.013-0.513,0.022-0.761,0.098
		C19.908,27.893,20.164,27.877,20.432,27.955z"/>
	<path fill-rule="evenodd" clip-rule="evenodd" fill="#01002F" d="M19.786,29.586c0.176-0.024,0.342,0.027,0.51,0.068
		C20.121,29.669,19.947,29.673,19.786,29.586z"/>
	<path fill-rule="evenodd" clip-rule="evenodd" fill="#01002F" d="M38.048,28.398c0.248,0.446,0.052,0.969-0.446,1.188
		c-0.213,0.043-0.428,0.066-0.645,0.036c-0.352-0.093-0.577-0.32-0.645-0.67c-0.074-0.382,0.072-0.688,0.401-0.9
		c0.027,0.005,0.054,0.007,0.081-0.008c0.438-0.233,0.949-0.071,1.214,0.322C38.018,28.382,38.032,28.391,38.048,28.398z"/>
	<path fill-rule="evenodd" clip-rule="evenodd" fill="#01002F" d="M38.048,28.398c-0.143-0.078-0.23-0.219-0.374-0.302
		c-0.269-0.156-0.538-0.172-0.817-0.048c-0.05,0.022-0.093,0.077-0.143,0.003C37.188,27.762,37.806,27.923,38.048,28.398z"/>
	<path fill-rule="evenodd" clip-rule="evenodd" fill="#01002F" d="M36.957,29.622c0.215-0.013,0.43-0.024,0.645-0.036
		C37.39,29.673,37.177,29.698,36.957,29.622z"/>
	<path fill-rule="evenodd" clip-rule="evenodd" fill="#01002F" d="M28.766,25.393c0.146-0.003,0.257,0.108,0.257,0.256
		c0,0.146-0.113,0.254-0.261,0.254c-0.145,0-0.238-0.097-0.241-0.249C28.519,25.496,28.612,25.396,28.766,25.393z"/>
	<path fill-rule="evenodd" clip-rule="evenodd" fill="#01002F" d="M28.594,24.429c0.096,0.018,0.063,0.096,0.064,0.149
		c0.003,0.192,0.001,0.382,0,0.574c-0.067-0.12-0.022-0.251-0.035-0.377C28.612,24.66,28.649,24.54,28.594,24.429z"/>
	<path fill-rule="evenodd" clip-rule="evenodd" fill="#01002F" d="M28.729,25.125c0.013-0.214-0.031-0.433,0.026-0.645
		C28.747,24.695,28.795,24.913,28.729,25.125z"/>
	<g>
		<path fill-rule="evenodd" clip-rule="evenodd" fill="#01002F" d="M29.513,25.296c-0.085-0.034-0.174-0.046-0.265-0.046
			c-0.069-0.018-0.13,0-0.196,0.025c-0.201,0.078-0.311,0.002-0.305-0.207c0.005-0.209-0.034-0.42,0.028-0.625
			c0.04-0.037,0.081-0.035,0.124-0.006c0.283,0.044,0.573,0.044,0.854,0.104c0.062,0.015,0.121,0.028,0.165,0.075
			c0.146,0.107,0.172,0.272,0.212,0.43c-0.025,0.114-0.097,0.146-0.212,0.147c-0.131,0.002-0.268,0.01-0.381,0.095
			C29.53,25.29,29.522,25.293,29.513,25.296z"/>
		<path fill-rule="evenodd" clip-rule="evenodd" fill="#01002F" d="M28.453,25.226c-0.045,0-0.088,0.001-0.134,0.002
			c-0.023,0.014-0.047,0.012-0.073,0.006c-0.046-0.023-0.085-0.063-0.146-0.053c-0.132,0.023-0.237,0.009-0.29-0.147
			c-0.031-0.09-0.107-0.079-0.159,0.011c-0.097,0.169-0.298,0.264-0.473,0.174c-0.021-0.234,0.167-0.482,0.282-0.671
			c0.153-0.102,0.334-0.087,0.502-0.107c0.171-0.021,0.348,0.001,0.52-0.04c0.053-0.014,0.1-0.008,0.137,0.039
			c0.049,0.235,0.024,0.474,0.015,0.71C28.63,25.264,28.55,25.286,28.453,25.226z"/>
		<path fill-rule="evenodd" clip-rule="evenodd" fill="#01002F" d="M28.251,25.216c-0.249,0.066-0.512,0.044-0.754,0.142
			c-0.093,0.011-0.187,0.02-0.271,0.071c-0.014-0.012-0.028-0.025-0.042-0.038c-0.055-0.119-0.036-0.204,0.104-0.237
			c0.056-0.011,0.11-0.026,0.166-0.033c0.074-0.009,0.115-0.045,0.108-0.121c-0.01-0.1,0.031-0.15,0.132-0.151
			c0.099,0,0.204-0.006,0.213,0.131c0.008,0.11,0.067,0.144,0.167,0.141C28.149,25.119,28.221,25.129,28.251,25.216z"/>
		<path fill-rule="evenodd" clip-rule="evenodd" fill="#01002F" d="M29.89,25.358c-0.121-0.053-0.251-0.066-0.381-0.079
			c0.088-0.168,0.254-0.162,0.407-0.18c0.054-0.006,0.112,0.021,0.144-0.049c0.132,0.009,0.172,0.088,0.144,0.176
			c0.02,0.059-0.017,0.119,0.011,0.197C30.094,25.398,29.986,25.408,29.89,25.358z"/>
	</g>
	<path fill-rule="evenodd" clip-rule="evenodd" fill="#01002F" d="M26.776,25.219c-0.083-0.156-0.07-0.187,0.112-0.269
		C26.85,25.039,26.813,25.13,26.776,25.219z"/>
	<path fill-rule="evenodd" clip-rule="evenodd" fill="#01002F" d="M42.032,26.705c-0.011,0.061-0.045,0.108-0.108,0.107
		c-0.073-0.002-0.113-0.051-0.108-0.124c0.003-0.067,0.051-0.098,0.114-0.094C41.997,26.598,42.031,26.637,42.032,26.705z"/>
	<path fill-rule="evenodd" clip-rule="evenodd" fill="#01002F" d="M30.287,26.593c0.064,0.006,0.105,0.04,0.104,0.107
		c-0.002,0.063-0.039,0.108-0.103,0.11c-0.073,0.003-0.114-0.044-0.11-0.116C30.179,26.63,30.222,26.597,30.287,26.593z"/>
	<path fill-rule="evenodd" clip-rule="evenodd" fill="#01002F" d="M41.485,26.813c-0.067-0.005-0.103-0.048-0.105-0.109
		c-0.003-0.067,0.041-0.104,0.104-0.108c0.068-0.002,0.107,0.036,0.105,0.104C41.587,26.764,41.548,26.802,41.485,26.813z"/>
	<path fill-rule="evenodd" clip-rule="evenodd" fill="#01002F" d="M29.834,26.814c-0.063-0.016-0.098-0.058-0.094-0.121
		c0.005-0.064,0.05-0.099,0.115-0.095c0.067,0.003,0.101,0.047,0.092,0.114C29.939,26.774,29.9,26.808,29.834,26.814z"/>
	<path fill-rule="evenodd" clip-rule="evenodd" fill="#01002F" d="M26.267,26.594c0.068,0.006,0.103,0.046,0.1,0.113
		c-0.002,0.066-0.043,0.107-0.108,0.105c-0.066-0.002-0.103-0.049-0.102-0.113C26.157,26.632,26.202,26.6,26.267,26.594z"/>
	<path fill-rule="evenodd" clip-rule="evenodd" fill="#01002F" d="M20.156,28.467c0.167-0.003,0.31,0.142,0.311,0.318
		c0,0.172-0.143,0.326-0.305,0.325c-0.157-0.002-0.297-0.146-0.304-0.312C19.851,28.627,19.991,28.471,20.156,28.467z"/>
	<path fill-rule="evenodd" clip-rule="evenodd" fill="#01002F" d="M37.529,28.778c0.006,0.169-0.14,0.329-0.3,0.332
		c-0.158,0.002-0.299-0.138-0.308-0.306c-0.01-0.177,0.122-0.329,0.288-0.338C37.375,28.46,37.522,28.604,37.529,28.778z"/>
</g>
<g>
	<g id="Camada_x0020_1_2_">
		<path fill="#01002F" d="M89.202,71.775c-5.344,0-10.18-2.166-13.682-5.667c-3.502-3.502-5.666-8.339-5.666-13.682
			s2.164-10.181,5.666-13.682s8.338-5.667,13.682-5.667c5.342,0,10.18,2.166,13.682,5.667s5.666,8.339,5.666,13.682
			s-2.164,10.18-5.666,13.682C99.382,69.609,94.544,71.775,89.202,71.775z M76.126,65.503c3.346,3.347,7.969,5.417,13.076,5.417
			s9.73-2.07,13.076-5.417c3.348-3.347,5.416-7.97,5.416-13.076s-2.068-9.73-5.416-13.077c-3.346-3.347-7.969-5.416-13.076-5.416
			s-9.73,2.069-13.076,5.416c-3.348,3.347-5.418,7.971-5.418,13.077S72.778,62.156,76.126,65.503z"/>
	</g>
	<g>
		<path fill-rule="evenodd" clip-rule="evenodd" fill="#017A00" d="M89.155,49.981c-0.801,0-1.604,0.033-2.402-0.01
			c-0.896-0.048-1.408-0.529-1.406-1.468c0-0.837-0.039-1.677,0.014-2.511c0.096-1.474,1.252-2.285,2.654-1.869
			c0.797,0.236,1.561,0.243,2.357,0.006c1.414-0.42,2.572,0.375,2.672,1.842c0.057,0.834,0.018,1.675,0.016,2.512
			c-0.004,0.992-0.557,1.465-1.502,1.497c-0.799,0.028-1.602,0.006-2.402,0.006C89.155,49.985,89.155,49.983,89.155,49.981z"/>
		<path fill-rule="evenodd" clip-rule="evenodd" fill="#01002F" d="M80.159,64.28c-0.764,0-1.529,0.026-2.293-0.007
			c-1.006-0.044-1.623-0.649-1.674-1.642c-0.035-0.689-0.035-1.385-0.004-2.074c0.08-1.733,1.295-2.62,2.951-2.152
			c0.729,0.206,1.428,0.165,2.148-0.039c1.451-0.411,2.627,0.409,2.729,1.922c0.055,0.799,0.031,1.603,0.012,2.402
			c-0.025,1.01-0.588,1.537-1.574,1.583C81.69,64.308,80.925,64.28,80.159,64.28z"/>
		<path fill-rule="evenodd" clip-rule="evenodd" fill="#01002F" d="M98.219,64.284c-0.729-0.002-1.457,0.019-2.186-0.007
			c-1.064-0.036-1.613-0.569-1.654-1.613c-0.029-0.763-0.037-1.53,0.002-2.294c0.086-1.586,1.25-2.427,2.762-1.996
			c0.762,0.218,1.492,0.219,2.254-0.007c1.369-0.407,2.525,0.345,2.795,1.78c0.02,0.107,0.025,0.218,0.027,0.326
			C102.247,63.844,102.555,64.466,98.219,64.284z"/>
		<path fill-rule="evenodd" clip-rule="evenodd" fill="#01002F" d="M83.962,43.35c-2.529,1.775-3.873,4.129-4.219,7.076
			c-0.029,0.253-0.037,0.509-0.078,0.76c-0.031,0.189-0.135,0.346-0.35,0.355c-0.268,0.013-0.41-0.167-0.434-0.396
			c-0.029-0.287-0.025-0.583,0.01-0.869c0.379-3.132,1.814-5.648,4.389-7.497c0.428-0.308,1.105-0.571,0.164-1.094
			c-0.166-0.093-0.248-0.281-0.15-0.472c0.115-0.225,0.322-0.303,0.553-0.203c0.533,0.232,1.076,0.452,1.58,0.738
			c0.426,0.241,0.256,0.623,0.098,0.963c-0.139,0.297-0.273,0.596-0.43,0.884c-0.152,0.278-0.234,0.681-0.635,0.669
			C83.899,44.249,84.21,43.684,83.962,43.35z"/>
		<path fill-rule="evenodd" clip-rule="evenodd" fill="#01002F" d="M100.782,50.02c-0.238,0.611-0.783,1.002-1.271,1.423
			c-0.4,0.348-0.74,0.071-1.039-0.228c-0.258-0.258-0.529-0.505-0.766-0.781c-0.33-0.384-0.396-0.822,0.254-0.777
			c0.84,0.06,0.496-0.436,0.414-0.744c-0.686-2.591-2.178-4.577-4.518-5.909c-0.283-0.162-0.584-0.298-0.863-0.47
			c-0.191-0.119-0.34-0.295-0.217-0.545c0.117-0.242,0.352-0.273,0.561-0.183c0.434,0.188,0.871,0.382,1.27,0.634
			c2.424,1.527,3.988,3.682,4.672,6.476c0.125,0.507-0.004,1.441,1.041,0.738C100.507,49.526,100.723,49.719,100.782,50.02z"/>
		<path fill-rule="evenodd" clip-rule="evenodd" fill="#017A00" d="M91.753,40.946c-0.014,1.436-1.164,2.561-2.594,2.537
			c-1.434-0.024-2.533-1.174-2.506-2.622c0.025-1.371,1.289-2.641,2.592-2.605C90.581,38.292,91.766,39.561,91.753,40.946z"/>
		<path fill-rule="evenodd" clip-rule="evenodd" fill="#01002F" d="M98.243,57.716c-1.406-0.003-2.574-1.183-2.563-2.588
			c0.014-1.404,1.209-2.588,2.594-2.57c1.404,0.02,2.594,1.217,2.576,2.598C100.833,56.561,99.655,57.718,98.243,57.716z"/>
		<path fill-rule="evenodd" clip-rule="evenodd" fill="#01002F" d="M80.135,57.715c-1.412-0.014-2.58-1.187-2.58-2.587
			c0.002-1.384,1.201-2.568,2.602-2.57c1.389-0.002,2.576,1.201,2.566,2.597C82.712,56.569,81.54,57.728,80.135,57.715z"/>
		<path fill-rule="evenodd" clip-rule="evenodd" fill="#01002F" d="M86.567,61.27c-0.256,0.399,0.322,0.944-0.279,1.1
			c-0.523,0.136-0.646-0.395-0.791-0.732c-0.201-0.471-0.826-0.944-0.396-1.465c0.422-0.51,1.18-0.502,1.809-0.653
			c0.283-0.067,0.609,0.152,0.482,0.407c-0.445,0.906,0.33,0.65,0.664,0.711c1.506,0.271,2.961-0.002,4.396-0.463
			c0.324-0.104,0.76-0.389,0.934,0.115c0.164,0.479-0.33,0.578-0.654,0.695C90.702,61.718,88.63,61.837,86.567,61.27z"/>
		<path fill-rule="evenodd" clip-rule="evenodd" fill="#017A00" d="M89.163,49.127c-0.182,0-0.367,0.022-0.547-0.004
			c-0.766-0.11-1.846,0.413-2.236-0.358c-0.461-0.912-0.285-2.08-0.055-3.107c0.141-0.621,0.678-0.969,1.363-0.734
			c1.006,0.344,1.988,0.346,3,0.012c0.799-0.263,1.236,0.179,1.463,0.898c0.033,0.102,0.039,0.216,0.039,0.324
			C92.18,49.77,92.639,49.045,89.163,49.127z"/>
		<path fill-rule="evenodd" clip-rule="evenodd" fill="#01002F" d="M80.112,63.358c-0.146,0-0.291,0-0.438,0
			c-2.73,0-2.932-0.236-2.551-3.012c0.135-0.988,0.697-1.399,1.662-1.135c0.904,0.247,1.779,0.254,2.686,0.005
			c1.014-0.279,1.668,0.158,1.676,1.212C83.177,64.001,83.608,63.279,80.112,63.358z"/>
		<path fill-rule="evenodd" clip-rule="evenodd" fill="#01002F" d="M98.212,63.352c-0.691,0-1.383-0.006-2.072,0.002
			c-0.641,0.008-0.926-0.296-0.906-0.937c0.023-0.69-0.033-1.385,0.025-2.071c0.084-0.98,0.691-1.401,1.65-1.137
			c0.904,0.25,1.779,0.256,2.686,0.008c1.02-0.279,1.578,0.146,1.693,1.211C101.6,63.325,101.565,63.358,98.212,63.352z"/>
		<path fill-rule="evenodd" clip-rule="evenodd" fill="#017A00" d="M90.884,40.94c-0.014,0.924-0.74,1.656-1.658,1.668
			c-0.963,0.014-1.719-0.756-1.701-1.73c0.018-0.928,0.746-1.665,1.656-1.679C90.132,39.184,90.897,39.968,90.884,40.94z"/>
		<path fill-rule="evenodd" clip-rule="evenodd" fill="#01002F" d="M99.975,55.126c0.002,0.949-0.805,1.738-1.752,1.715
			c-0.916-0.022-1.66-0.77-1.672-1.68c-0.014-0.942,0.793-1.736,1.746-1.719C99.196,53.459,99.971,54.237,99.975,55.126z"/>
		<path fill-rule="evenodd" clip-rule="evenodd" fill="#01002F" d="M78.43,55.149c-0.012-0.886,0.756-1.676,1.654-1.707
			c0.949-0.032,1.77,0.753,1.77,1.695c0,0.909-0.734,1.668-1.646,1.703C79.259,56.878,78.442,56.1,78.43,55.149z"/>
	</g>
</g>
<path fill-rule="evenodd" clip-rule="evenodd" fill="#FF7020" d="M-13.48,8.998c0.186,0.115,0.316,0.267,0.238,0.496
	c-0.078,0.23-0.275,0.262-0.492,0.263c-0.293,0.002-0.592-0.009-0.875,0.048c-0.623,0.127-1.072,0.68-1.084,1.314
	c-0.014,0.756-0.014,1.512-0.002,2.267c0.008,0.61,0.41,1.118,1.002,1.31c0.596,0.193,0.795,0.465,0.799,1.088
	c0,0.217,0,0.434,0,0.704c0.076-0.081,0.121-0.122,0.158-0.169c0.262-0.359,0.531-0.713,0.783-1.081
	c0.234-0.345,0.551-0.488,0.961-0.485c0.881,0.009,1.764,0.004,2.646,0.002c0.955-0.002,1.531-0.576,1.537-1.535
	c0.004-0.646,0.006-1.295,0-1.939c-0.008-0.941-0.594-1.523-1.529-1.526c-0.779-0.001-1.561-0.001-2.342,0.003
	c-0.213,0-0.406-0.017-0.498-0.25c-0.094-0.236,0.053-0.375,0.211-0.508c1.025,0,2.051,0,3.074,0
	c0.141,0.047,0.285,0.086,0.424,0.143c0.836,0.342,1.344,0.958,1.395,1.863c0.045,0.836,0.041,1.681,0.002,2.518
	c-0.053,1.09-0.979,1.961-2.072,1.982c-0.932,0.019-1.865,0.012-2.795,0.002c-0.199-0.001-0.326,0.061-0.439,0.223
	c-0.404,0.578-0.826,1.145-1.242,1.714c-0.197,0.269-0.412,0.353-0.668,0.267c-0.24-0.078-0.359-0.27-0.361-0.596
	c-0.002-0.445-0.008-0.891,0.002-1.336c0.004-0.197-0.059-0.299-0.256-0.362c-0.982-0.315-1.547-1.103-1.551-2.142
	c0-0.68-0.002-1.359,0.002-2.041c0.006-1.113,0.682-1.947,1.773-2.193c0.031-0.008,0.061-0.027,0.09-0.041
	C-14.22,8.998-13.849,8.998-13.48,8.998z"/>
</svg>
