<?xml version="1.0" encoding="utf-8"?>
<!-- Generator: Adobe Illustrator 16.0.0, SVG Export Plug-In . SVG Version: 6.00 Build 0)  -->
<!DOCTYPE svg PUBLIC "-//W3C//DTD SVG 1.1//EN" "http://www.w3.org/Graphics/SVG/1.1/DTD/svg11.dtd">
<svg version="1.1" id="Layer_1" xmlns="http://www.w3.org/2000/svg" xmlns:xlink="http://www.w3.org/1999/xlink" x="0px" y="0px"
	 width="56.693px" height="56.693px" viewBox="0 0 56.693 56.693" enable-background="new 0 0 56.693 56.693" xml:space="preserve">
<g id="Camada_x0020_1">
	<path fill="#017A00" d="M36.409,39.07c0.232-0.368,0.336-0.387,0.678-0.632c0.313,0.15,3.008,3.363,3.207,3.747
		c-0.184,0.276-0.379,0.466-0.695,0.634C39.272,42.655,36.696,39.491,36.409,39.07z M36.337,37.42
		c-0.17-0.581,0.047-0.435,0.381-0.826c1.898-2.221,1.51-6.449,0.361-5.966c-0.602,0.253-0.133,1.202-0.094,1.806
		c0.053,0.771-0.059,1.429-0.305,2.107c-1.492,4.098-7.109,4.239-8.986,0.751c-1.329-2.471-0.569-5.189,1.703-6.731
		c0.924-0.627,2.818-0.937,3.955-0.52c0.879,0.321,1.561-0.135,1.01-0.715c-0.881-0.929-6.171-1.178-7.926,3.196
		c-0.976,2.433-0.249,5.322,1.779,6.965c1.838,1.49,4.243,1.754,6.491,0.708c0.166-0.078,0.275-0.166,0.395-0.225
		c0.352-0.172,0.307-0.046,0.373,0.014c0.393,0.432-0.264,0.398-0.191,1.177c0.039,0.423,0.367,0.656,0.578,0.934l2.838,3.394
		c0.711,0.783,1.26,0.479,1.887-0.115c1.098-1.036,1.314-0.967-0.205-2.777c-0.506-0.604-2.393-3.064-2.875-3.235
		C36.87,37.135,36.839,37.529,36.337,37.42z"/>
	<path fill="#01002F" d="M18.907,16.081c0.916-0.026,2.494,0.27,3.08-0.327l-0.007-0.405c-0.489-0.532-1.684-0.326-2.481-0.326
		c-1.107-0.001-1.685-0.222-1.684,1.03l0.029,24.494c0.153,0.729,1.323,0.49,2.156,0.493l9.537-0.006
		c0.477-0.052,0.531-0.25,0.49-0.764c-0.57-0.498-1.788-0.276-2.589-0.276c-2.651,0-6.102,0.088-8.58-0.013L18.907,16.081z"/>
	<path fill="#01002F" d="M25.184,14.214c-1.386,0.19-2.882,1.616-2.603,3.303c0.218,0.504,2.314,0.311,3.249,0.311
		c0.521,0,3.252,0.066,3.526-0.063c0.42-0.199,0.396-0.872-0.221-0.963l-5.452-0.015c0.134-0.719,0.653-1.205,1.245-1.444
		c1.045-0.424,1.355,0.265,1.304-1.194c-0.055-1.584,1.561-2.81,3.145-1.94c0.504,0.276,1.029,0.81,1.09,1.638
		c0.102,1.409-0.48,1.063,1.074,1.429c2.012,0.474,1.164,2.558,2.117,2.544c0.783-0.011,0.633-1.393-0.193-2.462
		c-0.379-0.49-1.041-1.002-1.951-1.148C31.413,9.78,25.253,9.817,25.184,14.214z"/>
	<path fill="#01002F" d="M22.514,22.132h11.858c0.982,0,1.148-1.072,0-1.072H22.413c-0.506,0-0.872,0.009-0.862,0.526
		C21.561,22.098,22.047,22.132,22.514,22.132z"/>
	<path fill="#017A00" d="M31.96,34.034c-0.992-0.635-2.158-2.425-2.76-1.848c-0.606,0.582,0.5,1.235,0.758,1.447l1.258,1.16
		c0.547,0.466,0.768,0.988,1.463,0.07l3.082-3.65c0.158-0.165,0.162-0.131,0.303-0.301l1.703-2.009
		c1.645-1.552,0.486-2.163-0.133-1.448c-0.18,0.208-0.07,0.137-0.289,0.321C36.833,28.212,32.721,33.371,31.96,34.034z"/>
	<path fill="#01002F" d="M37.678,16.081c0.154,0.82,0.049,5.968,0.049,7.513c0,0.97-0.287,1.9,0.771,1.783
		c0.234-0.274,0.27-0.366,0.27-0.778v-8.743c-0.002-1.125-1.08-0.83-2.988-0.832c-1.352-0.002-1.162,0.869-0.592,1.02
		C35.548,16.138,37.167,16.066,37.678,16.081z"/>
	<path fill="#01002F" d="M21.64,26.91c0.223-0.003,0.664,0.161,1.073,0.147c0.462-0.016,0.845-0.022,1.309-0.007
		c0.884,0.031,1.875-0.017,2.742,0.004c0.141-0.196,0.324-0.302,0.262-0.603c-0.051-0.244-0.222-0.405-0.491-0.461
		c-0.407-0.083-1.426-0.008-1.91-0.026c-0.631-0.023-1.262,0.015-1.909-0.007C21.832,25.927,21.433,25.954,21.64,26.91z"/>
	<path fill="#01002F" d="M23.519,36.903c0.594,0.002,1.628,0.123,1.297-0.716c-0.198-0.503-1.317-0.319-1.899-0.321
		c-0.764-0.003-1.475-0.135-1.305,0.823C22.19,37.025,22.799,36.901,23.519,36.903z"/>
	<path fill="#01002F" d="M21.575,31.533c0.055,0.661,2.173,0.763,2.134-0.097c-0.025-0.569-0.66-0.478-1.198-0.475
		C22.049,30.964,21.531,30.994,21.575,31.533z"/>
	<path fill="#01002F" d="M28.736,14.617c0.74-0.597,0.214-1.68-0.665-1.364C27.333,13.517,27.378,14.973,28.736,14.617z"/>
	<path fill="#017A00" d="M35.86,28.732c0.135-0.84-0.738-1.236-1.008-0.548C34.602,28.822,35.305,29.196,35.86,28.732z"/>
	<path fill="#01002F" d="M28.346,47.695c-5.343,0-10.18-2.166-13.681-5.667c-3.502-3.502-5.667-8.339-5.667-13.682
		s2.165-10.181,5.667-13.682c3.501-3.501,8.338-5.667,13.681-5.667c5.342,0,10.18,2.166,13.682,5.667s5.666,8.339,5.666,13.682
		s-2.164,10.18-5.666,13.682C38.526,45.529,33.688,47.695,28.346,47.695z M15.27,41.423c3.347,3.347,7.97,5.417,13.076,5.417
		c5.108,0,9.731-2.07,13.077-5.417c3.348-3.347,5.416-7.97,5.416-13.076s-2.068-9.73-5.416-13.077
		c-3.346-3.347-7.969-5.416-13.077-5.416c-5.106,0-9.729,2.069-13.076,5.416S9.853,23.24,9.853,28.346S11.923,38.076,15.27,41.423z"
		/>
</g>
<path fill="#01002F" d="M-19.348,50.352c-5.343,0-10.18-2.166-13.681-5.667c-3.502-3.502-5.667-8.339-5.667-13.682
	s2.165-10.181,5.667-13.682c3.501-3.501,8.338-5.667,13.681-5.667c5.342,0,10.18,2.166,13.682,5.667S0,25.661,0,31.004
	s-2.164,10.18-5.666,13.682C-9.168,48.186-14.006,50.352-19.348,50.352z M-32.425,44.08c3.347,3.347,7.97,5.417,13.076,5.417
	c5.108,0,9.731-2.07,13.077-5.417c3.348-3.347,5.416-7.97,5.416-13.076s-2.068-9.73-5.416-13.077
	c-3.346-3.347-7.969-5.416-13.077-5.416c-5.106,0-9.729,2.069-13.076,5.416s-5.417,7.971-5.417,13.077S-35.771,40.733-32.425,44.08z
	"/>
<path fill="#017A00" d="M84.93,23.538c-1.148-2.81-0.695-3.17-3.607-1.757c-1.094,0.531,0.279,1.61-2.797,1.001
	c0,0-0.629-0.113-0.631-0.082c-0.98-0.099-1.986-0.48-2.838,0.072c-0.551,0.356-0.199,0.486-1.09,0.485
	c-0.521-0.002-1.193,0.039-1.605-0.091c-0.252-0.734,0.328-0.457-0.898-1.415c-1.688-1.319-1.357-1.283-3.623,1.805
	c-0.51,0.696-1.945,2.354-1.822,2.951c0.082,0.393,0.971,0.968,1.207,1.158c1.227,0.982,0.855,0.224,1.707,0.343
	c0.674,1.269-0.453,1.609-0.629,2.438c-0.262,1.247,0.68,1.689,1.711,1.777c0.205,1.157,0.713,1.263,1.9,1.299
	c0.342,0.864,0.75,1.089,1.768,0.943c0.326,0.443,0.357,0.776,0.98,0.94c0.586,0.155,1.137-0.089,1.395-0.544
	c0.518,0.089,0.75,0.424,1.563-0.033l0.285-0.161c0.001,0.101,0.61-0.505,0.609-1.013c0.697-0.335,1.016-0.394,1.078-1.425
	c0.951-0.293,1.391-0.449,1.426-1.636c1.209-0.091,1.188-0.637,1.459-1.531c1.309-0.44,0.707,0.406,2.354-0.333
	C87.052,27.733,86.895,28.344,84.93,23.538z M68.237,27.562c-0.428-0.104-0.572-0.31-0.895-0.57
	c-0.275-0.222-0.584-0.398-0.744-0.665c0.156-0.377,3.35-4.659,3.549-4.779c0.387,0.156,1.383,0.946,1.553,1.244
	C71.169,23.796,68.841,26.478,68.237,27.562z M70.167,31.467c-0.703,0.471-1.607-0.271-1.191-1.1
	c0.076-0.151,1.135-1.497,1.227-1.564c0.715-0.531,1.717,0.316,1.225,1.14C71.329,30.107,70.243,31.415,70.167,31.467z
	 M71.915,32.747c-0.621,0.535-1.588-0.1-1.197-0.915c0.063-0.129,1.055-1.414,1.18-1.521c0.678-0.582,1.6,0.228,1.207,0.948
	C73.03,31.393,72.024,32.652,71.915,32.747z M72.569,33.552c-0.23-0.579,0.408-1.143,0.66-1.446
	c0.502-0.608,0.705-0.596,1.289-0.132C74.637,33.092,73.026,34.694,72.569,33.552z M75.948,33.956
	c-0.25,0.441-0.414,0.894-0.961,0.878c-0.559-0.016-0.854-0.532-0.58-1.074C75.122,32.355,76.464,33.046,75.948,33.956z
	 M80.96,29.954c-0.627-0.102-2.76-2.316-3.166-1.952c-0.758,0.682,3.059,1.763,2.549,3.112c-0.447,1.183-2.023-0.279-2.791-0.836
	c-0.355-0.259-0.414-0.393-0.699-0.397c-0.205-0.003-0.484,0.197-0.123,0.549c0.098,0.094,0.295,0.21,0.393,0.278
	c1.018,0.714,2.32,1.339,1.73,2.091c-0.799,1.018-2.605-1.893-3.305-1.45c-0.201,0.294-0.123,0.311,0.111,0.529
	c0.711,0.659,2.033,1.201,1.934,1.974c-0.063,0.495-0.506,0.678-0.977,0.53c-0.135-0.313,0.549-1.977-1.404-2.063
	c-0.244-0.873-0.461-1.161-1.408-1.285c-0.109-1.037-0.543-1.525-1.625-1.523c-0.197-1.388-1.252-1.831-2.404-1.142l-0.273-0.561
	c-0.148-0.221-0.238-0.199-0.375-0.463l2.789-3.73c1.084,0.345,0.588,0.22,1.84,0.235c-0.125,0.489-0.748,0.529-0.842,1.188
	c-0.098,0.69,0.369,0.979,0.906,1.146c1.609,0.502,2.404-0.783,3.234-0.357c0.252,0.13,0.881,0.695,1.146,0.914l2.225,1.775
	c0.543,0.375,0.713,0.345,1.373,0.57C81.858,29.625,81.555,30.05,80.96,29.954z M80.643,27.926
	c-0.699-0.501-3.068-2.543-3.439-2.702c-0.949-0.406-1.51,0.391-2.414,0.461c-0.393,0.031-1.088-0.031-1.24-0.352
	c-0.164-0.343,0.334-0.659,0.531-0.84c0.348-0.321,1.168-1.251,1.689-1.38c0.506-0.126,2.125,0.188,2.736,0.278
	c2.559,0.382,1.441,0.024,2.525-0.12c0.23,0.402,1.998,4.8,2.016,5.065C81.856,28.526,81.479,28.523,80.643,27.926z M83.823,28.437
	c-0.27-0.445-2.379-5.71-2.391-6.018c0.387-0.239,1.588-0.823,2.018-0.843c0.262,0.402,2.389,5.702,2.402,6.04
	C85.493,27.788,84.19,28.42,83.823,28.437z"/>
</svg>
