<?xml version="1.0" encoding="utf-8"?>
<!-- Generator: Adobe Illustrator 16.0.0, SVG Export Plug-In . SVG Version: 6.00 Build 0)  -->
<!DOCTYPE svg PUBLIC "-//W3C//DTD SVG 1.1//EN" "http://www.w3.org/Graphics/SVG/1.1/DTD/svg11.dtd">
<svg version="1.1" id="Layer_1" xmlns="http://www.w3.org/2000/svg" xmlns:xlink="http://www.w3.org/1999/xlink" x="0px" y="0px"
	 width="56.693px" height="56.693px" viewBox="0 0 56.693 56.693" enable-background="new 0 0 56.693 56.693" xml:space="preserve">
<path fill-rule="evenodd" clip-rule="evenodd" fill="#77963D" d="M83.597,32.242"/>
<path fill-rule="evenodd" clip-rule="evenodd" fill="#77963D" d="M88.784,32.242"/>
<g>
	<g id="Camada_x0020_1">
		<path fill="#01002F" d="M28.346,47.695c-5.343,0-10.18-2.166-13.681-5.667c-3.502-3.502-5.667-8.339-5.667-13.682
			s2.165-10.181,5.667-13.682c3.501-3.501,8.338-5.667,13.681-5.667c5.342,0,10.18,2.166,13.682,5.667s5.666,8.339,5.666,13.682
			s-2.164,10.18-5.666,13.682C38.526,45.529,33.688,47.695,28.346,47.695z M15.27,41.423c3.347,3.347,7.97,5.417,13.076,5.417
			c5.108,0,9.731-2.07,13.077-5.417c3.348-3.347,5.416-7.97,5.416-13.076s-2.068-9.73-5.416-13.077
			c-3.346-3.347-7.969-5.416-13.077-5.416c-5.106,0-9.729,2.069-13.076,5.416S9.853,23.24,9.853,28.346S11.923,38.076,15.27,41.423z
			"/>
	</g>
	<g>
		<path fill-rule="evenodd" clip-rule="evenodd" fill="#FF7020" d="M35.055,26.656v11.953h-0.73v-6.57
			c0-0.255-0.199-0.455-0.455-0.455h-2.236c-0.189,0-0.41,0.153-0.41,0.32v6.705h-0.822v-8.987c0-0.118-0.023-0.168-0.082-0.235
			c-0.031-0.035-0.172-0.13-0.236-0.13h-2.464c-0.056,0-0.176,0.074-0.212,0.107c-0.077,0.069-0.106,0.128-0.106,0.258v8.987h-0.776
			v-7.391c0-0.226-0.186-0.411-0.411-0.411h-2.327c-0.245,0-0.41,0.227-0.41,0.456v7.346h-0.729v-4.151
			c0-0.376-0.172-0.547-0.547-0.547H20c-0.284,0-0.501,0.13-0.501,0.409v4.289h-1.961c-0.219,0-0.341,0.152-0.365,0.322v0.13
			c0.024,0.171,0.146,0.323,0.365,0.323h2.372c0.29,0,0.41-0.261,0.41-0.547v-4.106h1.505v4.151c0,0.219,0.126,0.502,0.32,0.502
			h1.733c0.194,0,0.32-0.283,0.32-0.502v-7.254h1.505v7.209c0,0.286,0.121,0.547,0.411,0.547h1.642c0.128,0,0.321-0.192,0.321-0.319
			v-9.033h1.549v9.033c0,0.127,0.193,0.319,0.32,0.319h1.734c0.127,0,0.318-0.192,0.318-0.319v-6.66h1.506v6.478
			c0,0.219,0.125,0.502,0.318,0.502h1.734c0.193,0,0.318-0.283,0.318-0.502V26.93h1.506v11.907c0,0.286,0.121,0.547,0.41,0.547
			h2.418c0.182,0,0.299-0.171,0.318-0.352v-0.108c-0.018-0.167-0.131-0.315-0.363-0.315h-1.963V26.475
			c0-0.075-0.104-0.321-0.363-0.321h-2.463C35.18,26.154,35.055,26.438,35.055,26.656"/>
		<path fill-rule="evenodd" clip-rule="evenodd" fill="#01002F" d="M16.477,29.266c-0.03,0.351-0.437,0.694-0.788,0.666
			c-0.736-0.062-0.972-0.938-0.473-1.358C15.714,28.151,16.539,28.531,16.477,29.266 M35.227,21.115l-3.678,3.095
			c0.051,0.292,0.406,0.84-0.154,1.617c-1.129,1.56-3.689,0.043-2.539-1.832l-1.619-1.886c-0.82,0.35-1.178,0.104-1.772-0.297
			L17.25,28.78c0,0.321,0.059,0.407-0.014,0.729c-0.15,0.659-0.67,1.138-1.351,1.207c-1.021,0.104-1.8-0.763-1.73-1.599
			c0.082-0.974,0.852-1.577,1.546-1.519c0.716,0.06,0.638,0.138,1.142,0.45l8.237-6.945c-0.095-0.25-0.062-0.356-0.038-0.644
			c0.064-0.758,0.854-1.394,1.622-1.329c0.893,0.074,1.533,0.824,1.469,1.587c-0.063,0.758-0.138,0.497-0.245,0.883l1.571,1.882
			c0.914-0.39,1.285,0.03,1.58,0.121l3.707-3.118C34.971,20.65,35.012,20.83,35.227,21.115 M30.192,25.651l-0.229-0.019
			c-0.299-0.025-0.607-0.39-0.582-0.689l0.02-0.228c0.066-0.798,1.578-0.808,1.488,0.263C30.86,25.333,30.526,25.679,30.192,25.651
			 M25.803,20.66c0.089-1.063,1.628-0.855,1.549,0.084c-0.057,0.679-0.909,0.953-1.341,0.458
			C25.898,21.075,25.788,20.83,25.803,20.66"/>
	</g>
</g>
<g id="Camada_x0020_1_1_">
	<path fill="#01002F" d="M-26.054,45.503c-5.343,0-10.18-2.166-13.681-5.667c-3.502-3.502-5.667-8.339-5.667-13.682
		s2.165-10.181,5.667-13.682c3.501-3.501,8.338-5.667,13.681-5.667c5.342,0,10.18,2.166,13.682,5.667s5.666,8.339,5.666,13.682
		s-2.164,10.18-5.666,13.682C-15.874,43.337-20.712,45.503-26.054,45.503z M-39.131,39.23c3.347,3.347,7.97,5.417,13.076,5.417
		c5.108,0,9.731-2.07,13.077-5.417c3.348-3.347,5.416-7.97,5.416-13.076s-2.068-9.73-5.416-13.077
		c-3.346-3.347-7.969-5.416-13.077-5.416c-5.106,0-9.729,2.069-13.076,5.416s-5.417,7.971-5.417,13.077S-42.477,35.884-39.131,39.23
		z"/>
	<path fill="#01002F" d="M-37.934,30.108l0.877-2.356l0.014-13.245l14.032,0.013l-0.008,6.943l0.881-0.229l0.088-1.522
		c0,0,0.035-0.843-0.01-0.848c-0.004-0.502,0.049-4.542-0.104-5.104c-0.477-0.252-2.818-0.136-3.606-0.135h-9.663
		c-2.978,0.018-2.508-0.505-2.509,2.511l-0.006,2.68c-0.053,0.01-0.024,0.908-0.024,0.908
		C-37.914,19.963-37.923,27.254-37.934,30.108z"/>
	<path fill="#FF7020" d="M-16.796,23.633c-0.029-0.808,0.029-1.219-0.465-1.757c-0.623-0.676-1.188-0.589-2.152-0.596
		c0.158-3.126-0.471-2.241-2.646-2.388l0.01,0.819l1.725,0.005l0.037,1.521l-1.848-0.004l-0.883,0.229
		c-0.295,0.303-0.525,0.317-0.742,0.778c-0.191,0.41-0.16,0.896-0.168,1.378c-0.57,0.066-1.549,0.029-2.151,0.019
		c-2.731-0.049-5.877-0.003-8.673-0.005c-0.954-0.001-0.864,0.258-1.148,1.024c-0.165,0.445-1.145,2.946-1.156,3.095
		c0,0-0.92,2.48-1.142,3.09l-0.336,0.915c-0.007,0.017-0.051,0.121-0.051,0.124c-0.002,0.009-0.004,0.012-0.006,0.019l-0.021-12.171
		l0.642-0.002l0.024-0.861c-0.924,0.077-1.552-0.25-1.549,1.359v13.007c-0.002,0.605-0.121,1.378,0.37,1.591
		c0.31,0.135,12.319,0.072,15.435,0.062l-0.48-0.836l-14.241,0.005c0.118-0.666,3.229-8.532,3.467-9.492l18.25-0.016l-0.93,2.541
		l0.846,0.329l0.797-2.179C-15.583,24.154-15.355,23.629-16.796,23.633z M-23.046,23.627c-0.08-1.879,0.789-1.444,2.727-1.479
		c2.057-0.036,2.701-0.197,2.641,1.488L-23.046,23.627z"/>
	<path fill="#01002F" d="M-12.525,32.239c0-1.614,0-1.191-1.389-1.39c-0.094-0.271-0.154-0.525-0.27-0.776
		c-0.158-0.344-0.303-0.368-0.08-0.629c0.182-0.212,0.385-0.324,0.49-0.581c0.162-0.391-0.109-0.565-0.277-0.728
		c-0.799-0.77-1.205-1.548-1.771-1.059l-0.598,0.53l-0.359-0.192l-0.846-0.329c-0.229-1.312,0.246-1.271-1.395-1.274
		c-1.688-0.003-1.246-0.123-1.486,1.288l-1.242,0.494c-0.354-0.229-0.85-1.137-1.504-0.329c-0.697,0.861-1.678,1.176-0.938,1.903
		c0.215,0.209,0.244,0.231,0.414,0.471c-0.096,0.214-0.199,0.4-0.289,0.603c-0.084,0.188-0.135,0.417-0.221,0.603
		c-1.362,0.211-1.291-0.185-1.288,1.458c0.004,1.74-0.056,1.153,1.323,1.437l0.078,0.31c0,0,0.363,0.836,0.48,0.836
		c-0.662,1.092-1.203,0.613,0.029,1.937c0.133,0.143,0.221,0.169,0.355,0.326c0.732,0.862,0.914,0.5,1.621-0.185
		c0.205,0.059,0.391,0.181,0.592,0.273c0.197,0.09,0.467,0.171,0.686,0.226c0.037,0.477,0,0.847,0.158,1.207
		c0.471,0.128,2.139,0.138,2.381,0.054c0.377-0.13,0.279-0.816,0.314-1.241c0.391-0.185,0.799-0.281,1.197-0.502
		c0.375,0.147,0.594,0.667,0.992,0.664c0.303-0.002,0.387-0.206,0.525-0.354c0.178-0.188,1.156-0.964,1.205-1.343
		c0.051-0.387-0.475-0.721-0.676-1.042c0.227-0.417,0.316-0.733,0.492-1.214C-12.472,33.435-12.523,33.985-12.525,32.239z
		 M-14.536,32.869c-0.213,0.471-0.324,1.091-0.594,1.593c-0.438,0.821-0.184,0.603,0.352,1.37l-0.699,0.716
		c-0.965-0.973-0.961-0.563-1.719-0.197c-1.232,0.596-1.176-0.159-1.328,1.464l-0.992,0.009c-0.082-0.43,0.074-0.923-0.268-1.105
		c-0.266-0.143-0.738-0.205-1.063-0.365c-0.277-0.138-0.648-0.481-0.949-0.416c-0.176,0.039-0.607,0.482-0.813,0.616l-0.699-0.721
		c0.992-0.806,0.463-1.166,0.215-1.741c-0.109-0.256-0.264-0.868-0.344-1.019c-0.283-0.531-1.031,0.045-1.121-0.466l0.012-0.814
		c0.42-0.083,0.932,0.043,1.104-0.264c0.1-0.177,0.221-0.778,0.328-1.031c0.338-0.796,0.818-0.913-0.209-1.787l0.703-0.726
		c0.525,0.288,0.521,0.939,1.355,0.405c0.484-0.311,1.281-0.404,1.6-0.625l0.098-0.999c0.385-0.07,0.596-0.034,1.006-0.018
		l0.1,1.076c0.537,0.185,1.133,0.302,1.607,0.587c0.93,0.561,0.756,0.001,1.365-0.378l0.711,0.64c-0.09,0.14-0.547,0.633-0.58,0.738
		c-0.111,0.362,0.25,0.72,0.393,1c0.164,0.321,0.201,0.729,0.346,1.015c0.188,0.373,0.703,0.281,1.113,0.318l0.018,1.054
		L-14.536,32.869z"/>
	<path fill="#01002F" d="M-21.279,32.487c-0.098-1.341,0.824-2.328,2.01-2.469c1.32-0.156,2.344,0.894,2.467,2.034
		c0.143,1.314-0.883,2.337-2.031,2.455C-20.081,34.636-21.195,33.643-21.279,32.487z M-19.413,29.15
		c-1.623,0.185-2.99,1.666-2.73,3.526c0.225,1.6,1.656,2.957,3.518,2.693c1.596-0.227,2.914-1.638,2.678-3.486
		C-16.156,30.269-17.572,28.942-19.413,29.15z"/>
	<path fill="#01002F" d="M-33.946,19.591h8.237c0.508,0.001,0.428,0.058,0.817-0.195c0.041-0.25,0.02-0.365-0.037-0.574
		c-0.494-0.218-2.915-0.116-3.691-0.117l-5.388,0.003c-0.526,0-1.181-0.149-1.158,0.466C-35.144,19.739-34.407,19.59-33.946,19.591z
		"/>
	<path fill="#01002F" d="M-35.083,16.908c0.465,0.221,2.422,0.111,3.057,0.109c1.117-0.005,6.527,0.116,7.093-0.102
		c0.283-0.892-0.387-0.772-1.085-0.766l-7.68-0.003C-34.503,16.137-35.382,15.926-35.083,16.908z"/>
	<path fill="#01002F" d="M-27.01,22.152c1.043-0.014,2.418,0.226,2.122-0.614c-0.133-0.372-0.742-0.255-1.192-0.261
		c-2.685-0.038-5.651,0.058-8.301-0.002c-0.56-0.013-0.849,0.03-0.754,0.661c0.424,0.313,0.592,0.21,1.188,0.215l4.149-0.007
		C-28.87,22.141-27.934,22.164-27.01,22.152z"/>
</g>
<path fill-rule="evenodd" clip-rule="evenodd" fill="#01002F" d="M65.676,14.035c-0.506-0.376-1.199-1.316-1.494-1.794
	c0.914,0.253,1.684,0.893,2.658,1.243l0.918-0.654c-0.027,0.044-0.07,0.103-0.092,0.131l-0.684,0.819l0.68,2.796l-2.137-2.065
	C65.685,14.198,65.58,14.482,65.676,14.035 M64.724,14.418c-0.826,0.431-0.615-0.36-1.738,0.027
	c-0.02,0.663,0.982,1.793,1.459,2.317c0.68,0.743,0.525,0.797,0.959,0.352c0.338-0.937-0.271-0.702,0.234-1.57
	c0.568,0.061,0.225-0.242,1.242,1.096c0.455,0.598,0.668,1.005,1.365,1.005c0.605-0.715-0.057-1.744-0.6-3.8
	c0.537-0.382,1.813-0.991,0.977-1.777c-0.729-0.645-0.596-0.166-1.885,0.639c-0.223-0.073-5.742-3.204-2.922,0.151
	C64.263,13.388,64.904,13.898,64.724,14.418"/>
<polygon fill-rule="evenodd" clip-rule="evenodd" fill="#01002F" points="63.746,12.241 65.312,14.478 65.885,15.331 67.574,16.851 
	67.758,16.714 67.506,14.885 67.506,13.754 67.965,12.806 66.261,12.782 64.271,11.948 "/>
<path fill="#01002F" d="M41.077,16.148c0.111,0.331-0.077,0.569-0.259,0.805c-0.063,0.083-0.149,0.15-0.232,0.216
	c-0.292,0.229-0.586,0.455-0.88,0.68c-0.046,0.035-0.067,0.071-0.074,0.128c-0.161,1.261-0.326,2.522-0.484,3.783
	c-0.033,0.256-0.136,0.462-0.35,0.611c-0.063,0.045-0.126,0.094-0.187,0.143c-0.059,0.048-0.116,0.089-0.198,0.055
	c-0.086-0.035-0.093-0.111-0.098-0.188c-0.044-0.492-0.086-0.983-0.129-1.475c-0.051-0.583-0.103-1.166-0.155-1.749
	c-0.001-0.023-0.005-0.046-0.01-0.082c-0.091,0.059-0.175,0.114-0.259,0.168c-0.252,0.162-0.504,0.323-0.758,0.483
	c-0.146,0.091-0.291,0.186-0.438,0.275c-0.038,0.022-0.049,0.047-0.045,0.09c0.03,0.384,0.055,0.767,0.087,1.151
	c0.01,0.098-0.019,0.168-0.101,0.223c-0.061,0.041-0.114,0.089-0.175,0.134c-0.104,0.08-0.207,0.053-0.263-0.068
	c-0.185-0.39-0.368-0.78-0.551-1.17c-0.01-0.021-0.027-0.042-0.047-0.059c-0.33-0.276-0.661-0.553-0.992-0.829
	c-0.104-0.088-0.104-0.192,0.004-0.278c0.066-0.051,0.133-0.1,0.198-0.152c0.055-0.045,0.114-0.053,0.185-0.03
	c0.37,0.128,0.741,0.253,1.112,0.382c0.044,0.015,0.072,0.015,0.111-0.021c0.275-0.262,0.552-0.523,0.83-0.782
	c0.111-0.104,0.229-0.204,0.342-0.308c0.028-0.024,0.056-0.05,0.089-0.083c-0.2-0.071-0.39-0.139-0.578-0.207
	c-0.851-0.304-1.701-0.608-2.552-0.914c-0.147-0.053-0.173-0.096-0.141-0.248l0.416-0.321c0.221-0.111,0.449-0.088,0.685-0.058
	c1.215,0.161,2.432,0.314,3.647,0.472c0.049,0.007,0.084-0.002,0.122-0.033c0.296-0.231,0.594-0.461,0.893-0.688
	c0.084-0.064,0.175-0.121,0.268-0.172c0.165-0.088,0.345-0.125,0.528-0.145c0.119-0.012,0.218,0.042,0.315,0.099L41.077,16.148z"/>
</svg>
