<?xml version="1.0" encoding="utf-8"?>
<!-- Generator: Adobe Illustrator 26.0.1, SVG Export Plug-In . SVG Version: 6.00 Build 0)  -->
<svg version="1.1" id="Layer_1" xmlns="http://www.w3.org/2000/svg" xmlns:xlink="http://www.w3.org/1999/xlink" x="0px" y="0px"
	 viewBox="0 0 56.7 56.7" style="enable-background:new 0 0 56.7 56.7;" xml:space="preserve">
<style type="text/css">
	.st0{fill-rule:evenodd;clip-rule:evenodd;fill:#77963D;}
	.st1{fill:#01002F;}
	.st2{fill-rule:evenodd;clip-rule:evenodd;fill:#FF7020;}
	.st3{fill-rule:evenodd;clip-rule:evenodd;fill:#01002F;}
	.st4{fill:#FF7020;}
</style>
<path class="st0" d="M83.6,32.2"/>
<path class="st0" d="M88.8,32.2"/>
<g>
	<g id="Camada_x0020_1">
		<path class="st1" d="M84.6,58.7c-5.3,0-10.2-2.2-13.7-5.7c-3.5-3.5-5.7-8.3-5.7-13.7s2.2-10.2,5.7-13.7c3.5-3.5,8.3-5.7,13.7-5.7
			c5.3,0,10.2,2.2,13.7,5.7s5.7,8.3,5.7,13.7s-2.2,10.2-5.7,13.7C94.8,56.6,89.9,58.7,84.6,58.7z M71.5,52.5c3.3,3.3,8,5.4,13.1,5.4
			c5.1,0,9.7-2.1,13.1-5.4c3.3-3.3,5.4-8,5.4-13.1s-2.1-9.7-5.4-13.1c-3.3-3.3-8-5.4-13.1-5.4c-5.1,0-9.7,2.1-13.1,5.4
			c-3.3,3.3-5.4,8-5.4,13.1S68.1,49.1,71.5,52.5z"/>
	</g>
	<g>
		<path class="st2" d="M91.3,37.7v12h-0.7v-6.6c0-0.3-0.2-0.5-0.5-0.5h-2.2c-0.2,0-0.4,0.2-0.4,0.3v6.7h-0.8v-9c0-0.1,0-0.2-0.1-0.2
			c0,0-0.2-0.1-0.2-0.1h-2.5c-0.1,0-0.2,0.1-0.2,0.1c-0.1,0.1-0.1,0.1-0.1,0.3v9h-0.8v-7.4c0-0.2-0.2-0.4-0.4-0.4H80
			c-0.2,0-0.4,0.2-0.4,0.5v7.3h-0.7v-4.2c0-0.4-0.2-0.5-0.5-0.5h-2.1c-0.3,0-0.5,0.1-0.5,0.4v4.3h-2c-0.2,0-0.3,0.2-0.4,0.3v0.1
			c0,0.2,0.1,0.3,0.4,0.3h2.4c0.3,0,0.4-0.3,0.4-0.5v-4.1h1.5v4.2c0,0.2,0.1,0.5,0.3,0.5h1.7c0.2,0,0.3-0.3,0.3-0.5v-7.3h1.5v7.2
			c0,0.3,0.1,0.5,0.4,0.5H84c0.1,0,0.3-0.2,0.3-0.3v-9h1.6v9c0,0.1,0.2,0.3,0.3,0.3h1.7c0.1,0,0.3-0.2,0.3-0.3v-6.7h1.5v6.5
			c0,0.2,0.1,0.5,0.3,0.5h1.7c0.2,0,0.3-0.3,0.3-0.5V38h1.5v11.9c0,0.3,0.1,0.5,0.4,0.5h2.4c0.2,0,0.3-0.2,0.3-0.4V50
			c0-0.2-0.1-0.3-0.4-0.3h-2V37.5c0-0.1-0.1-0.3-0.4-0.3h-2.5C91.4,37.2,91.3,37.5,91.3,37.7"/>
		<path class="st3" d="M72.7,40.3c0,0.4-0.4,0.7-0.8,0.7c-0.7-0.1-1-0.9-0.5-1.4C71.9,39.2,72.8,39.6,72.7,40.3 M91.5,32.2l-3.7,3.1
			c0.1,0.3,0.4,0.8-0.2,1.6c-1.1,1.6-3.7,0-2.5-1.8l-1.6-1.9c-0.8,0.3-1.2,0.1-1.8-0.3l-8.2,7c0,0.3,0.1,0.4,0,0.7
			c-0.2,0.7-0.7,1.1-1.4,1.2c-1,0.1-1.8-0.8-1.7-1.6c0.1-1,0.9-1.6,1.5-1.5c0.7,0.1,0.6,0.1,1.1,0.5l8.2-6.9c-0.1-0.2-0.1-0.4,0-0.6
			c0.1-0.8,0.9-1.4,1.6-1.3c0.9,0.1,1.5,0.8,1.5,1.6c-0.1,0.8-0.1,0.5-0.2,0.9l1.6,1.9c0.9-0.4,1.3,0,1.6,0.1l3.7-3.1
			C91.2,31.7,91.2,31.9,91.5,32.2 M86.4,36.7l-0.2,0c-0.3,0-0.6-0.4-0.6-0.7l0-0.2c0.1-0.8,1.6-0.8,1.5,0.3
			C87.1,36.4,86.8,36.7,86.4,36.7 M82,31.7c0.1-1.1,1.6-0.9,1.6,0.1c-0.1,0.7-0.9,1-1.3,0.5C82.1,32.1,82,31.9,82,31.7"/>
	</g>
</g>
<g id="Camada_x0020_1_1_">
	<path class="st1" d="M-26.1,45.5c-5.3,0-10.2-2.2-13.7-5.7c-3.5-3.5-5.7-8.3-5.7-13.7s2.2-10.2,5.7-13.7c3.5-3.5,8.3-5.7,13.7-5.7
		c5.3,0,10.2,2.2,13.7,5.7s5.7,8.3,5.7,13.7s-2.2,10.2-5.7,13.7C-15.9,43.3-20.7,45.5-26.1,45.5z M-39.1,39.2
		c3.3,3.3,8,5.4,13.1,5.4c5.1,0,9.7-2.1,13.1-5.4c3.3-3.3,5.4-8,5.4-13.1s-2.1-9.7-5.4-13.1c-3.3-3.3-8-5.4-13.1-5.4
		c-5.1,0-9.7,2.1-13.1,5.4s-5.4,8-5.4,13.1S-42.5,35.9-39.1,39.2z"/>
	<path class="st1" d="M-37.9,30.1l0.9-2.4l0-13.2l14,0l0,6.9l0.9-0.2l0.1-1.5c0,0,0-0.8,0-0.8c0-0.5,0-4.5-0.1-5.1
		c-0.5-0.3-2.8-0.1-3.6-0.1h-9.7c-3,0-2.5-0.5-2.5,2.5l0,2.7c-0.1,0,0,0.9,0,0.9C-37.9,20-37.9,27.3-37.9,30.1z"/>
	<path class="st4" d="M-16.8,23.6c0-0.8,0-1.2-0.5-1.8c-0.6-0.7-1.2-0.6-2.2-0.6c0.2-3.1-0.5-2.2-2.6-2.4l0,0.8l1.7,0l0,1.5l-1.8,0
		l-0.9,0.2c-0.3,0.3-0.5,0.3-0.7,0.8c-0.2,0.4-0.2,0.9-0.2,1.4c-0.6,0.1-1.5,0-2.2,0c-2.7,0-5.9,0-8.7,0c-1,0-0.9,0.3-1.1,1
		c-0.2,0.4-1.1,2.9-1.2,3.1c0,0-0.9,2.5-1.1,3.1l-0.3,0.9c0,0-0.1,0.1-0.1,0.1c0,0,0,0,0,0l0-12.2l0.6,0l0-0.9
		c-0.9,0.1-1.6-0.2-1.5,1.4v13c0,0.6-0.1,1.4,0.4,1.6c0.3,0.1,12.3,0.1,15.4,0.1l-0.5-0.8l-14.2,0c0.1-0.7,3.2-8.5,3.5-9.5l18.2,0
		l-0.9,2.5l0.8,0.3l0.8-2.2C-15.6,24.2-15.4,23.6-16.8,23.6z M-23,23.6c-0.1-1.9,0.8-1.4,2.7-1.5c2.1,0,2.7-0.2,2.6,1.5L-23,23.6z"
		/>
	<path class="st1" d="M-12.5,32.2c0-1.6,0-1.2-1.4-1.4c-0.1-0.3-0.2-0.5-0.3-0.8c-0.2-0.3-0.3-0.4-0.1-0.6c0.2-0.2,0.4-0.3,0.5-0.6
		c0.2-0.4-0.1-0.6-0.3-0.7c-0.8-0.8-1.2-1.5-1.8-1.1l-0.6,0.5l-0.4-0.2l-0.8-0.3c-0.2-1.3,0.2-1.3-1.4-1.3c-1.7,0-1.2-0.1-1.5,1.3
		l-1.2,0.5c-0.4-0.2-0.9-1.1-1.5-0.3c-0.7,0.9-1.7,1.2-0.9,1.9c0.2,0.2,0.2,0.2,0.4,0.5c-0.1,0.2-0.2,0.4-0.3,0.6
		c-0.1,0.2-0.1,0.4-0.2,0.6c-1.4,0.2-1.3-0.2-1.3,1.5c0,1.7-0.1,1.2,1.3,1.4l0.1,0.3c0,0,0.4,0.8,0.5,0.8c-0.7,1.1-1.2,0.6,0,1.9
		c0.1,0.1,0.2,0.2,0.4,0.3c0.7,0.9,0.9,0.5,1.6-0.2c0.2,0.1,0.4,0.2,0.6,0.3c0.2,0.1,0.5,0.2,0.7,0.2c0,0.5,0,0.8,0.2,1.2
		c0.5,0.1,2.1,0.1,2.4,0.1c0.4-0.1,0.3-0.8,0.3-1.2c0.4-0.2,0.8-0.3,1.2-0.5c0.4,0.1,0.6,0.7,1,0.7c0.3,0,0.4-0.2,0.5-0.4
		c0.2-0.2,1.2-1,1.2-1.3c0.1-0.4-0.5-0.7-0.7-1c0.2-0.4,0.3-0.7,0.5-1.2C-12.5,33.4-12.5,34-12.5,32.2z M-14.5,32.9
		c-0.2,0.5-0.3,1.1-0.6,1.6c-0.4,0.8-0.2,0.6,0.4,1.4l-0.7,0.7c-1-1-1-0.6-1.7-0.2c-1.2,0.6-1.2-0.2-1.3,1.5l-1,0
		c-0.1-0.4,0.1-0.9-0.3-1.1c-0.3-0.1-0.7-0.2-1.1-0.4c-0.3-0.1-0.6-0.5-0.9-0.4c-0.2,0-0.6,0.5-0.8,0.6l-0.7-0.7
		c1-0.8,0.5-1.2,0.2-1.7c-0.1-0.3-0.3-0.9-0.3-1c-0.3-0.5-1,0-1.1-0.5l0-0.8c0.4-0.1,0.9,0,1.1-0.3c0.1-0.2,0.2-0.8,0.3-1
		c0.3-0.8,0.8-0.9-0.2-1.8l0.7-0.7c0.5,0.3,0.5,0.9,1.4,0.4c0.5-0.3,1.3-0.4,1.6-0.6l0.1-1c0.4-0.1,0.6,0,1,0l0.1,1.1
		c0.5,0.2,1.1,0.3,1.6,0.6c0.9,0.6,0.8,0,1.4-0.4l0.7,0.6c-0.1,0.1-0.5,0.6-0.6,0.7c-0.1,0.4,0.2,0.7,0.4,1c0.2,0.3,0.2,0.7,0.3,1
		c0.2,0.4,0.7,0.3,1.1,0.3l0,1.1L-14.5,32.9z"/>
	<path class="st1" d="M-21.3,32.5c-0.1-1.3,0.8-2.3,2-2.5c1.3-0.2,2.3,0.9,2.5,2c0.1,1.3-0.9,2.3-2,2.5
		C-20.1,34.6-21.2,33.6-21.3,32.5z M-19.4,29.1c-1.6,0.2-3,1.7-2.7,3.5c0.2,1.6,1.7,3,3.5,2.7c1.6-0.2,2.9-1.6,2.7-3.5
		C-16.2,30.3-17.6,28.9-19.4,29.1z"/>
	<path class="st1" d="M-33.9,19.6h8.2c0.5,0,0.4,0.1,0.8-0.2c0-0.2,0-0.4,0-0.6c-0.5-0.2-2.9-0.1-3.7-0.1l-5.4,0
		c-0.5,0-1.2-0.1-1.2,0.5C-35.1,19.7-34.4,19.6-33.9,19.6z"/>
	<path class="st1" d="M-35.1,16.9c0.5,0.2,2.4,0.1,3.1,0.1c1.1,0,6.5,0.1,7.1-0.1c0.3-0.9-0.4-0.8-1.1-0.8l-7.7,0
		C-34.5,16.1-35.4,15.9-35.1,16.9z"/>
	<path class="st1" d="M-27,22.2c1,0,2.4,0.2,2.1-0.6c-0.1-0.4-0.7-0.3-1.2-0.3c-2.7,0-5.7,0.1-8.3,0c-0.6,0-0.8,0-0.8,0.7
		c0.4,0.3,0.6,0.2,1.2,0.2l4.1,0C-28.9,22.1-27.9,22.2-27,22.2z"/>
</g>
<path class="st3" d="M65.7,14c-0.5-0.4-1.2-1.3-1.5-1.8c0.9,0.3,1.7,0.9,2.7,1.2l0.9-0.7c0,0-0.1,0.1-0.1,0.1L67,13.8l0.7,2.8
	l-2.1-2.1C65.7,14.2,65.6,14.5,65.7,14 M64.7,14.4c-0.8,0.4-0.6-0.4-1.7,0c0,0.7,1,1.8,1.5,2.3c0.7,0.7,0.5,0.8,1,0.4
	c0.3-0.9-0.3-0.7,0.2-1.6c0.6,0.1,0.2-0.2,1.2,1.1c0.5,0.6,0.7,1,1.4,1c0.6-0.7-0.1-1.7-0.6-3.8c0.5-0.4,1.8-1,1-1.8
	c-0.7-0.6-0.6-0.2-1.9,0.6c-0.2-0.1-5.7-3.2-2.9,0.2C64.3,13.4,64.9,13.9,64.7,14.4"/>
<polygon class="st3" points="63.7,12.2 65.3,14.5 65.9,15.3 67.6,16.9 67.8,16.7 67.5,14.9 67.5,13.8 68,12.8 66.3,12.8 64.3,11.9 
	"/>
<path class="st1" d="M97.3,27.2c0.1,0.3-0.1,0.6-0.3,0.8c-0.1,0.1-0.1,0.1-0.2,0.2c-0.3,0.2-0.6,0.5-0.9,0.7c0,0-0.1,0.1-0.1,0.1
	c-0.2,1.3-0.3,2.5-0.5,3.8c0,0.3-0.1,0.5-0.3,0.6c-0.1,0-0.1,0.1-0.2,0.1c-0.1,0-0.1,0.1-0.2,0.1c-0.1,0-0.1-0.1-0.1-0.2
	c0-0.5-0.1-1-0.1-1.5c-0.1-0.6-0.1-1.2-0.2-1.7c0,0,0,0,0-0.1c-0.1,0.1-0.2,0.1-0.3,0.2c-0.3,0.2-0.5,0.3-0.8,0.5
	c-0.1,0.1-0.3,0.2-0.4,0.3c0,0,0,0,0,0.1c0,0.4,0.1,0.8,0.1,1.2c0,0.1,0,0.2-0.1,0.2c-0.1,0-0.1,0.1-0.2,0.1
	c-0.1,0.1-0.2,0.1-0.3-0.1c-0.2-0.4-0.4-0.8-0.6-1.2c0,0,0,0,0-0.1c-0.3-0.3-0.7-0.6-1-0.8c-0.1-0.1-0.1-0.2,0-0.3
	c0.1-0.1,0.1-0.1,0.2-0.2c0.1,0,0.1-0.1,0.2,0c0.4,0.1,0.7,0.3,1.1,0.4c0,0,0.1,0,0.1,0c0.3-0.3,0.6-0.5,0.8-0.8
	c0.1-0.1,0.2-0.2,0.3-0.3c0,0,0.1-0.1,0.1-0.1c-0.2-0.1-0.4-0.1-0.6-0.2c-0.9-0.3-1.7-0.6-2.6-0.9c-0.1-0.1-0.2-0.1-0.1-0.2l0.4-0.3
	c0.2-0.1,0.4-0.1,0.7-0.1c1.2,0.2,2.4,0.3,3.6,0.5c0,0,0.1,0,0.1,0c0.3-0.2,0.6-0.5,0.9-0.7c0.1-0.1,0.2-0.1,0.3-0.2
	c0.2-0.1,0.3-0.1,0.5-0.1c0.1,0,0.2,0,0.3,0.1L97.3,27.2z"/>
<g>
	<g>
		<path class="st2" d="M34.7,15.4c0.2,0.1,0.3,0.3,0.2,0.5c-0.1,0.2-0.3,0.3-0.5,0.3c-0.3,0-0.6,0-0.9,0c-0.6,0.1-1.1,0.7-1.1,1.3
			c0,0.8,0,1.5,0,2.3c0,0.6,0.4,1.1,1,1.3c0.6,0.2,0.8,0.5,0.8,1.1c0,0.2,0,0.4,0,0.7c0.1-0.1,0.1-0.1,0.2-0.2
			c0.3-0.4,0.5-0.7,0.8-1.1c0.2-0.3,0.6-0.5,1-0.5c0.9,0,1.8,0,2.6,0c1,0,1.5-0.6,1.5-1.5c0-0.6,0-1.3,0-1.9c0-0.9-0.6-1.5-1.5-1.5
			c-0.8,0-1.6,0-2.3,0c-0.2,0-0.4,0-0.5-0.2c-0.1-0.2,0.1-0.4,0.2-0.5c1,0,2.1,0,3.1,0c0.1,0,0.3,0.1,0.4,0.1c0.8,0.3,1.3,1,1.4,1.9
			c0,0.8,0,1.7,0,2.5c-0.1,1.1-1,2-2.1,2c-0.9,0-1.9,0-2.8,0c-0.2,0-0.3,0.1-0.4,0.2c-0.4,0.6-0.8,1.1-1.2,1.7
			c-0.2,0.3-0.4,0.4-0.7,0.3c-0.2-0.1-0.4-0.3-0.4-0.6c0-0.4,0-0.9,0-1.3c0-0.2-0.1-0.3-0.3-0.4c-1-0.3-1.5-1.1-1.6-2.1
			c0-0.7,0-1.4,0-2c0-1.1,0.7-1.9,1.8-2.2c0,0,0.1,0,0.1,0C34,15.4,34.3,15.4,34.7,15.4z"/>
		<path class="st3" d="M18.8,26.2c-0.7-0.2-1.2-0.7-1.3-1.5c0-0.6,0-1.2,0-1.8c0.2-2.8,2-5.2,4.7-6c4-1.4,8.4,1.3,9,5.5
			c0.1,0.8,0.1,1.5,0.1,2.3c0,0.9-0.7,1.5-1.6,1.5c-0.4,0-0.7,0-1,0c-0.1,0.5-0.2,0.9-0.4,1.3c-0.2,0.6-0.6,1-1.1,1.4
			c-0.1,0.1-0.2,0.2-0.2,0.3c0,0.4,0,0.8,0,1.1c0,0.2,0.1,0.3,0.3,0.4c1,0.2,2,0.4,3,0.6c1.3,0.3,2.2,1,2.7,2.3
			c0.2,0.4,0.2,0.9,0.2,1.3c0,1.7,0,3.3,0,5c0,0.8-0.5,1.2-1.2,1.2c-5.1,0-10.2,0-15.3,0c-0.8,0-1.2-0.5-1.2-1.2c0-0.6,0-1.3,0-1.9
			c0-0.3,0.1-0.5,0.4-0.5c0.2,0,0.4,0.2,0.4,0.5c0,0.6,0,1.2,0,1.8c0,0.5,0.1,0.6,0.6,0.6c0.4,0,0.8,0,1.3,0c0-0.4,0-0.8,0-1.2
			c0-0.2,0-0.3,0-0.5c0-0.3,0.2-0.4,0.4-0.4c0.2,0,0.4,0.1,0.4,0.4c0,0.5,0,1,0,1.5c0,0,0,0.1,0,0.2c1.7,0,3.4,0,5.1,0
			c0-2,0-4.1,0-6.2c-0.5,0.1-0.9,0.1-1.4,0.2c-0.9,0.1-1.4-0.1-1.8-0.9c-0.3-0.5-0.6-1.1-0.9-1.6c-0.1-0.1-0.1-0.2-0.3-0.1
			c-0.6,0.2-1.2,0.3-1.7,0.5c-1,0.4-1.5,1.2-1.6,2.3c0,0.5,0,0.9,0,1.4c0,0.3-0.2,0.5-0.4,0.4c-0.2,0-0.3-0.1-0.3-0.3
			c0-0.9-0.1-1.7,0.2-2.6c0.5-1.2,1.3-1.9,2.5-2.2c1-0.3,2.1-0.4,3.2-0.7c0.2,0,0.3-0.1,0.3-0.4c0-0.4,0-0.8,0-1.2
			c0-0.1-0.1-0.2-0.1-0.3c-0.3-0.3-0.6-0.6-0.9-0.9c-0.1-0.1-0.1-0.1-0.2-0.1c-0.3,0-0.5,0-0.8,0c-0.6,0-1-0.5-1.1-1.1
			C18.8,26.7,18.8,26.4,18.8,26.2z M24.9,34.3c0,2.1,0,4.1,0,6.2c1.7,0,3.4,0,5.1,0c0-0.1,0-0.3,0-0.4c0-0.4,0-0.8,0-1.2
			c0-0.3,0.1-0.4,0.4-0.4c0.2,0,0.4,0.1,0.4,0.4c0,0.1,0,0.3,0,0.4c0,0.4,0,0.8,0,1.2c0.1,0,0.1,0,0.1,0c0.4,0,0.9,0,1.3,0
			c0.3,0,0.5-0.1,0.5-0.5c0-1.7,0-3.4,0-5.1c0-1.2-0.7-2.2-1.8-2.6c-0.5-0.2-1.1-0.3-1.6-0.5c-0.2,0-0.2,0-0.3,0.1
			c-0.3,0.5-0.6,1.1-0.9,1.6c-0.4,0.8-0.9,1-1.8,0.9C25.8,34.4,25.3,34.4,24.9,34.3z M22.7,28.7C22.7,28.8,22.7,28.8,22.7,28.7
			c0.9,0.6,1.8,0.8,2.8,0.4c0.2-0.1,0.4-0.2,0.6-0.3c1.1-0.7,1.8-1.6,1.7-3c0-0.9,0-1.8,0-2.8c0-0.7-0.2-1.2-0.7-1.6
			c-0.1-0.1-0.2-0.2-0.3-0.3c-0.4-0.3-0.7-0.3-1.1,0c-0.7,0.6-1.4,0.9-2.3,0.9c-0.5,0-1,0-1.5,0c-0.5,0-0.9,0.4-0.9,0.9
			c0,1.1,0,2.3,0,3.4c0,0.2,0,0.3,0.1,0.4c0.3-0.1,0.5-0.2,0.7-0.2c0.5,0,1,0,1.5,0c0.6,0,1,0.5,1,1c0,0.6-0.4,1.1-1,1.1
			C23.2,28.7,23,28.7,22.7,28.7z M29.2,22.5c-0.4-2.4-2.8-4.2-5.3-3.9c-2.1,0.2-4.3,2.3-4.3,3.9c0.1,0,0.2,0,0.3,0
			c0.2,0,0.3-0.1,0.4-0.3c0.3-0.7,0.8-1,1.5-1c0.4,0,0.8,0,1.2,0c0.8,0,1.6-0.2,2.2-0.8c0.5-0.5,1.3-0.5,1.9,0
			c0.3,0.2,0.5,0.5,0.8,0.7c0.2,0.3,0.4,0.6,0.5,1C28.7,22.6,28.7,22.6,29.2,22.5C29.2,22.6,29.2,22.5,29.2,22.5z M30.1,25.4
			c0.3-0.2,0.5-0.4,0.5-0.8c0-0.7,0-1.5-0.1-2.2c-0.4-2.6-2.5-4.6-5.1-5.1c-2.5-0.4-5.1,0.9-6.3,3.2c-0.7,1.3-0.8,2.7-0.7,4.1
			c0,0.3,0.2,0.5,0.5,0.7c0-0.2,0-0.4,0-0.6c0-0.7,0-1.5,0.1-2.2c0.4-2.2,1.6-3.7,3.7-4.5c2.1-0.7,4-0.3,5.7,1.1
			c1.2,1.1,1.8,2.5,1.8,4.2C30.1,24.1,30.1,24.7,30.1,25.4z M26.3,29.6c-1.2,0.7-2.4,0.7-3.7,0c-0.1,0.6,0.1,1.2-0.3,1.7
			c0.7,0.7,1.4,1.4,2.1,2.1c0.7-0.7,1.4-1.4,2.1-2.1C26.1,30.8,26.4,30.2,26.3,29.6z M28.2,31.7c-0.3,0-0.5-0.1-0.7-0.1
			c-0.1,0-0.2,0-0.3,0.1c-0.6,0.6-1.2,1.2-1.8,1.8c0,0-0.1,0.1-0.1,0.1c0.4,0.1,0.9,0.1,1.3,0.2c0.3,0,0.5-0.1,0.7-0.3
			C27.6,32.9,27.9,32.3,28.2,31.7z M20.7,31.7c0.3,0.6,0.7,1.2,1,1.8c0.1,0.2,0.3,0.3,0.6,0.3c0.4,0,0.9-0.1,1.3-0.2c0,0,0,0,0-0.1
			c-0.7-0.6-1.3-1.3-2-1.9c0,0-0.1-0.1-0.2-0.1C21.2,31.6,21,31.7,20.7,31.7z M20.3,25.5c0-0.7,0-1.4,0-2.1c-0.2,0-0.5,0-0.7,0
			c0,0.7,0,1.4,0,2.1C19.8,25.5,20,25.5,20.3,25.5z M29.3,23.3c-0.2,0-0.5,0-0.7,0c0,0.7,0,1.4,0,2.1c0.2,0,0.4,0,0.7,0
			C29.3,24.8,29.3,24.1,29.3,23.3z M22.6,27.3c-0.2,0-0.5,0-0.7,0c-0.2,0-0.3,0.1-0.3,0.3c0,0.2,0.1,0.3,0.3,0.3c0.5,0,1,0,1.5,0
			c0.2,0,0.3-0.1,0.3-0.3c0-0.2-0.1-0.3-0.3-0.3C23.1,27.3,22.8,27.3,22.6,27.3z M19.6,26.2c0,0.2,0,0.5,0,0.7
			c0,0.1,0.2,0.2,0.3,0.3c0.2,0,0.4,0,0.5,0c-0.1-0.3-0.1-0.7-0.2-1C20,26.2,19.8,26.2,19.6,26.2z"/>
		<path class="st2" d="M36.5,19.2c0.7,0,1.4,0,2.1,0c0.3,0,0.5,0.1,0.5,0.4c0,0.2-0.2,0.4-0.5,0.4c-1.4,0-2.9,0-4.3,0
			c-0.3,0-0.5-0.2-0.5-0.4c0-0.2,0.2-0.4,0.5-0.4C35.1,19.2,35.8,19.2,36.5,19.2z"/>
		<path class="st2" d="M36.5,18.2c-0.7,0-1.4,0-2.1,0c-0.1,0-0.2,0-0.3,0c-0.2,0-0.3-0.2-0.3-0.3c0-0.2,0.1-0.3,0.3-0.4
			c0.1,0,0.1,0,0.2,0c1.4,0,2.9,0,4.3,0c0,0,0.1,0,0.1,0c0.2,0,0.4,0.2,0.4,0.4c0,0.2-0.2,0.4-0.4,0.4c-0.4,0-0.7,0-1.1,0
			C37.3,18.2,36.9,18.2,36.5,18.2z"/>
		<path class="st3" d="M27.8,36c0.3,0,0.7,0,1,0c0.4,0,0.7,0.2,0.7,0.7c0,0.3,0,0.5,0,0.8c0,0.4-0.3,0.7-0.7,0.7c-0.7,0-1.4,0-2.1,0
			c-0.4,0-0.7-0.2-0.7-0.7c0-0.3,0-0.5,0-0.8c0-0.4,0.3-0.7,0.7-0.7c0,0,0,0,0.1,0C27.1,36,27.5,36,27.8,36z M26.9,36.8
			c0,0.2,0,0.4,0,0.6c0.6,0,1.2,0,1.9,0c0-0.2,0-0.4,0-0.6C28.1,36.8,27.5,36.8,26.9,36.8z"/>
	</g>
	<g id="Camada_x0020_1_2_">
		<path class="st1" d="M28.3,47.7c-5.3,0-10.2-2.2-13.7-5.7C11.2,38.5,9,33.7,9,28.3s2.2-10.2,5.7-13.7C18.2,11.2,23,9,28.3,9
			s10.2,2.2,13.7,5.7s5.7,8.3,5.7,13.7S45.5,38.5,42,42C38.5,45.5,33.7,47.7,28.3,47.7z M15.3,41.4c3.3,3.3,8,5.4,13.1,5.4
			c5.1,0,9.7-2.1,13.1-5.4c3.3-3.3,5.4-8,5.4-13.1s-2.1-9.7-5.4-13.1c-3.3-3.3-8-5.4-13.1-5.4c-5.1,0-9.7,2.1-13.1,5.4
			c-3.3,3.3-5.4,8-5.4,13.1S11.9,38.1,15.3,41.4z"/>
	</g>
</g>
<g>
	<path class="st2" d="M-4.4-1.5c-0.6-4.2-5-6.8-9-5.5C-16-6.1-17.8-3.8-18.1-1c0,0.6-0.1,1.2,0,1.8c0.1,0.8,0.5,1.2,1.3,1.5
		c0,0.2,0,0.5,0,0.7c0,0.6,0.5,1,1.1,1.1c0.3,0,0.5,0,0.8,0c0.1,0,0.2,0.1,0.2,0.1c0.2,0.2,0.5,0.5,0.7,0.7h1.3c0,0-0.1,0-0.1,0
		c0,0,0,0,0-0.1c0.2,0,0.5,0,0.7,0c0.6,0,1-0.5,1-1.1c0-0.6-0.5-1-1-1c-0.5,0-1,0-1.5,0c-0.2,0-0.5,0.1-0.7,0.2
		C-14.8,3-14.9,3-15.2,3.3c-0.2,0-0.4,0-0.5,0C-15.9,3.3-16,3.2-16,3c0-0.2,0-0.5,0-0.7l0.7,0l0-0.8l-0.7,0v-2.1l0.7,0l0-0.8
		c0,0-0.2,0-0.3,0c-0.1,0-0.2,0-0.3,0C-16-3-13.8-5.1-11.7-5.3c2.5-0.3,4.9,1.5,5.3,3.9c0,0,0,0-0.1,0c-0.3,0-0.4,0-0.5,0h0v0.8h0.6
		v2.1h-0.6v0.7c0.4,0,0.8,0,1.2,0c0.8-0.1,1.4-0.7,1.5-1.5C-4.3,0-4.3-0.7-4.4-1.5z M-13.8,3.4c0.2,0,0.5,0,0.7,0c0.2,0,0.5,0,0.7,0
		c0.2,0,0.3,0.1,0.3,0.3c0,0.2-0.1,0.3-0.3,0.3c-0.5,0-1,0-1.5,0c-0.2,0-0.3-0.1-0.3-0.3C-14.1,3.5-14,3.4-13.8,3.4z M-5.5,1.5
		c0-0.6,0-1.3,0-1.9c0-1.7-0.6-3.1-1.8-4.2C-9-6.1-11-6.5-13.1-5.7c-2.1,0.7-3.3,2.3-3.7,4.5c-0.1,0.7-0.1,1.4-0.1,2.2
		c0,0.2,0,0.4,0,0.6c-0.3-0.1-0.5-0.4-0.5-0.7c-0.1-1.4,0-2.8,0.7-4.1c1.2-2.3,3.8-3.6,6.3-3.2c2.7,0.4,4.8,2.5,5.1,5.1
		C-5-0.7-5,0-5,0.7C-5,1-5.2,1.3-5.5,1.5z"/>
</g>
</svg>
