<?xml version="1.0" encoding="utf-8"?>
<!-- Generator: Adobe Illustrator 16.0.0, SVG Export Plug-In . SVG Version: 6.00 Build 0)  -->
<!DOCTYPE svg PUBLIC "-//W3C//DTD SVG 1.1//EN" "http://www.w3.org/Graphics/SVG/1.1/DTD/svg11.dtd">
<svg version="1.1" id="Layer_1" xmlns="http://www.w3.org/2000/svg" xmlns:xlink="http://www.w3.org/1999/xlink" x="0px" y="0px"
	 width="56.693px" height="56.693px" viewBox="0 0 56.693 56.693" enable-background="new 0 0 56.693 56.693" xml:space="preserve">
<g>
	<g id="Camada_x0020_1">
		<path fill="#01002F" d="M28.346,47.695c-5.343,0-10.18-2.166-13.681-5.667c-3.502-3.502-5.667-8.339-5.667-13.682
			s2.165-10.181,5.667-13.682c3.501-3.501,8.338-5.667,13.681-5.667c5.342,0,10.18,2.166,13.682,5.667s5.666,8.339,5.666,13.682
			s-2.164,10.18-5.666,13.682C38.526,45.529,33.688,47.695,28.346,47.695z M15.27,41.423c3.347,3.347,7.97,5.417,13.076,5.417
			c5.108,0,9.731-2.07,13.077-5.417c3.348-3.347,5.416-7.97,5.416-13.076s-2.068-9.73-5.416-13.077
			c-3.346-3.347-7.969-5.416-13.077-5.416c-5.106,0-9.729,2.069-13.076,5.416S9.853,23.24,9.853,28.346S11.923,38.076,15.27,41.423z
			"/>
	</g>
	<g>
		<path fill-rule="evenodd" clip-rule="evenodd" fill="#017A00" d="M28.3,25.901c-0.802,0-1.604,0.033-2.402-0.01
			c-0.896-0.048-1.408-0.529-1.407-1.468c0-0.837-0.038-1.677,0.015-2.511c0.095-1.473,1.251-2.285,2.653-1.869
			c0.797,0.237,1.561,0.244,2.358,0.006c1.414-0.42,2.572,0.375,2.672,1.842c0.057,0.834,0.018,1.674,0.016,2.511
			c-0.004,0.992-0.557,1.465-1.502,1.497c-0.799,0.028-1.602,0.006-2.402,0.006C28.3,25.905,28.3,25.903,28.3,25.901z"/>
		<path fill-rule="evenodd" clip-rule="evenodd" fill="#01002F" d="M19.304,40.2c-0.765,0-1.53,0.026-2.293-0.007
			c-1.006-0.044-1.623-0.649-1.674-1.642c-0.036-0.689-0.035-1.385-0.004-2.074c0.079-1.733,1.294-2.62,2.951-2.152
			c0.729,0.206,1.428,0.165,2.148-0.039c1.45-0.411,2.627,0.409,2.729,1.922c0.055,0.799,0.03,1.603,0.011,2.402
			c-0.025,1.01-0.588,1.537-1.574,1.583C20.835,40.228,20.07,40.2,19.304,40.2z"/>
		<path fill-rule="evenodd" clip-rule="evenodd" fill="#01002F" d="M37.364,40.204c-0.729-0.002-1.457,0.019-2.186-0.007
			c-1.064-0.036-1.613-0.569-1.654-1.613c-0.029-0.763-0.037-1.53,0.002-2.294c0.086-1.586,1.25-2.427,2.762-1.996
			c0.762,0.218,1.492,0.219,2.254-0.007c1.369-0.407,2.525,0.345,2.795,1.78c0.02,0.107,0.025,0.218,0.027,0.326
			C41.391,39.764,41.7,40.385,37.364,40.204z"/>
		<path fill-rule="evenodd" clip-rule="evenodd" fill="#01002F" d="M23.106,19.271c-2.529,1.774-3.873,4.129-4.219,7.076
			c-0.029,0.253-0.037,0.509-0.078,0.76c-0.03,0.189-0.135,0.346-0.35,0.355c-0.267,0.013-0.409-0.167-0.433-0.396
			c-0.029-0.287-0.026-0.583,0.009-0.869c0.38-3.132,1.815-5.648,4.389-7.497c0.428-0.308,1.106-0.571,0.164-1.094
			c-0.165-0.092-0.247-0.281-0.149-0.472c0.115-0.224,0.322-0.303,0.552-0.203c0.533,0.232,1.076,0.452,1.581,0.738
			c0.425,0.241,0.255,0.623,0.097,0.962c-0.138,0.297-0.272,0.597-0.429,0.884c-0.152,0.278-0.234,0.68-0.636,0.669
			C23.044,20.169,23.355,19.604,23.106,19.271z"/>
		<path fill-rule="evenodd" clip-rule="evenodd" fill="#01002F" d="M39.927,25.94c-0.238,0.611-0.783,1.002-1.271,1.423
			c-0.4,0.348-0.74,0.071-1.039-0.228c-0.258-0.258-0.529-0.505-0.766-0.781c-0.33-0.384-0.396-0.822,0.254-0.777
			c0.84,0.06,0.496-0.436,0.414-0.744c-0.686-2.591-2.178-4.577-4.518-5.909c-0.283-0.162-0.584-0.297-0.863-0.47
			c-0.191-0.119-0.34-0.295-0.217-0.545c0.117-0.242,0.352-0.273,0.561-0.182c0.434,0.188,0.871,0.382,1.27,0.633
			c2.424,1.528,3.988,3.683,4.672,6.476c0.125,0.507-0.004,1.441,1.041,0.738C39.651,25.446,39.868,25.639,39.927,25.94z"/>
		<path fill-rule="evenodd" clip-rule="evenodd" fill="#017A00" d="M30.897,16.865c-0.014,1.436-1.164,2.562-2.593,2.537
			c-1.435-0.024-2.533-1.174-2.507-2.622c0.025-1.371,1.289-2.641,2.593-2.605C29.725,14.212,30.911,15.482,30.897,16.865z"/>
		<path fill-rule="evenodd" clip-rule="evenodd" fill="#01002F" d="M37.387,33.635c-1.406-0.003-2.574-1.183-2.563-2.588
			c0.014-1.404,1.209-2.588,2.594-2.57c1.404,0.02,2.594,1.217,2.576,2.598C39.977,32.481,38.8,33.637,37.387,33.635z"/>
		<path fill-rule="evenodd" clip-rule="evenodd" fill="#01002F" d="M19.28,33.635c-1.412-0.014-2.58-1.187-2.579-2.587
			c0.001-1.384,1.2-2.568,2.602-2.57c1.389-0.002,2.576,1.201,2.565,2.597C21.857,32.489,20.685,33.648,19.28,33.635z"/>
		<path fill-rule="evenodd" clip-rule="evenodd" fill="#01002F" d="M25.712,37.19c-0.257,0.399,0.321,0.944-0.279,1.1
			c-0.524,0.136-0.646-0.395-0.791-0.732c-0.202-0.471-0.826-0.944-0.396-1.465c0.421-0.51,1.18-0.502,1.809-0.653
			c0.282-0.067,0.608,0.152,0.482,0.407c-0.446,0.906,0.329,0.65,0.664,0.711c1.505,0.271,2.96-0.002,4.396-0.463
			c0.324-0.104,0.76-0.389,0.934,0.115c0.164,0.479-0.33,0.578-0.654,0.695C29.846,37.637,27.775,37.757,25.712,37.19z"/>
		<path fill-rule="evenodd" clip-rule="evenodd" fill="#017A00" d="M28.307,25.047c-0.182,0-0.367,0.022-0.546-0.004
			c-0.766-0.11-1.847,0.413-2.236-0.358c-0.461-0.913-0.285-2.08-0.055-3.108c0.14-0.62,0.677-0.968,1.362-0.733
			c1.006,0.343,1.989,0.345,3,0.012c0.799-0.263,1.236,0.178,1.463,0.898c0.033,0.102,0.039,0.216,0.039,0.324
			C31.325,25.69,31.784,24.965,28.307,25.047z"/>
		<path fill-rule="evenodd" clip-rule="evenodd" fill="#01002F" d="M19.256,39.278c-0.146,0-0.291,0-0.437,0
			c-2.731,0-2.932-0.236-2.552-3.012c0.136-0.988,0.697-1.399,1.663-1.135c0.904,0.247,1.779,0.254,2.685,0.005
			c1.015-0.279,1.668,0.158,1.677,1.212C22.322,39.921,22.753,39.199,19.256,39.278z"/>
		<path fill-rule="evenodd" clip-rule="evenodd" fill="#01002F" d="M37.356,39.272c-0.691,0-1.383-0.006-2.072,0.002
			c-0.641,0.008-0.926-0.296-0.906-0.937c0.023-0.69-0.033-1.385,0.025-2.071c0.084-0.98,0.691-1.401,1.65-1.137
			c0.904,0.25,1.779,0.256,2.686,0.008c1.02-0.279,1.578,0.146,1.693,1.211C40.745,39.245,40.71,39.278,37.356,39.272z"/>
		<path fill-rule="evenodd" clip-rule="evenodd" fill="#017A00" d="M30.028,16.86c-0.014,0.924-0.74,1.657-1.658,1.669
			c-0.964,0.013-1.72-0.756-1.701-1.731c0.018-0.927,0.745-1.665,1.655-1.678C29.276,15.105,30.042,15.887,30.028,16.86z"/>
		<path fill-rule="evenodd" clip-rule="evenodd" fill="#01002F" d="M39.12,31.046c0.002,0.949-0.805,1.738-1.752,1.715
			c-0.916-0.022-1.66-0.77-1.672-1.68c-0.014-0.942,0.793-1.736,1.746-1.719C38.341,29.379,39.116,30.157,39.12,31.046z"/>
		<path fill-rule="evenodd" clip-rule="evenodd" fill="#01002F" d="M17.575,31.069c-0.012-0.886,0.755-1.676,1.653-1.707
			c0.95-0.032,1.771,0.753,1.771,1.695c-0.001,0.909-0.734,1.668-1.647,1.703C18.403,32.798,17.587,32.02,17.575,31.069z"/>
	</g>
</g>
<g>
	<g>
		<path fill-rule="evenodd" clip-rule="evenodd" fill="#FF7020" d="M-19.916,18.638c0.186,0.115,0.316,0.267,0.238,0.496
			c-0.078,0.23-0.275,0.262-0.492,0.263c-0.293,0.002-0.592-0.009-0.875,0.048c-0.623,0.127-1.072,0.68-1.084,1.314
			c-0.014,0.756-0.014,1.512-0.002,2.267c0.008,0.61,0.41,1.118,1.002,1.31c0.596,0.193,0.795,0.465,0.799,1.088
			c0,0.217,0,0.434,0,0.704c0.076-0.081,0.121-0.122,0.158-0.169c0.262-0.359,0.531-0.713,0.783-1.081
			c0.234-0.345,0.551-0.488,0.961-0.485c0.881,0.009,1.764,0.004,2.646,0.002c0.955-0.002,1.531-0.576,1.537-1.535
			c0.004-0.646,0.006-1.295,0-1.939c-0.008-0.941-0.594-1.523-1.529-1.526c-0.779-0.001-1.561-0.001-2.342,0.003
			c-0.213,0-0.406-0.017-0.498-0.25c-0.094-0.236,0.053-0.375,0.211-0.508c1.025,0,2.051,0,3.074,0
			c0.141,0.047,0.285,0.086,0.424,0.143c0.836,0.342,1.344,0.958,1.395,1.863c0.045,0.836,0.041,1.681,0.002,2.518
			c-0.053,1.09-0.979,1.961-2.072,1.982c-0.932,0.019-1.865,0.012-2.795,0.002c-0.199-0.001-0.326,0.061-0.439,0.223
			c-0.404,0.578-0.826,1.145-1.242,1.714c-0.197,0.269-0.412,0.353-0.668,0.267c-0.24-0.078-0.359-0.27-0.361-0.596
			c-0.002-0.445-0.008-0.891,0.002-1.336c0.004-0.197-0.059-0.299-0.256-0.362c-0.982-0.315-1.547-1.103-1.551-2.142
			c0-0.68-0.002-1.359,0.002-2.041c0.006-1.113,0.682-1.947,1.773-2.193c0.031-0.008,0.061-0.027,0.09-0.041
			C-20.656,18.638-20.285,18.638-19.916,18.638z"/>
		<path fill-rule="evenodd" clip-rule="evenodd" fill="#01002F" d="M-35.798,29.401c-0.725-0.235-1.193-0.7-1.251-1.46
			c-0.045-0.594-0.04-1.195,0.006-1.79c0.211-2.808,2.049-5.155,4.713-6.05c4.021-1.351,8.369,1.295,8.982,5.494
			c0.109,0.76,0.107,1.543,0.084,2.312c-0.025,0.862-0.746,1.507-1.611,1.523c-0.357,0.007-0.717,0.001-1.022,0.001
			c-0.127,0.465-0.213,0.903-0.37,1.314c-0.222,0.585-0.643,1.033-1.116,1.438c-0.087,0.071-0.153,0.215-0.16,0.33
			c-0.02,0.376-0.003,0.756-0.008,1.133c-0.005,0.231,0.083,0.345,0.325,0.387c1.006,0.186,2.014,0.36,3.01,0.596
			c1.262,0.302,2.234,1.007,2.693,2.265c0.152,0.417,0.234,0.882,0.242,1.327c0.025,1.672,0.016,3.344,0.008,5.016
			c0,0.754-0.475,1.217-1.232,1.218c-5.101,0.001-10.201,0.001-15.302,0c-0.762,0-1.233-0.455-1.244-1.214
			c-0.009-0.646-0.003-1.293,0-1.941c0.001-0.323,0.134-0.485,0.383-0.479c0.247,0.002,0.368,0.161,0.371,0.494
			c0.003,0.604,0,1.209,0.001,1.813c0.001,0.46,0.11,0.569,0.56,0.569c0.418,0.002,0.838,0,1.292,0c0-0.415,0-0.816,0-1.215
			c0-0.151-0.005-0.302,0.001-0.453c0.014-0.26,0.158-0.41,0.383-0.409c0.229,0.001,0.367,0.149,0.37,0.415
			c0.005,0.495,0.002,0.993,0.002,1.487c0,0.05,0.006,0.098,0.009,0.159c1.715,0,3.415,0,5.125,0c0-2.049,0-4.088,0-6.157
			c-0.463,0.065-0.91,0.12-1.354,0.193c-0.91,0.146-1.383-0.079-1.824-0.886c-0.291-0.529-0.583-1.06-0.867-1.592
			c-0.069-0.131-0.137-0.179-0.293-0.131c-0.577,0.175-1.179,0.283-1.73,0.515c-1.006,0.424-1.547,1.236-1.649,2.316
			c-0.044,0.466-0.015,0.94-0.025,1.411c-0.008,0.299-0.18,0.464-0.434,0.426c-0.181-0.027-0.305-0.135-0.308-0.314
			c-0.011-0.861-0.103-1.735,0.227-2.566c0.464-1.172,1.333-1.907,2.536-2.209c1.047-0.265,2.115-0.448,3.177-0.652
			c0.236-0.043,0.338-0.142,0.334-0.38c-0.009-0.394,0.003-0.79-0.008-1.184c-0.004-0.087-0.054-0.189-0.114-0.256
			c-0.282-0.309-0.57-0.609-0.866-0.905c-0.056-0.059-0.15-0.106-0.228-0.11c-0.251-0.013-0.503-0.001-0.756-0.006
			c-0.592-0.015-1.047-0.47-1.063-1.062C-35.804,29.888-35.798,29.646-35.798,29.401z M-29.763,37.523c0,2.075,0,4.118,0,6.162
			c1.715,0,3.411,0,5.13,0c0-0.146,0-0.278,0-0.411c0-0.406-0.004-0.809,0-1.211c0.004-0.286,0.139-0.44,0.373-0.442
			c0.236-0.003,0.371,0.146,0.379,0.433c0.006,0.143,0.004,0.285,0.004,0.429c0,0.398,0,0.801,0,1.196
			c0.059,0.013,0.082,0.019,0.107,0.019c0.428,0,0.855,0.003,1.285,0c0.32-0.002,0.457-0.138,0.457-0.465
			c0.002-1.703,0.014-3.409-0.006-5.115c-0.008-1.158-0.707-2.157-1.795-2.558c-0.518-0.191-1.066-0.297-1.596-0.455
			c-0.154-0.047-0.223,0.001-0.293,0.133c-0.283,0.534-0.577,1.062-0.867,1.592c-0.442,0.808-0.917,1.034-1.824,0.889
			C-28.853,37.644-29.302,37.589-29.763,37.523z M-31.909,31.907c0.022,0.048,0.025,0.07,0.037,0.075
			c0.89,0.51,1.807,0.767,2.803,0.304c0.205-0.095,0.417-0.181,0.611-0.294c1.143-0.658,1.802-1.589,1.741-2.97
			c-0.04-0.923-0.022-1.849,0-2.772c0.017-0.67-0.206-1.213-0.712-1.646c-0.115-0.1-0.221-0.207-0.334-0.307
			c-0.396-0.35-0.724-0.349-1.11,0.009c-0.651,0.603-1.418,0.908-2.309,0.901c-0.486-0.005-0.974-0.006-1.461,0
			c-0.544,0.006-0.941,0.393-0.943,0.938c-0.006,1.134,0,2.269,0.008,3.402c0.001,0.16,0.041,0.318,0.056,0.436
			c0.271-0.074,0.507-0.182,0.748-0.195c0.501-0.029,1.008-0.015,1.512-0.008c0.579,0.01,1.034,0.471,1.048,1.046
			c0.014,0.567-0.436,1.053-1.012,1.082C-31.446,31.917-31.664,31.907-31.909,31.907z M-25.379,25.738
			c-0.377-2.391-2.777-4.168-5.272-3.914c-2.125,0.213-4.341,2.254-4.263,3.945c0.09,0,0.182-0.01,0.271,0.002
			c0.231,0.033,0.336-0.053,0.432-0.282c0.28-0.661,0.807-1.015,1.531-1.038c0.411-0.012,0.824-0.02,1.234,0.002
			c0.842,0.043,1.555-0.215,2.175-0.801c0.537-0.508,1.32-0.5,1.885-0.023c0.268,0.227,0.547,0.457,0.759,0.732
			c0.226,0.295,0.422,0.628,0.55,0.973c0.171,0.461,0.139,0.473,0.638,0.43C-25.424,25.761-25.408,25.75-25.379,25.738z
			 M-24.512,28.58c0.336-0.196,0.506-0.426,0.5-0.754c-0.012-0.729,0.012-1.467-0.096-2.185c-0.389-2.606-2.458-4.618-5.148-5.068
			c-2.506-0.419-5.129,0.924-6.347,3.214c-0.699,1.312-0.761,2.714-0.688,4.143c0.014,0.285,0.192,0.505,0.492,0.651
			c0-0.214-0.003-0.396,0.001-0.577c0.018-0.723-0.043-1.457,0.073-2.163c0.358-2.188,1.604-3.722,3.69-4.458
			c2.085-0.738,4.017-0.328,5.676,1.145c1.237,1.103,1.821,2.528,1.845,4.183C-24.506,27.321-24.512,27.932-24.512,28.58z
			 M-28.332,32.768c-1.229,0.693-2.441,0.679-3.657,0.005c-0.087,0.607,0.146,1.221-0.315,1.709c0.726,0.7,1.432,1.38,2.146,2.071
			c0.723-0.7,1.429-1.383,2.149-2.074C-28.476,33.989-28.236,33.381-28.332,32.768z M-26.403,34.924
			c-0.253-0.038-0.466-0.086-0.683-0.099c-0.093-0.005-0.217,0.032-0.284,0.096c-0.616,0.579-1.223,1.17-1.831,1.761
			c-0.035,0.033-0.057,0.084-0.097,0.143c0.446,0.063,0.859,0.127,1.275,0.179c0.285,0.035,0.513-0.075,0.654-0.325
			C-27.048,36.109-26.739,35.533-26.403,34.924z M-33.914,34.924c0.342,0.621,0.655,1.203,0.982,1.776
			c0.121,0.214,0.324,0.33,0.568,0.305c0.445-0.045,0.888-0.115,1.328-0.176c0-0.039,0.002-0.05-0.001-0.054
			c-0.653-0.637-1.307-1.275-1.965-1.909c-0.035-0.032-0.105-0.058-0.154-0.053C-33.395,34.843-33.635,34.881-33.914,34.924z
			 M-34.358,28.667c0-0.72,0-1.412,0-2.121c-0.232,0-0.452,0-0.667,0c0,0.721,0,1.42,0,2.121
			C-34.798,28.667-34.589,28.667-34.358,28.667z M-25.28,26.544c-0.246,0-0.459,0-0.67,0c0,0.719,0,1.419,0,2.115
			c0.233,0,0.446,0,0.67,0C-25.28,27.951-25.28,27.257-25.28,26.544z M-32.042,30.535c-0.235,0-0.47-0.003-0.704,0
			c-0.199,0.002-0.325,0.102-0.328,0.304c-0.004,0.2,0.117,0.312,0.316,0.313c0.486,0.005,0.973,0.003,1.46,0
			c0.201-0.002,0.32-0.119,0.316-0.314c-0.005-0.195-0.129-0.303-0.33-0.303C-31.555,30.533-31.799,30.535-32.042,30.535z
			 M-35.04,29.445c0,0.244-0.029,0.479,0.012,0.703c0.021,0.107,0.159,0.245,0.268,0.273c0.175,0.046,0.37,0.012,0.548,0.012
			c-0.056-0.348-0.108-0.666-0.16-0.988C-34.59,29.445-34.803,29.445-35.04,29.445z"/>
		<path fill-rule="evenodd" clip-rule="evenodd" fill="#FF7020" d="M-18.112,22.363c0.711,0,1.424,0,2.137,0.001
			c0.314,0,0.492,0.14,0.488,0.377c-0.002,0.229-0.18,0.376-0.471,0.376c-1.443,0.004-2.887,0.004-4.328,0
			c-0.293,0-0.463-0.151-0.461-0.386c0.002-0.235,0.168-0.366,0.469-0.367C-19.555,22.361-18.836,22.363-18.112,22.363z"/>
		<path fill-rule="evenodd" clip-rule="evenodd" fill="#FF7020" d="M-18.123,21.428c-0.688,0-1.375,0-2.061-0.001
			c-0.086,0-0.172,0.002-0.254-0.012c-0.191-0.031-0.297-0.156-0.307-0.344c-0.008-0.188,0.082-0.324,0.27-0.375
			c0.072-0.02,0.148-0.024,0.223-0.024c1.426-0.002,2.852-0.001,4.277-0.001c0.033,0,0.068-0.002,0.102,0.002
			c0.232,0.023,0.389,0.179,0.387,0.383c-0.002,0.207-0.16,0.361-0.398,0.367c-0.359,0.008-0.721,0.004-1.08,0.005
			C-17.352,21.428-17.737,21.428-18.123,21.428z"/>
		<path fill-rule="evenodd" clip-rule="evenodd" fill="#01002F" d="M-26.812,39.207c0.344,0,0.688-0.005,1.031,0
			c0.409,0.008,0.651,0.246,0.663,0.661c0.006,0.259,0.006,0.519,0,0.779c-0.01,0.426-0.254,0.673-0.675,0.676
			c-0.687,0.005-1.375,0.005-2.063,0c-0.421-0.003-0.666-0.25-0.675-0.674c-0.006-0.263-0.006-0.521,0-0.781
			c0.01-0.412,0.253-0.651,0.663-0.661c0.017,0,0.033,0,0.051,0C-27.483,39.207-27.147,39.207-26.812,39.207z M-27.76,39.974
			c0,0.21,0,0.389,0,0.578c0.63,0,1.247,0,1.868,0c0-0.202,0-0.388,0-0.578C-26.521,39.974-27.133,39.974-27.76,39.974z"/>
	</g>
	<g id="Camada_x0020_1_2_">
		<path fill="#01002F" d="M-26.268,50.895c-5.342,0-10.18-2.166-13.68-5.667c-3.502-3.502-5.668-8.339-5.668-13.682
			s2.166-10.181,5.668-13.682c3.5-3.501,8.338-5.667,13.68-5.667c5.342,0,10.18,2.166,13.682,5.667s5.666,8.339,5.666,13.682
			s-2.164,10.18-5.666,13.682C-16.088,48.729-20.926,50.895-26.268,50.895z M-39.344,44.623c3.348,3.347,7.971,5.417,13.076,5.417
			c5.108,0,9.731-2.07,13.077-5.417c3.348-3.347,5.416-7.97,5.416-13.076s-2.068-9.73-5.416-13.077
			c-3.346-3.347-7.969-5.416-13.077-5.416c-5.105,0-9.729,2.069-13.076,5.416c-3.346,3.347-5.416,7.971-5.416,13.077
			S-42.69,41.276-39.344,44.623z"/>
	</g>
</g>
<path fill="#017A00" d="M87.268,23.825c-1.148-2.81-0.695-3.17-3.607-1.757c-1.094,0.531,0.279,1.61-2.797,1.001
	c0,0-0.629-0.113-0.631-0.082c-0.98-0.099-1.986-0.48-2.838,0.072c-0.551,0.356-0.199,0.486-1.09,0.485
	c-0.521-0.002-1.193,0.039-1.605-0.091c-0.252-0.734,0.328-0.457-0.898-1.415c-1.688-1.319-1.357-1.283-3.623,1.805
	c-0.51,0.696-1.945,2.354-1.822,2.951c0.082,0.393,0.971,0.968,1.207,1.158c1.227,0.982,0.855,0.224,1.707,0.343
	c0.674,1.269-0.453,1.609-0.629,2.438c-0.262,1.247,0.68,1.689,1.711,1.777c0.205,1.157,0.713,1.263,1.9,1.299
	c0.342,0.864,0.75,1.089,1.768,0.943c0.326,0.443,0.357,0.776,0.98,0.94c0.586,0.155,1.137-0.089,1.395-0.544
	c0.518,0.089,0.75,0.424,1.563-0.033l0.285-0.161c0.001,0.101,0.61-0.505,0.609-1.013c0.697-0.335,1.016-0.394,1.078-1.425
	c0.951-0.293,1.391-0.449,1.426-1.636c1.209-0.091,1.188-0.637,1.459-1.531c1.309-0.44,0.707,0.406,2.354-0.333
	C89.389,28.02,89.233,28.632,87.268,23.825z M70.575,27.849c-0.428-0.104-0.572-0.31-0.895-0.57
	c-0.275-0.222-0.584-0.398-0.744-0.665c0.156-0.377,3.35-4.659,3.549-4.779c0.387,0.156,1.383,0.946,1.553,1.244
	C73.507,24.083,71.178,26.765,70.575,27.849z M72.505,31.754c-0.703,0.471-1.607-0.271-1.191-1.1
	c0.076-0.151,1.135-1.497,1.227-1.564c0.715-0.531,1.717,0.316,1.225,1.14C73.667,30.394,72.581,31.702,72.505,31.754z
	 M74.253,33.034c-0.621,0.535-1.588-0.1-1.197-0.915c0.063-0.129,1.055-1.414,1.18-1.521c0.678-0.582,1.6,0.228,1.207,0.948
	C75.368,31.68,74.362,32.939,74.253,33.034z M74.907,33.839c-0.23-0.579,0.408-1.143,0.66-1.446
	c0.502-0.608,0.705-0.596,1.289-0.132C76.975,33.379,75.364,34.981,74.907,33.839z M78.286,34.243
	c-0.25,0.441-0.414,0.894-0.961,0.878c-0.559-0.016-0.854-0.532-0.58-1.074C77.46,32.642,78.802,33.333,78.286,34.243z
	 M83.298,30.241c-0.627-0.102-2.76-2.316-3.166-1.952c-0.758,0.682,3.059,1.763,2.549,3.112c-0.447,1.183-2.023-0.279-2.791-0.836
	c-0.355-0.259-0.414-0.393-0.699-0.397c-0.205-0.003-0.484,0.197-0.123,0.549c0.098,0.094,0.295,0.21,0.393,0.278
	c1.018,0.714,2.32,1.339,1.73,2.091c-0.799,1.018-2.605-1.893-3.305-1.45c-0.201,0.294-0.123,0.311,0.111,0.529
	c0.711,0.659,2.033,1.201,1.934,1.974c-0.063,0.495-0.506,0.678-0.977,0.53c-0.135-0.313,0.549-1.977-1.404-2.063
	c-0.244-0.873-0.461-1.161-1.408-1.285c-0.109-1.037-0.543-1.525-1.625-1.523c-0.197-1.388-1.252-1.831-2.404-1.142l-0.273-0.561
	c-0.148-0.221-0.238-0.199-0.375-0.463l2.789-3.73c1.084,0.345,0.588,0.22,1.84,0.235c-0.125,0.489-0.748,0.529-0.842,1.188
	c-0.098,0.69,0.369,0.979,0.906,1.146c1.609,0.502,2.404-0.783,3.234-0.357c0.252,0.13,0.881,0.695,1.146,0.914l2.225,1.775
	c0.543,0.375,0.713,0.345,1.373,0.57C84.196,29.912,83.893,30.337,83.298,30.241z M82.981,28.213
	c-0.699-0.501-3.068-2.543-3.439-2.702c-0.949-0.406-1.51,0.391-2.414,0.461c-0.393,0.031-1.088-0.031-1.24-0.352
	c-0.164-0.343,0.334-0.659,0.531-0.84c0.348-0.321,1.168-1.251,1.689-1.38c0.506-0.126,2.125,0.188,2.736,0.278
	c2.559,0.382,1.441,0.024,2.525-0.12c0.23,0.402,1.998,4.8,2.016,5.065C84.194,28.813,83.817,28.81,82.981,28.213z M86.161,28.724
	c-0.27-0.445-2.379-5.71-2.391-6.018c0.387-0.239,1.588-0.823,2.018-0.843c0.262,0.402,2.389,5.702,2.402,6.04
	C87.831,28.075,86.528,28.707,86.161,28.724z"/>
</svg>
