<?xml version="1.0" encoding="utf-8"?>
<!-- Generator: Adobe Illustrator 16.0.0, SVG Export Plug-In . SVG Version: 6.00 Build 0)  -->
<!DOCTYPE svg PUBLIC "-//W3C//DTD SVG 1.1//EN" "http://www.w3.org/Graphics/SVG/1.1/DTD/svg11.dtd">
<svg version="1.1" id="Layer_1" xmlns="http://www.w3.org/2000/svg" xmlns:xlink="http://www.w3.org/1999/xlink" x="0px" y="0px"
	 width="56.693px" height="56.693px" viewBox="0 0 56.693 56.693" enable-background="new 0 0 56.693 56.693" xml:space="preserve">
<g id="Camada_x0020_1">
	<path fill="#01002F" d="M28.346,47.695c-5.343,0-10.18-2.166-13.681-5.667c-3.502-3.502-5.667-8.339-5.667-13.682
		s2.165-10.181,5.667-13.682c3.501-3.501,8.338-5.667,13.681-5.667c5.342,0,10.18,2.166,13.682,5.667s5.666,8.339,5.666,13.682
		s-2.164,10.18-5.666,13.682C38.526,45.529,33.688,47.695,28.346,47.695z M15.27,41.423c3.347,3.347,7.97,5.417,13.076,5.417
		c5.107,0,9.73-2.07,13.076-5.417c3.348-3.347,5.416-7.97,5.416-13.076s-2.068-9.73-5.416-13.077
		c-3.346-3.347-7.969-5.416-13.076-5.416c-5.106,0-9.729,2.069-13.076,5.416S9.853,23.24,9.853,28.346S11.924,38.076,15.27,41.423z"
		/>
	<text transform="matrix(1 0 0 1 12.9114 33.446)" fill="#205D13" font-family="'ArialMT'" font-size="15.8692">eDB</text>
</g>
</svg>
