<?xml version="1.0" encoding="utf-8"?>
<!-- Generator: Adobe Illustrator 26.0.1, SVG Export Plug-In . SVG Version: 6.00 Build 0)  -->
<svg version="1.1" id="Camada_1" xmlns="http://www.w3.org/2000/svg" xmlns:xlink="http://www.w3.org/1999/xlink" x="0px" y="0px"
	 viewBox="0 0 56.7 56.7" style="enable-background:new 0 0 56.7 56.7;" xml:space="preserve">
<style type="text/css">
	.st0{fill-rule:evenodd;clip-rule:evenodd;fill:#01002F;}
</style>
<g id="Camada_x0020_1">
	<path class="st0" d="M28.3,47.7c-5.3,0-10.2-2.2-13.7-5.7S9,33.7,9,28.3c0-5.3,2.2-10.2,5.7-13.7C18.2,11.2,23,9,28.3,9
		c5.3,0,10.2,2.2,13.7,5.7s5.7,8.3,5.7,13.7S45.5,38.5,42,42S33.7,47.7,28.3,47.7z M15.3,41.4c3.3,3.3,8,5.4,13.1,5.4
		c5.1,0,9.7-2.1,13.1-5.4c3.3-3.3,5.4-8,5.4-13.1c0-5.1-2.1-9.7-5.4-13.1c-3.3-3.3-8-5.4-13.1-5.4c-5.1,0-9.7,2.1-13.1,5.4
		c-3.3,3.3-5.4,8-5.4,13.1C9.9,33.5,11.9,38.1,15.3,41.4z"/>
	<g id="_2574639138400">
		<path class="st0" d="M18.8,20.9c0.4-0.3,0.6-0.7,1-1c0.4-0.3,0.7-0.6,1.1-1c0.3,0.1,1.4,1,1.6,1.2c0.6,0.6,0.7,0.1,1.9-0.4
			c2.9-1.3,2.1,0.3,2.6-3.3l3,0l0.3,2.5c1.1,0.4,1.6,0.3,3.2,1.2c1.1,0.6,1.2-0.4,2.6-1.3c0.5,0.2,1.5,1.5,2,2
			c-0.2,0.3-0.7,0.9-1,1.2c-1.1,1.2-0.5,0.6,0.4,2.8c0.2,0.5,0.3,1.2,0.5,1.6l2.6,0.3l0,2.9c-3.7,0.3-2.2,0-3.4,2.5
			c-0.7,1.5-1.1,1.1,0.1,2.4c0.2,0.3,0.7,0.7,0.8,1l-2.1,2c-0.5-0.3-1.6-1.3-1.8-1.4c-0.3-0.2-0.5,0-0.8,0.2c-0.4,0.3-1,0.5-1.5,0.7
			c-0.5,0.2-1.2,0.3-1.7,0.5L30,40l-3,0c-0.6-4.2,0.4-1.5-3.5-3.8c-0.4-0.2-0.6-0.3-1,0c-0.3,0.3-1.4,1.2-1.7,1.3l-2-2
			c0.2-0.4,1.3-1.5,1.5-1.8c0.3-0.4-0.4-0.9-0.9-2.2c-0.2-0.5-0.3-1.2-0.5-1.6l-2.6-0.3c-0.1-0.3-0.1-2.5,0-2.9l2.6-0.3
			c0.2-0.4,0.3-1.1,0.5-1.6c0.9-2.2,1.5-1.6,0.4-2.8c-0.2-0.3-0.3-0.4-0.5-0.6C19.1,21.3,19,21,18.8,20.9z M26,18.4
			c-0.5,0.2-1,0.3-1.6,0.5c-0.4,0.2-1.1,0.6-1.4,0.7l-1.5-1.2c-0.7-0.6-0.6-0.4-2.1,1l-1.4,1.5c-0.1,0.3,1,1.4,1.2,1.6
			c0.2,0.2,0.3,0.3,0.4,0.6c-0.9,1.5-0.8,1.8-1.3,2.8l-2.4,0.2c-0.3,0.1-0.2,0-0.3,0.2c-0.1,0.3-0.1,3.7,0,3.9
			c0.2,0.3,0.7,0.2,1.3,0.3c0.5,0,1,0.1,1.4,0.1c0.5,1,0.4,1.5,1.2,2.8c-0.1,0.2-0.6,0.9-0.8,1.1c-1.1,1.2-0.9,1.1-0.1,1.8
			c0.3,0.2,0.4,0.5,0.7,0.7c1.9,1.7,1.2,1.8,3.2,0.2c0.2-0.2,0.4-0.2,0.5-0.4c0.3,0.1,1,0.5,1.4,0.7c0.5,0.2,1.1,0.3,1.6,0.5
			c0.4,3.1-0.4,2.7,2.4,2.7c2.6,0,2.2,0.5,2.5-2.7c0.6-0.1,1.1-0.3,1.6-0.5c0.4-0.2,1.1-0.6,1.4-0.7c0.3,0.2,0.6,0.5,0.9,0.7
			c1.6,1.3,1.1,1.1,2.3-0.1c0.2-0.2,0.3-0.3,0.4-0.4c1.9-1.7,1.9-1.1-0.2-3.5c0.1-0.4,0.5-0.9,0.7-1.3c0.8-1.9-0.1-1.5,2.6-1.8
			c0.5,0,0.5,0,0.6-0.2c0.1-0.3,0.1-3.7,0-3.9c-0.1-0.1,0-0.1-0.2-0.2l-2.5-0.3c-0.6-1.2-0.1-0.8-1.2-2.8c0.3-0.6,1.7-1.8,1.6-2.2
			l-2.3-2.4c-1.1-1-1.3,0.4-2.8,1.2c-0.9-0.4-1.8-1-3-1.2c-0.3-3.2,0.2-2.7-2.4-2.7C25.7,15.7,26.4,15.2,26,18.4z"/>
		<path class="st0" d="M21.7,28.9c-0.5-3.9,2.7-6.9,6.1-7.2c3.9-0.4,7.1,2.4,7.4,5.9c0.4,3.9-2.6,6.9-6.1,7.2
			C25.2,35.1,22.1,32.4,21.7,28.9z M27.7,21c-3.9,0.5-7.3,3.7-6.7,8.1c0.5,3.7,4,6.9,8.4,6.4c3.8-0.4,7.2-3.8,6.7-8.1
			C35.5,23.7,32,20.5,27.7,21z"/>
		<path class="st0" d="M28.4,24.7c0.3,0.4-0.1,0.4,0.5,0.8c1,0.7,0.8,0.6,1.7,0c0.5-0.3,0.4-0.3,0.5-0.6l0-0.1c0,0,0,0,0-0.1
			c0,0,0,0,0-0.1c0.3,0.5,0.4,0.9,0.1,1.6c-0.3,0.7-0.6,0.6-1.1,1c-0.1,0.2-0.1,3.6,0,4.2c0,0.5,0,0.9-0.6,0.7
			c-0.3-0.8,0.1-3.8-0.1-4.9C28.3,26.7,27.7,26.1,28.4,24.7z M28.7,27.7c0,0.6-0.1,4.2,0.1,4.7c0.1,0.3,0.5,0.6,1,0.6
			c1.3,0,1.1-1.4,1.1-2c0-1.1,0-2.2,0-3.3c0.7-0.2,1.5-1.3,1.3-2.4c-0.1-0.9-1-2-1.8-1.7l-0.1,1.2c-0.5,0.5-0.6,0.3-1,0
			c0-0.6,0.2-1.7-0.8-1.1C26.9,24.6,27,26.9,28.7,27.7z"/>
		<path class="st0" d="M25.6,32.2c-0.1-0.4-0.1-2.4,0-2.8c0.2-0.8,0.1-0.7,1-0.7c0.1,0.9,0.4,2.6,0.2,3.5
			C26.4,32.3,26,32.3,25.6,32.2z M25.8,27.9c-0.5,0-1.3-0.1-1,0.6l0.2,0.3c-0.1,0.3-0.2,0.6-0.2,0.9c0,2.4-0.3,3.3,1.5,3.3
			c1.6,0,1.2-1.4,1.2-3.3c0-0.4-0.1-0.6-0.2-1c0.2-0.2,0.4-0.3,0.2-0.6c-0.3-0.3-0.5-0.1-1-0.2c-0.1-0.9,0.1-3.7-0.1-4.3
			c-0.5-0.2-0.7-0.1-0.7,0.5C25.8,25.2,25.9,27,25.8,27.9z"/>
	</g>
</g>
</svg>
