<?xml version="1.0" encoding="utf-8"?>
<!-- Generator: Adobe Illustrator 16.0.0, SVG Export Plug-In . SVG Version: 6.00 Build 0)  -->
<!DOCTYPE svg PUBLIC "-//W3C//DTD SVG 1.1//EN" "http://www.w3.org/Graphics/SVG/1.1/DTD/svg11.dtd">
<svg version="1.1" id="Layer_1" xmlns="http://www.w3.org/2000/svg" xmlns:xlink="http://www.w3.org/1999/xlink" x="0px" y="0px"
	 width="56.693px" height="56.693px" viewBox="0 0 56.693 56.693" enable-background="new 0 0 56.693 56.693" xml:space="preserve">
<g>
	<path fill="#01002F" d="M28.346,47.695c-5.343,0-10.18-2.166-13.681-5.667c-3.502-3.502-5.667-8.339-5.667-13.682
		s2.165-10.181,5.667-13.682c3.501-3.501,8.338-5.667,13.681-5.667c5.342,0,10.18,2.166,13.682,5.667s5.666,8.339,5.666,13.682
		s-2.164,10.18-5.666,13.682C38.526,45.529,33.688,47.695,28.346,47.695z M15.27,41.423c3.347,3.347,7.97,5.417,13.076,5.417
		c5.107,0,9.73-2.07,13.076-5.417c3.348-3.347,5.416-7.97,5.416-13.076s-2.068-9.73-5.416-13.077
		c-3.346-3.347-7.969-5.416-13.076-5.416c-5.106,0-9.729,2.069-13.076,5.416S9.853,23.24,9.853,28.346S11.924,38.076,15.27,41.423z"
		/>
	<g>
		<path fill="#01002F" d="M17.345,36.408c-0.021,1.112,0.103,1.615,0.475,2.563c0.345,0.875,0.807,1.208,1.193,1.82
			c-1.113-0.586-2.588-1.726-2.379-3.154l0.403-0.948C17.321,36.334,17.124,36.569,17.345,36.408z M22.327,40.848
			c1.145-1.446,1.636-2.061,1.697-4.402c0.708,0.634,1.056,1.564,0.409,2.663C24.105,39.666,22.974,40.576,22.327,40.848z
			 M20.729,41.586c-2.172-1.128-3.702-4.528-2.752-5.784c0.519-0.686,2.376-0.351,4.071-0.422c0.644-0.027,0.899,0.017,1.242,0.353
			c1.119,1.099-0.275,3.52-0.946,4.434C22.062,40.55,21.201,41.349,20.729,41.586z M18.667,34.388
			c0.503,0.235,0.451,0.316,0.827,0.558l-0.814,0.013L18.667,34.388z M21.819,34.982c0.355-0.358,0.648-0.349,0.805-0.677
			l0.035,0.632L21.819,34.982z M23.085,34.09l0.568-0.366c0.829-0.232,1.536,0.123,1.917,0.802
			C24.731,35.051,23.395,34.951,23.085,34.09z M25.08,33.437c-0.835-0.219-0.828-0.265-1.707-0.054
			c0.211-0.888,1.3-0.676,1.992-0.513L25.08,33.437z M22.173,28.581l1.369,1.517c1.42,1.279-0.075,1.66-0.281,2.21
			c-0.393,1.047-0.459,1.478-1.246,2.015c-1.712,1.167-3.3,0.027-3.82-1.633c-0.327-1.043-0.14-0.444-0.661-0.903
			c-0.266-0.235-0.457-1.011-0.079-1.353c0.164-0.147,2.311-0.345,2.783-0.502C21.389,29.55,21.466,29.219,22.173,28.581z
			 M23.162,27.596c0.251-0.19,0.246-0.245,0.463-0.439c0.521,0.845,0.692,1.574,0.704,2.785c-0.934-0.355-1.492-0.931-1.817-1.888
			L23.162,27.596z M17.037,29.885c-0.041-1.345,0.273-1.744,0.673-2.745c0.976,0.677,1.597,1.545,4.071,1.093
			C21.424,29.529,18.804,29.927,17.037,29.885z M20.186,24.199c1.039-0.375,1.258,0.185,1.713,0.596
			c0.147,0.133,2.553,1.002,1.01,2.419c-1.392,1.277-4.675,0.768-4.98-0.811c-0.09-0.463,0.707-1.235,0.941-1.345
			c0.522-0.243,0.079,0.244,0.627-0.329C19.883,24.325,19.64,24.396,20.186,24.199z M13.641,39.643
			c0.177-0.709,0.033-2.656,3.04-3.209c-0.271,0.646-0.641,1.28-0.369,2.193c0.548,1.843,3.802,3.419,4.409,3.404
			c0.619-0.016,3.95-1.664,4.376-3.442c0.234-0.982-0.167-1.499-0.434-2.173c0.296,0.09,0.81,0.314,1.257,0.522
			c0.038-0.159,0.087-0.301,0.147-0.415c-1.157-0.464-2.63-0.864-2.948-1.657c1.299,0.623,1.89,0.566,3.004-0.195
			c-0.168-0.555-0.305-0.672-0.682-0.976c0.217-0.448,0.358-0.486,0.399-1.059c-0.859-0.316-1.063-0.397-2.096-0.258
			c0.904-0.687,0.647-0.621,0.771-1.562l0.071-0.348c0.337-1.344,0.099-2.235-0.527-3.384c-0.451-0.826,0.225-1.481-1.629-2.575
			c-0.581-0.342-0.92-0.89-1.963-0.811c-0.657,0.05-0.938,0.41-1.803,0.978c-1.585,1.04-0.801,1.479-1.424,2.513
			c-0.575,0.955-0.81,2.037-0.442,3.083c0.246,0.701-0.16,0.813,0.188,1.513c0.031,0.063,1.536,1.305,1.251,2.955
			c-0.159,0.922-2.174,1.395-3.56,2.079c-1.238,0.338-1.294,2.197-1.478,2.816C13.349,39.601,13.502,39.6,13.641,39.643z"/>
		<path fill="#FF7020" d="M31.01,29.984c0.516-0.147,2.57,1.015,5.223,0.397c0.678-0.158,0.986-0.453,1.619-0.444
			c0.375,0.47,0.662,1.307-0.119,1.818c-0.617,0.403-0.186,0.054-0.635,1.186c-0.846,2.14-3.754,3.264-5.25,0.227
			c-0.201-0.407-0.154-0.522-0.277-0.901c-0.307-0.938,0-0.13-0.594-0.597C30.587,31.362,30.43,30.433,31.01,29.984z M31.04,29.226
			c3.176,0.144,3.574,0.127,6.768,0.005l-1.488,0.69C34.727,30.334,32.016,30.277,31.04,29.226z M29.436,26.623
			c0.139-0.357-0.037-0.173,0.461-0.486c0.174-0.109,0.426-0.236,0.598-0.321c0.988-0.488,2.887-1.545,3.957-1.531
			c0.717,0.009,4.721,1.578,5.004,2.391c-0.83,0.437-1.154-0.099-1.117,2.023c-2.336,0.478-5.473,0.188-7.836,0.034
			C30.563,26.562,30.159,27.218,29.436,26.623z M35.071,23.867h-1.258c-0.484,0.291-1.813,0.739-2.48,1.07
			c-0.822,0.407-1.648,0.895-2.375,1.275c0.068,0.929,0.391,0.858,1.047,1.147c0.373,2.151-0.521,1.054,0.682,2.28
			c-0.365,0.556-0.803,1.596-0.096,2.298c0.457,0.454,0.492,0.008,0.633,0.776c0.07,0.382,0.021,1.058,0.02,1.469l-3.761,1.73
			c-0.621,0.281-0.945,0.197-1.137,0.826c-0.246,0.808-1.279,5.73-1.074,6.159c0.43-0.205,0.318-0.243,0.532-1.325
			c1.145-5.776,0.241-4.619,3.707-6.116c0.471-0.203,0.904-0.406,1.365-0.601c1.055-0.445,0.502-0.303,0.914-1.009
			c1.527,2.261,3.895,1.992,5.332-0.104c0.359,1.127-0.783,0.338,2.078,1.653c3.537,1.627,2.729,0.561,3.445,4.167
			c0.152-0.076,0.287-0.116,0.406-0.126l-0.529-2.634c-0.201-0.714-1.082-0.88-2.275-1.41c-0.756-0.336-1.889-0.894-2.641-1.131
			c-0.08-2.708,0.189-1.713,0.748-2.436c0.662-0.857,0.041-1.768-0.188-2.272l0.629-0.406c-0.145-3.344,0.693-0.868,1.105-2.789
			C39.294,25.469,36.098,24.451,35.071,23.867z"/>
		<path fill="#FF7020" d="M33.8,42.983c0.412-0.138,0.275,0.03,0.307-0.599l-0.008-4.747c-0.094-0.889-0.564-0.349-0.389-1.574
			L35.149,36c0.143,1.237-0.232,0.711-0.375,1.411l-0.027,4.837c0.004,0.611-0.09,0.524,0.232,0.752
			c0.162-0.176,0.07,0.042,0.154-0.265c0.051-0.182,0.049-0.298,0.053-0.489c0.023-1.055-0.209-4.35,0.176-5.011
			c0.416-0.715,0.26-0.896,0.074-1.646l-2.023,0.022c-0.566,2.23,0.273,0.005,0.264,3.475C33.675,39.869,33.505,42.48,33.8,42.983z"
			/>
		<path fill="#FF7020" d="M33.827,27.661c-0.139-0.659,0.154-1.417,0.936-0.969c0.514,0.294,0.324,0.805-0.012,1.223
			C34.12,27.958,34.2,27.952,33.827,27.661z M33.333,27.328c-0.486-0.223-0.414-0.141-0.662-0.611
			C33.382,26.855,33.37,26.709,33.333,27.328z M35.516,27.332c0.02-0.642-0.139-0.489,0.654-0.615
			C35.993,27.114,35.968,27.166,35.516,27.332z M33.669,28.072c0.406,0.296,0.768,0.45,1.324,0.143
			c0.982-0.545,1.74-0.963,1.551-1.854c-0.588-0.237-0.771,0.189-1.355,0.046c-0.818-0.203-0.352-0.419-1.395-0.053
			c-0.637,0.225-0.938-0.157-1.293-0.067c-0.553,0.141-0.201,0.827,0.031,1.074C32.798,27.64,33.149,27.696,33.669,28.072z"/>
		<path fill="#FF7020" d="M27.489,36.988c0.396,0.149,1.793-0.611,2.389-0.898c0.475-0.229,0.553-0.048,0.77-0.568
			c-0.32-0.111-0.488,0.036-0.781,0.162l-2.119,0.892C27.442,36.761,27.542,36.62,27.489,36.988L27.489,36.988z"/>
		<path fill="#FF7020" d="M38.255,35.545c0.094,0.316-0.09,0.13,0.205,0.327c0.004,0.002,2.568,1.253,2.906,1.116
			c-0.113-0.52-0.449-0.442-1.418-0.907C39.489,35.86,38.624,35.374,38.255,35.545z"/>
	</g>
	<g>
		<path fill="#01002F" d="M34.35-5.446c0.318-0.278,0.588-0.582,0.879-0.835l0.346,0.136c-0.008,0.228-0.225,0.56-0.516,0.889
			l0.428,0.18c0.174-0.205,0.316-0.408,0.414-0.594c0.076-0.148,0.131-0.346,0.219-0.479c1.568-0.084,2.58,0.599,2.619,2.24
			c0.213,0.085,0.424,0.18,0.629,0.274c0.02-0.831-0.264-2.167-1.27-2.703c-1.504-0.8-3.096,0.18-3.23-1.46
			c0.508-0.301,1.031-1.478,1.209-2.265c0.229-1,0.369-2.101,0.293-3.175c-0.08-1.135-0.529-1.776-1.334-2.13
			c-1.191-0.523-4.512-0.685-5.25,1.054c-0.568,1.338-0.143,4.518,0.67,5.801c0.475,0.75,0.691,0.62,0.525,1.043
			c-0.166,0.424-0.654,0.827-1,0.866c-0.344,0.038-1.053-0.013-1.371,0.128c-0.177,0.077,0.234,0.289,0.229,0.339
			c-0.008,0.088,1.034,0.029,1.008,0.107c0.463,1.008,0.531,0.859,1.02,1.417c0.043,0.05,0.123,0.125,0.225,0.213
			c0.16-0.079,0.299-0.153,0.42-0.224c-0.535-0.458-1.135-1.139-1.197-1.54l0.402-0.123c0.436,0.518,0.887,0.894,1.428,1.228
			c0.154-0.129,0.254-0.227,0.361-0.291c-0.57-0.31-1.293-1-1.395-1.192c0.148-0.256,0.318-0.362,0.434-0.821
			c0.422,0.104,0.604,0.342,1.402,0.335c0.268-0.003,0.51-0.032,0.754-0.095c0.236-0.061,0.434-0.177,0.633-0.217
			c0.213,0.349,0.039,0.246,0.479,0.798c-0.115,0.172-0.695,0.758-1.227,1.098c0.074,0.015,0.146,0.039,0.217,0.072
			C33.969-5.438,34.155-5.46,34.35-5.446z M32.643-7.942c-0.484,0.011-1.039-0.092-0.848-0.692c0.158-0.491,1.047-0.352,1.795-0.353
			c0.799-0.001,1.068,1.123-0.324,1.034c-0.045-0.446,0.012-0.702-0.521-0.524C32.645-8.272,32.68-8.201,32.643-7.942z
			 M30.147-12.316c1.127-0.17,1.387-0.012,2.748-0.472c0.625-0.212,1.766-0.77,2.07-1.148l0.135,0.284
			c0.037,0.051,0.135,0.137,0.191,0.204c0.594,0.698,0.514,0.966,0.443,1.766c-0.035,0.403-0.271,2.121-0.607,2.478
			c-0.391-0.223-0.424-0.297-1.01-0.396C33.18-9.76,31.327-9.785,30.78-9.19C30.45-9.723,30.089-11.557,30.147-12.316z"/>
		<path fill="#01002F" d="M20.771-6.396c0.316-0.189,0.816-0.174,1.136-0.369c0.436-0.265,0.426-0.497,0.71-0.867
			c0.471,0.201,0.875,0.747,1.855,0.278l0.518-0.298c0.277,0.877,0.854,0.999,1.823,1.23c0.034,0.689-0.638,1.456-0.969,1.707
			c-0.656,0.498-1.461,0.755-2.285,0.694c0.112,0.142,0.164,0.285,0.241,0.443h0.035c2.926-0.056,3.374-2.561,3.438-2.652
			c0.834,0.341,1.603,1.225,1.712,2.141c0.025,0.217-0.018,0.396,0.121,0.52c0.313,0.274,0.814-0.187,0.199-1.463
			c-0.55-1.139-1.55-1.804-2.911-2.081c-0.575-0.117-1.135-0.732-0.826-1.13c0.236-0.304,0.414-0.258,0.759-0.456
			c0.33-0.189,0.635-0.488,0.834-0.815c0.236-0.388,0.295-0.74,0.475-1.182c0.119-0.214,0.081-0.43,0.097-0.722
			c-0.072-0.77,0.006-1.153-0.255-1.874c-0.189-0.524-0.453-1.006-0.743-1.341c-0.72-0.833-1.66-1.357-2.851-1.319
			c-0.762,0.025-1.1,0.166-1.653,0.44c-0.241,0.12-0.631,0.05-0.915,0.15c-1.225,0.431-1.446,2.47-1.392,3.761l0.036,0.751
			c0.069,0.074,0.304,1.005,0.429,1.246c0.849,1.646,1.831,0.928,1.679,1.685c-0.237,1.186-1.712,0.49-3.09,1.91
			c-0.479,0.494-0.871,1.257-0.974,1.811c0.221-0.083,0.449-0.157,0.672-0.202c0.198-0.805,0.891-1.53,1.647-1.836
			c0.082,0.309,0.194,0.595,0.335,0.856c0.126-0.047,0.272-0.069,0.406-0.078C20.889-5.746,20.782-6.064,20.771-6.396z
			 M26.065-11.644c0.119,1.316-0.294,2.271-0.924,3.02c-0.882,1.048-1.743,1.154-2.718-0.003c-0.574-0.682-0.908-1.552-0.921-2.473
			c-0.013-0.917-0.072-0.703,0.456-1.39c0.477-0.651,0.522-0.938,0.74-1.268C23.361-12.187,24.364-12.721,26.065-11.644z"/>
	</g>
</g>
<image overflow="visible" width="1200" height="688" xlink:href="5782A6D4.jpg"  transform="matrix(0.0502 0 0 0.0502 79.9431 8.6472)">
</image>
</svg>
