<?xml version="1.0" encoding="utf-8"?>
<!-- Generator: Adobe Illustrator 16.0.0, SVG Export Plug-In . SVG Version: 6.00 Build 0)  -->
<!DOCTYPE svg PUBLIC "-//W3C//DTD SVG 1.1//EN" "http://www.w3.org/Graphics/SVG/1.1/DTD/svg11.dtd">
<svg version="1.1" id="Layer_1" xmlns="http://www.w3.org/2000/svg" xmlns:xlink="http://www.w3.org/1999/xlink" x="0px" y="0px"
	 width="56.693px" height="56.693px" viewBox="0 0 56.693 56.693" enable-background="new 0 0 56.693 56.693" xml:space="preserve">
<g id="Camada_x0020_1">
	<g id="_2574636476720">
		<path fill="#01002F" d="M22.875,23.083h9.288c0.045,1.225-0.732,2.492-1.412,3.135c-1.848,1.744-4.783,1.7-6.444,0.028
			C23.672,25.608,22.823,24.459,22.875,23.083z M22.363,18.062c0.701,0.051,3.168,1.564,5.133,1.569
			c1.177,0.004,1.794-0.273,2.744-0.647c0.309-0.121,2.219-0.921,2.436-0.896v4.041l-10.301,0.017L22.363,18.062z M19.14,20.077
			c0.619-0.251,0.871,0.648,0.367,0.847C18.915,21.157,18.564,20.311,19.14,20.077z M20.078,16.103
			c0.226-0.161,4.751-1.941,5.433-2.224c1.691-0.699,2.485-0.59,4.107,0.053l4.516,1.813c0.174,0.071,0.314,0.124,0.469,0.185
			c0.498,0.196,0.344,0.117,0.371,0.222c-1.199,0.454-2.395,0.897-3.607,1.389c-1.141,0.461-2.647,1.157-3.871,1.158
			c-0.867,0-1.378-0.208-2.063-0.48l-4.505-1.735C20.736,16.409,20.191,16.268,20.078,16.103z M18.847,16.715l-0.001,2.47
			c-1.455,0.589-1.063,2.686,0.445,2.708c1.519,0.024,1.987-2.071,0.497-2.708l-0.003-2.116l1.634,0.604
			c0.029,0.954-0.002,1.933,0.005,2.893c0.003,0.485-0.003,0.971,0,1.457c0.004,0.604,0.169,0.615,0.466,0.937
			c0.105,1.805,0.684,2.99,1.656,3.955c2.195,2.178,5.628,2.213,7.923,0.024c0.973-0.929,1.574-2.19,1.678-3.979
			c0.271-0.294,0.465-0.354,0.469-0.889c0.008-1.438-0.043-2.99,0.002-4.4c0.508-0.18,2.303-0.815,2.684-1.101
			c1.027-0.769-1.129-1.403-1.721-1.635l-4.127-1.656c-0.445-0.182-0.918-0.396-1.371-0.543c-1.099-0.356-2.271-0.323-3.327,0.038
			l-2.732,1.103c-0.941,0.389-1.792,0.719-2.743,1.11c-0.539,0.222-1.738,0.559-1.802,1.073
			C18.429,16.471,18.736,16.457,18.847,16.715z"/>
		<path fill="#FF7020" d="M27.991,36.971c0.055-0.258,0.529-0.744,0.731-0.998c0.59-0.737,5.075-6.273,5.243-6.381
			c0.539,0.364,5.666,4.319,5.748,4.445c-0.188,0.287-0.471,0.588-0.74,0.929c-0.256,0.321-0.49,0.604-0.738,0.905
			c-0.498,0.606-0.93,1.152-1.496,1.835c-0.348,0.419-2.854,3.544-3.014,3.647L27.991,36.971z M36.184,30.094
			c0.047-0.167,0.492-0.669,0.594-0.736c0.6,0.409,2.232,1.695,2.889,2.208c0.369,0.289,2.768,2.094,2.861,2.236
			c-0.201,0.321-3.941,4.836-4.473,5.505c-0.277,0.349-1.342,1.701-1.512,1.807c-0.182-0.125-0.684-0.469-0.813-0.645
			c0.098-0.255,4.385-5.426,4.516-5.585c0.695-0.836,0.922-0.947,0.191-1.509l-2.863-2.202
			C37.128,30.828,36.616,30.484,36.184,30.094z M35.075,41.212c0.262,0.104,1.01,0.748,1.229,0.907
			c0.523,0.384,0.787-0.142,1.172-0.62l5.586-6.849c0.402-0.483,0.918-0.915,0.432-1.328c-0.646-0.549-2.793-2.151-3.504-2.688
			c-0.807-0.606-1.518-1.155-2.334-1.796c-0.197-0.154-0.4-0.306-0.584-0.447c-0.748-0.578-0.959,0.448-1.652,1.089
			c-0.199-0.065-1.008-0.746-1.211-0.896c-0.545-0.397-0.877,0.266-1.174,0.625l-5.584,6.848c-0.963,1.172-0.925,0.954,0.735,2.221
			l4.669,3.587c0.496,0.379,0.904,0.842,1.299,0.484L35.075,41.212z"/>
		<path fill="#01002F" d="M20.486,41.527c-0.273,0.063-1.097,0.023-1.428,0.023c-0.353,0-1.04,0.096-1.266-0.143
			c-0.211-0.223-0.117-0.968-0.118-1.313c-0.001-1.526-0.111-5.869,0.151-6.966c0.35-1.461,1.286-2.642,2.384-3.339
			c0.574-0.364,1.22-0.653,2.057-0.797c0.443-0.077,0.88-0.071,1.339-0.073c0.234-0.001,0.469-0.001,0.703,0.001
			c0.184,0,0.507,0.044,0.646-0.047c-0.225-0.15-0.535-0.256-0.795-0.418c-0.125-0.078-0.641-0.446-0.748-0.467
			c-0.561-0.106-1.689,0.142-2.15,0.279c-1.242,0.374-2.261,1.147-2.944,1.929c-1.978,2.26-1.582,4.674-1.58,8.16
			c0.001,0.813,0.002,1.628,0,2.441c-0.002,0.82,0.23,1.34,0.879,1.59c0.541,0.208,3.903,0.101,4.771,0.101
			c1.074,0,8.851,0.06,9.703-0.012c-0.16-0.17-0.533-0.433-0.801-0.64c-0.494-0.383-0.385-0.286-1.168-0.286
			c-1.018,0-8.356,0.054-8.693-0.024c-0.012-0.616-0.002-1.239-0.002-1.855c-0.001-0.541,0.153-1.429-0.489-1.399
			c-0.606,0.027-0.448,0.901-0.448,1.446C20.488,40.319,20.496,40.927,20.486,41.527z"/>
		<path fill="#01002F" d="M30.077,28.912l1.496,0.01c0.525,0.003,0.43,0.068,0.707-0.28c0.107-0.136,0.387-0.43,0.418-0.606
			c-1.551-0.135-0.912-0.064-2.031,0.541C30.509,28.662,30.155,28.78,30.077,28.912L30.077,28.912z"/>
		<path fill="#01002F" d="M27.306,30.376c-0.535,0.282-0.144,1.112,0.44,0.822C28.239,30.954,27.884,30.072,27.306,30.376z"/>
		<path fill="#01002F" d="M27.289,32.276c-0.578,0.383-0.001,1.08,0.486,0.777C28.231,32.771,27.827,31.921,27.289,32.276z"/>
	</g>
	<path fill="#01002F" d="M28.346,47.695c-5.343,0-10.18-2.166-13.681-5.667c-3.502-3.502-5.667-8.339-5.667-13.682
		s2.165-10.181,5.667-13.682c3.501-3.501,8.338-5.667,13.681-5.667c5.342,0,10.18,2.166,13.682,5.667s5.666,8.339,5.666,13.682
		s-2.164,10.18-5.666,13.682C38.526,45.529,33.688,47.695,28.346,47.695z M15.27,41.423c3.347,3.347,7.97,5.417,13.076,5.417
		c5.108,0,9.731-2.07,13.077-5.417c3.348-3.347,5.416-7.97,5.416-13.076s-2.068-9.73-5.416-13.077
		c-3.346-3.347-7.969-5.416-13.077-5.416c-5.106,0-9.729,2.069-13.076,5.416S9.853,23.24,9.853,28.346S11.923,38.076,15.27,41.423z"
		/>
</g>
<image overflow="visible" width="1200" height="688" xlink:href="3AA50FD6.jpg"  transform="matrix(0.0502 0 0 0.0502 79.9998 11.6453)">
</image>
</svg>
