<?xml version="1.0" encoding="utf-8"?>
<!-- Generator: Adobe Illustrator 16.0.0, SVG Export Plug-In . SVG Version: 6.00 Build 0)  -->
<!DOCTYPE svg PUBLIC "-//W3C//DTD SVG 1.1//EN" "http://www.w3.org/Graphics/SVG/1.1/DTD/svg11.dtd">
<svg version="1.1" id="Layer_1" xmlns="http://www.w3.org/2000/svg" xmlns:xlink="http://www.w3.org/1999/xlink" x="0px" y="0px"
	 width="56.693px" height="56.693px" viewBox="0 0 56.693 56.693" enable-background="new 0 0 56.693 56.693" xml:space="preserve">
<g id="Camada_x0020_1">
	<path fill="#01002F" d="M28.346,47.695c-5.343,0-10.18-2.166-13.681-5.667c-3.502-3.502-5.667-8.339-5.667-13.682
		s2.165-10.181,5.667-13.682c3.501-3.501,8.338-5.667,13.681-5.667c5.342,0,10.18,2.166,13.682,5.667s5.666,8.339,5.666,13.682
		s-2.164,10.18-5.666,13.682C38.526,45.529,33.688,47.695,28.346,47.695z M15.27,41.423c3.347,3.347,7.97,5.417,13.076,5.417
		c5.108,0,9.731-2.07,13.077-5.417c3.348-3.347,5.416-7.97,5.416-13.076s-2.068-9.73-5.416-13.077
		c-3.346-3.347-7.969-5.416-13.077-5.416c-5.106,0-9.729,2.069-13.076,5.416S9.853,23.24,9.853,28.346S11.923,38.076,15.27,41.423z"
		/>
	<path fill="#017A00" d="M43.667,27.693c-1.148-2.81-0.695-3.17-3.607-1.757c-1.094,0.531,0.279,1.61-2.797,1.001
		c0,0-0.629-0.113-0.631-0.082c-0.98-0.099-1.986-0.48-2.838,0.072c-0.551,0.356-0.199,0.486-1.09,0.485
		c-0.521-0.002-1.193,0.039-1.605-0.091c-0.252-0.734,0.328-0.457-0.898-1.415c-1.688-1.319-1.357-1.283-3.624,1.805
		c-0.51,0.696-1.945,2.354-1.821,2.951c0.081,0.393,0.97,0.968,1.207,1.158c1.227,0.982,0.855,0.224,1.706,0.343
		c0.674,1.269-0.453,1.609-0.628,2.438c-0.263,1.247,0.679,1.689,1.711,1.777c0.205,1.157,0.712,1.263,1.9,1.299
		c0.342,0.864,0.75,1.089,1.768,0.943c0.326,0.443,0.357,0.776,0.98,0.94c0.586,0.155,1.137-0.089,1.395-0.544
		c0.518,0.089,0.75,0.424,1.563-0.033l0.285-0.161c0.001,0.101,0.61-0.505,0.609-1.013c0.697-0.335,1.016-0.394,1.078-1.425
		c0.951-0.293,1.391-0.449,1.426-1.636c1.209-0.091,1.188-0.637,1.459-1.531c1.309-0.44,0.707,0.406,2.354-0.333
		C45.788,31.888,45.632,32.5,43.667,27.693z M26.974,31.718c-0.428-0.104-0.572-0.31-0.895-0.57
		c-0.275-0.222-0.584-0.398-0.744-0.665c0.155-0.377,3.35-4.659,3.548-4.779c0.387,0.156,1.383,0.946,1.553,1.244
		C29.905,27.951,27.577,30.634,26.974,31.718z M28.903,35.622c-0.703,0.471-1.607-0.271-1.192-1.1
		c0.076-0.151,1.135-1.497,1.227-1.564c0.715-0.531,1.717,0.316,1.225,1.14C30.065,34.262,28.979,35.57,28.903,35.622z
		 M30.651,36.902c-0.621,0.535-1.588-0.1-1.197-0.915c0.063-0.129,1.055-1.414,1.18-1.521c0.678-0.582,1.6,0.228,1.207,0.948
		C31.766,35.549,30.76,36.807,30.651,36.902z M31.305,37.707c-0.23-0.579,0.408-1.143,0.66-1.446
		c0.502-0.608,0.705-0.596,1.289-0.132C33.374,37.247,31.762,38.849,31.305,37.707z M34.684,38.111
		c-0.25,0.441-0.414,0.894-0.961,0.878c-0.559-0.016-0.854-0.532-0.58-1.074C33.858,36.51,35.2,37.201,34.684,38.111z
		 M39.696,34.109c-0.627-0.102-2.76-2.316-3.166-1.952c-0.758,0.682,3.059,1.763,2.549,3.112c-0.447,1.183-2.023-0.279-2.791-0.836
		c-0.355-0.259-0.414-0.393-0.699-0.397c-0.205-0.003-0.484,0.197-0.123,0.549c0.098,0.094,0.295,0.21,0.393,0.278
		c1.018,0.714,2.32,1.339,1.73,2.091c-0.799,1.018-2.605-1.893-3.305-1.45c-0.201,0.294-0.123,0.311,0.111,0.529
		c0.711,0.659,2.033,1.201,1.934,1.974c-0.063,0.495-0.506,0.678-0.977,0.53c-0.135-0.313,0.549-1.977-1.404-2.063
		c-0.244-0.873-0.461-1.161-1.408-1.285c-0.109-1.037-0.543-1.525-1.625-1.523c-0.197-1.388-1.252-1.831-2.404-1.142l-0.273-0.561
		c-0.148-0.221-0.239-0.199-0.376-0.463l2.79-3.73c1.084,0.345,0.588,0.22,1.84,0.235c-0.125,0.489-0.748,0.529-0.842,1.188
		c-0.098,0.69,0.369,0.979,0.906,1.146c1.609,0.502,2.404-0.783,3.234-0.357c0.252,0.13,0.881,0.695,1.146,0.914l2.225,1.775
		c0.543,0.375,0.713,0.345,1.373,0.57C40.594,33.78,40.292,34.205,39.696,34.109z M39.38,32.081
		c-0.699-0.501-3.068-2.543-3.439-2.702c-0.949-0.406-1.51,0.391-2.414,0.461c-0.393,0.031-1.088-0.031-1.24-0.352
		c-0.164-0.343,0.334-0.659,0.531-0.84c0.348-0.321,1.168-1.251,1.689-1.38c0.506-0.126,2.125,0.188,2.736,0.278
		c2.559,0.382,1.441,0.024,2.525-0.12c0.23,0.402,1.998,4.8,2.016,5.065C40.593,32.681,40.216,32.678,39.38,32.081z M42.559,32.593
		c-0.27-0.445-2.379-5.71-2.391-6.018c0.387-0.239,1.588-0.823,2.018-0.843c0.262,0.402,2.389,5.702,2.402,6.04
		C44.229,31.943,42.927,32.575,42.559,32.593z"/>
	<path fill="#01002F" d="M36.06,39.284c-0.008,0.715-0.124,1.183-0.967,1.23c-1.52,0.087-6.177,0-7.91,0
		c-1.768,0.001-3.536-0.001-5.304-0.001c-1.045,0-4.457,0.278-4.988-0.298c-0.427-0.462-0.236-4.059-0.236-4.988
		c-0.002-5.213,0.091-10.822-0.007-15.943c0.746-0.064,4.45,0.198,4.762-0.145c0.187-0.247,0.11-0.082,0.139-0.465
		c0.013-0.178-0.005-0.468-0.007-0.658c-0.003-0.434-0.001-0.868,0-1.303c0.001-0.642-0.146-2.046,0.065-2.511
		c0.373-0.2,12.111-0.156,13.486-0.079c1.266,0.072,0.965,1.237,0.971,2.404c0.013,2.572,0.123,7.652,0.004,9.99h0.603
		c-0.109-3.349-0.003-6.912-0.003-10.27c0-2.493-0.186-2.712-2.693-2.715l-10.699,0.001c-1.147-0.002-1.983-0.179-2.43,0.283
		l-4.599,4.8c-0.286,0.313-0.195,0.589-0.192,1.072c0.007,0.867,0.001,1.737,0.001,2.605L16.053,38.39
		c-0.004,2.36,0.142,2.717,2.571,2.717c3.566,0.001,7.133,0.005,10.7-0.001c6.426-0.011,7.237,0.425,7.331-1.822H36.06z
		 M20.942,14.675l-0.032,3.96l-3.749,0.005C17.24,18.387,20.656,14.795,20.942,14.675z"/>
	<path fill="#01002F" d="M23.406,16.12c0.495,0.228,7.799,0.104,9.081,0.105c0.646,0.001,1.734,0.141,2.123-0.167l0.006-0.274
		c-0.418-0.335-5.221-0.169-6.501-0.168h-3.535C23.965,15.614,23.266,15.419,23.406,16.12z"/>
	<path fill="#01002F" d="M23.406,19.377c0.46,0.212,7.542,0.101,8.989,0.105c0.662,0.001,1.814,0.15,2.215-0.167l0.004-0.274
		c-0.42-0.336-5.299-0.169-6.5-0.17l-4.007-0.004C23.634,18.864,23.301,18.845,23.406,19.377z"/>
	<path fill="#01002F" d="M18.168,22.654c1.069,0.124,10.366,0.173,10.872,0.001l0.021-0.446c-1.641-0.165-8.557-0.116-10.352-0.088
		C18.239,22.128,18.079,22.148,18.168,22.654z"/>
	<path fill="#01002F" d="M18.163,38.94c0.503,0.178,6.672,0.085,7.624,0.085c0.617,0,2.161,0.07,2.586-0.092l0.021-0.433
		c-0.489-0.174-8.574-0.112-9.686-0.098C18.236,38.409,18.085,38.433,18.163,38.94z"/>
	<path fill="#01002F" d="M18.168,25.911c0.414,0.147,7.764,0.159,8.147-0.021l0.023-0.396c-0.516-0.213-6.551-0.111-7.536-0.115
		C18.304,25.376,18.073,25.357,18.168,25.911z"/>
	<path fill="#01002F" d="M18.164,35.682c0.494,0.176,5.652,0.085,6.601,0.084c0.576,0,1.145,0.105,1.47-0.172l0.002-0.268
		c-0.407-0.337-4.158-0.17-4.914-0.171l-2.613-0.009C18.238,35.154,18.084,35.177,18.164,35.682z"/>
	<path fill="#01002F" d="M18.165,32.425c0.421,0.149,4.71,0.146,5.079-0.015l0.021-0.411c-0.416-0.167-3.94-0.117-4.557-0.108
		C18.239,31.897,18.083,31.92,18.165,32.425z"/>
	<path fill="#01002F" d="M30.838,25.9c0.279,0.113,3.385,0.236,3.771-0.071l0.004-0.275c-0.414-0.329-1.633-0.169-2.313-0.168
		C31.615,25.385,30.699,25.141,30.838,25.9z"/>
	<path fill="#01002F" d="M31.101,22.649c0.299,0.112,3.131,0.222,3.508-0.077l0.004-0.275c-0.336-0.266-2.242-0.186-2.973-0.176
		C31.117,22.128,31.004,22.14,31.101,22.649z"/>
	<path fill="#01002F" d="M18.166,29.168c0.414,0.148,2.73,0.149,3.142-0.005l0.023-0.429c-0.428-0.151-1.88-0.092-2.521-0.091
		C18.311,28.644,18.071,28.596,18.166,29.168z"/>
</g>
<g id="Camada_x0020_1_1_">
	<path fill="#01002F" d="M-25.459,26.927c-5.343,0-10.18-2.166-13.681-5.667c-3.502-3.502-5.667-8.339-5.667-13.682
		s2.165-10.181,5.667-13.682c3.501-3.501,8.338-5.667,13.681-5.667c5.342,0,10.18,2.166,13.682,5.667s5.666,8.339,5.666,13.682
		s-2.164,10.18-5.666,13.682C-15.279,24.761-20.117,26.927-25.459,26.927z M-38.535,20.655c3.347,3.347,7.97,5.417,13.076,5.417
		c5.108,0,9.731-2.07,13.077-5.417c3.348-3.347,5.416-7.97,5.416-13.076s-2.068-9.73-5.416-13.077
		c-3.346-3.347-7.969-5.416-13.077-5.416c-5.106,0-9.729,2.069-13.076,5.416s-5.417,7.971-5.417,13.077
		S-41.882,17.308-38.535,20.655z"/>
</g>
<path fill="#FF7020" d="M68.832,26.226c0.655,0.336,1.728,2.369,2.015,3.168c0.595,1.664-0.422,2.988-1.894,3.025
	c-1.588,0.041-2.655-1.354-2.085-2.945C67.276,28.338,68.259,26.775,68.832,26.226z M71.875,30.959
	c0.382-1.809-1.943-5.647-2.939-5.715c-0.438-0.03-0.784,0.333-1.063,0.684C62.022,33.332,70.922,35.483,71.875,30.959z"/>
</svg>
