<?xml version="1.0" encoding="utf-8"?>
<!-- Generator: Adobe Illustrator 16.0.0, SVG Export Plug-In . SVG Version: 6.00 Build 0)  -->
<!DOCTYPE svg PUBLIC "-//W3C//DTD SVG 1.1//EN" "http://www.w3.org/Graphics/SVG/1.1/DTD/svg11.dtd">
<svg version="1.1" id="Camada_1" xmlns="http://www.w3.org/2000/svg" xmlns:xlink="http://www.w3.org/1999/xlink" x="0px" y="0px"
	 width="419.529px" height="595.28px" viewBox="1703.986 -150.015 419.529 595.28"
	 enable-background="new 1703.986 -150.015 419.529 595.28" xml:space="preserve">
<g>
	<g>
		<path fill="#138DBA" d="M2123.701,142.318c0,114.657-92.939,207.603-207.598,207.603c-114.648,0-207.596-92.946-207.596-207.603
			c0-114.649,92.947-207.596,207.596-207.596C2030.762-65.278,2123.701,27.669,2123.701,142.318z"/>
	</g>
	<g id="_2574636476720_1_">
		<path fill="#00849D" d="M1869.556,102.014h84.754c0.41,11.174-6.684,22.741-12.895,28.605
			c-16.859,15.915-43.639,15.514-58.797,0.258C1876.827,125.059,1869.083,114.571,1869.556,102.014z M1864.878,56.202
			c6.396,0.463,28.906,14.275,46.836,14.32c10.738,0.035,16.379-2.495,25.041-5.908c2.807-1.105,20.236-8.403,22.225-8.181v36.875
			l-94.004,0.151L1864.878,56.202z M1835.47,74.586c5.65-2.29,7.949,5.917,3.352,7.726
			C1833.421,84.442,1830.212,76.725,1835.47,74.586z M1844.034,38.326c2.059-1.47,43.352-17.715,49.572-20.291
			c15.434-6.38,22.68-5.382,37.48,0.481l41.195,16.539c1.586,0.651,2.869,1.132,4.287,1.685c4.535,1.791,3.127,1.069,3.377,2.022
			c-10.934,4.144-21.842,8.189-32.918,12.672c-10.398,4.206-24.148,10.56-35.314,10.568c-7.914,0-12.574-1.897-18.83-4.384
			l-41.105-15.835C1850.031,41.115,1845.058,39.832,1844.034,38.326z M1832.796,43.905l-0.008,22.536
			c-13.277,5.374-9.695,24.505,4.063,24.71c13.857,0.223,18.135-18.9,4.537-24.71l-0.027-19.31l14.908,5.507
			c0.268,8.706-0.018,17.635,0.045,26.395c0.027,4.429-0.027,8.858,0,13.296c0.035,5.507,1.541,5.614,4.25,8.545
			c0.963,16.468,6.238,27.286,15.113,36.09c20.033,19.872,51.365,20.192,72.297,0.223c8.885-8.475,14.365-19.988,15.318-36.313
			c2.477-2.682,4.242-3.226,4.268-8.109c0.08-13.126-0.383-27.286,0.018-40.154c4.635-1.64,21.014-7.441,24.498-10.042
			c9.365-7.014-10.303-12.806-15.711-14.917l-37.65-15.113c-4.072-1.658-8.385-3.609-12.52-4.955
			c-10.025-3.253-20.719-2.95-30.352,0.348l-24.934,10.061c-8.59,3.547-16.352,6.559-25.031,10.132
			c-4.918,2.023-15.861,5.097-16.441,9.793C1828.984,41.686,1831.781,41.552,1832.796,43.905z"/>
		<path fill="#00849D" d="M1916.241,228.748c0.498-2.353,4.83-6.79,6.674-9.107c5.383-6.728,46.303-57.245,47.836-58.225
			c4.928,3.324,51.701,39.414,52.459,40.563c-1.711,2.62-4.295,5.364-6.764,8.475c-2.334,2.932-4.473,5.516-6.729,8.26
			c-4.543,5.534-8.492,10.515-13.66,16.744c-3.172,3.823-26.029,32.338-27.49,33.283L1916.241,228.748z M1991.005,165.996
			c0.428-1.523,4.492-6.104,5.41-6.719c5.479,3.733,20.379,15.47,26.357,20.148c3.369,2.638,25.264,19.105,26.119,20.407
			c-1.836,2.932-35.975,44.128-40.813,50.231c-2.531,3.182-12.254,15.523-13.803,16.486c-1.648-1.141-6.23-4.277-7.414-5.881
			c0.891-2.326,40.01-49.51,41.213-50.963c6.346-7.628,8.412-8.644,1.746-13.768l-26.127-20.095
			C1999.605,172.689,1994.945,169.552,1991.005,165.996z M1980.874,267.441c2.387,0.944,9.213,6.826,11.209,8.278
			c4.785,3.502,7.184-1.292,10.703-5.658l50.963-62.494c3.67-4.411,8.385-8.35,3.938-12.119
			c-5.898-5.008-25.477-19.631-31.973-24.523c-7.352-5.534-13.84-10.542-21.297-16.388c-1.791-1.408-3.654-2.789-5.33-4.081
			c-6.826-5.275-8.74,4.09-15.076,9.936c-1.818-0.597-9.188-6.808-11.051-8.18c-4.963-3.627-8.002,2.424-10.703,5.703
			l-50.961,62.484c-8.787,10.693-8.439,8.706,6.709,20.264l42.613,32.73c4.527,3.458,8.252,7.681,11.852,4.42L1980.874,267.441z"/>
		<path fill="#00849D" d="M1847.749,270.319c-2.494,0.579-10.006,0.214-13.027,0.214c-3.217,0-9.49,0.874-11.549-1.301
			c-1.924-2.031-1.068-8.831-1.078-11.985c-0.01-13.928-1.016-53.556,1.381-63.563c3.191-13.331,11.736-24.105,21.752-30.467
			c5.24-3.324,11.131-5.961,18.768-7.271c4.045-0.704,8.029-0.65,12.217-0.668c2.139-0.009,4.277-0.009,6.416,0.009
			c1.676,0,4.625,0.401,5.898-0.428c-2.049-1.373-4.883-2.335-7.254-3.814c-1.141-0.713-5.844-4.072-6.824-4.259
			c-5.115-0.971-15.418,1.292-19.623,2.548c-11.334,3.413-20.629,10.471-26.867,17.6c-18.045,20.621-14.436,42.649-14.418,74.462
			c0.01,7.423,0.018,14.854,0,22.277c-0.018,7.485,2.104,12.227,8.02,14.508c4.938,1.897,35.619,0.917,43.531,0.917
			c9.803,0,80.762,0.543,88.531-0.107c-1.451-1.551-4.855-3.947-7.307-5.837c-4.5-3.493-3.502-2.611-10.648-2.611
			c-9.285,0-76.252,0.49-79.326-0.223c-0.107-5.623-0.018-11.308-0.018-16.931c-0.01-4.937,1.398-13.037-4.465-12.77
			c-5.535,0.249-4.09,8.225-4.09,13.197C1847.769,259.296,1847.849,264.848,1847.749,270.319z"/>
		<path fill="#00849D" d="M1935.275,155.205l13.652,0.089c4.795,0.026,3.92,0.624,6.443-2.558c0.98-1.238,3.527-3.921,3.822-5.534
			c-14.16-1.23-8.332-0.588-18.535,4.937C1939.204,152.924,1935.98,154.002,1935.275,155.205L1935.275,155.205z"/>
		<path fill="#00849D" d="M1962.312,219.543c2.254-2.54,2.539-2.174,2.574-6.764c3.672,0.883,1.756,2.032,6.711,0.393
			c-0.018,6.068-0.018,2.896,1.791,6.799c-1.523,0.74-2.352,0.169-3.895,1.319c-1.033,0.775-1.291,1.675-2.164,2.486
			c-0.75-1.051-0.75-1.809-1.961-2.727C1963.978,219.998,1963.443,220.524,1962.312,219.543z M1956.261,213.27"/>
		<path fill="#00849D" d="M1962.312,219.543c1.131,0.98,1.666,0.455,3.057,1.506c1.211,0.918,1.211,1.676,1.961,2.727
			c0.873-0.811,1.131-1.711,2.164-2.486c1.543-1.15,2.371-0.58,3.895-1.319c-1.809-3.903-1.809-0.73-1.791-6.799
			c-4.955,1.64-3.039,0.49-6.711-0.393C1964.851,217.369,1964.566,217.004,1962.312,219.543z"/>
		<path fill="#00849D" d="M1909.986,168.563c-4.883,2.575-1.311,10.15,4.02,7.503
			C1918.495,173.838,1915.261,165.791,1909.986,168.563z"/>
		<path fill="#00849D" d="M1909.833,185.904c-5.275,3.493-0.008,9.856,4.438,7.094
			C1918.425,190.422,1914.743,182.66,1909.833,185.904z"/>
	</g>
	<g id="_2574636476720">
		<path fill="#FFFFFF" d="M1863.297,102.014h84.754c0.41,11.174-6.684,22.741-12.895,28.605
			c-16.859,15.915-43.639,15.514-58.797,0.258C1870.569,125.059,1862.824,114.571,1863.297,102.014z M1858.619,56.202
			c6.396,0.463,28.906,14.275,46.836,14.32c10.738,0.035,16.379-2.495,25.041-5.908c2.807-1.105,20.236-8.403,22.225-8.181v36.875
			l-94.004,0.151L1858.619,56.202z M1829.211,74.586c5.65-2.29,7.949,5.917,3.352,7.726
			C1827.162,84.442,1823.953,76.725,1829.211,74.586z M1837.776,38.326c2.059-1.47,43.352-17.715,49.572-20.291
			c15.434-6.38,22.68-5.382,37.48,0.481l41.195,16.539c1.586,0.651,2.869,1.132,4.287,1.685c4.535,1.791,3.127,1.069,3.377,2.022
			c-10.934,4.144-21.842,8.189-32.918,12.672c-10.398,4.206-24.148,10.56-35.314,10.568c-7.914,0-12.574-1.897-18.83-4.384
			l-41.105-15.835C1843.772,41.115,1838.799,39.832,1837.776,38.326z M1826.537,43.905l-0.008,22.536
			c-13.277,5.374-9.695,24.505,4.063,24.71c13.857,0.223,18.135-18.9,4.537-24.71l-0.027-19.31l14.908,5.507
			c0.268,8.706-0.018,17.635,0.045,26.395c0.027,4.429-0.027,8.858,0,13.296c0.035,5.507,1.541,5.614,4.25,8.545
			c0.963,16.468,6.238,27.286,15.113,36.09c20.033,19.872,51.365,20.192,72.297,0.223c8.885-8.475,14.365-19.988,15.318-36.313
			c2.477-2.682,4.242-3.226,4.268-8.109c0.08-13.126-0.383-27.286,0.018-40.154c4.635-1.64,21.014-7.441,24.498-10.042
			c9.365-7.014-10.303-12.806-15.711-14.917l-37.65-15.113c-4.072-1.658-8.385-3.609-12.52-4.955
			c-10.025-3.253-20.719-2.95-30.352,0.348l-24.934,10.061c-8.59,3.547-16.352,6.559-25.031,10.132
			c-4.918,2.023-15.861,5.097-16.441,9.793C1822.725,41.686,1825.522,41.552,1826.537,43.905z"/>
		<path fill="#FFFFFF" d="M1909.983,228.748c0.498-2.353,4.83-6.79,6.674-9.107c5.383-6.728,46.303-57.245,47.836-58.225
			c4.928,3.324,51.701,39.414,52.459,40.563c-1.711,2.62-4.295,5.364-6.764,8.475c-2.334,2.932-4.473,5.516-6.729,8.26
			c-4.543,5.534-8.492,10.515-13.66,16.744c-3.172,3.823-26.029,32.338-27.49,33.283L1909.983,228.748z M1984.746,165.996
			c0.428-1.523,4.492-6.104,5.41-6.719c5.479,3.733,20.379,15.47,26.357,20.148c3.369,2.638,25.264,19.105,26.119,20.407
			c-1.836,2.932-35.975,44.128-40.813,50.231c-2.531,3.182-12.254,15.523-13.803,16.486c-1.648-1.141-6.23-4.277-7.414-5.881
			c0.891-2.326,40.01-49.51,41.213-50.963c6.346-7.628,8.412-8.644,1.746-13.768l-26.127-20.095
			C1993.346,172.689,1988.686,169.552,1984.746,165.996z M1974.615,267.441c2.387,0.944,9.213,6.826,11.209,8.278
			c4.785,3.502,7.184-1.292,10.703-5.658l50.963-62.494c3.67-4.411,8.385-8.35,3.938-12.119
			c-5.898-5.008-25.477-19.631-31.973-24.523c-7.352-5.534-13.84-10.542-21.297-16.388c-1.791-1.408-3.654-2.789-5.33-4.081
			c-6.826-5.275-8.74,4.09-15.076,9.936c-1.818-0.597-9.188-6.808-11.051-8.18c-4.963-3.627-8.002,2.424-10.703,5.703
			l-50.961,62.484c-8.787,10.693-8.439,8.706,6.709,20.264l42.613,32.73c4.527,3.458,8.252,7.681,11.852,4.42L1974.615,267.441z"/>
		<path fill="#FFFFFF" d="M1841.49,270.319c-2.494,0.579-10.006,0.214-13.027,0.214c-3.217,0-9.49,0.874-11.549-1.301
			c-1.924-2.031-1.068-8.831-1.078-11.985c-0.01-13.928-1.016-53.556,1.381-63.563c3.191-13.331,11.736-24.105,21.752-30.467
			c5.24-3.324,11.131-5.961,18.768-7.271c4.045-0.704,8.029-0.65,12.217-0.668c2.139-0.009,4.277-0.009,6.416,0.009
			c1.676,0,4.625,0.401,5.898-0.428c-2.049-1.373-4.883-2.335-7.254-3.814c-1.141-0.713-5.844-4.072-6.824-4.259
			c-5.115-0.971-15.418,1.292-19.623,2.548c-11.334,3.413-20.629,10.471-26.867,17.6c-18.045,20.621-14.436,42.649-14.418,74.462
			c0.01,7.423,0.018,14.854,0,22.277c-0.018,7.485,2.104,12.227,8.02,14.508c4.938,1.897,35.619,0.917,43.531,0.917
			c9.803,0,80.762,0.543,88.531-0.107c-1.451-1.551-4.855-3.947-7.307-5.837c-4.5-3.493-3.502-2.611-10.648-2.611
			c-9.285,0-76.252,0.49-79.326-0.223c-0.107-5.623-0.018-11.308-0.018-16.931c-0.01-4.937,1.398-13.037-4.465-12.77
			c-5.535,0.249-4.09,8.225-4.09,13.197C1841.51,259.296,1841.59,264.848,1841.49,270.319z"/>
		<path fill="#FFFFFF" d="M1929.016,155.205l13.652,0.089c4.795,0.026,3.92,0.624,6.443-2.558c0.98-1.238,3.527-3.921,3.822-5.534
			c-14.16-1.23-8.332-0.588-18.535,4.937C1932.946,152.924,1929.721,154.002,1929.016,155.205L1929.016,155.205z"/>
		<path fill="#FFFFFF" d="M1956.053,219.543c2.254-2.54,2.539-2.174,2.574-6.764c3.672,0.883,1.756,2.032,6.711,0.393
			c-0.018,6.068-0.018,2.896,1.791,6.799c-1.523,0.74-2.352,0.169-3.895,1.319c-1.033,0.775-1.291,1.675-2.164,2.486
			c-0.75-1.051-0.75-1.809-1.961-2.727C1957.719,219.998,1957.184,220.524,1956.053,219.543z M1950.002,213.27"/>
		<path fill="#FFFFFF" d="M1956.053,219.543c1.131,0.98,1.666,0.455,3.057,1.506c1.211,0.918,1.211,1.676,1.961,2.727
			c0.873-0.811,1.131-1.711,2.164-2.486c1.543-1.15,2.371-0.58,3.895-1.319c-1.809-3.903-1.809-0.73-1.791-6.799
			c-4.955,1.64-3.039,0.49-6.711-0.393C1958.592,217.369,1958.307,217.004,1956.053,219.543z"/>
		<path fill="#FFFFFF" d="M1903.727,168.563c-4.883,2.575-1.311,10.15,4.02,7.503
			C1912.237,173.838,1909.002,165.791,1903.727,168.563z"/>
		<path fill="#FFFFFF" d="M1903.574,185.904c-5.275,3.493-0.008,9.856,4.438,7.094
			C1912.166,190.422,1908.485,182.66,1903.574,185.904z"/>
	</g>
</g>
</svg>
