<?xml version="1.0" encoding="utf-8"?>
<!-- Generator: Adobe Illustrator 16.0.0, SVG Export Plug-In . SVG Version: 6.00 Build 0)  -->
<!DOCTYPE svg PUBLIC "-//W3C//DTD SVG 1.1//EN" "http://www.w3.org/Graphics/SVG/1.1/DTD/svg11.dtd">
<svg version="1.1" id="Camada_1" xmlns="http://www.w3.org/2000/svg" xmlns:xlink="http://www.w3.org/1999/xlink" x="0px" y="0px"
	 width="419.529px" height="595.28px" viewBox="1249.986 -150.015 419.529 595.28"
	 enable-background="new 1249.986 -150.015 419.529 595.28" xml:space="preserve">
<g>
	<path fill="#285D72" d="M1666.62,142.657c0,114.657-92.939,207.603-207.598,207.603c-114.648,0-207.596-92.946-207.596-207.603
		c0-114.649,92.947-207.596,207.596-207.596C1573.681-64.939,1666.62,28.008,1666.62,142.657z"/>
</g>
<g>
	<g>
		<path fill="#00849D" d="M1466.975,123.391l-2.188,11.408c15.836,2.907,27.41,8.105,33.568,15.055
			c7.688,8.667,10.189,18.586,16.305,30.588l10.324-6.574l-6.51-33.61l33.691-26.828c17.18,18.357,52.926,63.282,63.658,57.864
			c10.096-4.438-3.021-28.546-11.273-40.215c-8.74-12.388-18.93-26.369-25.619-39.08c9.555-12.783,36.35-29.13,39.027-51.134
			c-1.697-13.939-18.951-14.023-33.057-1.76l-22.16,19.544c-5.355,4.678-0.813,2.167-7.805,6.387
			c-24.055-11.356-75.137-54.082-84.648-38.08c-7.387,11.805,38.006,45.592,60.49,66.252c-8.492,12.366-17.4,22.316-27.256,32.172
			L1466.975,123.391z"/>
		<path fill="#00849D" d="M1499.094,168.261c-28.635,35.033-42.893,48.232-68.309,70.246
			c-12.047,10.437-29.367,20.456-40.547,22.636c-8.174,1.589-22.738,1.063-28.418-5.026c-5.68-6.089-10.646-18.462-0.385-27.988
			c-0.559,8.295,4.469,22.283,15.412,21.187c10.941-1.09,17.801-3.872,37.629-22.353c19.07-18.264,40.295-42.374,62.135-78.483
			C1488.723,147.427,1500.369,156.998,1499.094,168.261z"/>
	</g>
</g>
<g>
	<path fill="#FFFFFF" d="M1438.511,123.391l-2.188,11.408c15.836,2.907,27.41,8.105,33.568,15.055
		c7.688,8.667,10.189,18.586,16.305,30.588l10.324-6.574l-6.51-33.61l33.691-26.828c17.18,18.357,52.926,63.282,63.658,57.864
		c10.096-4.438-3.021-28.546-11.273-40.215c-8.74-12.388-18.93-26.369-25.619-39.08c9.555-12.783,36.35-29.13,39.027-51.134
		c-1.697-13.939-18.951-14.023-33.057-1.76l-22.16,19.544c-5.355,4.678-0.813,2.167-7.805,6.387
		c-24.055-11.356-75.137-54.082-84.648-38.08c-7.387,11.805,38.006,45.592,60.49,66.252c-8.492,12.366-17.4,22.316-27.256,32.172
		L1438.511,123.391z"/>
	<path fill="#FFFFFF" d="M1470.63,168.261c-28.635,35.033-42.893,48.232-68.309,70.246c-12.047,10.437-29.367,20.456-40.547,22.636
		c-8.174,1.589-22.738,1.063-28.418-5.026c-5.68-6.089-10.646-18.462-0.385-27.988c-0.559,8.295,4.469,22.283,15.412,21.187
		c10.941-1.09,17.801-3.872,37.629-22.353c19.07-18.264,40.295-42.374,62.135-78.483
		C1460.259,147.427,1471.906,156.998,1470.63,168.261z"/>
</g>
</svg>
