<?xml version="1.0" encoding="utf-8"?>
<!-- Generator: Adobe Illustrator 26.0.1, SVG Export Plug-In . SVG Version: 6.00 Build 0)  -->
<svg version="1.1" id="Layer_1" xmlns="http://www.w3.org/2000/svg" xmlns:xlink="http://www.w3.org/1999/xlink" x="0px" y="0px"
	 viewBox="0 0 56.7 56.7" style="enable-background:new 0 0 56.7 56.7;" xml:space="preserve">
<style type="text/css">
	.st0{opacity:0.1;}
	.st1{fill-rule:evenodd;clip-rule:evenodd;}
	.st2{fill-rule:evenodd;clip-rule:evenodd;fill:#FFFFFF;}
	.st3{fill:#FFFFFF;}
</style>
<g class="st0">
	<path class="st1" d="M28.5,13.4c10.3,0,18.7,8.4,18.7,18.8c0,10.3-8.4,18.7-18.8,18.7C18,50.8,9.7,42.4,9.7,32
		C9.7,21.7,18.1,13.4,28.5,13.4z M20.6,48.6c-0.2-0.2-0.5-0.3-0.7-0.5c-0.7-0.9-1.7-0.9-2.6-1.3c0,0.1,0,0.1,0.1,0.1
		c1.2,0.7,2.4,1.4,3.6,2.1c0.1,0,0.2,0,0.3,0c0.9,0.4,1.8,0.5,2.8,0.7c-0.4-0.5-0.7-1-1.1-1.4c0-0.1-0.1-0.1-0.2-0.1
		c-1-0.2-2.1-0.4-3.1-0.5c0,0,0,0.1-0.1,0.1C19.9,48,20.3,48.3,20.6,48.6z M34.5,49.3c0.1,0,0.2,0.1,0.2,0.1
		c1.1-0.2,2.2-0.8,3.1-1.4c0.4-0.3,0.7-0.5,1.1-0.8c-0.8,0.1-1.6,0.3-2.3,0.5c-0.2,0.1-0.5,0.2-0.7,0.4C35.5,48.5,35,48.9,34.5,49.3
		c0.4-0.4,0.8-0.9,1.3-1.4c-1.3,0.2-2.4,0.3-3.6,0.4c-0.1,0-0.3,0.1-0.3,0.2c-0.3,0.4-0.5,0.9-0.8,1.4
		C32.4,49.7,33.5,49.8,34.5,49.3z M24.2,16.4c0.1-0.1,0.2-0.2,0.3-0.4c-0.5,0-0.9-0.1-1.3-0.1c0-0.1,0.1-0.3,0-0.3
		c-0.6-0.4-0.4-0.8,0.1-1.2c-1.3,0.3-2.5,0.9-3.6,1.4c-0.8,0.4-0.8,1.2-0.1,1.7c0.1,0.1,0.4,0.1,0.5,0c0.3-0.1,0.5-0.3,0.8-0.4
		c-0.3,0.2-0.5,0.5-0.8,0.7c0.5,0.2,0.9,0.3,1.3,0.5c0.3,0.1,0.5,0,0.8-0.2C22.9,17.5,23.6,16.9,24.2,16.4c-0.7,0.7-1.4,1.3-2.2,2.1
		c0.8,0.1,1.5,0.3,2.2,0.4c0.1,0,0.3-0.1,0.4-0.2c0.5-0.8,0.9-1.5,1.4-2.4C25.4,16.3,24.8,15.9,24.2,16.4z M14.4,43.7
		c-0.3-0.3-0.6-0.5-0.8-0.8c0,0-0.1,0.1-0.1,0.1c0.3,0.4,0.6,0.8,0.9,1.1c0.2,0.2,0.4,0.3,0.6,0.5c1,1.2,2.2,2.2,3.8,2.4
		c-0.5-0.8-1-1.6-1.5-2.4c-0.1-0.1-0.2-0.2-0.3-0.2c-0.9-0.3-1.8-0.6-2.7-0.9C14.3,43.5,14.4,43.6,14.4,43.7z M18.6,17.2
		c0-0.3,0.1-0.5,0.1-0.8c0,0-0.1-0.1-0.1-0.1c-1,0.8-2,1.6-3,2.5c-0.2,0.1-0.2,0.5-0.2,0.7c0,0,0.1,0,0.1,0c0.2-0.2,0.4-0.3,0.6-0.5
		c-0.2,0.2-0.4,0.5-0.7,0.8c0.4,0.4,0.8,0.7,1.2,1.1c1-1.1,1.9-2.1,2.8-3c0.1,0.1,0.1,0.1,0.2,0.2C19.2,17.7,18.9,17.5,18.6,17.2z
		 M32.1,16.7c0.5,0.6,1.1,1.1,1.6,1.7c0.1,0.1,0.3,0.3,0.4,0.3c0.6-0.1,1.2-0.3,1.9-0.5c-0.3-0.2-0.4-0.4-0.6-0.5
		c-0.3-0.3-0.6-0.6-0.9-0.8c0.4,0.3,0.9,0.6,1.3,1c0.3,0.2,0.5,0.2,0.7,0.1c0.2-0.1,0.4-0.2,0.5-0.3c0.7-0.6,0.8-1.3,0.2-1.6
		c-1.1-0.7-2.3-1.2-3.7-1.4c0.4,0.7,0.4,0.8-0.3,1.2c-0.1,0.1-0.1,0.2-0.2,0.3c-0.5,0.1-0.9,0.1-1.5,0.2c0.1,0.2,0.2,0.3,0.3,0.4
		c-0.6-0.6-1.3,0-2-0.1c0.3,0.9,0.6,1.7,1,2.5c0,0.1,0.2,0.2,0.3,0.2c0.8-0.1,1.6-0.2,2.6-0.3C33.2,18,32.7,17.3,32.1,16.7z
		 M39,18.4c0.7,0.6,1.4,1.1,2.1,1.7c0.5-0.6,0.5-0.9-0.1-1.4c-0.3-0.2-0.5-0.5-0.8-0.7c-0.7-0.6-1.4-1.1-2-1.6
		c-0.1,0.5-0.1,0.8-0.2,1.2c0.2,0.2,0.4,0.4,0.6,0.6c-0.3-0.2-0.6-0.3-0.8-0.5c-0.4,0.2-0.8,0.5-1.2,0.7c0.9,1,1.8,2,2.7,3
		c0.5-0.3,1-0.6,1.5-0.9c0-0.1,0-0.1,0.1-0.2c-0.2-0.1-0.3-0.2-0.5-0.3C40.1,19.4,39.5,18.9,39,18.4z M39.8,46.3
		c0.3,0.1,0.5,0.1,0.8-0.3c0.8-0.9,1.7-1.8,2.5-2.6c0.1-0.1,0.1-0.2,0.2-0.4c-0.4,0.2-0.6,0.4-0.9,0.5c-0.5,0.2-0.8,0.5-1.1,1
		c-0.4,0.6-0.9,1.2-1.4,1.7c0.5-0.7,1-1.4,1.5-2.2c-1.1,0.3-2.2,0.6-3.2,0.9c-0.1,0-0.2,0.1-0.3,0.2c-0.4,0.8-0.9,1.6-1.4,2.5
		C37.7,47.1,38.9,47.1,39.8,46.3z M14.5,20.7c0.2-0.4,0.7-0.7,0.4-1.3c-0.9,1-1.7,2-2.4,3.2c-0.1,0.1,0,0.3-0.1,0.6
		c0.4-0.4,0.6-0.8,0.9-1.1c-0.2,0.3-0.4,0.7-0.6,1c-0.1,0.1-0.1,0.4-0.1,0.5c0.4,0.4,0.8,0.8,1.2,1.2c0.8-1.3,1.6-2.4,2.3-3.5
		c-0.4-0.4-0.8-0.7-1.2-1.1C14.8,20.4,14.6,20.6,14.5,20.7z M11.2,26c-0.1,0.4-0.3,0.9-0.4,1.3c0,0.2,0,0.5,0.1,0.7
		c0.4,0.4,0.8,0.8,1.3,1.2c0.5-1.4,1-2.7,1.4-3.7c-0.4-0.6-0.8-1-1.2-1.5c0,0-0.2,0-0.2,0c0-0.2,0-0.4,0.1-0.6c-0.1,0-0.1,0-0.2,0
		c-0.5,1.3-1,2.5-1.5,3.8c0,0,0.1,0,0.1,0.1C10.8,26.8,11,26.4,11.2,26z M33,32.6c-2,0-3.8,0-5.7,0c0,1.5,0,2.9,0,4.2
		c1.9,0,3.8,0,5.7,0C33,35.4,33,34,33,32.6z M21.1,36.6c1.9,0.1,3.7,0.3,5.6,0.4c0-1.5,0-2.9,0-4.3c-1.8-0.1-3.5-0.2-5.4-0.4
		C21.2,33.7,21.1,35.1,21.1,36.6z M33.6,36.8c1.5-0.2,2.9-0.4,4.3-0.6c1.2-0.2,1.2-0.2,1.2-1.4c-0.1-1-0.2-2-0.2-3
		c-1.8,0.2-3.6,0.5-5.2,0.7C33.6,33.9,33.6,35.3,33.6,36.8z M32.9,41.5c0-1.4,0-2.7,0-3.9c-1.9,0-3.8,0-5.7,0c0,1.4,0,2.7,0,3.9
		C29.2,41.5,31,41.5,32.9,41.5z M27.4,32c1.8,0,3.6,0,5.5,0c-0.1-1.5-0.3-2.8-0.4-4.1c-1.7,0-3.4,0-5.1,0
		C27.4,29.3,27.4,30.7,27.4,32z M26.7,37.6c-1.9-0.1-3.7-0.3-5.6-0.4c0.1,1.2,0.1,2.5,0.2,3.7c0,0.1,0.3,0.3,0.4,0.3
		c0.8,0.1,1.6,0.2,2.4,0.2c0.8,0.1,1.7,0.1,2.5,0.1C26.7,40.2,26.7,38.9,26.7,37.6z M22,27.6c-0.2,1.4-0.4,2.7-0.6,4.1
		c1.9,0.1,3.6,0.2,5.4,0.4c0-1.5,0-2.8,0-4.2C25.2,27.8,23.7,27.7,22,27.6z M33.6,37.4c0,1.3,0,2.6,0,4c1.6-0.2,3.3-0.5,4.9-0.7
		c0.1,0,0.2-0.2,0.3-0.2c0.1-1.2,0.3-2.5,0.4-3.7C37.2,36.9,35.5,37.2,33.6,37.4z M33,27.8c0.1,1.4,0.3,2.7,0.4,4.2
		c1.8-0.2,3.5-0.5,5.3-0.7c-0.3-1.4-0.6-2.8-0.9-4.1C36.2,27.4,34.6,27.6,33,27.8z M20.8,32.2c-1.5-0.3-3.1-0.6-4.7-0.9
		c-0.1,1.4-0.3,2.8-0.4,4.3c1.6,0.3,3.2,0.6,4.8,0.9C20.6,35,20.7,33.6,20.8,32.2z M29.3,15.5C29.4,15.5,29.4,15.5,29.3,15.5
		c0.2,0.1,0.2,0.3,0.3,0.4c0.1,0.1,0.3,0.2,0.4,0.2c0.6-0.1,1.2-0.2,1.8-0.3c0.4-0.1,0.8-0.3,1.1-0.6c0.3-0.3,0.3-0.7-0.1-0.9
		c-0.4-0.2-0.9-0.4-1.3-0.5c-2-0.4-4.1-0.4-6.1-0.1c-0.6,0.1-1.2,0.4-1.8,0.6c-0.4,0.2-0.3,0.6,0,0.8c0.3,0.2,0.5,0.4,0.8,0.4
		c0.9,0.2,1.9,0.3,2.8,0.5c0.1,0,0.3,0,0.4,0c0.1-0.3,0.1-0.5,0.2-0.8c0,0,0,0,0.1,0c0,0.2,0,0.5,0,0.7c0.5,0,0.9,0,1.5,0
		C29.5,15.9,29.4,15.7,29.3,15.5z M20.8,31.6c0.2-1.4,0.5-2.8,0.7-4.1c-1.4-0.3-2.8-0.5-4.2-0.8c-0.4,1.3-0.7,2.6-1.1,4.1
		C17.8,31.1,19.3,31.4,20.8,31.6z M15.7,36.2c0.1,0.9,0.1,1.7,0.2,2.5c0.2,1.5,0.2,1.5,1.7,1.8c1,0.2,2.1,0.4,3.2,0.6
		c-0.1-1.4-0.2-2.7-0.2-4C18.9,36.8,17.4,36.5,15.7,36.2z M27.5,23.5c0,1.4,0,2.6,0,3.8c1.6,0,3.2,0,4.9,0c-0.2-1.3-0.4-2.6-0.6-3.8
		C30.4,23.5,29,23.5,27.5,23.5z M32.9,42c-1.9,0-3.7,0-5.5,0c0,1.2,0,2.2,0,3.2c1.7,0,3.2,0,4.8,0c0.1,0,0.3-0.1,0.3-0.2
		C32.6,44,32.7,43,32.9,42z M43.3,30.6c-1.4,0.4-2.7,0.8-4,1.1c0.1,1.4,0.2,2.8,0.3,4.3c1.3-0.4,2.5-0.8,3.8-1.1
		c0.1,0,0.2-0.2,0.2-0.3C43.5,33.3,43.4,31.9,43.3,30.6z M26.9,27.4c0.1-1.4,0.2-2.6,0.2-3.9c-1.4-0.1-2.7-0.2-4-0.3
		c-0.3,1.3-0.6,2.5-1,3.8C23.8,27.1,25.3,27.2,26.9,27.4z M32.2,23.4c0.2,1.3,0.5,2.5,0.7,3.8c1.5-0.2,3.1-0.4,4.7-0.6
		c-0.5-1.3-1-2.5-1.5-3.6c0-0.1-0.2-0.1-0.3-0.1C34.7,23,33.5,23.2,32.2,23.4z M26.9,45.3c-0.1-1.2-0.1-2.2-0.1-3.3
		c-1.8-0.1-3.5-0.3-5.3-0.4c0.1,0.7,0.2,1.3,0.3,2c0.2,1.3,0.3,1.3,1.5,1.4C24.4,45.2,25.6,45.2,26.9,45.3z M39.2,31.1
		c1.3-0.4,2.6-0.7,3.9-1.1c-0.5-1.4-0.9-2.7-1.3-4c-1.3,0.4-2.4,0.7-3.6,1C38.6,28.4,38.9,29.7,39.2,31.1z M33,45.2
		c1.2-0.1,2.3-0.3,3.4-0.4c1.3-0.2,1.3-0.2,1.7-1.5c0.2-0.7,0.3-1.3,0.5-2c-1.7,0.2-3.3,0.4-5,0.6c-0.1,0-0.3,0.2-0.3,0.3
		C33.2,43.1,33.1,44.1,33,45.2z M39.3,40.6c1.3-0.4,2.5-0.7,3.7-1.1c0.1,0,0.3-0.2,0.3-0.3c0.2-1.2,0.4-2.5,0.5-3.8
		c-1.5,0.4-2.8,0.8-4.1,1.2C39.5,37.9,39.4,39.2,39.3,40.6z M15.7,31.3c-1.1-0.4-2.2-0.8-3.4-1.3c-0.1,1.1-0.3,2.2-0.4,3.2
		c-0.1,1.1-0.3,0.9,0.8,1.3c0.9,0.4,1.8,0.7,2.6,1C15.4,34,15.6,32.6,15.7,31.3z M22.7,23.1c-1.2-0.2-2.3-0.4-3.5-0.6
		c-0.5,1.2-1.1,2.4-1.7,3.7c1.5,0.3,2.8,0.5,4.1,0.8C22,25.6,22.4,24.4,22.7,23.1z M13.8,25.5c-0.5,1.3-0.9,2.6-1.4,3.9
		c1.2,0.5,2.3,0.9,3.4,1.3c0.4-1.4,0.8-2.7,1.1-4C15.9,26.3,15,25.9,13.8,25.5z M21.5,44.9c-0.2-0.7-0.3-1.3-0.4-1.9
		c-0.1-0.5,0-1.1-0.3-1.4c-0.3-0.3-0.9-0.2-1.4-0.3c-1-0.2-2-0.4-3.2-0.6c0.4,1.1,0.7,2.2,1.1,3.2c0,0.1,0.2,0.2,0.3,0.2
		C18.8,44.4,20.1,44.7,21.5,44.9z M11.8,34.8c0,1.3,0.2,2.5,0.5,3.8c0,0.1,0.2,0.2,0.3,0.3c1,0.4,2,0.8,3.1,1.2
		c-0.1-1.4-0.2-2.6-0.3-3.9c0-0.1-0.1-0.2-0.2-0.2C14,35.6,13,35.2,11.8,34.8z M36.6,22.8c0.4,1.1,0.9,2.3,1.3,3.4
		c0,0.1,0.2,0.2,0.3,0.2c1.1-0.3,2.1-0.6,3.4-0.9c-0.7-1.2-1.4-2.3-2-3.4C39.5,22,39.3,22,39.2,22C38.3,22.2,37.5,22.5,36.6,22.8z
		 M30.9,19.6c-1.1,0-2.1,0-3.1,0c-0.1,1.1-0.1,2.2-0.2,3.3c1.4,0,2.7,0,4.1,0C31.4,21.7,31.2,20.6,30.9,19.6z M18.9,22.4
		c-0.8-0.3-1.7-0.6-2.6-1c-0.7,1.1-1.5,2.3-2.2,3.5c1.1,0.4,2.1,0.8,3.1,1.1C17.8,24.8,18.3,23.6,18.9,22.4z M31.2,19.5
		c0.3,1,0.5,2,0.8,3c0,0.1,0.2,0.3,0.3,0.2c1.2-0.1,2.3-0.3,3.7-0.4c-0.7-1.1-1.3-2.1-1.9-3.1c-0.1-0.1-0.2-0.1-0.4-0.1
		C33,19.3,32.1,19.4,31.2,19.5z M27.5,19.6c-0.9-0.1-1.8-0.2-2.7-0.2c-0.1,0-0.2,0.1-0.2,0.1c-0.4,1-0.8,2-1.3,3.2
		c1.3,0.1,2.5,0.2,3.7,0.2c0.1,0,0.3-0.2,0.3-0.3C27.3,21.7,27.4,20.7,27.5,19.6z M38.2,44.5c1.1-0.3,2.2-0.7,3.3-1
		c0.1,0,0.2-0.1,0.3-0.2c0.5-1.1,0.9-2.1,1.4-3.3c-1.4,0.4-2.5,0.7-3.7,1c-0.1,0-0.3,0.2-0.3,0.3C38.8,42.3,38.5,43.3,38.2,44.5z
		 M27.4,45.7c0,0.8,0.1,1.5,0.1,2.1c0,0.3,0.1,0.4,0.4,0.4c1.2,0,2.3-0.1,3.5-0.1c0.1,0,0.4-0.1,0.4-0.2c0.2-0.7,0.4-1.5,0.6-2.2
		C30.7,45.7,29.1,45.7,27.4,45.7z M26.9,45.7c-1.6-0.1-3.1-0.2-4.8-0.3c0.2,0.5,0.4,1,0.5,1.5c0.2,0.7,0.6,1.1,1.5,1.1
		c1,0,2,0.1,3,0.2C27,47.3,26.9,46.5,26.9,45.7z M43.6,30.5c0.2,1.4,0.3,2.7,0.5,4.2c0.7-0.4,1.4-0.8,2-1.2c0.2-0.1,0.3-0.4,0.3-0.6
		c-0.1-0.9-0.2-1.8-0.3-2.7c0-0.3-0.1-0.7-0.2-1C45,29.6,44.3,30,43.6,30.5z M24.2,19.4c-0.5-0.1-1-0.1-1.4-0.3
		c-0.8-0.3-1.4,0-1.8,0.7c-0.4,0.7-1,1.4-1.5,2.2c1.1,0.2,2.1,0.4,3.1,0.5c0.1,0,0.4-0.1,0.4-0.2C23.4,21.4,23.8,20.4,24.2,19.4z
		 M43.5,29.9c0.7-0.4,1.3-0.8,1.9-1.2c0.1-0.1,0.2-0.3,0.2-0.4c-0.4-1.2-0.9-2.4-1.4-3.6c-0.8,0.5-1.5,0.9-2.1,1.3
		C42.5,27.2,43,28.5,43.5,29.9z M37.6,45c-1.6,0.2-3,0.4-4.5,0.5c-0.1,0-0.3,0.1-0.3,0.2c-0.2,0.8-0.4,1.5-0.6,2.4
		c1.3-0.2,2.5-0.4,3.7-0.5c0.1,0,0.2-0.1,0.3-0.2C36.7,46.6,37.1,45.8,37.6,45z M12.4,39.4c0.3,0.8,0.6,1.5,0.9,2.3
		c0.3,0.9,0.9,1.5,1.8,1.7c0.6,0.2,1.2,0.4,1.8,0.6c-0.3-1.1-0.6-2.1-1-3.1c0-0.1-0.2-0.3-0.3-0.4C14.6,40.2,13.6,39.8,12.4,39.4z
		 M34.4,19.1c0.7,1.1,1.3,2.1,1.9,3.2c0.9-0.3,1.8-0.5,2.9-0.8c-0.9-1-1.8-1.9-2.6-2.8c-0.1-0.1-0.3-0.1-0.4-0.1
		C35.6,18.7,35,18.9,34.4,19.1z M41.9,25.4c0.7-0.4,1.3-0.8,2-1.2c-0.9-1.2-1.7-2.3-2.4-3.4c-0.6,0.4-1.2,0.7-1.7,1
		C40.5,23,41.1,24.1,41.9,25.4z M22.7,47.9c-0.2-0.5-0.4-0.8-0.5-1.1c-0.2-0.5-0.3-1.1-0.6-1.4c-0.4-0.3-1-0.2-1.5-0.3
		c-0.8-0.1-1.6-0.3-2.4-0.5c0,0-0.1,0.1-0.1,0.1c0.5,0.8,1.1,1.6,1.6,2.4c0.1,0.1,0.2,0.1,0.3,0.1C20.5,47.4,21.5,47.6,22.7,47.9z
		 M46.4,33.9c-0.9,0.5-1.6,0.9-2.3,1.3c-0.1,0.1-0.2,0.2-0.2,0.3c-0.1,1.3-0.2,2.5-0.4,3.9c0.7-0.4,1.4-0.9,2-1.3
		c0.1-0.1,0.2-0.3,0.2-0.4C46,36.4,46.2,35.2,46.4,33.9z M21.5,18.8c-0.1,0-0.2-0.1-0.4-0.1c-0.5-0.2-1.1-0.5-1.5-0.4
		c-0.5,0.1-0.9,0.7-1.3,1.1c-0.5,0.5-1,1.1-1.6,1.7c0.8,0.3,1.5,0.6,2.3,0.8c0.1,0,0.3,0,0.4-0.1C20.1,20.8,20.7,19.8,21.5,18.8z
		 M10.4,28.4c-0.1,1-0.2,2-0.4,3c-0.2,1.2,0.4,1.8,1.5,2.4c0.2-1.3,0.4-2.6,0.6-3.9c0-0.1-0.1-0.2-0.1-0.3
		C11.4,29.2,10.9,28.8,10.4,28.4z M30.8,19.1c-0.3-0.9-0.6-1.7-0.9-2.5c0-0.1-0.2-0.1-0.3-0.1c-0.5,0-1,0-1.5,0
		c-0.1,0.9-0.2,1.8-0.2,2.7C28.8,19.1,29.7,19.1,30.8,19.1z M27.9,16.5c-0.5,0-1-0.1-1.4-0.1c-0.1,0-0.2,0-0.3,0.1
		c-0.5,0.8-1,1.6-1.5,2.5c1.1,0.1,1.9,0.1,2.8,0.2C27.7,18.3,27.8,17.4,27.9,16.5z M42.1,43.2c2.3-0.7,2.7-2.7,3.4-4.6
		c-0.7,0.4-1.4,0.8-2.1,1.1c-0.1,0.1-0.2,0.2-0.2,0.3C42.9,41.1,42.5,42.1,42.1,43.2z M31.6,48.5c-0.7,0-1.3,0-2,0c-0.7,0-1.3,0-2,0
		C27.5,50,27.6,50,29,50c0.2,0,0.3,0,0.5,0C31,50,31.1,49.9,31.6,48.5C31.6,48.5,31.6,48.5,31.6,48.5z M11.9,38.5
		c-0.1-1.3-0.3-2.5-0.4-3.8c0-0.1,0-0.2-0.1-0.3c-0.5-0.4-1-0.8-1.6-1.3c0.2,1.2,0.5,2.3,0.6,3.5C10.6,37.6,11.2,38.1,11.9,38.5z
		 M23.3,48.2c0.3,0.4,0.4,0.7,0.6,0.9c0.2,0.3,0.5,0.6,0.8,0.7c0.9,0.2,1.8,0.2,2.8,0.3c-0.1-0.6-0.2-1.1-0.3-1.6
		C25.9,48.4,24.6,48.3,23.3,48.2z M41.6,20.6c0.8,1.1,1.6,2.2,2.4,3.3c0.5-0.7,0.6-0.9,0.1-1.6c-0.3-0.4-0.5-0.8-0.8-1.2
		c-0.4-0.5-0.9-1-1.3-1.5C41.8,20,41.7,20.3,41.6,20.6z M44.8,23.5c-0.7,0.7-0.4,1.4,0,2.1c0.1,0.1,0.1,0.3,0.2,0.5
		c0.3,0.7,0.5,1.4,0.9,2.3c0.2-0.5,0.5-0.8,0.4-1.1C46,25.9,45.4,24.7,44.8,23.5z M10.9,38.3c0.7,1.6,1.2,3.2,2.5,4.3
		c-0.3-0.8-0.7-1.5-0.9-2.2C12.4,39.4,11.8,38.8,10.9,38.3z M46.6,32.9c0.6-1.6,0.1-3.2-0.1-4.8c-0.2,0.3-0.5,0.6-0.4,1
		C46.2,30.4,46.4,31.6,46.6,32.9z M30.6,50.2c-0.9,0-1.8,0-2.8,0C28,50.8,30,50.7,30.6,50.2z M47,33.3c-0.1,0-0.1,0-0.2-0.1
		c-0.1,0.2-0.3,0.3-0.3,0.5c-0.2,1.3-0.3,2.5-0.4,3.8c0,0,0.1,0,0.1,0C46.4,36.1,46.7,34.7,47,33.3z M24.9,50.1
		c0.8,0.5,1.8,0.4,2.7,0.6C27.5,50.1,27.1,50,24.9,50.1z M33.5,49.9c-1.6-0.1-2.5,0.1-2.9,0.6C31.6,50.3,32.5,50.1,33.5,49.9z
		 M24.7,50.2c0-0.1,0-0.1,0-0.2c-0.5-0.1-1-0.2-1.5-0.3c0,0,0,0.1,0,0.1C23.7,50,24.2,50.1,24.7,50.2z"/>
	<path class="st2" d="M33,32.6c0,1.3,0,2.7,0,4.2c-1.9,0-3.8,0-5.7,0c0-1.3,0-2.7,0-4.2C29.1,32.6,31,32.6,33,32.6z"/>
	<path class="st2" d="M21.1,36.6c0.1-1.5,0.1-2.9,0.2-4.3c1.8,0.1,3.6,0.3,5.4,0.4c0,1.4,0,2.8,0,4.3C24.8,36.8,23,36.7,21.1,36.6z"
		/>
	<path class="st2" d="M33.6,36.8c0-1.5,0-2.9,0-4.3c1.7-0.2,3.4-0.4,5.2-0.7c0.1,1,0.2,2,0.2,3c0.1,1.2,0,1.2-1.2,1.4
		C36.5,36.5,35.1,36.6,33.6,36.8z"/>
	<path class="st2" d="M32.9,41.5c-2,0-3.8,0-5.7,0c0-1.2,0-2.5,0-3.9c1.9,0,3.8,0,5.7,0C32.9,38.7,32.9,40,32.9,41.5z"/>
	<path class="st2" d="M27.4,32c0-1.3,0-2.7,0-4.1c1.7,0,3.4,0,5.1,0c0.1,1.3,0.3,2.6,0.4,4.1C31,32,29.2,32,27.4,32z"/>
	<path class="st2" d="M26.7,37.6c0,1.3,0,2.6,0,3.9c-0.8,0-1.7-0.1-2.5-0.1c-0.8-0.1-1.6-0.1-2.4-0.2c-0.2,0-0.4-0.2-0.4-0.3
		c-0.1-1.2-0.2-2.4-0.2-3.7C22.9,37.3,24.8,37.4,26.7,37.6z"/>
	<path class="st2" d="M22,27.6c1.7,0.1,3.2,0.2,4.8,0.3c0,1.4,0,2.7,0,4.2c-1.8-0.1-3.6-0.2-5.4-0.4C21.6,30.3,21.8,28.9,22,27.6z"
		/>
	<path class="st2" d="M33.6,37.4c1.9-0.2,3.7-0.5,5.6-0.7c-0.1,1.3-0.2,2.5-0.4,3.7c0,0.1-0.2,0.2-0.3,0.2c-1.6,0.2-3.3,0.5-4.9,0.7
		C33.6,40,33.6,38.7,33.6,37.4z"/>
	<path class="st2" d="M33,27.8c1.6-0.2,3.2-0.4,4.8-0.6c0.3,1.3,0.6,2.6,0.9,4.1c-1.8,0.2-3.5,0.5-5.3,0.7
		C33.3,30.5,33.2,29.1,33,27.8z"/>
	<path class="st2" d="M20.8,32.2c-0.1,1.4-0.2,2.8-0.3,4.3c-1.6-0.3-3.2-0.6-4.8-0.9c0.1-1.5,0.3-2.8,0.4-4.3
		C17.7,31.7,19.3,31.9,20.8,32.2z"/>
	<path class="st2" d="M29.3,15.5c0.1,0.2,0.2,0.4,0.3,0.6c-0.5,0-1,0-1.5,0c0-0.2,0-0.5,0-0.7c0,0,0,0-0.1,0
		c-0.1,0.2-0.1,0.5-0.2,0.8c-0.1,0-0.3,0-0.4,0c-0.9-0.1-1.9-0.3-2.8-0.5c-0.3-0.1-0.6-0.2-0.8-0.4c-0.3-0.2-0.4-0.6,0-0.8
		c0.5-0.3,1.1-0.5,1.8-0.6c2-0.3,4.1-0.3,6.1,0.1c0.5,0.1,0.9,0.3,1.3,0.5c0.4,0.2,0.4,0.6,0.1,0.9c-0.3,0.2-0.7,0.4-1.1,0.6
		c-0.6,0.2-1.2,0.3-1.8,0.3c-0.1,0-0.3-0.1-0.4-0.2C29.6,15.8,29.5,15.6,29.3,15.5C29.4,15.5,29.4,15.5,29.3,15.5z M27.9,14.1
		c0,0.1,0,0.1,0,0.2c0.4,0,0.7,0,1.1,0c0-0.1,0-0.1,0-0.2C28.6,14.1,28.3,14.1,27.9,14.1z"/>
	<path class="st2" d="M20.8,31.6c-1.5-0.3-3-0.6-4.6-0.9c0.4-1.4,0.7-2.7,1.1-4.1c1.5,0.3,2.8,0.5,4.2,0.8
		C21.3,28.8,21.1,30.2,20.8,31.6z"/>
	<path class="st2" d="M15.7,36.2c1.6,0.3,3.2,0.6,4.8,0.9c0.1,1.3,0.1,2.6,0.2,4c-1.1-0.2-2.1-0.3-3.2-0.6c-1.5-0.3-1.5-0.3-1.7-1.8
		C15.8,37.9,15.8,37.1,15.7,36.2z"/>
	<path class="st2" d="M27.5,23.5c1.5,0,2.9,0,4.3,0c0.2,1.2,0.4,2.5,0.6,3.8c-1.7,0-3.3,0-4.9,0C27.5,26,27.5,24.8,27.5,23.5z"/>
	<path class="st2" d="M32.9,42c-0.1,1-0.3,2-0.4,3c0,0.1-0.2,0.2-0.3,0.2c-1.6,0-3.2,0-4.8,0c0-1,0-2,0-3.2C29.1,42,31,42,32.9,42z"
		/>
	<path class="st2" d="M43.3,30.6c0.1,1.3,0.2,2.7,0.3,4c0,0.1-0.1,0.2-0.2,0.3c-1.3,0.4-2.5,0.8-3.8,1.1c-0.1-1.5-0.2-2.9-0.3-4.3
		C40.6,31.4,41.9,31,43.3,30.6z"/>
	<path class="st2" d="M26.9,27.4c-1.6-0.1-3.1-0.2-4.8-0.3c0.3-1.3,0.7-2.5,1-3.8c1.4,0.1,2.7,0.2,4,0.3C27.1,24.7,27,26,26.9,27.4z
		"/>
	<path class="st2" d="M32.2,23.4c1.2-0.2,2.4-0.3,3.6-0.5c0.1,0,0.3,0,0.3,0.1c0.5,1.2,1,2.3,1.5,3.6c-1.7,0.2-3.2,0.4-4.7,0.6
		C32.7,25.9,32.5,24.6,32.2,23.4z"/>
	<path class="st2" d="M26.9,45.3c-1.2-0.1-2.4-0.1-3.6-0.2C22,45,22,44.9,21.7,43.7c-0.1-0.6-0.2-1.3-0.3-2c1.8,0.1,3.5,0.3,5.3,0.4
		C26.7,43.1,26.8,44.2,26.9,45.3z"/>
	<path class="st2" d="M39.2,31.1c-0.3-1.4-0.7-2.8-1-4.1c1.1-0.3,2.3-0.6,3.6-1c0.4,1.3,0.9,2.6,1.3,4
		C41.8,30.4,40.5,30.8,39.2,31.1z"/>
	<path class="st2" d="M33,45.2c0.1-1.1,0.3-2.1,0.4-3c0-0.1,0.2-0.3,0.3-0.3c1.6-0.2,3.2-0.4,5-0.6c-0.2,0.7-0.3,1.3-0.5,2
		c-0.4,1.3-0.4,1.3-1.7,1.5C35.3,44.9,34.2,45,33,45.2z"/>
	<path class="st2" d="M39.3,40.6c0.1-1.4,0.2-2.7,0.3-4c1.3-0.4,2.6-0.7,4.1-1.2c-0.2,1.3-0.3,2.5-0.5,3.8c0,0.1-0.2,0.3-0.3,0.3
		C41.7,39.9,40.5,40.2,39.3,40.6z"/>
	<path class="st2" d="M15.7,31.3c-0.1,1.4-0.3,2.8-0.4,4.2c-0.9-0.3-1.8-0.6-2.6-1c-1-0.5-0.9-0.2-0.8-1.3c0.1-1.1,0.3-2.1,0.4-3.2
		C13.5,30.4,14.6,30.8,15.7,31.3z"/>
	<path class="st2" d="M22.7,23.1c-0.4,1.3-0.7,2.5-1.1,3.8c-1.3-0.2-2.7-0.5-4.1-0.8c0.6-1.3,1.2-2.5,1.7-3.7
		C20.4,22.7,21.6,22.9,22.7,23.1z"/>
	<path class="st2" d="M13.8,25.5c1.1,0.4,2.1,0.8,3.1,1.2c-0.4,1.3-0.7,2.6-1.1,4c-1.1-0.4-2.2-0.8-3.4-1.3
		C12.9,28,13.4,26.7,13.8,25.5z"/>
	<path class="st2" d="M21.5,44.9c-1.4-0.3-2.7-0.5-4-0.8c-0.1,0-0.2-0.1-0.3-0.2c-0.4-1-0.7-2.1-1.1-3.2c1.2,0.2,2.2,0.4,3.2,0.6
		c0.5,0.1,1.1,0,1.4,0.3c0.3,0.3,0.2,0.9,0.3,1.4C21.2,43.7,21.4,44.2,21.5,44.9z"/>
	<path class="st2" d="M11.8,34.8c1.1,0.4,2.2,0.8,3.3,1.2c0.1,0,0.2,0.1,0.2,0.2c0.1,1.3,0.2,2.5,0.3,3.9c-1.1-0.4-2.1-0.8-3.1-1.2
		c-0.1,0-0.2-0.2-0.3-0.3C12,37.4,11.8,36.1,11.8,34.8z"/>
	<path class="st2" d="M36.6,22.8c0.9-0.3,1.7-0.5,2.6-0.8c0.1,0,0.3,0,0.4,0.1c0.7,1.1,1.3,2.2,2,3.4c-1.2,0.3-2.3,0.6-3.4,0.9
		c-0.1,0-0.3-0.1-0.3-0.2C37.5,25.1,37,23.9,36.6,22.8z"/>
	<path class="st2" d="M30.9,19.6c0.2,1,0.5,2.1,0.8,3.3c-1.4,0-2.7,0-4.1,0c0.1-1,0.1-2.1,0.2-3.3C28.8,19.6,29.8,19.6,30.9,19.6z"
		/>
	<path class="st2" d="M18.9,22.4c-0.6,1.2-1.1,2.4-1.8,3.7c-1-0.4-1.9-0.7-3.1-1.1c0.8-1.2,1.5-2.4,2.2-3.5
		C17.2,21.8,18.1,22.1,18.9,22.4z"/>
	<path class="st2" d="M31.2,19.5c0.9-0.1,1.7-0.3,2.6-0.4c0.1,0,0.3,0,0.4,0.1c0.6,1,1.2,2,1.9,3.1c-1.3,0.2-2.5,0.3-3.7,0.4
		c-0.1,0-0.3-0.1-0.3-0.2C31.8,21.6,31.5,20.6,31.2,19.5z"/>
	<path class="st2" d="M27.5,19.6c-0.1,1-0.2,2-0.3,3c0,0.1-0.2,0.3-0.3,0.3c-1.2-0.1-2.4-0.1-3.7-0.2c0.5-1.1,0.9-2.1,1.3-3.2
		c0-0.1,0.2-0.1,0.2-0.1C25.7,19.5,26.5,19.5,27.5,19.6z"/>
	<path class="st2" d="M38.2,44.5c0.3-1.1,0.6-2.2,0.9-3.2c0-0.1,0.2-0.3,0.3-0.3c1.2-0.3,2.4-0.6,3.7-1c-0.5,1.1-0.9,2.2-1.4,3.3
		c0,0.1-0.2,0.2-0.3,0.2C40.4,43.8,39.4,44.1,38.2,44.5z"/>
	<path class="st2" d="M27.4,45.7c1.7,0,3.3,0,5,0c-0.2,0.7-0.4,1.5-0.6,2.2c0,0.1-0.3,0.2-0.4,0.2c-1.2,0-2.3,0.1-3.5,0.1
		c-0.3,0-0.4-0.1-0.4-0.4C27.5,47.1,27.4,46.5,27.4,45.7z"/>
	<path class="st2" d="M26.9,45.7c0.1,0.8,0.1,1.6,0.2,2.5c-1-0.1-2-0.2-3-0.2c-0.8,0-1.2-0.4-1.5-1.1c-0.1-0.5-0.3-1-0.5-1.5
		C23.7,45.5,25.3,45.6,26.9,45.7z"/>
	<path class="st2" d="M43.6,30.5c0.7-0.4,1.4-0.9,2.2-1.3c0.1,0.3,0.2,0.6,0.2,1c0.1,0.9,0.2,1.8,0.3,2.7c0,0.2-0.1,0.5-0.3,0.6
		c-0.6,0.4-1.3,0.8-2,1.2C43.9,33.2,43.7,31.8,43.6,30.5z"/>
	<path class="st2" d="M24.2,19.4c-0.4,1-0.8,2-1.2,3c0,0.1-0.3,0.2-0.4,0.2c-1-0.2-2-0.3-3.1-0.5c0.6-0.8,1.1-1.5,1.5-2.2
		c0.4-0.7,1-1,1.8-0.7C23.3,19.3,23.8,19.3,24.2,19.4z"/>
	<path class="st2" d="M43.5,29.9c-0.5-1.4-0.9-2.7-1.4-4c0.6-0.4,1.3-0.8,2.1-1.3c0.5,1.2,0.9,2.4,1.4,3.6c0,0.1-0.1,0.3-0.2,0.4
		C44.8,29.1,44.1,29.5,43.5,29.9z"/>
	<path class="st2" d="M37.6,45c-0.5,0.9-0.9,1.6-1.4,2.4c-0.1,0.1-0.2,0.2-0.3,0.2c-1.2,0.2-2.4,0.4-3.7,0.5
		c0.2-0.9,0.4-1.6,0.6-2.4c0-0.1,0.2-0.2,0.3-0.2C34.6,45.4,36,45.2,37.6,45z"/>
	<path class="st2" d="M12.4,39.4c1.1,0.4,2.2,0.8,3.2,1.1c0.1,0,0.3,0.2,0.3,0.4c0.3,1,0.6,2,1,3.1c-0.6-0.2-1.2-0.4-1.8-0.6
		c-0.9-0.3-1.5-0.8-1.8-1.7C13,40.9,12.7,40.2,12.4,39.4z"/>
	<path class="st2" d="M34.4,19.1c0.6-0.2,1.2-0.4,1.8-0.5c0.1,0,0.3,0,0.4,0.1c0.8,0.9,1.7,1.8,2.6,2.8c-1.1,0.3-2,0.6-2.9,0.8
		C35.7,21.2,35.1,20.2,34.4,19.1z"/>
	<path class="st2" d="M41.9,25.4c-0.7-1.3-1.4-2.4-2.1-3.6c0.5-0.3,1.1-0.6,1.7-1c0.8,1.1,1.6,2.1,2.4,3.4
		C43.2,24.6,42.5,25,41.9,25.4z"/>
	<path class="st2" d="M22.7,47.9c-1.2-0.2-2.2-0.4-3.3-0.7c-0.1,0-0.2-0.1-0.3-0.1c-0.5-0.8-1.1-1.6-1.6-2.4c0,0,0.1-0.1,0.1-0.1
		c0.8,0.2,1.6,0.3,2.4,0.5c0.5,0.1,1.1,0,1.5,0.3c0.4,0.3,0.4,0.9,0.6,1.4C22.3,47.1,22.5,47.4,22.7,47.9z"/>
	<path class="st2" d="M46.4,33.9c-0.2,1.3-0.4,2.5-0.6,3.7c0,0.1-0.1,0.3-0.2,0.4c-0.6,0.4-1.3,0.8-2,1.3c0.1-1.4,0.3-2.6,0.4-3.9
		c0-0.1,0.1-0.2,0.2-0.3C44.9,34.8,45.6,34.4,46.4,33.9z"/>
	<path class="st2" d="M33.2,16c0.1-0.1,0.1-0.2,0.2-0.3c0.7-0.4,0.7-0.6,0.3-1.2c1.3,0.2,2.5,0.8,3.7,1.4c0.6,0.4,0.5,1.1-0.2,1.6
		c-0.2,0.1-0.4,0.2-0.5,0.3c-0.3,0.2-0.5,0.2-0.7-0.1c-0.4-0.4-0.9-0.6-1.3-1C34.1,16.5,33.6,16.2,33.2,16z"/>
	<path class="st2" d="M21.5,18.8c-0.7,1-1.4,2-2.1,2.9c-0.1,0.1-0.3,0.1-0.4,0.1c-0.7-0.2-1.4-0.5-2.3-0.8c0.6-0.6,1.1-1.2,1.6-1.7
		c0.4-0.4,0.8-1,1.3-1.1c0.4-0.1,1,0.3,1.5,0.4C21.2,18.7,21.3,18.8,21.5,18.8z"/>
	<path class="st2" d="M12.1,24.1c0.1,0,0.2,0,0.2,0c0.4,0.4,0.7,0.9,1.2,1.5c-0.4,1-0.9,2.3-1.4,3.7c-0.4-0.4-0.9-0.8-1.3-1.2
		c-0.1-0.1-0.1-0.4-0.1-0.7c0.1-0.5,0.3-0.9,0.4-1.3C11.5,25.4,11.8,24.7,12.1,24.1z"/>
	<path class="st2" d="M10.4,28.4c0.6,0.5,1,0.9,1.5,1.3c0.1,0.1,0.2,0.2,0.1,0.3c-0.2,1.3-0.4,2.6-0.6,3.9c-1.1-0.6-1.7-1.2-1.5-2.4
		C10.1,30.4,10.2,29.4,10.4,28.4z"/>
	<path class="st2" d="M14.5,20.7c0.2-0.2,0.3-0.3,0.5-0.5c0.4,0.4,0.8,0.7,1.2,1.1c-0.7,1.1-1.5,2.2-2.3,3.5
		c-0.4-0.4-0.8-0.8-1.2-1.2c-0.1-0.1,0-0.4,0.1-0.5c0.2-0.3,0.4-0.7,0.6-1C13.7,21.6,14.1,21.2,14.5,20.7z"/>
	<path class="st2" d="M39.8,46.3c-0.9,0.8-2.1,0.8-3.2,1.2c0.5-0.9,0.9-1.7,1.4-2.5c0-0.1,0.2-0.1,0.3-0.2c1-0.3,2.1-0.6,3.2-0.9
		c-0.5,0.8-1,1.5-1.5,2.2C39.9,46.2,39.9,46.2,39.8,46.3z"/>
	<path class="st2" d="M21,17.1c-0.2,0.1-0.5,0.3-0.8,0.4c-0.2,0.1-0.4,0.1-0.5,0c-0.8-0.5-0.8-1.3,0.1-1.7c1.2-0.6,2.3-1.1,3.6-1.4
		c-0.5,0.4-0.6,0.8-0.1,1.2c0,0,0,0.2,0,0.3C22.5,16.2,21.7,16.7,21,17.1z"/>
	<path class="st2" d="M39,18.4c0.5,0.5,1,1,1.6,1.5c0.1,0.1,0.3,0.2,0.5,0.3c0,0.1,0,0.1-0.1,0.2c-0.5,0.3-1,0.6-1.5,0.9
		c-0.9-1-1.8-2-2.7-3c0.4-0.2,0.8-0.5,1.2-0.7c0.3,0.2,0.6,0.3,0.8,0.5C38.8,18.2,38.9,18.3,39,18.4z"/>
	<path class="st2" d="M30.8,19.1c-1.1,0-2,0-2.9,0c0.1-0.9,0.2-1.7,0.2-2.7c0.5,0,1,0,1.5,0c0.1,0,0.3,0.1,0.3,0.1
		C30.2,17.4,30.5,18.2,30.8,19.1z"/>
	<path class="st2" d="M32.1,16.7c0.5,0.6,1.1,1.3,1.7,2.1c-0.9,0.1-1.7,0.2-2.6,0.3c-0.1,0-0.2-0.1-0.3-0.2c-0.3-0.8-0.6-1.6-1-2.5
		c0.7,0.1,1.4-0.5,2,0.1C32,16.6,32.1,16.6,32.1,16.7z"/>
	<path class="st2" d="M27.9,16.5c-0.1,0.9-0.2,1.7-0.4,2.7c-0.9-0.1-1.8-0.1-2.8-0.2c0.6-0.9,1-1.7,1.5-2.5c0-0.1,0.2-0.1,0.3-0.1
		C26.9,16.4,27.4,16.5,27.9,16.5z"/>
	<path class="st2" d="M18.6,17.2c0.3,0.3,0.6,0.5,0.9,0.8c-0.1,0-0.1-0.1-0.2-0.2c-0.9,1-1.8,2-2.8,3c-0.4-0.4-0.8-0.7-1.2-1.1
		c0.3-0.3,0.5-0.5,0.7-0.8C16.9,18.5,17.7,17.8,18.6,17.2z"/>
	<path class="st2" d="M42.1,43.2c0.4-1.1,0.8-2.1,1.2-3.2c0-0.1,0.1-0.2,0.2-0.3c0.7-0.4,1.3-0.7,2.1-1.1
		C44.8,40.5,44.4,42.5,42.1,43.2z"/>
	<path class="st2" d="M31.6,48.5C31.6,48.5,31.6,48.5,31.6,48.5C31.1,49.9,31,50,29.5,50c-0.2,0-0.3,0-0.5,0c-1.4,0-1.5,0-1.4-1.6
		c0.7,0,1.3,0,2,0C30.2,48.5,30.9,48.5,31.6,48.5z"/>
	<path class="st2" d="M14.4,43.7c0-0.1-0.1-0.2-0.1-0.3c0.9,0.3,1.8,0.6,2.7,0.9c0.1,0,0.2,0.1,0.3,0.2c0.5,0.8,1,1.6,1.5,2.4
		c-1.6-0.2-2.8-1.1-3.8-2.4C14.8,44.3,14.6,44,14.4,43.7z"/>
	<path class="st2" d="M24.2,16.4c0.6-0.4,1.2-0.1,1.8,0c-0.5,0.8-0.9,1.6-1.4,2.4c-0.1,0.1-0.2,0.2-0.4,0.2
		c-0.7-0.1-1.4-0.2-2.2-0.4C22.8,17.7,23.5,17.1,24.2,16.4L24.2,16.4z"/>
	<path class="st2" d="M11.9,38.5c-0.7-0.5-1.3-0.9-1.5-1.9c-0.2-1.2-0.4-2.3-0.6-3.5c0.6,0.5,1.1,0.9,1.6,1.3
		c0.1,0.1,0.1,0.2,0.1,0.3C11.7,36,11.8,37.3,11.9,38.5z"/>
	<path class="st2" d="M32.1,16.7c0,0-0.1-0.1-0.1-0.1c-0.1-0.1-0.1-0.2-0.3-0.4c0.5-0.1,1-0.1,1.5-0.2c0.5,0.3,0.9,0.6,1.4,0.8
		c0.3,0.3,0.6,0.6,0.9,0.8c0.2,0.1,0.3,0.3,0.6,0.5c-0.7,0.2-1.3,0.4-1.9,0.5c-0.1,0-0.3-0.1-0.4-0.3C33.2,17.8,32.7,17.3,32.1,16.7
		z"/>
	<path class="st2" d="M23.3,48.2c1.4,0.1,2.6,0.2,3.9,0.3c0.1,0.5,0.2,1,0.3,1.6c-1-0.1-1.9-0.1-2.8-0.3c-0.3-0.1-0.6-0.4-0.8-0.7
		C23.7,48.9,23.5,48.6,23.3,48.2z"/>
	<path class="st2" d="M21,17.1c0.8-0.4,1.5-0.8,2.3-1.3c0.4,0,0.8,0.1,1.3,0.1c-0.2,0.2-0.2,0.3-0.3,0.4l0,0c-0.7,0.6-1.4,1.1-2,1.7
		c-0.3,0.2-0.5,0.3-0.8,0.2c-0.4-0.2-0.8-0.3-1.3-0.5C20.5,17.5,20.7,17.3,21,17.1z"/>
	<path class="st2" d="M34.5,49.3c-1,0.6-2.1,0.5-3.3,0.7c0.3-0.5,0.5-1,0.8-1.4c0.1-0.1,0.2-0.2,0.3-0.2c1.1-0.2,2.3-0.3,3.6-0.4
		C35.4,48.4,34.9,48.8,34.5,49.3L34.5,49.3z"/>
	<path class="st2" d="M39,18.4c-0.1-0.1-0.2-0.2-0.3-0.3c-0.2-0.2-0.5-0.4-0.6-0.6c0.1-0.4,0.1-0.8,0.2-1.2c0.6,0.5,1.3,1.1,2,1.6
		c0.3,0.2,0.5,0.5,0.8,0.7c0.6,0.5,0.6,0.8,0.1,1.4C40.4,19.6,39.7,19,39,18.4z"/>
	<path class="st2" d="M41.6,20.6c0.1-0.3,0.2-0.6,0.4-1c0.4,0.5,0.9,1,1.3,1.5c0.3,0.4,0.6,0.8,0.8,1.2c0.4,0.7,0.4,0.9-0.1,1.6
		C43.2,22.8,42.4,21.7,41.6,20.6z"/>
	<path class="st2" d="M20.6,48.6c-0.3-0.3-0.6-0.6-1-0.9c0,0,0-0.1,0.1-0.1c1,0.2,2.1,0.4,3.1,0.5c0.1,0,0.2,0.1,0.2,0.1
		c0.4,0.5,0.7,0.9,1.1,1.4c-1-0.1-1.9-0.2-2.8-0.7C21,48.9,20.8,48.7,20.6,48.6z"/>
	<path class="st2" d="M44.8,23.5c0.6,1.2,1.2,2.4,1.5,3.8c0.1,0.3-0.2,0.6-0.4,1.1c-0.3-0.9-0.6-1.6-0.9-2.3
		c-0.1-0.2-0.1-0.3-0.2-0.5C44.3,24.9,44.1,24.2,44.8,23.5z"/>
	<path class="st2" d="M34.5,49.3c0.5-0.4,1-0.8,1.5-1.2c0.2-0.2,0.4-0.3,0.7-0.4c0.8-0.2,1.5-0.4,2.3-0.5c-0.4,0.3-0.7,0.6-1.1,0.8
		c-1,0.7-2,1.2-3.1,1.4C34.7,49.4,34.6,49.3,34.5,49.3L34.5,49.3z"/>
	<path class="st2" d="M10.9,38.3c0.9,0.5,1.4,1.1,1.7,2c0.2,0.8,0.6,1.5,0.9,2.2C12.1,41.5,11.6,39.9,10.9,38.3z"/>
	<path class="st2" d="M18.6,17.2c-0.8,0.6-1.7,1.3-2.5,1.9c-0.2,0.2-0.4,0.3-0.6,0.5c0,0-0.1,0-0.1,0c0.1-0.2,0.1-0.6,0.2-0.7
		c1-0.9,2-1.7,3-2.5c0,0,0.1,0.1,0.1,0.1C18.7,16.7,18.6,16.9,18.6,17.2z"/>
	<path class="st2" d="M46.6,32.9c-0.2-1.3-0.4-2.5-0.6-3.8c0-0.3,0.2-0.6,0.4-1C46.7,29.7,47.2,31.3,46.6,32.9z"/>
	<path class="st2" d="M39.8,46.3c0,0,0.1-0.1,0.1-0.1c0.5-0.6,1-1.1,1.4-1.7c0.3-0.4,0.6-0.8,1.1-1c0.3-0.1,0.5-0.3,0.9-0.5
		c-0.1,0.2-0.2,0.3-0.2,0.4c-0.8,0.9-1.6,1.8-2.5,2.6C40.3,46.3,40.1,46.4,39.8,46.3z"/>
	<path class="st2" d="M14.5,20.7c-0.4,0.5-0.8,0.9-1.1,1.4c-0.3,0.3-0.5,0.7-0.9,1.1c0-0.3,0-0.4,0.1-0.6c0.7-1.1,1.4-2.2,2.4-3.2
		C15.1,20.1,14.6,20.3,14.5,20.7z"/>
	<path class="st2" d="M20.6,48.6c0.2,0.2,0.4,0.3,0.7,0.5c-0.1,0-0.2,0-0.3,0c-1.2-0.7-2.4-1.4-3.6-2.1c0,0-0.1-0.1-0.1-0.1
		c0.9,0.4,1.9,0.4,2.6,1.3C20.1,48.3,20.4,48.4,20.6,48.6z"/>
	<path class="st2" d="M30.6,50.2c-0.5,0.5-2.5,0.6-2.8,0C28.7,50.2,29.6,50.2,30.6,50.2z"/>
	<path class="st2" d="M47,33.3c-0.3,1.4-0.5,2.8-0.8,4.2c0,0-0.1,0-0.1,0c0.1-1.3,0.3-2.5,0.4-3.8c0-0.2,0.2-0.3,0.3-0.5
		C46.8,33.3,46.9,33.3,47,33.3z"/>
	<path class="st2" d="M12.1,24.1c-0.3,0.7-0.6,1.3-0.9,2c-0.2,0.4-0.4,0.8-0.5,1.2c0,0-0.1,0-0.1-0.1c0.5-1.3,1-2.5,1.5-3.8
		c0.1,0,0.1,0,0.2,0C12.1,23.7,12.1,23.9,12.1,24.1z"/>
	<path class="st2" d="M24.9,50.1c2.2,0,2.5,0,2.7,0.6C26.7,50.5,25.7,50.6,24.9,50.1z"/>
	<path class="st2" d="M33.5,49.9c-0.9,0.2-1.9,0.4-2.9,0.6C31,50.1,31.9,49.8,33.5,49.9z"/>
	<path class="st2" d="M14.4,43.7c0.2,0.3,0.4,0.6,0.5,0.9c-0.2-0.2-0.4-0.3-0.6-0.5c-0.3-0.4-0.6-0.8-0.9-1.1c0,0,0.1-0.1,0.1-0.1
		C13.9,43.2,14.1,43.5,14.4,43.7z"/>
	<path class="st2" d="M24.7,50.2c-0.5-0.1-1-0.2-1.5-0.4c0,0,0-0.1,0-0.1c0.5,0.1,1,0.2,1.5,0.3C24.7,50.1,24.7,50.2,24.7,50.2z"/>
</g>
<g id="Camada_x0020_1">
	<path class="st3" d="M28.4,51.4c-5,0-9.6-1.9-13-5c0.1,0,0.9-0.4,0.9-0.4c3.3,2.8,7.4,4.6,12.1,4.6c10.2,0,18.5-8.3,18.5-18.5
		c0-1.3-0.1-2.6-0.4-3.9c0.3,0,0.6,0,0.9,0c0.3,1.3,0.4,2.6,0.4,3.9C47.8,42.8,39.1,51.4,28.4,51.4z M12.6,42.8
		c-2.2-3.1-3.6-6.6-3.6-10.7c0-11.8,10.4-20.7,22-19.2c-0.1,0.3-0.1,0.6-0.1,0.9c-11.1-1.5-21,7.1-21,18.3c0,4,1.3,7.4,3.4,10.4
		C13,42.6,12.9,42.6,12.6,42.8z"/>
	<path class="st3" d="M28.1,25.9L27.9,27c1.5,0.3,2.6,0.8,3.1,1.4c0.7,0.8,1,1.7,1.5,2.9l1-0.6L33,27.5l3.2-2.5c1.6,1.7,5,5.9,6,5.4
		c0.9-0.4-0.3-2.7-1.1-3.8c-0.8-1.2-1.8-2.5-2.4-3.7c0.9-1.2,3.4-2.7,3.7-4.8c-0.2-1.3-1.8-1.3-3.1-0.2l-2.1,1.8
		c-0.5,0.4-0.1,0.2-0.7,0.6c-2.3-1.1-7-5.1-7.9-3.6c-0.7,1.1,3.6,4.3,5.7,6.2c-0.8,1.2-1.6,2.1-2.6,3L28.1,25.9z"/>
	<path class="st3" d="M31,31.4c-4.4,5.3-6.5,7.3-10.4,10.7c-1.8,1.6-4.5,3.1-6.2,3.4c-1.2,0.2-3.5,0.2-4.3-0.8S8.5,42,10,40.6
		c-0.1,1.3,0.7,3.4,2.3,3.2c1.7-0.2,2.7-0.6,5.7-3.4c2.9-2.8,6.1-6.5,9.5-12C29.4,28.3,31.2,29.7,31,31.4z"/>
</g>
</svg>
