<?xml version="1.0" encoding="utf-8"?>
<!-- Generator: Adobe Illustrator 26.0.1, SVG Export Plug-In . SVG Version: 6.00 Build 0)  -->
<svg version="1.1" id="Layer_1" xmlns="http://www.w3.org/2000/svg" xmlns:xlink="http://www.w3.org/1999/xlink" x="0px" y="0px"
	 viewBox="0 0 56.7 56.7" style="enable-background:new 0 0 56.7 56.7;" xml:space="preserve">
<style type="text/css">
	.st0{fill:#FFFFFF;}
</style>
<g id="Camada_x0020_1">
	<path class="st0" d="M28.3,47.7c-5.3,0-10.2-2.2-13.7-5.7C11.2,38.5,9,33.7,9,28.3s2.2-10.2,5.7-13.7C18.2,11.2,23,9,28.3,9
		c5.3,0,10.2,2.2,13.7,5.7s5.7,8.3,5.7,13.7S45.5,38.5,42,42C38.5,45.5,33.7,47.7,28.3,47.7z M15.3,41.4c3.3,3.3,8,5.4,13.1,5.4
		c5.1,0,9.7-2.1,13.1-5.4c3.3-3.3,5.4-8,5.4-13.1s-2.1-9.7-5.4-13.1c-3.3-3.3-8-5.4-13.1-5.4c-5.1,0-9.7,2.1-13.1,5.4
		s-5.4,8-5.4,13.1S11.9,38.1,15.3,41.4z"/>
	<path class="st0" d="M16.5,32.3l0.9-2.4l0-13.2l14,0l0,6.9l0.9-0.2l0.1-1.5c0,0,0-0.8,0-0.8c0-0.5,0-4.5-0.1-5.1
		c-0.5-0.3-2.8-0.1-3.6-0.1H19c-3,0-2.5-0.5-2.5,2.5l0,2.7c-0.1,0,0,0.9,0,0.9C16.5,22.2,16.5,29.4,16.5,32.3z"/>
	<path class="st0" d="M37.6,25.8c0-0.8,0-1.2-0.5-1.8c-0.6-0.7-1.2-0.6-2.2-0.6c0.2-3.1-0.5-2.2-2.6-2.4l0,0.8l1.7,0l0,1.5l-1.8,0
		l-0.9,0.2c-0.3,0.3-0.5,0.3-0.7,0.8c-0.2,0.4-0.2,0.9-0.2,1.4c-0.6,0.1-1.5,0-2.2,0c-2.7,0-5.9,0-8.7,0c-1,0-0.9,0.3-1.1,1
		c-0.2,0.4-1.1,2.9-1.2,3.1c0,0-0.9,2.5-1.1,3.1l-0.3,0.9c0,0-0.1,0.1-0.1,0.1c0,0,0,0,0,0l0-12.2l0.6,0l0-0.9
		c-0.9,0.1-1.6-0.2-1.5,1.4v13c0,0.6-0.1,1.4,0.4,1.6c0.3,0.1,12.3,0.1,15.4,0.1l-0.5-0.8l-14.2,0c0.1-0.7,3.2-8.5,3.5-9.5l18.2,0
		l-0.9,2.5l0.8,0.3l0.8-2.2C38.8,26.3,39,25.8,37.6,25.8z M31.4,25.8c-0.1-1.9,0.8-1.4,2.7-1.5c2.1,0,2.7-0.2,2.6,1.5L31.4,25.8z"/>
	<path class="st0" d="M41.9,34.4c0-1.6,0-1.2-1.4-1.4c-0.1-0.3-0.2-0.5-0.3-0.8c-0.2-0.3-0.3-0.4-0.1-0.6c0.2-0.2,0.4-0.3,0.5-0.6
		c0.2-0.4-0.1-0.6-0.3-0.7c-0.8-0.8-1.2-1.5-1.8-1.1L38,29.8l-0.4-0.2l-0.8-0.3C36.5,28,37,28,35.4,28c-1.7,0-1.2-0.1-1.5,1.3
		l-1.2,0.5c-0.4-0.2-0.9-1.1-1.5-0.3c-0.7,0.9-1.7,1.2-0.9,1.9c0.2,0.2,0.2,0.2,0.4,0.5c-0.1,0.2-0.2,0.4-0.3,0.6
		c-0.1,0.2-0.1,0.4-0.2,0.6c-1.4,0.2-1.3-0.2-1.3,1.5c0,1.7-0.1,1.2,1.3,1.4l0.1,0.3c0,0,0.4,0.8,0.5,0.8c-0.7,1.1-1.2,0.6,0,1.9
		c0.1,0.1,0.2,0.2,0.4,0.3c0.7,0.9,0.9,0.5,1.6-0.2c0.2,0.1,0.4,0.2,0.6,0.3c0.2,0.1,0.5,0.2,0.7,0.2c0,0.5,0,0.8,0.2,1.2
		c0.5,0.1,2.1,0.1,2.4,0.1c0.4-0.1,0.3-0.8,0.3-1.2c0.4-0.2,0.8-0.3,1.2-0.5c0.4,0.1,0.6,0.7,1,0.7c0.3,0,0.4-0.2,0.5-0.4
		c0.2-0.2,1.2-1,1.2-1.3c0.1-0.4-0.5-0.7-0.7-1c0.2-0.4,0.3-0.7,0.5-1.2C41.9,35.6,41.9,36.2,41.9,34.4z M39.9,35.1
		c-0.2,0.5-0.3,1.1-0.6,1.6c-0.4,0.8-0.2,0.6,0.4,1.4l-0.7,0.7c-1-1-1-0.6-1.7-0.2C36,39.1,36,38.4,35.9,40l-1,0
		c-0.1-0.4,0.1-0.9-0.3-1.1c-0.3-0.1-0.7-0.2-1.1-0.4c-0.3-0.1-0.6-0.5-0.9-0.4c-0.2,0-0.6,0.5-0.8,0.6L31.1,38
		c1-0.8,0.5-1.2,0.2-1.7c-0.1-0.3-0.3-0.9-0.3-1c-0.3-0.5-1,0-1.1-0.5l0-0.8c0.4-0.1,0.9,0,1.1-0.3c0.1-0.2,0.2-0.8,0.3-1
		c0.3-0.8,0.8-0.9-0.2-1.8l0.7-0.7c0.5,0.3,0.5,0.9,1.4,0.4c0.5-0.3,1.3-0.4,1.6-0.6l0.1-1c0.4-0.1,0.6,0,1,0l0.1,1.1
		c0.5,0.2,1.1,0.3,1.6,0.6c0.9,0.6,0.8,0,1.4-0.4l0.7,0.6c-0.1,0.1-0.5,0.6-0.6,0.7c-0.1,0.4,0.2,0.7,0.4,1c0.2,0.3,0.2,0.7,0.3,1
		c0.2,0.4,0.7,0.3,1.1,0.3l0,1.1L39.9,35.1z"/>
	<path class="st0" d="M33.1,34.7c-0.1-1.3,0.8-2.3,2-2.5c1.3-0.2,2.3,0.9,2.5,2c0.1,1.3-0.9,2.3-2,2.5
		C34.3,36.8,33.2,35.8,33.1,34.7z M35,31.3c-1.6,0.2-3,1.7-2.7,3.5c0.2,1.6,1.7,3,3.5,2.7c1.6-0.2,2.9-1.6,2.7-3.5
		C38.2,32.5,36.8,31.1,35,31.3z"/>
	<path class="st0" d="M20.5,21.8h8.2c0.5,0,0.4,0.1,0.8-0.2c0-0.2,0-0.4,0-0.6c-0.5-0.2-2.9-0.1-3.7-0.1l-5.4,0
		c-0.5,0-1.2-0.1-1.2,0.5C19.3,21.9,20,21.8,20.5,21.8z"/>
	<path class="st0" d="M19.3,19.1c0.5,0.2,2.4,0.1,3.1,0.1c1.1,0,6.5,0.1,7.1-0.1c0.3-0.9-0.4-0.8-1.1-0.8l-7.7,0
		C19.9,18.3,19,18.1,19.3,19.1z"/>
	<path class="st0" d="M27.4,24.3c1,0,2.4,0.2,2.1-0.6c-0.1-0.4-0.7-0.3-1.2-0.3c-2.7,0-5.7,0.1-8.3,0c-0.6,0-0.8,0-0.8,0.7
		c0.4,0.3,0.6,0.2,1.2,0.2l4.1,0C25.5,24.3,26.5,24.4,27.4,24.3z"/>
</g>
</svg>
