<?xml version="1.0" encoding="utf-8"?>
<!-- Generator: Adobe Illustrator 26.0.1, SVG Export Plug-In . SVG Version: 6.00 Build 0)  -->
<svg version="1.1" id="Layer_1" xmlns="http://www.w3.org/2000/svg" xmlns:xlink="http://www.w3.org/1999/xlink" x="0px" y="0px"
	 viewBox="0 0 56.7 56.7" style="enable-background:new 0 0 56.7 56.7;" xml:space="preserve">
<style type="text/css">
	.st0{fill:#FFFFFF;}
	.st1{fill-rule:evenodd;clip-rule:evenodd;fill:#FFFFFF;}
</style>
<g id="Camada_x0020_1">
	<path class="st0" d="M28.3,47.7c-5.3,0-10.2-2.2-13.7-5.7C11.2,38.5,9,33.7,9,28.3s2.2-10.2,5.7-13.7C18.2,11.2,23,9,28.3,9
		c5.3,0,10.2,2.2,13.7,5.7s5.7,8.3,5.7,13.7S45.5,38.5,42,42C38.5,45.5,33.7,47.7,28.3,47.7z M15.3,41.4c3.3,3.3,8,5.4,13.1,5.4
		c5.1,0,9.7-2.1,13.1-5.4c3.3-3.3,5.4-8,5.4-13.1s-2.1-9.7-5.4-13.1c-3.3-3.3-8-5.4-13.1-5.4c-5.1,0-9.7,2.1-13.1,5.4
		s-5.4,8-5.4,13.1S11.9,38.1,15.3,41.4z"/>
</g>
<g id="Camada_x0020_1_1_">
	<path class="st0" d="M38.3,37.3l0-4.7c0-0.9-0.7-0.6-2.2-0.6c-1.1,0-1,0-1.1,0.8c-0.9-0.1-3.8-1.6-4.8-1.5
		c-0.5,0.1-1.1,0.5-1.6,0.5l-0.9,0.3c-0.2,0.2-0.8,0.3-1.1,0.4l-0.8,0.3c-0.2,0.1-1.2,0.3-1.2,0.3c-0.5,0.2-0.2,0.2-0.8-0.1
		c-0.2-0.1-0.4-0.3-0.7-0.4c-1.2-0.7-3.4-2.3-4.6-1.3c-0.4,0.3-0.7,0.9-0.4,1.6c0.2,0.5,0.7,0.8,1.1,1.1c1.7,1.3,3.2,2.5,4.9,3.8
		c1.4,1,1.5,0.7,3.3,0.4c1.2-0.2,2.5-0.5,3.7-0.7c0.8-0.1,1.2,0,2,0.1c0.3,0.1,1.7,0.2,1.9,0.3c0.1,0.8,0,0.8,1.1,0.8
		C38.6,38.8,38.3,39.1,38.3,37.3z M33.4,36.8c-2.1-0.4-2.7-0.2-5,0.3c-0.6,0.1-2.8,0.6-3.2,0.4c-0.4-0.2-1.7-1.3-2.2-1.6
		c-1.2-1-2.5-2-3.7-2.9c-0.1-0.1-0.4-0.2-0.5-0.5c-0.1-0.7,0.7-0.7,1.2-0.5c0.5,0.2,0.8,0.4,1.3,0.6c0.8,0.5,1.5,1,2.3,1.4
		c0,0.7-0.1,1,0.3,1.5c1,1.3,2.6,0.1,4.1-0.5c0.3-0.1,1.2-0.3,0.9-0.9c-0.2-0.5-1,0-1.3,0.1c-0.4,0.2-0.9,0.4-1.3,0.6
		c-0.3,0.1-1.1,0.6-1.4,0.3c-0.5-0.3-0.4-0.9,0.2-1.2c1.3-0.5,2.9-1,4.2-1.5c1.5-0.5,1.1-0.5,2.9,0.2l2.8,1l0,3.3
		C34.6,37.1,33.8,36.9,33.4,36.8z M37.4,37.8c0,0.2,0,0.1-0.1,0.2l-1.4,0c-0.1-0.1-0.1-1.1-0.1-1.3c0-0.7,0-3.6,0-3.8l1.5,0
		c0.1,0.3,0,3.1,0,3.8L37.4,37.8z"/>
</g>
<g>
	<path class="st1" d="M15.1,26.5c0.1,0,0.2,0,0.2,0c0.1,0,0,0.1,0,0.1c0,0.1,0,0.2,0.1,0.3c0.1,0.1,0.2,0,0.2,0
		c-0.1,0.1-0.1,0.1-0.3,0c-0.1-0.1-0.1-0.2,0-0.3c0.1-0.1,0.2-0.1,0.2-0.1c0.2,0,0.4,0,0.6,0c0,0,0,0.1,0,0.1c0-0.1,0.1-0.2,0.2-0.1
		c0.1,0.1,0.1,0,0.1,0c0,0,0,0,0,0c0.1,0.1,0.1,0.2,0.2,0.3c0-0.1,0.1-0.2,0.2-0.3c0,0,0.1,0,0.1,0c0.1,0,0.2,0,0.2,0.1
		c0-0.1,0-0.1,0.1-0.1c0,0,0,0,0,0c0,0,0,0,0.1,0c0,0,0.1,0,0.1,0c0.1,0,0.1,0.1,0.1,0.1c0,0,0,0,0,0.1c0,0,0,0,0-0.1
		c0-0.1,0-0.1,0.1-0.1c0,0,0.1,0,0.1,0c0,0,0,0,0,0c0,0,0,0,0,0c0,0,0,0,0,0c0,0,0.1,0,0.1,0c0,0,0,0.1,0.1,0.1
		c0.1,0.1,0.2,0.1,0.2,0c0,0,0,0,0,0c0,0,0.1,0,0.1,0c0.1,0.1,0.1,0.2,0.2,0.2c0.1,0,0.1,0.1,0,0.1c0,0,0-0.1,0-0.1
		c0-0.1,0-0.1,0-0.2c0,0,0,0,0.1,0c0,0,0.1,0.1,0,0.1c0,0.1,0,0.1,0.1,0.1c0,0-0.1,0-0.1-0.1c0-0.1,0.1-0.1,0.1-0.1
		c0.1,0,0.1,0,0.2,0c0,0,0,0,0.1,0c0,0.1,0.2,0,0.2,0.1c0,0,0,0,0,0c0-0.1,0-0.1,0.1-0.1c0.6,0,1.2,0.1,1.8,0.1c0.4,0,0.7,0,1.1,0
		c0.2,0,0.4,0,0.5,0c0.4,0.1,0.8,0,1.2,0.1c0.2,0,0.4,0,0.6,0c0.1,0,0.3,0,0.4,0c0,0,0,0,0,0c0,0,0,0,0,0c0.2,0,0.3,0,0.5,0
		c0-0.1,0-0.2,0-0.3c0-0.2,0-0.4,0-0.5c0-0.2,0-0.2-0.2-0.2c-0.4-0.1-0.9-0.1-1.3-0.2c-0.2-0.1-0.3-0.1-0.5-0.1
		c-0.3,0-0.5-0.1-0.8-0.1c-0.5-0.1-1-0.2-1.5-0.3c0,0-0.1,0-0.1,0c0,0-0.1,0,0-0.1c0,0,0,0,0.1,0c0.1,0,0.2,0,0.2,0
		c0.2,0,0.5,0,0.7,0.1c0.3,0,0.6,0.1,0.9,0.1c0.5,0,0.9,0.1,1.4,0.1c0.2,0,0.4,0.1,0.6,0.1c0.2,0,0.3,0,0.5,0.1c0.1,0,0.1,0,0.2-0.1
		c0-0.1,0.1-0.2,0.1-0.3c0,0,0,0,0,0c0.2,0,0.2,0,0.1-0.2c0,0,0,0,0-0.1c0.5-0.8,1.1-1.4,2.1-1.5c0.1,0,0.1,0,0.2-0.1
		c0,0,0-0.1,0-0.1c0-0.4,0-0.8,0-1.2c0-0.5,0-1,0.1-1.5c0-0.3,0.1-0.7,0-1c0-0.1,0-0.1,0-0.2c0.2-0.1,0.3-0.1,0.3,0.2
		c0.1,0.4,0,0.8,0.1,1.3c0,0.9,0.1,1.7,0.1,2.6c0,0,0,0,0,0c0.1,0,0.2,0,0.3,0.1c0.3,0.1,0.6,0.2,0.9,0.4c0.6,0.4,1,1,1.3,1.6
		c0,0.1,0.1,0.2,0.2,0.1c0.1,0,0.3,0,0.4,0c0.2,0,0.4,0,0.6,0c0.3,0,0.6-0.1,0.9-0.1c0.4-0.1,0.9-0.1,1.3-0.1c0.2,0,0.4,0,0.6-0.1
		c0.1,0,0.2,0,0.3,0c0,0,0.1,0,0.1,0c0,0,0,0.1-0.1,0.1c-0.1,0-0.2,0-0.3,0.1c-0.2,0-0.4,0.1-0.6,0.1c-0.3,0.1-0.7,0.1-1,0.2
		c-0.4,0.1-0.8,0.1-1.2,0.2c-0.3,0.1-0.6,0-0.9,0.2c-0.1,0-0.2,0-0.3,0.1c0,0.1,0,0.2,0,0.2c0,0.2,0,0.5,0,0.7c0,0.1,0,0.1,0.1,0.1
		c0.3,0,0.6,0,0.9,0c0.2,0,0.3,0,0.5,0c0.2,0,0.5,0,0.7,0c0.2,0,0.3,0,0.5,0c0.7,0,1.3,0,2-0.1c0.3,0,0.7,0,1,0c0,0,0.1,0,0,0
		c0.1,0,0.2,0,0.3,0c0,0,0,0,0.1,0c0,0,0,0,0,0c0,0,0,0.1,0.1,0.1c0.1,0,0.1,0,0.2-0.1c0,0,0,0,0,0c0,0,0,0,0.1,0
		c0.1,0,0.1,0.1,0.1,0.2c0-0.1,0.1-0.2,0.2-0.2c0,0,0,0,0,0c0.1,0,0.1,0,0.2,0c0,0.1,0,0.2,0.2,0.2c0.1,0,0.2,0,0.2-0.1
		c0,0.1-0.1,0.2-0.2,0.1c-0.1,0-0.2-0.1-0.1-0.2c0.1,0,0.2,0,0.3,0c0.2-0.1,0.2-0.1,0.2,0.1c0,0,0,0.1,0,0.1
		c-0.1-0.1-0.1-0.1,0.1-0.2c0.1,0,0.1,0,0.2-0.1c0,0,0,0,0.1,0c0.1,0,0.1,0.1,0.1,0.2c0-0.1,0-0.1,0.1-0.2c0,0,0,0,0.1,0
		c0,0.1,0.1,0.1,0.1,0c0,0,0,0,0.1,0c0.1,0,0.1,0.1,0.2,0.2c0-0.1,0.1-0.2,0.2-0.2c0.1,0,0.2,0,0.2,0c0,0,0,0.1,0,0.1
		c0,0,0-0.1,0-0.1c0,0,0.1,0,0.1,0c0.1,0,0.1,0.1,0.1,0.1c0,0,0-0.1,0.1-0.1c0.2,0,0.2,0.1,0.2,0.2c0-0.1,0-0.1,0.1-0.2
		c0.1,0,0.1,0,0.1,0.1c0,0,0,0,0-0.1c0,0,0.1,0,0.1,0c0.1,0,0,0.1,0.1,0.1c0,0,0.1,0.1,0.1,0.1c0.1,0,0.1-0.1,0.1-0.1
		c0-0.1,0-0.1,0.1-0.1c0,0,0.1,0,0.1,0c0,0.1,0.1,0.2,0.2,0.2c0.1,0.1,0.1,0.1,0,0.2c0,0-0.1,0-0.1,0.1c-0.3,0-0.5,0.1-0.8,0.1
		c-0.3,0-0.6,0-0.8,0.1c-0.6,0.1-1.2,0.1-1.9,0.2c-0.1,0-0.1,0-0.2,0c0,0,0,0,0,0s0,0,0,0c-0.1,0-0.1,0-0.2,0
		c0.4,0.2,0.6,0.5,0.7,0.9c0,0,0,0,0,0.1c0.1,0.3,0,0.5,0,0.8c-0.2,0.6-0.8,1-1.5,1c-0.7,0-1.3-0.5-1.4-1.1c-0.1-0.3,0-0.6,0-0.9
		c0.1-0.2,0.2-0.4,0.4-0.6c-0.1,0-0.2,0-0.2,0c-0.2,0-0.3,0-0.5,0c-0.4,0-0.8,0.1-1.2,0.1c-0.2,0-0.5,0.1-0.7,0.1
		c-0.1,0-0.2,0-0.3,0.1c-0.5,0-0.9,0.1-1.4,0.1c-0.2,0-0.4,0-0.6,0.1c-0.1,0-0.2,0-0.2,0.1c-0.1,0.2-0.2,0.3-0.3,0.4
		c-0.1,0.1-0.2,0.3-0.4,0.3c-0.1,0-0.1,0-0.2,0.1c-0.5,0.3-0.9,0.4-1.5,0.4c-0.5,0-1-0.1-1.4-0.4c-0.1,0-0.1-0.1-0.2-0.1
		c-0.2-0.1-0.3-0.3-0.5-0.4c-0.1-0.1-0.2-0.2-0.2-0.3c0-0.1-0.1,0-0.2-0.1c-0.3,0-0.5-0.1-0.8-0.1c-0.3,0-0.5,0-0.8-0.1
		c-0.1,0-0.2,0-0.2,0c-0.1-0.1-0.2-0.1-0.4,0c0,0-0.1,0-0.1,0c-0.1-0.1-0.2,0-0.2,0c-0.4,0-0.8-0.1-1.2-0.1c-0.3,0-0.5-0.1-0.8-0.1
		c-0.1,0-0.2,0-0.3,0c0,0-0.1,0-0.1,0c0,0,0,0.1,0.1,0.1c0.1,0.1,0.2,0.3,0.3,0.4c0.1,0.2,0.2,0.4,0.2,0.7c0,0.1,0,0.1,0,0.2
		c-0.1,0.7-0.7,1.2-1.4,1.3c-0.7,0.1-1.4-0.4-1.6-1c-0.1-0.3-0.1-0.7,0-1c0.1-0.3,0.4-0.5,0.7-0.7c-0.1,0-0.1,0-0.2,0
		c-0.1-0.1-0.2,0-0.4-0.1c-0.2,0-0.4,0-0.5-0.1c-0.2,0-0.3,0-0.5-0.1c-0.5,0-0.9-0.1-1.4-0.1c0,0-0.1,0-0.1,0c-0.1,0-0.1,0-0.2,0
		c-0.1-0.1-0.3,0-0.4-0.1c-0.2,0-0.5,0-0.7-0.1C15,27,15,26.9,15,26.8c0,0,0.1-0.1,0-0.1c-0.1,0,0,0.1,0,0.1c0,0.1,0,0.1-0.1,0.1
		c-0.3,0-0.5-0.1-0.8-0.1c-0.1,0-0.1,0-0.1,0c-0.2,0-0.3,0-0.5-0.1c-0.2,0-0.4-0.1-0.5,0c-0.4,0-0.6-0.2-0.7-0.5
		c-0.1-0.2-0.2-0.4-0.3-0.6c-0.1-0.1,0-0.1,0.1-0.1c0.1,0,0.2,0.1,0.3,0.2c0.1,0.2,0.3,0.4,0.5,0.5c0.1,0.1,0.2,0.1,0.3,0.1
		c0.4,0,0.8,0.1,1.1,0c0,0,0.1,0,0.1,0c0.1,0,0.1,0,0.1,0.1c0,0.1,0,0.1,0,0.2c0,0,0,0.1,0.1,0.1c0,0,0.1,0,0.1-0.1
		c0,0,0-0.1-0.1-0.1c0,0-0.1,0-0.1,0c0-0.1-0.1-0.1,0-0.1C14.7,26.4,14.9,26.5,15.1,26.5z"/>
	<path class="st1" d="M42.6,26.4c0.2,0,0.3,0,0.5,0c0.3,0,0.6,0,0.9,0c0.1,0,0.3,0,0.4,0c0.1,0,0.1,0,0.2-0.1
		c0.2-0.1,0.4-0.3,0.5-0.5c0.1-0.1,0.2-0.2,0.3-0.2c0.1,0,0.1,0,0.1,0.1c-0.1,0.2-0.2,0.5-0.3,0.7c-0.1,0.3-0.4,0.4-0.7,0.4
		c-0.2,0-0.5,0-0.7,0c0,0-0.1,0-0.1,0c-0.2,0-0.4,0.1-0.7,0.1c-0.1,0-0.1,0-0.2,0C42.7,26.8,42.6,26.7,42.6,26.4
		C42.6,26.5,42.6,26.5,42.6,26.4C42.6,26.5,42.6,26.5,42.6,26.4z"/>
	<path class="st1" d="M21.5,27.6c0.2,0,0.4,0.1,0.6,0.1c0.3,0,0.7,0.1,1,0.1c0.2,0,0.3,0,0.5,0c0.1,0,0.1,0,0.2,0c0,0,0.1,0,0.1,0
		c0.1,0,0.2,0,0.3,0c0.2,0.1,0.5,0.1,0.7,0.1c0.1,0,0.2,0,0.3,0.1c-0.1,0-0.1,0-0.2,0c-0.3,0-0.5,0-0.8-0.1c-0.3,0-0.6-0.1-0.8-0.1
		c-0.4,0-0.8-0.1-1.3-0.1c-0.3,0-0.5-0.1-0.8-0.1c-0.1,0-0.1,0-0.2,0c0-0.1,0.1,0,0.1-0.1C21.4,27.5,21.4,27.6,21.5,27.6z"/>
	<path class="st1" d="M27.1,29c0.1,0,0.1,0,0.2,0c0.2,0.1,0.5,0.2,0.7,0.3c0.3,0.1,0.6,0.2,0.9,0.1c0.4,0,0.8-0.1,1.1-0.3
		c0.1-0.1,0.2-0.2,0.4-0.1c-0.4,0.3-0.9,0.5-1.4,0.5C28.2,29.5,27.6,29.4,27.1,29z"/>
	<path class="st1" d="M35.6,25.1c0.1,0,0.2-0.1,0.4-0.1c-0.8,0-1.5,0.1-2.2,0.2c0,0,0,0,0-0.1c0.6-0.1,1.2-0.1,1.8-0.2
		c0.2,0,0.4-0.1,0.7-0.1c0,0,0.1,0,0.1,0.1c0,0.1,0,0.1-0.1,0.1C36,25.1,35.8,25.1,35.6,25.1C35.6,25.1,35.6,25.2,35.6,25.1z"/>
	<path class="st1" d="M29,23.1C29,23.1,29,23.1,29,23.1C29,22.5,29,22,28.9,21.5c0-0.8-0.1-1.6-0.1-2.4c0,0,0,0,0,0
		c0.1,0.3,0,0.5,0,0.8c0,0.5,0.1,1,0.1,1.5C29,22,29,22.6,29,23.1z"/>
	<path class="st1" d="M31.9,25.7C31.9,25.7,31.9,25.7,31.9,25.7c0-0.1,0.1-0.1,0.2-0.1c0.4,0,0.8-0.2,1.3-0.2
		c0.4-0.1,0.8-0.1,1.1-0.2c0.1,0,0.3-0.1,0.4-0.1c0,0,0,0,0,0c-0.2,0.1-0.5,0.1-0.7,0.1c-0.6,0.1-1.2,0.2-1.7,0.3
		C32.3,25.7,32.1,25.7,31.9,25.7z"/>
	<path class="st1" d="M23.1,26.8c-0.9,0-1.9-0.1-2.8-0.1c-0.3,0-0.5,0-0.8,0c-0.1,0-0.1,0-0.1-0.1c0.4,0,0.8,0,1.2,0.1
		c0.1,0,0.3,0,0.4,0c0.4,0,0.7,0,1.1,0C22.4,26.8,22.7,26.7,23.1,26.8C23.1,26.8,23.1,26.8,23.1,26.8z"/>
	<path class="st1" d="M30.7,28.6c0.2-0.2,0.2-0.5,0.6-0.5c0.6,0,1.3-0.1,1.9-0.2c0,0,0,0,0,0c-0.7,0.1-1.4,0.1-2.1,0.2
		c-0.1,0-0.1,0-0.2,0.1C30.9,28.4,30.9,28.5,30.7,28.6z"/>
	<path class="st1" d="M24.6,25.3c-0.4,0-0.8-0.1-1.2-0.1c-0.4,0-0.7-0.1-1.1-0.1C22.2,25,22,25,21.8,25c-0.1,0-0.2,0-0.3,0
		c0,0,0,0,0-0.1c0.6,0,1.1,0.1,1.7,0.2C23.6,25.1,24.1,25.2,24.6,25.3C24.6,25.2,24.6,25.2,24.6,25.3C24.6,25.3,24.6,25.3,24.6,25.3
		z"/>
	<path class="st1" d="M33.5,27.9c0.5,0,1-0.1,1.5-0.1c0.3,0,0.6-0.2,1,0C35.2,27.8,34.4,27.8,33.5,27.9
		C33.6,27.9,33.5,27.9,33.5,27.9z"/>
	<path class="st1" d="M21.5,24.9C21.5,24.9,21.5,25,21.5,24.9c-0.1,0.1-0.2,0-0.3,0c0.1,0.1,0.3,0.1,0.4,0.1
		c0.4,0.1,0.9,0.1,1.3,0.2c0,0,0,0,0,0c-0.3,0-0.6-0.1-1-0.1c-0.2,0-0.5-0.1-0.7-0.1c-0.1,0-0.1,0-0.1-0.1c0-0.1,0.1,0,0.1-0.1
		C21.4,24.9,21.4,24.8,21.5,24.9z"/>
	<path class="st1" d="M28.5,19.2C28.6,19.3,28.5,19.3,28.5,19.2c0,0.9,0,1.7,0,2.5c0,0,0,0-0.1,0c0-0.3,0-0.6,0-0.9
		C28.4,20.4,28.5,19.8,28.5,19.2z"/>
	<path class="st1" d="M38.2,27.4c0,0-0.1,0-0.1,0c0,0,0,0,0,0c0.7-0.1,1.4-0.1,2.1-0.2c0,0,0.1,0,0.1,0
		C39.6,27.3,38.9,27.4,38.2,27.4z"/>
	<path class="st1" d="M32.6,26.9c-0.1,0.1-0.3,0-0.4,0c-0.2,0-0.4,0-0.5,0c-0.1,0-0.1,0-0.1-0.2c0.1-0.3,0.1-0.5,0-0.8
		c0,0-0.1-0.1,0-0.1c0,0.3,0.1,0.6,0,0.9c0,0.1,0,0.2,0.1,0.2C32,26.8,32.3,26.9,32.6,26.9C32.5,26.9,32.6,26.8,32.6,26.9z"/>
	<path class="st1" d="M36.3,26.7C36.3,26.7,36.3,26.7,36.3,26.7c-0.5,0-1,0.1-1.5,0.1c-0.2,0-0.4,0-0.6,0c0,0,0,0,0-0.1
		c0.2,0,0.3,0,0.5,0c0.4,0,0.8,0,1.3-0.1C36.2,26.7,36.3,26.7,36.3,26.7z"/>
	<path class="st1" d="M39.5,26.6c0,0.1,0,0.2-0.1,0.2c0,0-0.1,0-0.1,0c0,0.1,0.1,0,0.1,0c0,0,0,0,0.1,0c0,0.1-0.1,0.1-0.1,0.1
		c-0.1,0-0.2,0-0.2-0.1c0-0.1-0.1-0.1-0.2-0.1C39.1,26.5,39.3,26.6,39.5,26.6z"/>
	<path class="st1" d="M26.1,24.7C26.2,24.7,26.2,24.7,26.1,24.7c0.2,0.1,0.2,0.2,0.2,0.3c-0.1,0.1-0.2,0.1-0.3,0c0,0,0,0-0.1,0
		C26,24.8,26.1,24.8,26.1,24.7z"/>
	<path class="st1" d="M25.1,28.1c0.1,0,0.1,0,0.2,0c0.3,0,0.6,0,0.9,0.1c0.2,0,0.4,0.2,0.4,0.4c0,0-0.1-0.1-0.1-0.1
		c-0.1-0.2-0.3-0.3-0.6-0.3C25.6,28.1,25.4,28.1,25.1,28.1z"/>
	<path class="st1" d="M16.3,27.2c0.2-0.1,0.4,0,0.6,0c0.3,0,0.6,0.1,0.9,0.1c0,0-0.1,0-0.1,0C17.2,27.3,16.8,27.2,16.3,27.2z"/>
	<path class="st1" d="M22.9,25.3C22.9,25.3,22.9,25.3,22.9,25.3c0.4,0,0.9,0.1,1.3,0.2c0,0,0,0,0,0c0,0,0,0,0,0
		C23.8,25.5,23.3,25.4,22.9,25.3z"/>
	<path class="st1" d="M23.1,26.8C23.1,26.8,23.1,26.8,23.1,26.8c0.4,0,0.8-0.1,1.1,0c0,0,0,0,0,0c-0.1,0.1-0.3,0-0.4,0
		C23.6,26.9,23.3,26.9,23.1,26.8z"/>
	<path class="st1" d="M42.7,26.9c0.2,0,0.4,0,0.6,0c0.1,0,0.1,0,0.2,0c0,0,0,0,0,0.1c-0.4,0-0.8,0.1-1.1,0.1c0,0-0.1,0-0.1-0.1
		c0-0.1,0.1-0.1,0.2-0.1C42.6,26.9,42.6,26.9,42.7,26.9C42.7,26.9,42.7,26.9,42.7,26.9z"/>
	<path class="st1" d="M14.5,26.5C14.5,26.5,14.5,26.5,14.5,26.5c0.1,0.1,0.2,0.1,0.3,0.2c0,0.1,0,0.1,0,0.2c-0.1,0.1-0.2,0.1-0.3,0
		c-0.1,0,0-0.1,0-0.1c0-0.1,0-0.2-0.1-0.3c0,0,0,0,0,0c0,0,0,0,0,0c0.2,0,0.3,0,0.5,0C14.7,26.5,14.6,26.5,14.5,26.5z"/>
	<path class="st1" d="M34.3,26.8C34.3,26.8,34.3,26.8,34.3,26.8c-0.2,0.1-0.5,0.1-0.7,0.1c-0.2,0-0.3,0.1-0.5,0c0,0,0,0,0.1,0
		C33.6,26.7,33.9,26.8,34.3,26.8z"/>
	<path class="st1" d="M33.7,25.1C33.7,25.1,33.7,25.2,33.7,25.1c-0.4,0.1-0.8,0.1-1.2,0.2c-0.1,0-0.2,0-0.3,0
		C32.7,25.2,33.1,25.2,33.7,25.1C33.6,25.2,33.7,25.1,33.7,25.1z"/>
	<path class="st1" d="M28.4,21.8C28.4,21.8,28.4,21.8,28.4,21.8c0,0.4,0,0.8,0,1.2c0,0,0,0.1-0.1,0.1C28.3,22.6,28.4,22.2,28.4,21.8
		z"/>
	<path class="st1" d="M42.3,27C42.4,27,42.4,27,42.3,27c-0.3,0.1-0.8,0.1-1.2,0.2c0,0-0.1,0-0.1,0c0,0,0,0,0,0c0.3,0,0.5,0,0.8-0.1
		c0-0.1,0.1,0,0.1,0C42.1,26.9,42.3,26.9,42.3,27z"/>
	<path class="st1" d="M15.7,26.5c-0.2,0-0.3,0.1-0.2,0.2c0,0.1,0.1,0.1,0.1,0.1c0,0,0.1,0,0.1,0c0-0.1-0.1-0.1-0.1-0.1
		c0,0,0.1,0,0.1,0c0,0,0.1,0,0.1,0.1c0,0,0,0.1-0.1,0.1c-0.1,0-0.2,0.1-0.3,0c-0.1-0.1-0.1-0.2-0.1-0.3c0,0,0-0.1,0-0.1
		C15.5,26.5,15.6,26.5,15.7,26.5z"/>
	<path class="st1" d="M15,27c0.4,0,0.8,0.1,1.2,0.1c0,0,0,0,0,0c0,0-0.1,0-0.1,0c-0.4,0-0.8-0.1-1.2-0.1c0,0,0,0,0,0
		C15,27,15,27,15,27z"/>
	<path class="st1" d="M44.6,26.3c0,0.1-0.1,0.1-0.1,0.1c-0.4,0-0.9,0.1-1.3,0c0,0,0,0-0.1,0c0.3,0,0.6,0,1,0
		C44.2,26.4,44.4,26.4,44.6,26.3z"/>
	<path class="st1" d="M42.9,26.5C42.8,26.5,42.8,26.5,42.9,26.5c-0.1,0.1-0.2,0.1-0.2,0.1c-0.1,0-0.1,0-0.2,0c-0.1,0-0.1,0-0.2,0
		c0,0-0.1,0-0.1,0c-0.1,0-0.2,0-0.4,0c0,0-0.1,0-0.1,0c-0.1,0.1-0.2,0-0.3,0c0,0-0.1,0-0.1,0c-0.1,0-0.1,0,0-0.1c0.4,0,0.7,0,1.1,0
		C42.5,26.5,42.7,26.4,42.9,26.5z"/>
	<path class="st1" d="M21.7,29c0-0.1,0-0.2,0-0.3c0-0.3-0.2-0.6-0.4-0.9c0,0,0-0.1,0-0.1C21.6,28.1,21.8,28.5,21.7,29z"/>
	<path class="st1" d="M18.8,26.6c0,0.1,0,0.2,0,0.2c0,0.2-0.2,0.2-0.3,0.1c0.1,0,0.1,0,0.2-0.1c-0.1,0-0.2,0-0.2-0.1
		c-0.1-0.1,0-0.1,0-0.2c0,0,0,0,0.1,0c0.1,0.1,0.1,0.1,0.2,0C18.8,26.6,18.8,26.6,18.8,26.6z"/>
	<path class="st1" d="M17,26.5c-0.1,0.1-0.1,0.3-0.2,0.4c0,0,0,0.1-0.1,0.1c0,0,0,0,0,0c0.1-0.2-0.1-0.3-0.1-0.4c0,0,0.1,0,0.1,0
		c0,0,0.1,0,0.1,0C16.9,26.5,17,26.5,17,26.5z"/>
	<path class="st1" d="M41.2,26.5C41.2,26.5,41.2,26.6,41.2,26.5c0,0.2,0,0.2,0.1,0.3c0,0,0,0.1,0,0.1c0,0,0,0,0-0.1c0,0,0,0,0,0
		c0-0.1,0-0.1-0.1-0.1c-0.1,0-0.1,0.1-0.1,0.1c0,0,0.1,0.1,0,0.1c-0.1,0,0-0.1,0-0.1c0-0.1,0-0.1-0.1-0.2c0-0.1,0-0.1,0-0.1
		c0,0,0.1,0,0.1,0C41.1,26.5,41.1,26.5,41.2,26.5z"/>
	<path class="st1" d="M16.6,26.5c0,0.1,0,0.2,0,0.3c-0.1-0.1-0.1-0.1-0.1-0.2c0,0,0-0.1-0.1-0.1c-0.1,0-0.1,0.1-0.1,0.1
		c0,0.1,0,0.1,0,0.2c-0.1-0.1-0.1-0.2,0-0.4C16.4,26.5,16.5,26.5,16.6,26.5z"/>
	<path class="st1" d="M40.3,26.5c-0.1,0.1-0.1,0.3-0.2,0.4c0,0,0,0.1-0.1,0.1c0,0,0,0,0-0.1c0.1-0.1,0-0.2-0.1-0.4
		C40.1,26.5,40.2,26.5,40.3,26.5z"/>
	<path class="st1" d="M14.4,26.4C14.4,26.4,14.4,26.4,14.4,26.4c-0.5,0-0.9,0-1.4,0c-0.1,0-0.1,0-0.2-0.1c0,0,0,0,0,0c0,0,0,0,0,0
		c0.5,0.1,0.9,0.1,1.4,0.1C14.3,26.4,14.3,26.4,14.4,26.4z"/>
	<path class="st1" d="M30.2,23.6c-0.1,0-0.2,0-0.2-0.1c-0.2-0.1-0.5-0.2-0.7-0.3c0,0,0,0,0,0c0,0,0,0,0,0
		C29.6,23.2,30,23.4,30.2,23.6z"/>
	<path class="st1" d="M19.2,26.6c0,0.1-0.1,0.1-0.1,0.1c0,0-0.1,0-0.1,0c0,0.1,0.1,0,0.1,0c0,0,0,0,0.1,0c0,0.1-0.1,0.1-0.2,0.1
		c-0.1,0-0.1-0.1-0.1-0.2c0,0,0-0.1,0-0.1C19,26.6,19.1,26.6,19.2,26.6z"/>
	<path class="st1" d="M14.9,27C14.9,27,14.9,27,14.9,27c-0.3,0-0.7,0-1-0.1c0.1-0.1,0.3,0,0.4,0C14.5,26.9,14.7,27,14.9,27
		C14.9,27,14.9,27,14.9,27z"/>
	<path class="st1" d="M36.3,26.7c-0.1,0-0.2,0-0.3,0c0.4,0,0.9,0,1.3,0c0.1,0,0.2,0,0.3,0c0,0,0,0,0,0
		C37.2,26.7,36.8,26.7,36.3,26.7z"/>
	<path class="st1" d="M18.3,27.3c0.3,0,0.7,0,1,0.1c-0.1,0-0.1,0-0.2,0C18.9,27.5,18.6,27.4,18.3,27.3
		C18.3,27.3,18.3,27.3,18.3,27.3z"/>
	<path class="st1" d="M38.7,26.6c0,0.1,0,0.2,0.2,0.2c0,0,0.1,0,0.1,0c0-0.1-0.1-0.1-0.1-0.1c0,0,0.1,0,0.1,0c0,0,0.1,0,0.1,0.1
		c0,0,0,0.1,0,0.1c-0.1,0-0.2,0.1-0.3,0C38.7,26.8,38.6,26.7,38.7,26.6C38.7,26.6,38.7,26.6,38.7,26.6z"/>
	<path class="st1" d="M18.4,26.6C18.4,26.6,18.4,26.6,18.4,26.6c0,0.2,0,0.3-0.2,0.3c-0.2,0-0.2-0.1-0.2-0.2c0,0,0,0,0-0.1
		c0.1,0,0.1,0,0.2,0c0,0,0,0,0,0c0,0,0,0,0,0C18.3,26.6,18.4,26.6,18.4,26.6z"/>
	<path class="st1" d="M18.7,28.2C18.8,28.3,18.8,28.3,18.7,28.2c-0.1,0.4-0.1,0.6,0,0.9c0,0,0,0.1,0,0.1
		C18.6,28.9,18.6,28.6,18.7,28.2z"/>
	<path class="st1" d="M41.1,27.1C41.1,27.1,41.1,27.1,41.1,27.1c-0.2,0.1-0.4,0.1-0.7,0.1c0,0-0.1,0-0.1,0c0.1-0.1,0.3,0,0.5-0.1
		C40.8,27.1,40.9,27.1,41.1,27.1z"/>
	<path class="st1" d="M35.8,28.3c0,0.1,0,0.1,0,0.2c0,0.2-0.1,0.4,0,0.6c0,0,0,0.1,0,0.1C35.6,28.9,35.6,28.6,35.8,28.3z"/>
	<path class="st1" d="M18.7,26.6c0,0.1,0,0.1,0,0.2c0,0-0.1,0-0.1,0c-0.1-0.1-0.1-0.1,0-0.2C18.6,26.6,18.7,26.6,18.7,26.6z"/>
	<path class="st1" d="M18.3,26.6C18.3,26.6,18.3,26.6,18.3,26.6c0,0.2,0,0.2-0.1,0.2c-0.1,0-0.1,0-0.1-0.1
		C18.1,26.7,18.1,26.6,18.3,26.6C18.2,26.6,18.2,26.6,18.3,26.6C18.3,26.6,18.3,26.6,18.3,26.6z"/>
	<path class="st1" d="M43.5,26.9C43.6,26.9,43.6,26.9,43.5,26.9c0.3-0.1,0.5-0.1,0.7-0.1c0.1,0,0.1,0,0.2,0
		C44.2,26.9,43.8,26.9,43.5,26.9z"/>
	<path class="st1" d="M41,26.5c0,0.1-0.1,0-0.2,0.1c0,0.1,0,0.1,0,0.2c0,0,0,0.1,0,0.1c-0.1,0,0-0.1,0-0.1c0-0.1,0-0.2,0-0.3
		C40.8,26.5,40.9,26.5,41,26.5z"/>
	<path class="st1" d="M19.4,26.6c0,0,0.1,0,0.1,0.1c0,0.1,0,0.1,0,0.2c-0.1,0-0.1,0-0.2,0c0-0.1,0.1,0,0.2,0
		C19.4,26.7,19.3,26.7,19.4,26.6C19.3,26.6,19.4,26.6,19.4,26.6z"/>
	<path class="st1" d="M35,25.2C35,25.2,35,25.2,35,25.2c0-0.1,0.1-0.1,0.2-0.1c0.1,0,0.2,0,0.3-0.1c0,0,0.1,0,0.1,0
		C35.4,25.2,35.2,25.2,35,25.2z"/>
	<path class="st1" d="M17.4,26.6c-0.1,0-0.1,0.1-0.1,0.2c0,0,0,0.1,0,0.1c-0.1,0,0-0.1,0-0.1c0-0.1,0-0.2-0.1-0.2c0,0,0,0,0.1,0
		C17.2,26.5,17.3,26.5,17.4,26.6C17.4,26.5,17.4,26.5,17.4,26.6L17.4,26.6L17.4,26.6z"/>
	<path class="st1" d="M38.7,29.3c0,0,0-0.1,0-0.1c0-0.2,0.1-0.3,0-0.5c0-0.1,0-0.1,0-0.2C38.8,28.7,38.8,29,38.7,29.3z"/>
	<path class="st1" d="M18.3,27.3C18.3,27.3,18.3,27.3,18.3,27.3c-0.2,0-0.4,0-0.6,0c0,0,0.1,0,0.1,0C18,27.3,18.1,27.3,18.3,27.3z"
		/>
	<path class="st1" d="M12.9,26.8c0.2-0.1,0.4,0,0.6,0c0,0-0.1,0-0.1,0C13.3,26.9,13.1,26.8,12.9,26.8z"/>
	<path class="st1" d="M25.8,26.9c-0.2,0.1-0.5,0-0.7,0c0.1,0,0.2,0,0.2,0C25.4,26.9,25.6,26.9,25.8,26.9z"/>
	<path class="st1" d="M40.6,26.5c0,0.1,0,0.2,0,0.2c0,0,0,0.1-0.1,0.1c-0.1,0,0,0,0-0.1C40.5,26.7,40.5,26.6,40.6,26.5
		C40.6,26.5,40.6,26.5,40.6,26.5z"/>
	<path class="st1" d="M24.6,25.3C24.6,25.3,24.6,25.3,24.6,25.3c0.2,0,0.4,0,0.6,0C25,25.4,24.8,25.3,24.6,25.3z"/>
	<path class="st1" d="M39.9,26.6c-0.1,0.1,0,0.2,0,0.3c-0.1-0.1,0-0.2-0.1-0.3C39.8,26.6,39.8,26.6,39.9,26.6z"/>
	<path class="st1" d="M39.7,26.6c-0.1,0.1,0,0.2,0,0.3c-0.1-0.1,0-0.2-0.1-0.3C39.6,26.6,39.6,26.6,39.7,26.6z"/>
	<path class="st1" d="M33.2,26.8C33.2,26.8,33.2,26.9,33.2,26.8c-0.2,0-0.4,0-0.6,0c0,0-0.1,0-0.1,0C32.7,26.8,33,26.8,33.2,26.8z"
		/>
	<path class="st1" d="M24.2,26.9C24.2,26.9,24.2,26.8,24.2,26.9c0.2,0,0.4,0,0.6,0C24.7,26.9,24.4,26.8,24.2,26.9z"/>
	<path class="st1" d="M42.9,26.5c-0.2,0-0.4,0-0.6,0c0.1,0,0.2,0,0.4,0C42.7,26.5,42.8,26.4,42.9,26.5z"/>
	<path class="st1" d="M16.9,26.5c0,0.1,0,0.1,0,0.2c-0.1-0.1-0.1-0.1-0.1-0.2C16.8,26.5,16.8,26.5,16.9,26.5z"/>
	<path class="st1" d="M14.5,26.5c0.1,0,0.2,0,0.3,0c0.1,0,0.2,0,0.3,0C14.9,26.5,14.7,26.5,14.5,26.5z"/>
	<path class="st1" d="M33.5,27.9C33.6,27.9,33.6,27.9,33.5,27.9c0,0.1-0.2,0.1-0.3,0.1c0,0,0,0,0,0C33.3,27.9,33.4,27.9,33.5,27.9z"
		/>
	<path class="st1" d="M28.9,19.2C28.8,19.2,28.8,19.2,28.9,19.2C28.8,19,28.7,19,28.5,19c0.1-0.1,0.2-0.1,0.3,0
		C28.9,19,28.9,19.1,28.9,19.2z"/>
	<path class="st1" d="M25.7,26c0,0.2,0,0.4,0,0.5C25.7,26.4,25.7,26.2,25.7,26z"/>
	<path class="st1" d="M19.7,29.9c-0.3-0.1-0.5-0.4-0.7-0.7c-0.1-0.2-0.1-0.4-0.1-0.6c0.1-0.5,0.4-0.8,0.9-1c0.7-0.2,1.3,0.2,1.5,0.9
		c0.1,0.6-0.3,1.2-1,1.4c0,0,0,0-0.1,0C20.1,30,19.9,30,19.7,29.9z"/>
	<path class="st1" d="M38.4,29.2c-0.2,0.3-0.4,0.5-0.7,0.7c-0.3,0.1-0.6,0.1-0.9,0c-0.4-0.2-0.6-0.4-0.7-0.8
		c-0.2-0.7,0.4-1.4,1.1-1.4c0.5,0,1.2,0.2,1.3,1C38.5,28.8,38.5,29,38.4,29.2z"/>
	<path class="st1" d="M28.5,25.2c0.1,0,0.1,0,0.1-0.2c0-0.2,0-0.4,0-0.6c0,0,0,0,0,0c0.1,0,0.1,0.1,0.1,0.1c0,0.1,0,0.2,0,0.3
		c0,0,0,0,0,0c0-0.1,0-0.3,0-0.4c0,0,0,0,0.1,0c0,0.2,0,0.4,0,0.7c0,0.1,0,0.1,0.1,0.1c0.1,0,0.2,0,0.3,0c-0.1,0-0.1,0-0.1,0.1
		c0.2,0.2,0.1,0.5-0.1,0.7c-0.2,0.2-0.5,0.1-0.7,0c-0.2-0.2-0.2-0.5-0.1-0.7C28.4,25.3,28.4,25.3,28.5,25.2z"/>
	<path class="st1" d="M30.7,25.4c0.1,0.1,0.2,0,0.2-0.1c0.1-0.2,0.3-0.2,0.5-0.1c-0.1,0.1-0.2,0.2-0.3,0.3c-0.1,0.1-0.1,0.2,0,0.2
		c0.1,0.1,0.2,0.2,0.3,0.3c0,0,0.1,0,0,0.1c0,0-0.1,0-0.1,0c-0.1,0-0.2,0-0.3-0.1c-0.1-0.1-0.2-0.2-0.3-0.3c0,0.1,0,0.2,0,0.3
		c0,0.1,0,0.1-0.1,0.1c-0.1,0-0.1,0-0.1-0.1c0-0.2,0-0.3,0-0.5c0,0,0,0,0,0C30.5,25.5,30.6,25.4,30.7,25.4
		C30.6,25.4,30.7,25.4,30.7,25.4z"/>
	<path class="st1" d="M29.9,25.4c0,0-0.1,0-0.1,0.1c-0.1,0.1-0.2,0.2-0.1,0.4c0.1,0.1,0.2,0.2,0.4,0.1c0,0,0,0,0.1,0
		c0.1,0,0.1,0,0.2,0.1c0.1,0.1,0,0.1-0.1,0.2c-0.2,0.1-0.5,0.1-0.7-0.1c-0.2-0.2-0.2-0.5,0-0.7l0,0C29.7,25.2,29.8,25.2,29.9,25.4z"
		/>
	<path class="st1" d="M27.2,25.4c0.1,0.1,0.2,0.3,0.1,0.5c-0.1,0.2-0.3,0.3-0.5,0.3c-0.1,0-0.2,0-0.4-0.1c-0.1,0-0.1-0.1-0.1-0.2
		c0-0.1,0.1-0.1,0.2-0.1c0,0,0.1,0.1,0.2,0.1c0.1,0,0.2,0,0.3-0.1c0-0.1-0.1-0.2-0.2-0.2c0-0.1,0.1-0.2,0.2-0.2
		C27.1,25.3,27.2,25.3,27.2,25.4C27.2,25.4,27.2,25.4,27.2,25.4z"/>
	<path class="st1" d="M28.3,25.2C28.3,25.2,28.3,25.2,28.3,25.2c-0.1,0.1-0.2,0.2-0.3,0.2c-0.1,0,0,0.2-0.1,0.2c0,0.1,0,0.2,0.2,0.3
		c0.1,0,0.1,0.1,0.1,0.2c0,0.1-0.1,0.1-0.1,0.1c-0.3,0-0.4-0.1-0.4-0.4c0-0.1,0-0.2,0-0.3c0-0.1,0-0.1-0.1-0.1c0,0,0-0.1,0-0.1
		C27.8,25.2,28,25.2,28.3,25.2z"/>
	<path class="st1" d="M26,25.6c0-0.1,0-0.2,0-0.4c0-0.1,0-0.1,0.1-0.1c0.1,0,0.1,0,0.1,0.1c0,0.2,0,0.5,0,0.7c0,0.1,0,0.1-0.1,0.1
		c-0.1,0-0.1,0-0.1-0.1C26,25.9,26,25.8,26,25.6z"/>
	<path class="st1" d="M27.1,24.7c-0.1,0.1-0.1,0.2-0.2,0.2c-0.1,0.1-0.2,0.1-0.1,0.3c0,0.1-0.1,0.3,0,0.4c-0.1-0.1-0.1-0.2-0.2-0.3
		c-0.2-0.2-0.1-0.4,0.1-0.6C26.8,24.7,26.9,24.7,27.1,24.7C27,24.7,27.1,24.7,27.1,24.7z"/>
	<path class="st1" d="M28.8,24.4C28.8,24.5,28.8,24.5,28.8,24.4c-0.1,0.3,0,0.5-0.1,0.7c0,0,0,0-0.1,0c0-0.2,0-0.4,0-0.6
		c0,0,0-0.1,0-0.1c0,0,0,0,0,0c-0.4,0-0.8,0-1.1,0.1c-0.1,0.1-0.1,0.1-0.1,0c0.2-0.2,0.4-0.2,0.6-0.2c0.2,0,0.3,0.1,0.5-0.1
		c0,0,0.1,0,0.1,0c0,0,0.1,0,0.1-0.1c0-0.1,0.1-0.1,0.1,0C28.9,24.3,28.9,24.4,28.8,24.4C28.9,24.4,28.8,24.4,28.8,24.4z"/>
	<path class="st1" d="M27.4,24.6c0,0,0.1,0,0.1,0c0,0.2-0.1,0.4-0.2,0.6c0,0.1-0.1,0.2-0.1,0.2c0,0-0.1,0-0.1,0
		C27.1,25.1,27.3,24.9,27.4,24.6c-0.2,0-0.2,0.1-0.3,0.1c0,0,0,0,0,0C27.1,24.5,27.2,24.6,27.4,24.6z"/>
	<path class="st1" d="M30.1,25.2c0-0.1-0.1-0.1-0.1-0.2c0-0.1-0.1-0.3-0.1-0.4c0.2-0.1,0.4,0,0.5,0.2c-0.1-0.1-0.1-0.1-0.3-0.2
		c0.1,0.2,0.2,0.4,0.2,0.7C30.3,25.3,30.2,25.2,30.1,25.2z"/>
	<path class="st1" d="M27.2,26.6c0.1,0,0.1,0,0.2,0c0,0,0.1,0.1,0.1,0.1c0,0,0,0.1,0,0.1c-0.1,0-0.2,0.1-0.3,0
		c-0.1-0.1-0.1-0.2,0-0.3c0.1-0.1,0.2-0.1,0.3-0.1c0,0,0.1,0,0.1,0.1c0,0-0.1,0-0.1,0c-0.1,0-0.1,0-0.2,0c0,0-0.1,0.1-0.1,0.2
		c0,0.1,0.1,0.1,0.1,0.1c0.1,0,0.1,0,0.1,0C27.4,26.7,27.3,26.7,27.2,26.6z"/>
	<path class="st1" d="M41.8,26.6c0.1-0.1,0.2,0,0.3,0c0.1,0.2,0,0.4-0.1,0.5c0,0-0.1,0-0.1,0c0,0-0.1,0-0.1-0.1c0.1,0,0.1,0,0.2,0
		c-0.1,0-0.2,0-0.3-0.1C41.7,26.7,41.8,26.6,41.8,26.6z"/>
	<path class="st1" d="M29.1,26.7c-0.1-0.2,0.1-0.2,0.2-0.2c0,0,0,0,0.1,0c0.2,0,0.2,0,0.2,0.2c0,0,0,0.1,0,0.1c0,0-0.1,0,0-0.1
		c0,0,0-0.1,0-0.1c0-0.1,0-0.1-0.1-0.1c-0.1,0-0.1,0-0.1,0.1c0,0,0,0,0,0.1c0,0,0,0.1,0,0.1c-0.1,0,0-0.1,0-0.1c0,0,0,0,0-0.1
		c0,0,0-0.1-0.1-0.1C29.2,26.6,29.2,26.6,29.1,26.7C29.2,26.7,29.2,26.7,29.1,26.7c0,0,0.1,0.1,0,0.1C29,26.8,29.1,26.8,29.1,26.7z"
		/>
	<path class="st1" d="M30.1,26.9c0.1,0,0.1,0,0.2,0c0,0,0,0,0,0c-0.1,0-0.2,0-0.2-0.1c0-0.1,0-0.1,0-0.2c0.1-0.1,0.2,0,0.3,0
		c0,0,0,0,0,0c0,0,0,0.3,0,0.4C30.4,27,30.3,27,30.1,26.9z"/>
	<path class="st1" d="M30.5,24.9c0,0,0-0.1-0.1-0.1c0.1-0.1,0.1-0.1,0.2-0.1c0.1,0,0.1,0.1,0.1,0.2c0,0.2,0,0.3,0,0.5c0,0,0,0,0,0
		c-0.1,0-0.1-0.1-0.1-0.2C30.5,25.1,30.5,25,30.5,24.9z"/>
	<path class="st1" d="M27.9,26.8c-0.1,0.1-0.2,0.1-0.3,0.1c-0.1-0.1-0.1-0.2,0-0.3c0.1-0.1,0.2-0.1,0.2,0
		C27.9,26.6,27.9,26.7,27.9,26.8c-0.1,0-0.2-0.1-0.2,0C27.7,26.9,27.8,26.8,27.9,26.8z"/>
	<path class="st1" d="M16.2,26.8c-0.1,0.1-0.2,0.1-0.2,0c-0.1-0.1-0.1-0.2,0-0.3c0.1-0.1,0.2-0.1,0.2,0c0,0,0,0.1,0,0.1
		C16.2,26.7,16.2,26.7,16.2,26.8c-0.1,0-0.2-0.1-0.2,0C16,26.9,16.1,26.8,16.2,26.8C16.2,26.8,16.2,26.8,16.2,26.8z"/>
	<path class="st1" d="M30.8,26.8c-0.1,0.1-0.2,0.1-0.2,0c-0.1-0.1-0.1-0.2,0-0.2c0.1-0.1,0.1-0.1,0.2-0.1c0,0,0.1,0.1,0.1,0.1
		C30.9,26.7,30.8,26.7,30.8,26.8c-0.1-0.1-0.2-0.1-0.2,0C30.7,26.9,30.8,26.8,30.8,26.8z"/>
	<path class="st1" d="M17.4,26.6c0.2,0,0.3,0,0.5,0c0,0.1,0,0.2,0,0.2c0,0,0,0.1,0,0.1c0,0-0.1,0,0-0.1c0,0,0,0,0-0.1
		c0-0.1,0-0.1-0.1-0.1c-0.1,0-0.1,0.1-0.1,0.1c0,0,0,0,0,0c0,0,0,0.1,0,0.1c-0.1,0-0.1,0-0.1-0.1c0-0.1,0-0.2-0.1-0.2
		c-0.1,0-0.1,0.1-0.1,0.2c0,0,0,0.1,0,0.1c-0.1,0,0-0.1,0-0.1C17.5,26.7,17.5,26.6,17.4,26.6z"/>
	<path class="st1" d="M41.4,26.6c0.1-0.1,0.2,0,0.3,0c0,0,0,0.1,0,0.1c0,0.1,0.1,0.2-0.1,0.2c-0.1,0-0.2,0-0.2,0
		C41.3,26.7,41.3,26.6,41.4,26.6z"/>
	<path class="st1" d="M30,26.7c0,0.1,0,0.2-0.2,0.2c-0.1,0-0.2-0.1-0.2-0.2c0-0.1,0.1-0.2,0.2-0.2C30,26.5,30.1,26.5,30,26.7z"/>
	<path class="st1" d="M14.9,27C14.9,27,14.9,27,14.9,27c0.1-0.1,0-0.2,0-0.3c0,0-0.1-0.1,0-0.1c0,0,0,0,0.1,0c0.1,0,0,0.1,0,0.1
		c0,0,0,0.1,0.1,0.1c0,0,0,0,0,0c0,0,0-0.2,0.1-0.1c0.1,0,0,0.1,0,0.2c0,0.1-0.1,0.2-0.1,0.3C15,27,14.9,27,14.9,27z"/>
	<path class="st1" d="M28.5,26.7C28.5,26.7,28.5,26.7,28.5,26.7c0.1-0.1,0.1-0.2,0.1-0.2c0.1,0,0,0.1,0,0.1c0,0.1-0.1,0.2-0.1,0.3
		c0,0.1,0,0.1-0.1,0.1c0,0,0,0,0-0.1c0-0.1,0-0.2-0.1-0.3c0,0,0-0.1,0-0.1c0,0,0,0,0.1,0C28.4,26.5,28.4,26.6,28.5,26.7
		C28.4,26.7,28.4,26.7,28.5,26.7z"/>
	<path class="st1" d="M26.1,26.4c0.1,0.1,0.1,0.1,0.2,0.1c0.1,0,0.1,0.1,0.1,0.2c0,0.1-0.1,0.2-0.2,0.2c-0.1,0-0.2,0-0.2-0.2
		C26.1,26.6,26.1,26.5,26.1,26.4z"/>
	<path class="st1" d="M26.6,26.7C26.7,26.7,26.7,26.7,26.6,26.7c0.1-0.1,0-0.2,0.1-0.2c0.1,0,0,0.1,0,0.1c0,0.1-0.1,0.2-0.1,0.2
		c0,0.1,0,0.1-0.1,0.1s0,0,0-0.1c0-0.1,0-0.2-0.1-0.3c0,0,0-0.1,0-0.1c0,0,0,0,0,0c0.1,0,0.1,0,0.1,0.1
		C26.6,26.6,26.6,26.7,26.6,26.7z"/>
	<path class="st1" d="M38.2,26.6c0.1,0,0.2,0,0.3,0c-0.1,0.1-0.1,0.2-0.2,0.3c0,0,0,0.1-0.1,0.1c-0.1,0,0-0.1,0-0.1
		C38.2,26.8,38.2,26.7,38.2,26.6z"/>
	<path class="st1" d="M30.9,26.8C30.9,26.8,31,26.8,30.9,26.8c0.1,0,0.1,0,0.2,0c0,0,0-0.1-0.1-0.1c0,0-0.1-0.1,0-0.1
		c0-0.1,0.1-0.1,0.1,0c0,0,0,0,0,0c-0.2,0.1,0,0.1,0,0.1c0,0.1,0,0.1,0,0.1C31.1,26.9,31,26.9,30.9,26.8z"/>
	<path class="st1" d="M36.8,29.9c0.3,0.1,0.6,0.1,0.9,0c0,0.1-0.1,0.1-0.1,0.1c-0.2,0-0.4,0-0.7,0C36.8,30,36.8,30,36.8,29.9z"/>
	<path class="st1" d="M38,26.6C38,26.6,38.1,26.6,38,26.6c0.1,0.1,0.1,0.2-0.1,0.2c-0.2,0-0.2,0-0.2-0.2c0,0,0,0,0.1,0
		C37.9,26.7,37.9,26.7,38,26.6z"/>
	<path class="st1" d="M29,26.7c0,0,0.1,0.2,0,0.2C28.8,26.8,28.9,26.7,29,26.7c-0.1,0-0.1-0.1-0.1-0.1c0,0,0-0.1,0-0.1
		c0.1,0,0.1,0,0.1,0.1C29,26.5,29,26.6,29,26.7z"/>
	<path class="st1" d="M28.2,26.4c0.1,0.1,0,0.3,0.1,0.4C28.1,26.8,28.1,26.6,28.2,26.4z"/>
	<path class="st1" d="M28,26.4c0.1,0.2,0,0.3,0,0.4C27.9,26.7,27.9,26.6,28,26.4z"/>
	<path class="st1" d="M24.3,27.9c-0.1,0-0.2,0-0.3,0C24.1,27.7,24.2,27.7,24.3,27.9z"/>
	<path class="st1" d="M18.9,28.6c0,0.2,0,0.4,0.1,0.6C18.8,29,18.9,28.8,18.9,28.6z"/>
	<path class="st1" d="M19.7,29.9c0.2,0.1,0.4,0.1,0.7,0.1C20.2,30.1,19.8,30,19.7,29.9z"/>
	<path class="st1" d="M38.4,29.2c0.1-0.2,0.1-0.4,0.1-0.6C38.5,28.8,38.5,29.1,38.4,29.2z"/>
	<path class="st1" d="M23.8,27.9c-0.1,0-0.1,0-0.2,0C23.7,27.7,23.8,27.7,23.8,27.9z"/>
	<path class="st1" d="M21.5,27.6c-0.1,0.1-0.2,0-0.2,0C21.4,27.5,21.4,27.5,21.5,27.6z"/>
	<path class="st1" d="M42.6,26.5c0.1,0,0.1,0,0.2,0C42.8,26.6,42.7,26.6,42.6,26.5c0.2,0.2,0.3,0.3,0.1,0.4c0,0,0,0-0.1,0
		c-0.1,0-0.2,0-0.1-0.1C42.5,26.7,42.5,26.6,42.6,26.5z"/>
	<path class="st1" d="M38,26.6c0,0.1,0,0.2-0.1,0.2c-0.1,0-0.1-0.1-0.1-0.2C37.9,26.6,37.9,26.6,38,26.6z"/>
	<path class="st1" d="M42.6,26.5c-0.1,0.1,0,0.2,0.1,0.3c0,0.1-0.1-0.1-0.2,0c0,0,0.1,0,0.1,0.1c-0.1,0.1-0.2,0-0.3,0.1
		c-0.1,0-0.2,0-0.3,0c0.2-0.1,0.1-0.3,0.1-0.5c0,0,0.1,0,0.1,0c0,0.1,0,0.1,0,0.2c0,0.1,0,0.1,0,0.1c-0.1-0.1,0-0.1,0-0.2
		c0.1,0,0.1-0.1,0.1-0.1C42.5,26.5,42.6,26.5,42.6,26.5z"/>
	<path class="st1" d="M14.6,26.8c-0.1,0-0.1,0-0.1-0.1c0-0.1,0-0.1,0.1-0.1c0.1,0,0.1,0,0.1,0.1C14.7,26.8,14.7,26.8,14.6,26.8z"/>
	<path class="st1" d="M42.4,26.5c0.1,0.1,0.1,0.1-0.2,0.2c0.1,0.1,0.1,0.1,0.2,0c-0.1,0.1-0.1,0.1-0.2,0.1c-0.1,0-0.1-0.1-0.1-0.2
		c0,0,0.1-0.1,0.1-0.1C42.3,26.5,42.4,26.5,42.4,26.5z"/>
	<path class="st1" d="M40.1,26.6C40.2,26.6,40.2,26.6,40.1,26.6c0.1,0.1,0,0.1,0,0.1C40.1,26.7,40.1,26.7,40.1,26.6
		C40.1,26.6,40.1,26.6,40.1,26.6z"/>
	<path class="st1" d="M20.4,28c0.3,0.1,0.5,0.3,0.6,0.5c0,0,0,0,0,0c0.1,0.2,0,0.5-0.1,0.7c-0.1,0.3-0.4,0.4-0.7,0.4
		c-0.2,0-0.3,0-0.5-0.1c-0.5-0.2-0.7-0.8-0.4-1.2c0.1-0.1,0.2-0.2,0.3-0.3C19.9,27.9,20.2,27.9,20.4,28z"/>
	<path class="st1" d="M21,29.2C21,29.2,20.9,29.2,21,29.2c0.1-0.2,0.1-0.4,0-0.6c0,0,0-0.1,0-0.1C21.1,28.7,21.1,29,21,29.2z"/>
	<path class="st1" d="M20.4,28c-0.3,0-0.5,0-0.8,0.1C19.9,27.9,20.2,27.9,20.4,28z"/>
	<path class="st1" d="M19.8,29.6c0.2,0,0.3,0,0.5,0.1C20.1,29.7,19.9,29.7,19.8,29.6z"/>
	<path class="st1" d="M38,28.4c0.2,0.4,0.1,1-0.4,1.2c-0.2,0-0.4,0.1-0.6,0c-0.4-0.1-0.6-0.3-0.6-0.7c-0.1-0.4,0.1-0.7,0.4-0.9
		c0,0,0.1,0,0.1,0C37.2,27.8,37.7,28,38,28.4C38,28.4,38,28.4,38,28.4z"/>
	<path class="st1" d="M38,28.4c-0.1-0.1-0.2-0.2-0.4-0.3c-0.3-0.2-0.5-0.2-0.8,0c0,0-0.1,0.1-0.1,0C37.2,27.8,37.8,27.9,38,28.4z"/>
	<path class="st1" d="M37,29.6c0.2,0,0.4,0,0.6,0C37.4,29.7,37.2,29.7,37,29.6z"/>
	<path class="st1" d="M28.8,25.4c0.1,0,0.3,0.1,0.3,0.3c0,0.1-0.1,0.3-0.3,0.3c-0.1,0-0.2-0.1-0.2-0.2
		C28.5,25.5,28.6,25.4,28.8,25.4z"/>
	<path class="st1" d="M28.6,24.4c0.1,0,0.1,0.1,0.1,0.1c0,0.2,0,0.4,0,0.6c-0.1-0.1,0-0.3,0-0.4C28.6,24.7,28.6,24.5,28.6,24.4z"/>
	<path class="st1" d="M28.7,25.1c0-0.2,0-0.4,0-0.6C28.7,24.7,28.8,24.9,28.7,25.1z"/>
	<g>
		<path class="st1" d="M29.5,25.3c-0.1,0-0.2,0-0.3,0c-0.1,0-0.1,0-0.2,0c-0.2,0.1-0.3,0-0.3-0.2c0-0.2,0-0.4,0-0.6c0,0,0.1,0,0.1,0
			c0.3,0,0.6,0,0.9,0.1c0.1,0,0.1,0,0.2,0.1c0.1,0.1,0.2,0.3,0.2,0.4c0,0.1-0.1,0.1-0.2,0.1C29.8,25.2,29.7,25.2,29.5,25.3
			C29.5,25.3,29.5,25.3,29.5,25.3z"/>
		<path class="st1" d="M28.5,25.2c0,0-0.1,0-0.1,0c0,0,0,0-0.1,0c0,0-0.1-0.1-0.1-0.1c-0.1,0-0.2,0-0.3-0.1c0-0.1-0.1-0.1-0.2,0
			c-0.1,0.2-0.3,0.3-0.5,0.2c0-0.2,0.2-0.5,0.3-0.7c0.2-0.1,0.3-0.1,0.5-0.1c0.2,0,0.3,0,0.5,0c0.1,0,0.1,0,0.1,0c0,0.2,0,0.5,0,0.7
			C28.6,25.3,28.5,25.3,28.5,25.2z"/>
		<path class="st1" d="M28.3,25.2c-0.2,0.1-0.5,0-0.8,0.1c-0.1,0-0.2,0-0.3,0.1c0,0,0,0,0,0c-0.1-0.1,0-0.2,0.1-0.2
			c0.1,0,0.1,0,0.2,0c0.1,0,0.1,0,0.1-0.1c0-0.1,0-0.1,0.1-0.2c0.1,0,0.2,0,0.2,0.1c0,0.1,0.1,0.1,0.2,0.1
			C28.1,25.1,28.2,25.1,28.3,25.2z"/>
		<path class="st1" d="M29.9,25.4c-0.1-0.1-0.3-0.1-0.4-0.1c0.1-0.2,0.3-0.2,0.4-0.2c0.1,0,0.1,0,0.1,0c0.1,0,0.2,0.1,0.1,0.2
			c0,0.1,0,0.1,0,0.2C30.1,25.4,30,25.4,29.9,25.4z"/>
	</g>
	<path class="st1" d="M26.8,25.2c-0.1-0.2-0.1-0.2,0.1-0.3C26.9,25,26.8,25.1,26.8,25.2z"/>
	<path class="st1" d="M42,26.7c0,0.1,0,0.1-0.1,0.1c-0.1,0-0.1-0.1-0.1-0.1c0-0.1,0.1-0.1,0.1-0.1C42,26.6,42,26.6,42,26.7z"/>
	<path class="st1" d="M30.3,26.6c0.1,0,0.1,0,0.1,0.1c0,0.1,0,0.1-0.1,0.1c-0.1,0-0.1,0-0.1-0.1C30.2,26.6,30.2,26.6,30.3,26.6z"/>
	<path class="st1" d="M41.5,26.8c-0.1,0-0.1,0-0.1-0.1c0-0.1,0-0.1,0.1-0.1c0.1,0,0.1,0,0.1,0.1C41.6,26.8,41.5,26.8,41.5,26.8z"/>
	<path class="st1" d="M29.8,26.8c-0.1,0-0.1-0.1-0.1-0.1c0-0.1,0-0.1,0.1-0.1c0.1,0,0.1,0,0.1,0.1C29.9,26.8,29.9,26.8,29.8,26.8z"
		/>
	<path class="st1" d="M26.3,26.6c0.1,0,0.1,0,0.1,0.1c0,0.1,0,0.1-0.1,0.1c-0.1,0-0.1,0-0.1-0.1C26.2,26.6,26.2,26.6,26.3,26.6z"/>
	<path class="st1" d="M20.2,28.5c0.2,0,0.3,0.1,0.3,0.3c0,0.2-0.1,0.3-0.3,0.3c-0.2,0-0.3-0.1-0.3-0.3C19.9,28.6,20,28.5,20.2,28.5z
		"/>
	<path class="st1" d="M37.5,28.8c0,0.2-0.1,0.3-0.3,0.3c-0.2,0-0.3-0.1-0.3-0.3c0-0.2,0.1-0.3,0.3-0.3
		C37.4,28.5,37.5,28.6,37.5,28.8z"/>
</g>
</svg>
