<?xml version="1.0" encoding="utf-8"?>
<!-- Generator: Adobe Illustrator 26.0.1, SVG Export Plug-In . SVG Version: 6.00 Build 0)  -->
<svg version="1.1" id="Layer_1" xmlns="http://www.w3.org/2000/svg" xmlns:xlink="http://www.w3.org/1999/xlink" x="0px" y="0px"
	 viewBox="0 0 56.7 56.7" style="enable-background:new 0 0 56.7 56.7;" xml:space="preserve">
<style type="text/css">
	.st0{fill:#FFFFFF;}
</style>
<g id="Camada_x0020_1">
	<path class="st0" d="M36.4,39.1c0.2-0.4,0.3-0.4,0.7-0.6c0.3,0.2,3,3.4,3.2,3.7c-0.2,0.3-0.4,0.5-0.7,0.6
		C39.3,42.7,36.7,39.5,36.4,39.1z M36.3,37.4c-0.2-0.6,0-0.4,0.4-0.8c1.9-2.2,1.5-6.4,0.4-6c-0.6,0.3-0.1,1.2-0.1,1.8
		c0.1,0.8-0.1,1.4-0.3,2.1c-1.5,4.1-7.1,4.2-9,0.8c-1.3-2.5-0.6-5.2,1.7-6.7c0.9-0.6,2.8-0.9,4-0.5c0.9,0.3,1.6-0.1,1-0.7
		c-0.9-0.9-6.2-1.2-7.9,3.2c-1,2.4-0.2,5.3,1.8,7c1.8,1.5,4.2,1.8,6.5,0.7c0.2-0.1,0.3-0.2,0.4-0.2c0.4-0.2,0.3,0,0.4,0
		c0.4,0.4-0.3,0.4-0.2,1.2c0,0.4,0.4,0.7,0.6,0.9l2.8,3.4c0.7,0.8,1.3,0.5,1.9-0.1c1.1-1,1.3-1-0.2-2.8c-0.5-0.6-2.4-3.1-2.9-3.2
		C36.9,37.1,36.8,37.5,36.3,37.4z"/>
	<path class="st0" d="M18.9,16.1c0.9,0,2.5,0.3,3.1-0.3l0-0.4c-0.5-0.5-1.7-0.3-2.5-0.3c-1.1,0-1.7-0.2-1.7,1l0,24.5
		C18,41.3,19.2,41,20,41l9.5,0c0.5-0.1,0.5-0.2,0.5-0.8c-0.6-0.5-1.8-0.3-2.6-0.3c-2.7,0-6.1,0.1-8.6,0L18.9,16.1z"/>
	<path class="st0" d="M25.2,14.2c-1.4,0.2-2.9,1.6-2.6,3.3c0.2,0.5,2.3,0.3,3.2,0.3c0.5,0,3.3,0.1,3.5-0.1c0.4-0.2,0.4-0.9-0.2-1
		l-5.5,0c0.1-0.7,0.7-1.2,1.2-1.4c1-0.4,1.4,0.3,1.3-1.2c-0.1-1.6,1.6-2.8,3.1-1.9c0.5,0.3,1,0.8,1.1,1.6c0.1,1.4-0.5,1.1,1.1,1.4
		c2,0.5,1.2,2.6,2.1,2.5c0.8,0,0.6-1.4-0.2-2.5c-0.4-0.5-1-1-2-1.1C31.4,9.8,25.3,9.8,25.2,14.2z"/>
	<path class="st0" d="M22.5,22.1h11.9c1,0,1.1-1.1,0-1.1h-12c-0.5,0-0.9,0-0.9,0.5C21.6,22.1,22,22.1,22.5,22.1z"/>
	<path class="st0" d="M32,34c-1-0.6-2.2-2.4-2.8-1.8c-0.6,0.6,0.5,1.2,0.8,1.4l1.3,1.2c0.5,0.5,0.8,1,1.5,0.1l3.1-3.6
		c0.2-0.2,0.2-0.1,0.3-0.3l1.7-2c1.6-1.6,0.5-2.2-0.1-1.4c-0.2,0.2-0.1,0.1-0.3,0.3C36.8,28.2,32.7,33.4,32,34z"/>
	<path class="st0" d="M37.7,16.1c0.2,0.8,0,6,0,7.5c0,1-0.3,1.9,0.8,1.8c0.2-0.3,0.3-0.4,0.3-0.8v-8.7c0-1.1-1.1-0.8-3-0.8
		c-1.4,0-1.2,0.9-0.6,1C35.5,16.1,37.2,16.1,37.7,16.1z"/>
	<path class="st0" d="M21.6,26.9c0.2,0,0.7,0.2,1.1,0.1c0.5,0,0.8,0,1.3,0c0.9,0,1.9,0,2.7,0c0.1-0.2,0.3-0.3,0.3-0.6
		C27,26.2,26.8,26,26.5,26c-0.4-0.1-1.4,0-1.9,0c-0.6,0-1.3,0-1.9,0C21.8,25.9,21.4,26,21.6,26.9z"/>
	<path class="st0" d="M23.5,36.9c0.6,0,1.6,0.1,1.3-0.7c-0.2-0.5-1.3-0.3-1.9-0.3c-0.8,0-1.5-0.1-1.3,0.8
		C22.2,37,22.8,36.9,23.5,36.9z"/>
	<path class="st0" d="M21.6,31.5c0.1,0.7,2.2,0.8,2.1-0.1c0-0.6-0.7-0.5-1.2-0.5C22,31,21.5,31,21.6,31.5z"/>
	<path class="st0" d="M28.7,14.6c0.7-0.6,0.2-1.7-0.7-1.4C27.3,13.5,27.4,15,28.7,14.6z"/>
	<path class="st0" d="M35.9,28.7c0.1-0.8-0.7-1.2-1-0.5C34.6,28.8,35.3,29.2,35.9,28.7z"/>
	<path class="st0" d="M28.3,47.7c-5.3,0-10.2-2.2-13.7-5.7C11.2,38.5,9,33.7,9,28.3s2.2-10.2,5.7-13.7C18.2,11.2,23,9,28.3,9
		c5.3,0,10.2,2.2,13.7,5.7s5.7,8.3,5.7,13.7S45.5,38.5,42,42C38.5,45.5,33.7,47.7,28.3,47.7z M15.3,41.4c3.3,3.3,8,5.4,13.1,5.4
		c5.1,0,9.7-2.1,13.1-5.4c3.3-3.3,5.4-8,5.4-13.1s-2.1-9.7-5.4-13.1c-3.3-3.3-8-5.4-13.1-5.4c-5.1,0-9.7,2.1-13.1,5.4
		s-5.4,8-5.4,13.1S11.9,38.1,15.3,41.4z"/>
</g>
</svg>
