<?xml version="1.0" encoding="utf-8"?>
<!-- Generator: Adobe Illustrator 26.0.1, SVG Export Plug-In . SVG Version: 6.00 Build 0)  -->
<svg version="1.1" id="Layer_1" xmlns="http://www.w3.org/2000/svg" xmlns:xlink="http://www.w3.org/1999/xlink" x="0px" y="0px"
	 viewBox="0 0 56.7 56.7" style="enable-background:new 0 0 56.7 56.7;" xml:space="preserve">
<style type="text/css">
	.st0{fill-rule:evenodd;clip-rule:evenodd;fill:#77963D;}
	.st1{fill:#FFFFFF;}
	.st2{fill-rule:evenodd;clip-rule:evenodd;fill:#FFFFFF;}
</style>
<path class="st0" d="M83.6,32.2"/>
<path class="st0" d="M88.8,32.2"/>
<g>
	<g id="Camada_x0020_1">
		<path class="st1" d="M28.3,47.7c-5.3,0-10.2-2.2-13.7-5.7C11.2,38.5,9,33.7,9,28.3s2.2-10.2,5.7-13.7C18.2,11.2,23,9,28.3,9
			c5.3,0,10.2,2.2,13.7,5.7s5.7,8.3,5.7,13.7S45.5,38.5,42,42C38.5,45.5,33.7,47.7,28.3,47.7z M15.3,41.4c3.3,3.3,8,5.4,13.1,5.4
			c5.1,0,9.7-2.1,13.1-5.4c3.3-3.3,5.4-8,5.4-13.1s-2.1-9.7-5.4-13.1c-3.3-3.3-8-5.4-13.1-5.4c-5.1,0-9.7,2.1-13.1,5.4
			s-5.4,8-5.4,13.1S11.9,38.1,15.3,41.4z"/>
	</g>
	<g>
		<path class="st2" d="M35.1,26.7v12h-0.7V32c0-0.3-0.2-0.5-0.5-0.5h-2.2c-0.2,0-0.4,0.2-0.4,0.3v6.7h-0.8v-9c0-0.1,0-0.2-0.1-0.2
			c0,0-0.2-0.1-0.2-0.1h-2.5c-0.1,0-0.2,0.1-0.2,0.1c-0.1,0.1-0.1,0.1-0.1,0.3v9h-0.8v-7.4c0-0.2-0.2-0.4-0.4-0.4h-2.3
			c-0.2,0-0.4,0.2-0.4,0.5v7.3h-0.7v-4.2c0-0.4-0.2-0.5-0.5-0.5H20c-0.3,0-0.5,0.1-0.5,0.4v4.3h-2c-0.2,0-0.3,0.2-0.4,0.3v0.1
			c0,0.2,0.1,0.3,0.4,0.3h2.4c0.3,0,0.4-0.3,0.4-0.5v-4.1h1.5v4.2c0,0.2,0.1,0.5,0.3,0.5h1.7c0.2,0,0.3-0.3,0.3-0.5v-7.3h1.5v7.2
			c0,0.3,0.1,0.5,0.4,0.5h1.6c0.1,0,0.3-0.2,0.3-0.3v-9h1.5v9c0,0.1,0.2,0.3,0.3,0.3h1.7c0.1,0,0.3-0.2,0.3-0.3v-6.7h1.5v6.5
			c0,0.2,0.1,0.5,0.3,0.5h1.7c0.2,0,0.3-0.3,0.3-0.5v-12h1.5v11.9c0,0.3,0.1,0.5,0.4,0.5h2.4c0.2,0,0.3-0.2,0.3-0.4v-0.1
			c0-0.2-0.1-0.3-0.4-0.3h-2V26.5c0-0.1-0.1-0.3-0.4-0.3h-2.5C35.2,26.2,35.1,26.4,35.1,26.7"/>
		<path class="st2" d="M16.5,29.3c0,0.4-0.4,0.7-0.8,0.7c-0.7-0.1-1-0.9-0.5-1.4C15.7,28.2,16.5,28.5,16.5,29.3 M35.2,21.1l-3.7,3.1
			c0.1,0.3,0.4,0.8-0.2,1.6c-1.1,1.6-3.7,0-2.5-1.8l-1.6-1.9c-0.8,0.4-1.2,0.1-1.8-0.3l-8.2,7c0,0.3,0.1,0.4,0,0.7
			c-0.1,0.7-0.7,1.1-1.4,1.2c-1,0.1-1.8-0.8-1.7-1.6c0.1-1,0.9-1.6,1.5-1.5c0.7,0.1,0.6,0.1,1.1,0.5l8.2-6.9c-0.1-0.2-0.1-0.4,0-0.6
			c0.1-0.8,0.9-1.4,1.6-1.3c0.9,0.1,1.5,0.8,1.5,1.6c-0.1,0.8-0.1,0.5-0.2,0.9l1.6,1.9c0.9-0.4,1.3,0,1.6,0.1l3.7-3.1
			C35,20.6,35,20.8,35.2,21.1 M30.2,25.7l-0.2,0c-0.3,0-0.6-0.4-0.6-0.7l0-0.2c0.1-0.8,1.6-0.8,1.5,0.3
			C30.9,25.3,30.5,25.7,30.2,25.7 M25.8,20.7c0.1-1.1,1.6-0.9,1.5,0.1c-0.1,0.7-0.9,1-1.3,0.5C25.9,21.1,25.8,20.8,25.8,20.7"/>
	</g>
</g>
<path class="st1" d="M41.1,16.1c0.1,0.3-0.1,0.6-0.3,0.8c-0.1,0.1-0.1,0.1-0.2,0.2c-0.3,0.2-0.6,0.5-0.9,0.7c0,0-0.1,0.1-0.1,0.1
	c-0.2,1.3-0.3,2.5-0.5,3.8c0,0.3-0.1,0.5-0.3,0.6c-0.1,0-0.1,0.1-0.2,0.1c-0.1,0-0.1,0.1-0.2,0.1c-0.1,0-0.1-0.1-0.1-0.2
	c0-0.5-0.1-1-0.1-1.5c-0.1-0.6-0.1-1.2-0.2-1.7c0,0,0,0,0-0.1c-0.1,0.1-0.2,0.1-0.3,0.2c-0.3,0.2-0.5,0.3-0.8,0.5
	c-0.1,0.1-0.3,0.2-0.4,0.3c0,0,0,0,0,0.1c0,0.4,0.1,0.8,0.1,1.2c0,0.1,0,0.2-0.1,0.2c-0.1,0-0.1,0.1-0.2,0.1
	c-0.1,0.1-0.2,0.1-0.3-0.1c-0.2-0.4-0.4-0.8-0.6-1.2c0,0,0,0,0-0.1c-0.3-0.3-0.7-0.6-1-0.8c-0.1-0.1-0.1-0.2,0-0.3
	c0.1-0.1,0.1-0.1,0.2-0.2c0.1,0,0.1-0.1,0.2,0c0.4,0.1,0.7,0.3,1.1,0.4c0,0,0.1,0,0.1,0c0.3-0.3,0.6-0.5,0.8-0.8
	c0.1-0.1,0.2-0.2,0.3-0.3c0,0,0.1,0,0.1-0.1c-0.2-0.1-0.4-0.1-0.6-0.2c-0.9-0.3-1.7-0.6-2.6-0.9C34.1,17,34,17,34.1,16.8l0.4-0.3
	c0.2-0.1,0.4-0.1,0.7-0.1c1.2,0.2,2.4,0.3,3.6,0.5c0,0,0.1,0,0.1,0c0.3-0.2,0.6-0.5,0.9-0.7c0.1-0.1,0.2-0.1,0.3-0.2
	c0.2-0.1,0.3-0.1,0.5-0.1c0.1,0,0.2,0,0.3,0.1L41.1,16.1z"/>
</svg>
