<?xml version="1.0" encoding="utf-8"?>
<!-- Generator: Adobe Illustrator 26.0.1, SVG Export Plug-In . SVG Version: 6.00 Build 0)  -->
<svg version="1.1" id="Layer_1" xmlns="http://www.w3.org/2000/svg" xmlns:xlink="http://www.w3.org/1999/xlink" x="0px" y="0px"
	 viewBox="0 0 56.7 56.7" style="enable-background:new 0 0 56.7 56.7;" xml:space="preserve">
<style type="text/css">
	.st0{fill-rule:evenodd;clip-rule:evenodd;fill:#FFFFFF;}
	.st1{fill:#FFFFFF;}
</style>
<g>
	<g>
		<path class="st0" d="M34.7,15.4c0.2,0.1,0.3,0.3,0.2,0.5c-0.1,0.2-0.3,0.3-0.5,0.3c-0.3,0-0.6,0-0.9,0c-0.6,0.1-1.1,0.7-1.1,1.3
			c0,0.8,0,1.5,0,2.3c0,0.6,0.4,1.1,1,1.3c0.6,0.2,0.8,0.5,0.8,1.1c0,0.2,0,0.4,0,0.7c0.1-0.1,0.1-0.1,0.2-0.2
			c0.3-0.4,0.5-0.7,0.8-1.1c0.2-0.3,0.6-0.5,1-0.5c0.9,0,1.8,0,2.6,0c1,0,1.5-0.6,1.5-1.5c0-0.6,0-1.3,0-1.9c0-0.9-0.6-1.5-1.5-1.5
			c-0.8,0-1.6,0-2.3,0c-0.2,0-0.4,0-0.5-0.2c-0.1-0.2,0.1-0.4,0.2-0.5c1,0,2.1,0,3.1,0c0.1,0,0.3,0.1,0.4,0.1c0.8,0.3,1.3,1,1.4,1.9
			c0,0.8,0,1.7,0,2.5c-0.1,1.1-1,2-2.1,2c-0.9,0-1.9,0-2.8,0c-0.2,0-0.3,0.1-0.4,0.2c-0.4,0.6-0.8,1.1-1.2,1.7
			c-0.2,0.3-0.4,0.4-0.7,0.3c-0.2-0.1-0.4-0.3-0.4-0.6c0-0.4,0-0.9,0-1.3c0-0.2-0.1-0.3-0.3-0.4c-1-0.3-1.5-1.1-1.6-2.1
			c0-0.7,0-1.4,0-2c0-1.1,0.7-1.9,1.8-2.2c0,0,0.1,0,0.1,0C34,15.4,34.3,15.4,34.7,15.4z"/>
		<path class="st0" d="M18.8,26.2c-0.7-0.2-1.2-0.7-1.3-1.5c0-0.6,0-1.2,0-1.8c0.2-2.8,2-5.2,4.7-6c4-1.4,8.4,1.3,9,5.5
			c0.1,0.8,0.1,1.5,0.1,2.3c0,0.9-0.7,1.5-1.6,1.5c-0.4,0-0.7,0-1,0c-0.1,0.5-0.2,0.9-0.4,1.3c-0.2,0.6-0.6,1-1.1,1.4
			c-0.1,0.1-0.2,0.2-0.2,0.3c0,0.4,0,0.8,0,1.1c0,0.2,0.1,0.3,0.3,0.4c1,0.2,2,0.4,3,0.6c1.3,0.3,2.2,1,2.7,2.3
			c0.2,0.4,0.2,0.9,0.2,1.3c0,1.7,0,3.3,0,5c0,0.8-0.5,1.2-1.2,1.2c-5.1,0-10.2,0-15.3,0c-0.8,0-1.2-0.5-1.2-1.2c0-0.6,0-1.3,0-1.9
			c0-0.3,0.1-0.5,0.4-0.5c0.2,0,0.4,0.2,0.4,0.5c0,0.6,0,1.2,0,1.8c0,0.5,0.1,0.6,0.6,0.6c0.4,0,0.8,0,1.3,0c0-0.4,0-0.8,0-1.2
			c0-0.2,0-0.3,0-0.5c0-0.3,0.2-0.4,0.4-0.4c0.2,0,0.4,0.1,0.4,0.4c0,0.5,0,1,0,1.5c0,0,0,0.1,0,0.2c1.7,0,3.4,0,5.1,0
			c0-2,0-4.1,0-6.2c-0.5,0.1-0.9,0.1-1.4,0.2c-0.9,0.1-1.4-0.1-1.8-0.9c-0.3-0.5-0.6-1.1-0.9-1.6c-0.1-0.1-0.1-0.2-0.3-0.1
			c-0.6,0.2-1.2,0.3-1.7,0.5c-1,0.4-1.5,1.2-1.6,2.3c0,0.5,0,0.9,0,1.4c0,0.3-0.2,0.5-0.4,0.4c-0.2,0-0.3-0.1-0.3-0.3
			c0-0.9-0.1-1.7,0.2-2.6c0.5-1.2,1.3-1.9,2.5-2.2c1-0.3,2.1-0.4,3.2-0.7c0.2,0,0.3-0.1,0.3-0.4c0-0.4,0-0.8,0-1.2
			c0-0.1-0.1-0.2-0.1-0.3c-0.3-0.3-0.6-0.6-0.9-0.9c-0.1-0.1-0.1-0.1-0.2-0.1c-0.3,0-0.5,0-0.8,0c-0.6,0-1-0.5-1.1-1.1
			C18.8,26.7,18.8,26.4,18.8,26.2z M24.9,34.3c0,2.1,0,4.1,0,6.2c1.7,0,3.4,0,5.1,0c0-0.1,0-0.3,0-0.4c0-0.4,0-0.8,0-1.2
			c0-0.3,0.1-0.4,0.4-0.4c0.2,0,0.4,0.1,0.4,0.4c0,0.1,0,0.3,0,0.4c0,0.4,0,0.8,0,1.2c0.1,0,0.1,0,0.1,0c0.4,0,0.9,0,1.3,0
			c0.3,0,0.5-0.1,0.5-0.5c0-1.7,0-3.4,0-5.1c0-1.2-0.7-2.2-1.8-2.6c-0.5-0.2-1.1-0.3-1.6-0.5c-0.2,0-0.2,0-0.3,0.1
			c-0.3,0.5-0.6,1.1-0.9,1.6c-0.4,0.8-0.9,1-1.8,0.9C25.8,34.4,25.3,34.4,24.9,34.3z M22.7,28.7C22.7,28.8,22.7,28.8,22.7,28.7
			c0.9,0.6,1.8,0.8,2.8,0.4c0.2-0.1,0.4-0.2,0.6-0.3c1.1-0.7,1.8-1.6,1.7-3c0-0.9,0-1.8,0-2.8c0-0.7-0.2-1.2-0.7-1.6
			c-0.1-0.1-0.2-0.2-0.3-0.3c-0.4-0.3-0.7-0.3-1.1,0c-0.7,0.6-1.4,0.9-2.3,0.9c-0.5,0-1,0-1.5,0c-0.5,0-0.9,0.4-0.9,0.9
			c0,1.1,0,2.3,0,3.4c0,0.2,0,0.3,0.1,0.4c0.3-0.1,0.5-0.2,0.7-0.2c0.5,0,1,0,1.5,0c0.6,0,1,0.5,1,1c0,0.6-0.4,1.1-1,1.1
			C23.2,28.7,23,28.7,22.7,28.7z M29.2,22.5c-0.4-2.4-2.8-4.2-5.3-3.9c-2.1,0.2-4.3,2.3-4.3,3.9c0.1,0,0.2,0,0.3,0
			c0.2,0,0.3-0.1,0.4-0.3c0.3-0.7,0.8-1,1.5-1c0.4,0,0.8,0,1.2,0c0.8,0,1.6-0.2,2.2-0.8c0.5-0.5,1.3-0.5,1.9,0
			c0.3,0.2,0.5,0.5,0.8,0.7c0.2,0.3,0.4,0.6,0.5,1C28.7,22.6,28.7,22.6,29.2,22.5C29.2,22.6,29.2,22.5,29.2,22.5z M30.1,25.4
			c0.3-0.2,0.5-0.4,0.5-0.8c0-0.7,0-1.5-0.1-2.2c-0.4-2.6-2.5-4.6-5.1-5.1c-2.5-0.4-5.1,0.9-6.3,3.2c-0.7,1.3-0.8,2.7-0.7,4.1
			c0,0.3,0.2,0.5,0.5,0.7c0-0.2,0-0.4,0-0.6c0-0.7,0-1.5,0.1-2.2c0.4-2.2,1.6-3.7,3.7-4.5c2.1-0.7,4-0.3,5.7,1.1
			c1.2,1.1,1.8,2.5,1.8,4.2C30.1,24.1,30.1,24.7,30.1,25.4z M26.3,29.6c-1.2,0.7-2.4,0.7-3.7,0c-0.1,0.6,0.1,1.2-0.3,1.7
			c0.7,0.7,1.4,1.4,2.1,2.1c0.7-0.7,1.4-1.4,2.1-2.1C26.1,30.8,26.4,30.2,26.3,29.6z M28.2,31.7c-0.3,0-0.5-0.1-0.7-0.1
			c-0.1,0-0.2,0-0.3,0.1c-0.6,0.6-1.2,1.2-1.8,1.8c0,0-0.1,0.1-0.1,0.1c0.4,0.1,0.9,0.1,1.3,0.2c0.3,0,0.5-0.1,0.7-0.3
			C27.6,32.9,27.9,32.3,28.2,31.7z M20.7,31.7c0.3,0.6,0.7,1.2,1,1.8c0.1,0.2,0.3,0.3,0.6,0.3c0.4,0,0.9-0.1,1.3-0.2c0,0,0,0,0-0.1
			c-0.7-0.6-1.3-1.3-2-1.9c0,0-0.1-0.1-0.2-0.1C21.2,31.6,21,31.7,20.7,31.7z M20.3,25.5c0-0.7,0-1.4,0-2.1c-0.2,0-0.5,0-0.7,0
			c0,0.7,0,1.4,0,2.1C19.8,25.5,20,25.5,20.3,25.5z M29.3,23.3c-0.2,0-0.5,0-0.7,0c0,0.7,0,1.4,0,2.1c0.2,0,0.4,0,0.7,0
			C29.3,24.8,29.3,24.1,29.3,23.3z M22.6,27.3c-0.2,0-0.5,0-0.7,0c-0.2,0-0.3,0.1-0.3,0.3c0,0.2,0.1,0.3,0.3,0.3c0.5,0,1,0,1.5,0
			c0.2,0,0.3-0.1,0.3-0.3c0-0.2-0.1-0.3-0.3-0.3C23.1,27.3,22.8,27.3,22.6,27.3z M19.6,26.2c0,0.2,0,0.5,0,0.7
			c0,0.1,0.2,0.2,0.3,0.3c0.2,0,0.4,0,0.5,0c-0.1-0.3-0.1-0.7-0.2-1C20,26.2,19.8,26.2,19.6,26.2z"/>
		<path class="st0" d="M36.5,19.2c0.7,0,1.4,0,2.1,0c0.3,0,0.5,0.1,0.5,0.4c0,0.2-0.2,0.4-0.5,0.4c-1.4,0-2.9,0-4.3,0
			c-0.3,0-0.5-0.2-0.5-0.4c0-0.2,0.2-0.4,0.5-0.4C35.1,19.2,35.8,19.2,36.5,19.2z"/>
		<path class="st0" d="M36.5,18.2c-0.7,0-1.4,0-2.1,0c-0.1,0-0.2,0-0.3,0c-0.2,0-0.3-0.2-0.3-0.3c0-0.2,0.1-0.3,0.3-0.4
			c0.1,0,0.1,0,0.2,0c1.4,0,2.9,0,4.3,0c0,0,0.1,0,0.1,0c0.2,0,0.4,0.2,0.4,0.4c0,0.2-0.2,0.4-0.4,0.4c-0.4,0-0.7,0-1.1,0
			C37.3,18.2,36.9,18.2,36.5,18.2z"/>
		<path class="st0" d="M27.8,36c0.3,0,0.7,0,1,0c0.4,0,0.7,0.2,0.7,0.7c0,0.3,0,0.5,0,0.8c0,0.4-0.3,0.7-0.7,0.7c-0.7,0-1.4,0-2.1,0
			c-0.4,0-0.7-0.2-0.7-0.7c0-0.3,0-0.5,0-0.8c0-0.4,0.3-0.7,0.7-0.7c0,0,0,0,0.1,0C27.1,36,27.5,36,27.8,36z M26.9,36.8
			c0,0.2,0,0.4,0,0.6c0.6,0,1.2,0,1.9,0c0-0.2,0-0.4,0-0.6C28.1,36.8,27.5,36.8,26.9,36.8z"/>
	</g>
	<g id="Camada_x0020_1_2_">
		<path class="st1" d="M28.3,47.7c-5.3,0-10.2-2.2-13.7-5.7C11.2,38.5,9,33.7,9,28.3s2.2-10.2,5.7-13.7C18.2,11.2,23,9,28.3,9
			s10.2,2.2,13.7,5.7s5.7,8.3,5.7,13.7S45.5,38.5,42,42C38.5,45.5,33.7,47.7,28.3,47.7z M15.3,41.4c3.3,3.3,8,5.4,13.1,5.4
			c5.1,0,9.7-2.1,13.1-5.4c3.3-3.3,5.4-8,5.4-13.1s-2.1-9.7-5.4-13.1c-3.3-3.3-8-5.4-13.1-5.4c-5.1,0-9.7,2.1-13.1,5.4
			c-3.3,3.3-5.4,8-5.4,13.1S11.9,38.1,15.3,41.4z"/>
	</g>
</g>
</svg>
