<?xml version="1.0" encoding="utf-8"?>
<!-- Generator: Adobe Illustrator 26.0.1, SVG Export Plug-In . SVG Version: 6.00 Build 0)  -->
<svg version="1.1" id="Layer_1" xmlns="http://www.w3.org/2000/svg" xmlns:xlink="http://www.w3.org/1999/xlink" x="0px" y="0px"
	 viewBox="0 0 56.7 56.7" style="enable-background:new 0 0 56.7 56.7;" xml:space="preserve">
<style type="text/css">
	.st0{fill:#FFFFFF;}
	.st1{fill-rule:evenodd;clip-rule:evenodd;fill:#FFFFFF;}
</style>
<g>
	<g id="Camada_x0020_1">
		<path class="st0" d="M28.3,47.7c-5.3,0-10.2-2.2-13.7-5.7C11.2,38.5,9,33.7,9,28.3s2.2-10.2,5.7-13.7C18.2,11.2,23,9,28.3,9
			c5.3,0,10.2,2.2,13.7,5.7s5.7,8.3,5.7,13.7S45.5,38.5,42,42C38.5,45.5,33.7,47.7,28.3,47.7z M15.3,41.4c3.3,3.3,8,5.4,13.1,5.4
			c5.1,0,9.7-2.1,13.1-5.4c3.3-3.3,5.4-8,5.4-13.1s-2.1-9.7-5.4-13.1c-3.3-3.3-8-5.4-13.1-5.4c-5.1,0-9.7,2.1-13.1,5.4
			s-5.4,8-5.4,13.1S11.9,38.1,15.3,41.4z"/>
	</g>
	<g>
		<path class="st1" d="M28.3,25.9c-0.8,0-1.6,0-2.4,0c-0.9,0-1.4-0.5-1.4-1.5c0-0.8,0-1.7,0-2.5c0.1-1.5,1.3-2.3,2.7-1.9
			c0.8,0.2,1.6,0.2,2.4,0c1.4-0.4,2.6,0.4,2.7,1.8c0.1,0.8,0,1.7,0,2.5c0,1-0.6,1.5-1.5,1.5C29.9,25.9,29.1,25.9,28.3,25.9
			C28.3,25.9,28.3,25.9,28.3,25.9z"/>
		<path class="st1" d="M19.3,40.2c-0.8,0-1.5,0-2.3,0c-1,0-1.6-0.6-1.7-1.6c0-0.7,0-1.4,0-2.1c0.1-1.7,1.3-2.6,3-2.2
			c0.7,0.2,1.4,0.2,2.1,0c1.5-0.4,2.6,0.4,2.7,1.9c0.1,0.8,0,1.6,0,2.4c0,1-0.6,1.5-1.6,1.6C20.8,40.2,20.1,40.2,19.3,40.2z"/>
		<path class="st1" d="M37.4,40.2c-0.7,0-1.5,0-2.2,0c-1.1,0-1.6-0.6-1.7-1.6c0-0.8,0-1.5,0-2.3c0.1-1.6,1.2-2.4,2.8-2
			c0.8,0.2,1.5,0.2,2.3,0c1.4-0.4,2.5,0.3,2.8,1.8c0,0.1,0,0.2,0,0.3C41.4,39.8,41.7,40.4,37.4,40.2z"/>
		<path class="st1" d="M23.1,19.3c-2.5,1.8-3.9,4.1-4.2,7.1c0,0.3,0,0.5-0.1,0.8c0,0.2-0.1,0.3-0.4,0.4c-0.3,0-0.4-0.2-0.4-0.4
			c0-0.3,0-0.6,0-0.9c0.4-3.1,1.8-5.6,4.4-7.5c0.4-0.3,1.1-0.6,0.2-1.1c-0.2-0.1-0.2-0.3-0.1-0.5c0.1-0.2,0.3-0.3,0.6-0.2
			c0.5,0.2,1.1,0.5,1.6,0.7c0.4,0.2,0.3,0.6,0.1,1c-0.1,0.3-0.3,0.6-0.4,0.9c-0.2,0.3-0.2,0.7-0.6,0.7C23,20.2,23.4,19.6,23.1,19.3z
			"/>
		<path class="st1" d="M39.9,25.9c-0.2,0.6-0.8,1-1.3,1.4c-0.4,0.3-0.7,0.1-1-0.2c-0.3-0.3-0.5-0.5-0.8-0.8
			c-0.3-0.4-0.4-0.8,0.3-0.8c0.8,0.1,0.5-0.4,0.4-0.7c-0.7-2.6-2.2-4.6-4.5-5.9c-0.3-0.2-0.6-0.3-0.9-0.5c-0.2-0.1-0.3-0.3-0.2-0.5
			c0.1-0.2,0.4-0.3,0.6-0.2c0.4,0.2,0.9,0.4,1.3,0.6c2.4,1.5,4,3.7,4.7,6.5c0.1,0.5,0,1.4,1,0.7C39.7,25.4,39.9,25.6,39.9,25.9z"/>
		<path class="st1" d="M30.9,16.9c0,1.4-1.2,2.6-2.6,2.5c-1.4,0-2.5-1.2-2.5-2.6c0-1.4,1.3-2.6,2.6-2.6
			C29.7,14.2,30.9,15.5,30.9,16.9z"/>
		<path class="st1" d="M37.4,33.6c-1.4,0-2.6-1.2-2.6-2.6c0-1.4,1.2-2.6,2.6-2.6c1.4,0,2.6,1.2,2.6,2.6C40,32.5,38.8,33.6,37.4,33.6
			z"/>
		<path class="st1" d="M19.3,33.6c-1.4,0-2.6-1.2-2.6-2.6c0-1.4,1.2-2.6,2.6-2.6c1.4,0,2.6,1.2,2.6,2.6
			C21.9,32.5,20.7,33.6,19.3,33.6z"/>
		<path class="st1" d="M25.7,37.2c-0.3,0.4,0.3,0.9-0.3,1.1c-0.5,0.1-0.6-0.4-0.8-0.7c-0.2-0.5-0.8-0.9-0.4-1.5
			c0.4-0.5,1.2-0.5,1.8-0.7c0.3-0.1,0.6,0.2,0.5,0.4c-0.4,0.9,0.3,0.7,0.7,0.7c1.5,0.3,3,0,4.4-0.5c0.3-0.1,0.8-0.4,0.9,0.1
			c0.2,0.5-0.3,0.6-0.7,0.7C29.8,37.6,27.8,37.8,25.7,37.2z"/>
		<path class="st1" d="M28.3,25c-0.2,0-0.4,0-0.5,0c-0.8-0.1-1.8,0.4-2.2-0.4c-0.5-0.9-0.3-2.1-0.1-3.1c0.1-0.6,0.7-1,1.4-0.7
			c1,0.3,2,0.3,3,0c0.8-0.3,1.2,0.2,1.5,0.9c0,0.1,0,0.2,0,0.3C31.3,25.7,31.8,25,28.3,25z"/>
		<path class="st1" d="M19.3,39.3c-0.1,0-0.3,0-0.4,0c-2.7,0-2.9-0.2-2.6-3c0.1-1,0.7-1.4,1.7-1.1c0.9,0.2,1.8,0.3,2.7,0
			c1-0.3,1.7,0.2,1.7,1.2C22.3,39.9,22.8,39.2,19.3,39.3z"/>
		<path class="st1" d="M37.4,39.3c-0.7,0-1.4,0-2.1,0c-0.6,0-0.9-0.3-0.9-0.9c0-0.7,0-1.4,0-2.1c0.1-1,0.7-1.4,1.7-1.1
			c0.9,0.2,1.8,0.3,2.7,0c1-0.3,1.6,0.1,1.7,1.2C40.7,39.2,40.7,39.3,37.4,39.3z"/>
		<path class="st1" d="M30,16.9c0,0.9-0.7,1.7-1.7,1.7c-1,0-1.7-0.8-1.7-1.7c0-0.9,0.7-1.7,1.7-1.7C29.3,15.1,30,15.9,30,16.9z"/>
		<path class="st1" d="M39.1,31c0,0.9-0.8,1.7-1.8,1.7c-0.9,0-1.7-0.8-1.7-1.7c0-0.9,0.8-1.7,1.7-1.7C38.3,29.4,39.1,30.2,39.1,31z"
			/>
		<path class="st1" d="M17.6,31.1c0-0.9,0.8-1.7,1.7-1.7c1,0,1.8,0.8,1.8,1.7c0,0.9-0.7,1.7-1.6,1.7C18.4,32.8,17.6,32,17.6,31.1z"
			/>
	</g>
</g>
</svg>
