<?xml version="1.0" encoding="utf-8"?>
<!-- Generator: Adobe Illustrator 26.0.1, SVG Export Plug-In . SVG Version: 6.00 Build 0)  -->
<svg version="1.1" id="Layer_1" xmlns="http://www.w3.org/2000/svg" xmlns:xlink="http://www.w3.org/1999/xlink" x="0px" y="0px"
	 viewBox="0 0 56.7 56.7" style="enable-background:new 0 0 56.7 56.7;" xml:space="preserve">
<style type="text/css">
	.st0{fill:#FFFFFF;}
</style>
<g id="Camada_x0020_1">
	<path class="st0" d="M30.1,47.7c-10.7,0-19.3-8.7-19.3-19.3S19.4,9,30.1,9c2,0,4,0.3,5.9,0.9c-0.1,0.2-0.3,0.5-0.3,0.8
		c-1.8-0.6-3.6-0.8-5.5-0.8c-10.2,0-18.5,8.3-18.5,18.5S20,46.9,30.2,46.9c6.3,0,11.8-3.1,15.2-7.9c0.2,0.2,0.4,0.4,0.7,0.5
		C42.5,44.4,36.7,47.7,30.1,47.7z"/>
	<path class="st0" d="M33.5,17.9c4.4,1.5,7.3,5.6,7.3,10.2c0,2.3-0.7,4.4-1.9,6.2c-0.2,0.3-0.5,0.2-0.7,0.1
		c-0.1-0.1-0.3-0.3-0.1-0.5c1.2-1.6,1.9-3.6,1.9-5.8c0-4.2-2.7-7.9-6.6-9.4c-0.4-0.2-0.3-0.4-0.3-0.5C33.1,18.1,33.2,17.8,33.5,17.9
		L33.5,17.9z"/>
	<path class="st0" d="M33.6,17.6c2.3,0.8,4.2,2.2,5.5,4.1c1.3,1.8,2.1,4.1,2.1,6.5c0,1.2-0.2,2.3-0.5,3.3c-0.3,1.1-0.9,2.1-1.5,3
		l0,0c-0.1,0.2-0.3,0.3-0.5,0.3c-0.2,0.1-0.5,0-0.6-0.1H38c-0.1-0.1-0.2-0.2-0.3-0.3c-0.1-0.2-0.1-0.3,0-0.5v-0.1l0,0
		c0.6-0.8,1-1.7,1.4-2.7c0.3-0.9,0.5-1.9,0.5-3c0-2-0.6-3.9-1.7-5.5c-1.1-1.6-2.7-2.8-4.6-3.5l0,0c-0.6-0.3-0.6-0.7-0.5-0.9v-0.1
		c0-0.1,0.1-0.3,0.2-0.4C33.1,17.6,33.3,17.5,33.6,17.6L33.6,17.6z"/>
	<path class="st0" d="M31.6,21.5c3,0.8,5.1,3.5,5.1,6.6c0,1.6-0.5,3-1.4,4.2c-0.1,0.2-0.5,0.2-0.6,0.1c-0.1-0.1-0.3-0.3-0.2-0.5
		c0.8-1,1.3-2.4,1.3-3.8c0-2.7-1.7-5-4.3-5.8c-0.4-0.1-0.4-0.4-0.4-0.5C31.1,21.7,31.3,21.4,31.6,21.5z"/>
	<path class="st0" d="M31.7,21.1c1.6,0.4,2.9,1.4,3.9,2.6c0.9,1.2,1.5,2.8,1.5,4.4c0,0.8-0.1,1.6-0.4,2.3c-0.3,0.8-0.6,1.5-1.1,2.1
		c-0.1,0.2-0.3,0.3-0.5,0.3s-0.5,0-0.6-0.1c0,0-0.1,0-0.1-0.1c-0.1-0.1-0.2-0.2-0.3-0.4s-0.1-0.4,0-0.6l0.1-0.1l0,0
		c0.4-0.5,0.7-1,0.9-1.7c0.2-0.6,0.3-1.2,0.3-1.9c0-1.2-0.4-2.4-1.1-3.4c-0.7-0.9-1.7-1.7-2.9-2l0,0c-0.2-0.1-0.4-0.2-0.5-0.3
		c-0.2-0.2-0.2-0.5-0.2-0.6v-0.1c0-0.1,0.1-0.3,0.3-0.4c0.2-0.1,0.4-0.2,0.6-0.2L31.7,21.1z"/>
	<path class="st0" d="M30.3,27.3c0.8,0,1.5,0.6,1.5,1.4s-0.7,1.4-1.5,1.4s-1.5-0.6-1.5-1.4C28.8,28,29.5,27.3,30.3,27.3z"/>
	<path class="st0" d="M35.2,14.4c5.9,2.1,9.9,7.6,9.9,13.9c0,2.9-0.8,5.6-2.3,7.8c-0.2,0.3-0.5,0.2-0.7,0.1c-0.1,0-0.2-0.2-0.1-0.4
		c1.4-2.2,2.2-4.8,2.2-7.5c0-5.9-3.8-11.1-9.3-13.1c-0.2-0.1-0.4-0.3-0.3-0.6C34.7,14.4,35,14.3,35.2,14.4z"/>
	<path class="st0" d="M35.2,14.1c3,1.1,5.6,3,7.3,5.5c1.8,2.5,2.8,5.5,2.8,8.6c0,1.4-0.2,2.8-0.6,4.2c-0.4,1.4-1,2.7-1.7,3.8l0,0
		c-0.2,0.2-0.4,0.3-0.6,0.3c-0.2,0-0.3-0.1-0.4-0.1l0,0c-0.1-0.1-0.2-0.2-0.3-0.4c0-0.1,0-0.3,0-0.5v-0.1c0.7-1.1,1.3-2.3,1.6-3.5
		c0.4-1.2,0.6-2.5,0.6-3.8c0-2.9-0.9-5.6-2.5-7.8c-1.6-2.3-3.9-4-6.6-5l0,0c-0.2-0.1-0.3-0.2-0.4-0.4c-0.1-0.2-0.1-0.3,0-0.5v-0.1
		c0.1-0.2,0.2-0.3,0.3-0.4C34.9,14.1,35.1,14,35.2,14.1L35.2,14.1z"/>
</g>
</svg>
