<?xml version="1.0" encoding="utf-8"?>
<!-- Generator: Adobe Illustrator 26.0.1, SVG Export Plug-In . SVG Version: 6.00 Build 0)  -->
<svg version="1.1" id="Layer_1" xmlns="http://www.w3.org/2000/svg" xmlns:xlink="http://www.w3.org/1999/xlink" x="0px" y="0px"
	 viewBox="0 0 56.7 56.7" style="enable-background:new 0 0 56.7 56.7;" xml:space="preserve">
<style type="text/css">
	.st0{fill:#FFFFFF;}
</style>
<g>
	<path class="st0" d="M28.3,47.7c-5.3,0-10.2-2.2-13.7-5.7C11.2,38.5,9,33.7,9,28.3s2.2-10.2,5.7-13.7C18.2,11.2,23,9,28.3,9
		c5.3,0,10.2,2.2,13.7,5.7s5.7,8.3,5.7,13.7S45.5,38.5,42,42C38.5,45.5,33.7,47.7,28.3,47.7z M15.3,41.4c3.3,3.3,8,5.4,13.1,5.4
		c5.1,0,9.7-2.1,13.1-5.4c3.3-3.3,5.4-8,5.4-13.1s-2.1-9.7-5.4-13.1c-3.3-3.3-8-5.4-13.1-5.4c-5.1,0-9.7,2.1-13.1,5.4
		s-5.4,8-5.4,13.1S11.9,38.1,15.3,41.4z"/>
	<g>
		<path class="st0" d="M17.3,36.4c0,1.1,0.1,1.6,0.5,2.6c0.3,0.9,0.8,1.2,1.2,1.8c-1.1-0.6-2.6-1.7-2.4-3.2l0.4-0.9
			C17.3,36.3,17.1,36.6,17.3,36.4z M22.3,40.8c1.1-1.4,1.6-2.1,1.7-4.4c0.7,0.6,1.1,1.6,0.4,2.7C24.1,39.7,23,40.6,22.3,40.8z
			 M20.7,41.6c-2.2-1.1-3.7-4.5-2.8-5.8c0.5-0.7,2.4-0.4,4.1-0.4c0.6,0,0.9,0,1.2,0.4c1.1,1.1-0.3,3.5-0.9,4.4
			C22.1,40.5,21.2,41.3,20.7,41.6z M18.7,34.4c0.5,0.2,0.5,0.3,0.8,0.6l-0.8,0L18.7,34.4z M21.8,35c0.4-0.4,0.6-0.3,0.8-0.7l0,0.6
			L21.8,35z M23.1,34.1l0.6-0.4c0.8-0.2,1.5,0.1,1.9,0.8C24.7,35.1,23.4,35,23.1,34.1z M25.1,33.4c-0.8-0.2-0.8-0.3-1.7-0.1
			c0.2-0.9,1.3-0.7,2-0.5L25.1,33.4z M22.2,28.6l1.4,1.5c1.4,1.3-0.1,1.7-0.3,2.2c-0.4,1-0.5,1.5-1.2,2c-1.7,1.2-3.3,0-3.8-1.6
			c-0.3-1-0.1-0.4-0.7-0.9c-0.3-0.2-0.5-1-0.1-1.4c0.2-0.1,2.3-0.3,2.8-0.5C21.4,29.5,21.5,29.2,22.2,28.6z M23.2,27.6
			c0.3-0.2,0.2-0.2,0.5-0.4c0.5,0.8,0.7,1.6,0.7,2.8c-0.9-0.4-1.5-0.9-1.8-1.9L23.2,27.6z M17,29.9c0-1.3,0.3-1.7,0.7-2.7
			c1,0.7,1.6,1.5,4.1,1.1C21.4,29.5,18.8,29.9,17,29.9z M20.2,24.2c1-0.4,1.3,0.2,1.7,0.6c0.1,0.1,2.6,1,1,2.4
			c-1.4,1.3-4.7,0.8-5-0.8c-0.1-0.5,0.7-1.2,0.9-1.3c0.5-0.2,0.1,0.2,0.6-0.3C19.9,24.3,19.6,24.4,20.2,24.2z M13.6,39.6
			c0.2-0.7,0-2.7,3-3.2c-0.3,0.6-0.6,1.3-0.4,2.2c0.5,1.8,3.8,3.4,4.4,3.4c0.6,0,4-1.7,4.4-3.4c0.2-1-0.2-1.5-0.4-2.2
			c0.3,0.1,0.8,0.3,1.3,0.5c0-0.2,0.1-0.3,0.1-0.4c-1.2-0.5-2.6-0.9-2.9-1.7c1.3,0.6,1.9,0.6,3-0.2c-0.2-0.6-0.3-0.7-0.7-1
			c0.2-0.4,0.4-0.5,0.4-1.1c-0.9-0.3-1.1-0.4-2.1-0.3c0.9-0.7,0.6-0.6,0.8-1.6l0.1-0.3c0.3-1.3,0.1-2.2-0.5-3.4
			c-0.5-0.8,0.2-1.5-1.6-2.6c-0.6-0.3-0.9-0.9-2-0.8c-0.7,0-0.9,0.4-1.8,1c-1.6,1-0.8,1.5-1.4,2.5c-0.6,1-0.8,2-0.4,3.1
			c0.2,0.7-0.2,0.8,0.2,1.5c0,0.1,1.5,1.3,1.3,3c-0.2,0.9-2.2,1.4-3.6,2.1c-1.2,0.3-1.3,2.2-1.5,2.8C13.3,39.6,13.5,39.6,13.6,39.6z
			"/>
		<path class="st0" d="M31,30c0.5-0.1,2.6,1,5.2,0.4c0.7-0.2,1-0.5,1.6-0.4c0.4,0.5,0.7,1.3-0.1,1.8c-0.6,0.4-0.2,0.1-0.6,1.2
			c-0.8,2.1-3.8,3.3-5.2,0.2c-0.2-0.4-0.2-0.5-0.3-0.9c-0.3-0.9,0-0.1-0.6-0.6C30.6,31.4,30.4,30.4,31,30z M31,29.2
			c3.2,0.1,3.6,0.1,6.8,0l-1.5,0.7C34.7,30.3,32,30.3,31,29.2z M29.4,26.6c0.1-0.4,0-0.2,0.5-0.5c0.2-0.1,0.4-0.2,0.6-0.3
			c1-0.5,2.9-1.5,4-1.5c0.7,0,4.7,1.6,5,2.4c-0.8,0.4-1.2-0.1-1.1,2c-2.3,0.5-5.5,0.2-7.8,0C30.6,26.6,30.2,27.2,29.4,26.6z
			 M35.1,23.9h-1.3c-0.5,0.3-1.8,0.7-2.5,1.1c-0.8,0.4-1.6,0.9-2.4,1.3c0.1,0.9,0.4,0.9,1,1.1c0.4,2.2-0.5,1.1,0.7,2.3
			c-0.4,0.6-0.8,1.6-0.1,2.3c0.5,0.5,0.5,0,0.6,0.8c0.1,0.4,0,1.1,0,1.5l-3.8,1.7c-0.6,0.3-0.9,0.2-1.1,0.8
			c-0.2,0.8-1.3,5.7-1.1,6.2c0.4-0.2,0.3-0.2,0.5-1.3c1.1-5.8,0.2-4.6,3.7-6.1c0.5-0.2,0.9-0.4,1.4-0.6c1.1-0.4,0.5-0.3,0.9-1
			c1.5,2.3,3.9,2,5.3-0.1c0.4,1.1-0.8,0.3,2.1,1.7c3.5,1.6,2.7,0.6,3.4,4.2c0.2-0.1,0.3-0.1,0.4-0.1l-0.5-2.6
			c-0.2-0.7-1.1-0.9-2.3-1.4c-0.8-0.3-1.9-0.9-2.6-1.1c-0.1-2.7,0.2-1.7,0.7-2.4c0.7-0.9,0-1.8-0.2-2.3l0.6-0.4
			c-0.1-3.3,0.7-0.9,1.1-2.8C39.3,25.5,36.1,24.5,35.1,23.9z"/>
		<path class="st0" d="M33.8,43c0.4-0.1,0.3,0,0.3-0.6l0-4.7c-0.1-0.9-0.6-0.3-0.4-1.6l1.4-0.1c0.1,1.2-0.2,0.7-0.4,1.4l0,4.8
			c0,0.6-0.1,0.5,0.2,0.8c0.2-0.2,0.1,0,0.2-0.3c0.1-0.2,0-0.3,0.1-0.5c0-1.1-0.2-4.3,0.2-5c0.4-0.7,0.3-0.9,0.1-1.6l-2,0
			c-0.6,2.2,0.3,0,0.3,3.5C33.7,39.9,33.5,42.5,33.8,43z"/>
		<path class="st0" d="M33.8,27.7c-0.1-0.7,0.2-1.4,0.9-1c0.5,0.3,0.3,0.8,0,1.2C34.1,28,34.2,28,33.8,27.7z M33.3,27.3
			c-0.5-0.2-0.4-0.1-0.7-0.6C33.4,26.9,33.4,26.7,33.3,27.3z M35.5,27.3c0-0.6-0.1-0.5,0.7-0.6C36,27.1,36,27.2,35.5,27.3z
			 M33.7,28.1c0.4,0.3,0.8,0.5,1.3,0.1c1-0.5,1.7-1,1.6-1.9c-0.6-0.2-0.8,0.2-1.4,0c-0.8-0.2-0.4-0.4-1.4-0.1
			c-0.6,0.2-0.9-0.2-1.3-0.1c-0.6,0.1-0.2,0.8,0,1.1C32.8,27.6,33.1,27.7,33.7,28.1z"/>
		<path class="st0" d="M27.5,37c0.4,0.1,1.8-0.6,2.4-0.9c0.5-0.2,0.6,0,0.8-0.6c-0.3-0.1-0.5,0-0.8,0.2l-2.1,0.9
			C27.4,36.8,27.5,36.6,27.5,37L27.5,37z"/>
		<path class="st0" d="M38.3,35.5c0.1,0.3-0.1,0.1,0.2,0.3c0,0,2.6,1.3,2.9,1.1c-0.1-0.5-0.4-0.4-1.4-0.9
			C39.5,35.9,38.6,35.4,38.3,35.5z"/>
	</g>
</g>
</svg>
