<?xml version="1.0" encoding="utf-8"?>
<!-- Generator: Adobe Illustrator 26.0.1, SVG Export Plug-In . SVG Version: 6.00 Build 0)  -->
<svg version="1.1" id="Layer_1" xmlns="http://www.w3.org/2000/svg" xmlns:xlink="http://www.w3.org/1999/xlink" x="0px" y="0px"
	 viewBox="0 0 56.7 56.7" style="enable-background:new 0 0 56.7 56.7;" xml:space="preserve">
<style type="text/css">
	.st0{fill:#FFFFFF;}
</style>
<g id="Camada_x0020_1">
	<g id="_2574636476720">
		<path class="st0" d="M22.9,23.1h9.3c0,1.2-0.7,2.5-1.4,3.1c-1.8,1.7-4.8,1.7-6.4,0C23.7,25.6,22.8,24.5,22.9,23.1z M22.4,18.1
			c0.7,0.1,3.2,1.6,5.1,1.6c1.2,0,1.8-0.3,2.7-0.6c0.3-0.1,2.2-0.9,2.4-0.9v4l-10.3,0L22.4,18.1z M19.1,20.1
			c0.6-0.3,0.9,0.6,0.4,0.8C18.9,21.2,18.6,20.3,19.1,20.1z M20.1,16.1c0.2-0.2,4.8-1.9,5.4-2.2c1.7-0.7,2.5-0.6,4.1,0.1l4.5,1.8
			c0.2,0.1,0.3,0.1,0.5,0.2c0.5,0.2,0.3,0.1,0.4,0.2c-1.2,0.5-2.4,0.9-3.6,1.4c-1.1,0.5-2.6,1.2-3.9,1.2c-0.9,0-1.4-0.2-2.1-0.5
			l-4.5-1.7C20.7,16.4,20.2,16.3,20.1,16.1z M18.8,16.7l0,2.5c-1.5,0.6-1.1,2.7,0.4,2.7c1.5,0,2-2.1,0.5-2.7l0-2.1l1.6,0.6
			c0,1,0,1.9,0,2.9c0,0.5,0,1,0,1.5c0,0.6,0.2,0.6,0.5,0.9c0.1,1.8,0.7,3,1.7,4c2.2,2.2,5.6,2.2,7.9,0c1-0.9,1.6-2.2,1.7-4
			c0.3-0.3,0.5-0.4,0.5-0.9c0-1.4,0-3,0-4.4c0.5-0.2,2.3-0.8,2.7-1.1c1-0.8-1.1-1.4-1.7-1.6l-4.1-1.7c-0.4-0.2-0.9-0.4-1.4-0.5
			c-1.1-0.4-2.3-0.3-3.3,0L23,13.9c-0.9,0.4-1.8,0.7-2.7,1.1c-0.5,0.2-1.7,0.6-1.8,1.1C18.4,16.5,18.7,16.5,18.8,16.7z"/>
		<path class="st0" d="M28,37c0.1-0.3,0.5-0.7,0.7-1c0.6-0.7,5.1-6.3,5.2-6.4c0.5,0.4,5.7,4.3,5.7,4.4c-0.2,0.3-0.5,0.6-0.7,0.9
			c-0.3,0.3-0.5,0.6-0.7,0.9c-0.5,0.6-0.9,1.2-1.5,1.8c-0.3,0.4-2.9,3.5-3,3.6L28,37z M36.2,30.1c0-0.2,0.5-0.7,0.6-0.7
			c0.6,0.4,2.2,1.7,2.9,2.2c0.4,0.3,2.8,2.1,2.9,2.2c-0.2,0.3-3.9,4.8-4.5,5.5c-0.3,0.3-1.3,1.7-1.5,1.8c-0.2-0.1-0.7-0.5-0.8-0.6
			c0.1-0.3,4.4-5.4,4.5-5.6c0.7-0.8,0.9-0.9,0.2-1.5l-2.9-2.2C37.1,30.8,36.6,30.5,36.2,30.1z M35.1,41.2c0.3,0.1,1,0.7,1.2,0.9
			c0.5,0.4,0.8-0.1,1.2-0.6l5.6-6.8c0.4-0.5,0.9-0.9,0.4-1.3c-0.6-0.5-2.8-2.2-3.5-2.7c-0.8-0.6-1.5-1.2-2.3-1.8
			c-0.2-0.2-0.4-0.3-0.6-0.4c-0.7-0.6-1,0.4-1.7,1.1c-0.2-0.1-1-0.7-1.2-0.9c-0.5-0.4-0.9,0.3-1.2,0.6l-5.6,6.8
			c-1,1.2-0.9,1,0.7,2.2l4.7,3.6c0.5,0.4,0.9,0.8,1.3,0.5L35.1,41.2z"/>
		<path class="st0" d="M20.5,41.5c-0.3,0.1-1.1,0-1.4,0c-0.4,0-1,0.1-1.3-0.1c-0.2-0.2-0.1-1-0.1-1.3c0-1.5-0.1-5.9,0.2-7
			c0.4-1.5,1.3-2.6,2.4-3.3c0.6-0.4,1.2-0.7,2.1-0.8c0.4-0.1,0.9-0.1,1.3-0.1c0.2,0,0.5,0,0.7,0c0.2,0,0.5,0,0.6,0
			c-0.2-0.1-0.5-0.3-0.8-0.4C24,28.4,23.5,28,23.4,28c-0.6-0.1-1.7,0.1-2.1,0.3c-1.2,0.4-2.3,1.1-2.9,1.9c-2,2.3-1.6,4.7-1.6,8.2
			c0,0.8,0,1.6,0,2.4c0,0.8,0.2,1.3,0.9,1.6c0.5,0.2,3.9,0.1,4.8,0.1c1.1,0,8.9,0.1,9.7,0c-0.2-0.2-0.5-0.4-0.8-0.6
			c-0.5-0.4-0.4-0.3-1.2-0.3c-1,0-8.4,0.1-8.7,0c0-0.6,0-1.2,0-1.9c0-0.5,0.2-1.4-0.5-1.4c-0.6,0-0.4,0.9-0.4,1.4
			C20.5,40.3,20.5,40.9,20.5,41.5z"/>
		<path class="st0" d="M30.1,28.9l1.5,0c0.5,0,0.4,0.1,0.7-0.3c0.1-0.1,0.4-0.4,0.4-0.6c-1.6-0.1-0.9-0.1-2,0.5
			C30.5,28.7,30.2,28.8,30.1,28.9L30.1,28.9z"/>
		<path class="st0" d="M27.3,30.4c-0.5,0.3-0.1,1.1,0.4,0.8C28.2,31,27.9,30.1,27.3,30.4z"/>
		<path class="st0" d="M27.3,32.3c-0.6,0.4,0,1.1,0.5,0.8C28.2,32.8,27.8,31.9,27.3,32.3z"/>
	</g>
	<path class="st0" d="M28.3,47.7c-5.3,0-10.2-2.2-13.7-5.7C11.2,38.5,9,33.7,9,28.3s2.2-10.2,5.7-13.7C18.2,11.2,23,9,28.3,9
		c5.3,0,10.2,2.2,13.7,5.7s5.7,8.3,5.7,13.7S45.5,38.5,42,42C38.5,45.5,33.7,47.7,28.3,47.7z M15.3,41.4c3.3,3.3,8,5.4,13.1,5.4
		c5.1,0,9.7-2.1,13.1-5.4c3.3-3.3,5.4-8,5.4-13.1s-2.1-9.7-5.4-13.1c-3.3-3.3-8-5.4-13.1-5.4c-5.1,0-9.7,2.1-13.1,5.4
		s-5.4,8-5.4,13.1S11.9,38.1,15.3,41.4z"/>
</g>
</svg>
