<?xml version="1.0" encoding="utf-8"?>
<!-- Generator: Adobe Illustrator 26.0.1, SVG Export Plug-In . SVG Version: 6.00 Build 0)  -->
<svg version="1.1" id="Layer_1" xmlns="http://www.w3.org/2000/svg" xmlns:xlink="http://www.w3.org/1999/xlink" x="0px" y="0px"
	 viewBox="0 0 56.7 56.7" style="enable-background:new 0 0 56.7 56.7;" xml:space="preserve">
<style type="text/css">
	.st0{fill:#FFFFFF;}
</style>
<g id="Camada_x0020_1">
	<path class="st0" d="M28.3,47.7c-5.3,0-10.2-2.2-13.7-5.7C11.2,38.5,9,33.7,9,28.3s2.2-10.2,5.7-13.7C18.2,11.2,23,9,28.3,9
		c5.3,0,10.2,2.2,13.7,5.7s5.7,8.3,5.7,13.7S45.5,38.5,42,42C38.5,45.5,33.7,47.7,28.3,47.7z M15.3,41.4c3.3,3.3,8,5.4,13.1,5.4
		c5.1,0,9.7-2.1,13.1-5.4c3.3-3.3,5.4-8,5.4-13.1s-2.1-9.7-5.4-13.1c-3.3-3.3-8-5.4-13.1-5.4c-5.1,0-9.7,2.1-13.1,5.4
		s-5.4,8-5.4,13.1S11.9,38.1,15.3,41.4z"/>
	<path class="st0" d="M26.8,23.7c0.4-0.5,1-1.3,1.6-1.6c0.8,0.3,1.2,1.3,2,1.4c0.8-0.4,0.9-1.2,1.7-1.5c0.5-0.1,3.5,2.7,4.2,3.3
		c1,0.9,1.7,1.1,0.5,2.3c0,0.6,0.7,2.2,1,2.8c0.4,0.9,0.7,1.8,1,2.7c0.5,1.3,2.2,4.7,2.1,5.5c-0.4,0.3-1.2,0.6-1.8,0.8
		c-1.6,0.6-0.8,0.3-1.8-0.3c-0.4-0.1-4.6,2.1-5.4,2.2c-1.8,0.1-1.9-1.8-2.1-3c0-0.2-0.1-0.2-0.1-0.4C29.3,36,27.1,24.8,26.8,23.7z
		 M26.1,23.1c-0.7-0.2-1.6-1.3-2.3-1.7l-6-1.8c-0.4-0.1-1.1-0.2-1.3-0.7c-0.1-0.3,0.2-1.4,0.4-1.6c0.3-0.6,1-0.3,1.5-0.1
		c1.7,0.5,6.1,1.5,7.1,2.5c0.6,0.5,1.6,1.2,2.1,1.7C27.4,21.9,26.4,22.8,26.1,23.1z M23.6,22.4c0.4,0.4,2.2,1.7,2.4,2
		c0.3,0.4,2.6,12.8,2.9,14.7c0.2,1.3,0.5,2.2,1.5,2.8c1.3,0.8,2.3,0.1,3.5-0.4l3.1-1.3c0.8,0.5,1.2,0.6,2.1,0.1
		c3.2-1.3,3.1-1.1,1.7-4.6c-0.3-0.7-0.5-1.3-0.8-2c-0.3-0.9-2.4-5.5-2.4-5.8c0.3-0.5,0.7-0.7,0.6-1.6c-0.1-0.7-0.4-0.8-0.8-1.2
		L33,21.3c-1.4-0.8-2.1,0.6-2.7,1.1l-3.7-3c-0.4-0.3-0.8-0.8-1.2-1l-6.7-2c-1.6-0.5-2.3-0.4-2.8,1.2c-0.4,1.5-0.3,2.3,1.1,2.7
		C18,20.6,23.1,22,23.6,22.4z"/>
	<path class="st0" d="M30.8,31.9c0.4,0.1,1.1,0.7,1.3,1l1.1,3.1c0,0,0.1,0.2,0.1,0.3c0.2,0.6,0.5,1.4,0.6,1.9c0,0-0.1,0-0.1,0.1
		c0,0-0.1,0-0.1,0.1L31.9,39C31.8,37.1,30.9,33.4,30.8,31.9L30.8,31.9z M35.8,37.3c-0.3,0.2-0.7,0.3-1,0.4c-0.3-0.4-0.7-2-1-2.9
		c-1.5-4.3-1.9-2.9-2.4-3.9c2.2-0.7,2.4,0.3,3.1,2.5L35.8,37.3z M36.8,37.9c0.1-0.5-1.6-5.2-2-6.3c-0.4-1.1-0.9-1.9-2.5-1.8
		c-3.3,0.4-2.3,2.9-1.8,5.8l0.6,3.6c0.6,1.6,3.2-0.4,5-1C36.5,38,36.4,38.2,36.8,37.9z"/>
	<path class="st0" d="M18.6,24.1c0.7,0.3,1.7,2.4,2,3.2c0.6,1.7-0.4,3-1.9,3c-1.6,0-2.7-1.4-2.1-2.9C17,26.2,18,24.6,18.6,24.1z
		 M21.6,28.8c0.4-1.8-1.9-5.6-2.9-5.7c-0.4,0-0.8,0.3-1.1,0.7C11.8,31.2,20.7,33.3,21.6,28.8z"/>
	<path class="st0" d="M28.6,26.6c-0.2,0.5,0.3,3.8,1.1,3.3c0.5-0.3,0-1.5-0.1-1.9C29.4,27.1,29.5,26.5,28.6,26.6z"/>
	<path class="st0" d="M28,24.4c-0.4,0.3-0.3,0.6-0.1,1.1c0.1,0.3,0.4,0.8,0.8,0.5C29.1,25.6,28.7,23.9,28,24.4z"/>
</g>
</svg>
