<?xml version="1.0" encoding="utf-8"?>
<!-- Generator: Adobe Illustrator 26.0.1, SVG Export Plug-In . SVG Version: 6.00 Build 0)  -->
<svg version="1.1" id="Layer_1" xmlns="http://www.w3.org/2000/svg" xmlns:xlink="http://www.w3.org/1999/xlink" x="0px" y="0px"
	 viewBox="0 0 56.7 56.7" style="enable-background:new 0 0 56.7 56.7;" xml:space="preserve">
<style type="text/css">
	.st0{fill:#FFFFFF;}
	.st1{fill-rule:evenodd;clip-rule:evenodd;fill:#FFFFFF;}
</style>
<g id="Camada_x0020_1">
	<path class="st0" d="M28.3,47.7c-5.3,0-10.2-2.2-13.7-5.7C11.2,38.5,9,33.7,9,28.3s2.2-10.2,5.7-13.7C18.2,11.2,23,9,28.3,9
		c5.3,0,10.2,2.2,13.7,5.7s5.7,8.3,5.7,13.7S45.5,38.5,42,42C38.5,45.5,33.7,47.7,28.3,47.7z M15.3,41.4c3.3,3.3,8,5.4,13.1,5.4
		c5.1,0,9.7-2.1,13.1-5.4c3.3-3.3,5.4-8,5.4-13.1s-2.1-9.7-5.4-13.1c-3.3-3.3-8-5.4-13.1-5.4c-5.1,0-9.7,2.1-13.1,5.4
		s-5.4,8-5.4,13.1S11.9,38.1,15.3,41.4z"/>
</g>
<g>
	<path class="st1" d="M27.3,37.8c-0.2,1.4-1.1,2.3-2.3,2.5c-1.2,0.2-2.4-0.4-3-1.4c-0.6-1.1-0.5-2.4,0.4-3.3c0,0,0,0,0,0
		c0.9-0.5,0.7-1.2,0.6-2c-0.6-3.1-1.2-6.1-1.8-9.2c-0.1-0.5-0.2-1.1-0.6-1.5c-0.2-0.3-0.2-0.5,0.1-0.7c0.2-0.1,0.4-0.2,0.6-0.4
		c0.2-0.1,0.3-0.1,0.4,0.1c0.3,0.5,0.7,1,0.8,1.6c0.7,3.5,1.4,6.9,2.1,10.4c0.1,0.5,0.2,0.8,0.8,0.9c0.8,0.2,1.4,0.7,1.7,1.5
		c0.2,0.2,0.4,0,0.6,0c1-0.2,2-0.4,3-0.6c0.4-0.1,0.7-0.1,0.9,0.3c0.1,0.3,0.7,0.4,0.5,0.7c-0.2,0.3-0.6,0.2-1,0.1
		c-0.2,0-0.4,0-0.5,0c-0.9,0.5-2,0.6-3,0.8C27.4,37.8,27.4,37.8,27.3,37.8z"/>
	<path class="st1" d="M28.4,25.4c1.5-0.3,3-0.6,4.5-0.9c0.4-0.1,0.6,0,0.6,0.4c0.6,3,1.2,6.1,1.8,9.1c0.1,0.4,0,0.5-0.4,0.6
		c-2.4,0.5-4.9,1-7.3,1.5c-0.3,0.1-0.5,0-0.6-0.2c-0.4-0.6-1-1-1.8-1.2c-0.3-0.1-0.4-0.2-0.5-0.5c-0.5-2.4-0.9-4.7-1.4-7.1
		c-0.1-0.5,0.1-0.6,0.5-0.7C25.4,26,26.9,25.7,28.4,25.4z"/>
	<path class="st1" d="M21.6,21c0,0.2-0.1,0.3-0.2,0.4c-0.4,0.3-0.9,0.6-1.3,0.9c-0.3,0.2-0.5,0.1-0.6-0.2c-0.1-0.8-0.7-1.2-1-1.8
		c-0.4-0.6-0.8-1.3-1.3-1.9c-0.1-0.1-0.1-0.2-0.2-0.3c-0.6-0.6-0.6-0.6,0.1-1.1c0.3-0.2,0.6-0.4,0.9-0.6c0.3-0.2,0.5-0.1,0.5,0.2
		c0.1,0.7,0.6,1.1,0.9,1.7c0.4,0.6,0.8,1.2,1.2,1.8c0.2,0.2,0.3,0.5,0.6,0.6C21.4,20.8,21.5,20.9,21.6,21z"/>
	<path class="st1" d="M27.3,37.8c0.5-0.4,1.1-0.3,1.6-0.5c0.4-0.1,0.8-0.2,1.1-0.6c0.3-0.3,0.7-0.4,1.1-0.2c0.2,0.1,0.4,0.2,0.7,0.1
		c-0.4-0.8-1-1.2-1.9-0.8c-0.7,0.2-1.4,0.3-2.2,0.5c-0.2,0-0.5,0.1-0.7,0c2.3-0.4,4.7-0.9,7-1.3c1.8-0.4,3.6-0.7,5.3-1.1
		c0.6-0.1,0.6,0.2,0.7,0.6c0.1,0.4,0.2,0.7-0.4,0.8c-3.8,0.7-7.7,1.5-11.5,2.3C27.9,37.7,27.6,37.8,27.3,37.8z"/>
	<path class="st1" d="M26.2,37.1c0.2,1-0.3,1.9-1.3,2.2c-1,0.2-2-0.4-2.2-1.3c-0.2-1,0.4-1.9,1.3-2.1C25.1,35.6,26,36.1,26.2,37.1z"
		/>
	<path class="st1" d="M29.4,31.7c-0.1-0.3-0.3-0.4-0.5-0.5c-1.5-1-3-2-4.5-3c-0.2-0.1-0.3-0.2-0.4-0.3c-0.3-0.3-0.4-0.7-0.4-1.1
		c0-0.4,0.4-0.4,0.7-0.4c0.8-0.2,1.6-0.3,2.3-0.5c0.5-0.1,0.7,0,0.8,0.5c0.2,1.1,0.4,2.2,0.7,3.3c0.2,1,1.3,1.3,2,0.6
		c0.3-0.2,0.2-0.6,0.2-0.9c-0.2-1.1-0.4-2.3-0.7-3.4c-0.1-0.5,0-0.8,0.6-0.9c0.8-0.1,1.5-0.3,2.3-0.5c0.5-0.1,0.7,0.1,0.8,0.6
		c0.3,1.5,0.5,2.9,0.9,4.4c0.1,0.2,0.1,0.4,0,0.6c-0.2,0.7-0.2,1.4,0.4,1.9c0.1,0.1,0.2,0.4,0,0.5c-0.2,0.1-0.3-0.1-0.4-0.2
		c0-0.1-0.1-0.2-0.1-0.3c-0.2-0.4-0.2-0.8-0.8-0.2c-0.4,0.4-1.1,0.6-1.7,0.6c-0.2,0-0.4,0-0.6,0c-1.1,0.2-1.2,0.4-0.9,1.5
		c0.1,0.4,0.3,0.7,0.8,0.6c0.2,0,0.4-0.1,0.5,0.2c0,0.2-0.1,0.4-0.3,0.5c-0.1,0.1-0.2,0.1-0.3,0.1c-0.8,0.2-1.7,0.3-2.5,0.5
		c-0.5,0.1-0.8-0.1-1.1-0.5c-0.4-0.6-0.9-1-1.6-1c-0.3,0-0.4-0.2-0.4-0.4c-0.4-1.7-0.7-3.5-1-5.2c0-0.1-0.1-0.3,0-0.3
		c0.2-0.1,0.3,0.1,0.4,0.1c1.5,1,3,2,4.4,3C28.9,31.5,29.1,31.7,29.4,31.7z"/>
	<path class="st1" d="M29.6,27.8c0.1,0.6,0.2,1.3,0.4,1.9c0.1,0.3,0,0.5-0.4,0.5c-1.1,0.3-1.1,0.3-1.4-0.9c-0.2-1-0.4-2.1-0.6-3.1
		c-0.1-0.4,0-0.6,0.4-0.6c1.2-0.2,1-0.4,1.2,0.8C29.4,26.9,29.5,27.4,29.6,27.8z"/>
	<path class="st1" d="M33.5,33.8c0,0-0.1,0-0.1,0c-0.3,0-0.6,0.3-0.8,0c-0.2-0.3-0.2-0.8-0.3-1.2c0-0.2,0.1-0.2,0.3-0.3
		c1.1-0.4,1.2-0.4,1.5,1.2C34,33.9,33.8,33.9,33.5,33.8z"/>
	<path class="st1" d="M30.1,33.7C30,32.9,30,33,30.8,32.7c0.6-0.2,0.8,0.1,0.9,0.6c0.1,0.8,0.1,0.8-0.7,0.9
		C30.3,34.4,30.3,34.4,30.1,33.7z"/>
	<path class="st1" d="M33.5,33.8c0.2-0.1,0.4-0.2,0.6-0.2c0.3,0.3,0.3,0.3,0.8,0.2c-0.1,0.4-0.4,0.5-0.8,0.3
		C34,34.1,33.8,33.9,33.5,33.8z"/>
	<path class="st1" d="M31.8,33.3c0-0.2-0.1-0.4,0.1-0.4c0.2,0,0.3,0.2,0.4,0.3c0,0.2,0.1,0.4-0.2,0.4C31.8,33.7,31.9,33.4,31.8,33.3
		z"/>
	<path class="st1" d="M31.8,35c0.2-0.3,0.4-0.4,0.7-0.3c0.1,0,0.1,0.1,0.1,0.2C32.4,35,32.1,35,31.8,35z"/>
	<path class="st1" d="M37,34.5c0.7-0.1,1.5-0.3,2.2-0.4c0.4-0.1,0.7,0,0.7,0.5c0.1,0.4,0,0.6-0.5,0.7c-1.5,0.3-2.9,0.6-4.4,0.9
		c-0.8,0.2-0.5-0.5-0.7-0.8C34.2,35,34.6,35,34.8,35C35.5,34.8,36.3,34.7,37,34.5z"/>
	<path class="st1" d="M32.5,35.4c0.3,0.1,0.7-0.4,0.9,0.1c0.1,0.3-0.3,0.8-0.7,0.8c-0.4,0.1-0.9,0-1-0.5
		C31.6,35.3,32.2,35.6,32.5,35.4z"/>
	<path class="st1" d="M33.8,35.3c0.5,0.5,0.5,0.9,0.1,1c-0.1,0-0.2,0.1-0.3,0c-0.1,0-0.1-0.2,0-0.3C33.7,35.9,33.7,35.6,33.8,35.3z"
		/>
	<path class="st1" d="M24.7,38.5c-0.5,0.1-1-0.2-1.1-0.7c-0.1-0.5,0.2-1,0.7-1.1c0.5-0.1,1,0.2,1.1,0.7
		C25.5,37.9,25.2,38.4,24.7,38.5z"/>
</g>
</svg>
