<?xml version="1.0" encoding="utf-8"?>
<!-- Generator: Adobe Illustrator 26.0.1, SVG Export Plug-In . SVG Version: 6.00 Build 0)  -->
<svg version="1.1" id="Layer_1" xmlns="http://www.w3.org/2000/svg" xmlns:xlink="http://www.w3.org/1999/xlink" x="0px" y="0px"
	 viewBox="0 0 56.7 56.7" style="enable-background:new 0 0 56.7 56.7;" xml:space="preserve">
<style type="text/css">
	.st0{fill:#FFFFFF;}
</style>
<g id="Camada_x0020_1">
	<path class="st0" d="M28.3,47.7c-5.3,0-10.2-2.2-13.7-5.7C11.2,38.5,9,33.7,9,28.3s2.2-10.2,5.7-13.7C18.2,11.2,23,9,28.3,9
		c5.3,0,10.2,2.2,13.7,5.7s5.7,8.3,5.7,13.7S45.5,38.5,42,42C38.5,45.5,33.7,47.7,28.3,47.7z M15.3,41.4c3.3,3.3,8,5.4,13.1,5.4
		c5.1,0,9.7-2.1,13.1-5.4c3.3-3.3,5.4-8,5.4-13.1s-2.1-9.7-5.4-13.1c-3.3-3.3-8-5.4-13.1-5.4c-5.1,0-9.7,2.1-13.1,5.4
		s-5.4,8-5.4,13.1S11.9,38.1,15.3,41.4z"/>
	<path class="st0" d="M43.7,27.7c-1.1-2.8-0.7-3.2-3.6-1.8c-1.1,0.5,0.3,1.6-2.8,1c0,0-0.6-0.1-0.6-0.1c-1-0.1-2-0.5-2.8,0.1
		c-0.6,0.4-0.2,0.5-1.1,0.5c-0.5,0-1.2,0-1.6-0.1c-0.3-0.7,0.3-0.5-0.9-1.4c-1.7-1.3-1.4-1.3-3.6,1.8c-0.5,0.7-1.9,2.4-1.8,3
		c0.1,0.4,1,1,1.2,1.2c1.2,1,0.9,0.2,1.7,0.3c0.7,1.3-0.5,1.6-0.6,2.4c-0.3,1.2,0.7,1.7,1.7,1.8c0.2,1.2,0.7,1.3,1.9,1.3
		c0.3,0.9,0.8,1.1,1.8,0.9c0.3,0.4,0.4,0.8,1,0.9c0.6,0.2,1.1-0.1,1.4-0.5c0.5,0.1,0.8,0.4,1.6,0l0.3-0.2c0,0.1,0.6-0.5,0.6-1
		c0.7-0.3,1-0.4,1.1-1.4c1-0.3,1.4-0.4,1.4-1.6c1.2-0.1,1.2-0.6,1.5-1.5c1.3-0.4,0.7,0.4,2.4-0.3C45.8,31.9,45.6,32.5,43.7,27.7z
		 M27,31.7c-0.4-0.1-0.6-0.3-0.9-0.6c-0.3-0.2-0.6-0.4-0.7-0.7c0.2-0.4,3.4-4.7,3.5-4.8c0.4,0.2,1.4,0.9,1.6,1.2
		C29.9,28,27.6,30.6,27,31.7z M28.9,35.6c-0.7,0.5-1.6-0.3-1.2-1.1c0.1-0.2,1.1-1.5,1.2-1.6c0.7-0.5,1.7,0.3,1.2,1.1
		C30.1,34.3,29,35.6,28.9,35.6z M30.7,36.9c-0.6,0.5-1.6-0.1-1.2-0.9c0.1-0.1,1.1-1.4,1.2-1.5c0.7-0.6,1.6,0.2,1.2,0.9
		C31.8,35.5,30.8,36.8,30.7,36.9z M31.3,37.7c-0.2-0.6,0.4-1.1,0.7-1.4c0.5-0.6,0.7-0.6,1.3-0.1C33.4,37.2,31.8,38.8,31.3,37.7z
		 M34.7,38.1c-0.2,0.4-0.4,0.9-1,0.9c-0.6,0-0.9-0.5-0.6-1.1C33.9,36.5,35.2,37.2,34.7,38.1z M39.7,34.1c-0.6-0.1-2.8-2.3-3.2-2
		c-0.8,0.7,3.1,1.8,2.5,3.1c-0.4,1.2-2-0.3-2.8-0.8c-0.4-0.3-0.4-0.4-0.7-0.4c-0.2,0-0.5,0.2-0.1,0.5c0.1,0.1,0.3,0.2,0.4,0.3
		c1,0.7,2.3,1.3,1.7,2.1c-0.8,1-2.6-1.9-3.3-1.5c-0.2,0.3-0.1,0.3,0.1,0.5c0.7,0.7,2,1.2,1.9,2c-0.1,0.5-0.5,0.7-1,0.5
		c-0.1-0.3,0.5-2-1.4-2.1c-0.2-0.9-0.5-1.2-1.4-1.3c-0.1-1-0.5-1.5-1.6-1.5c-0.2-1.4-1.3-1.8-2.4-1.1L28.2,32
		c-0.1-0.2-0.2-0.2-0.4-0.5l2.8-3.7c1.1,0.3,0.6,0.2,1.8,0.2c-0.1,0.5-0.7,0.5-0.8,1.2c-0.1,0.7,0.4,1,0.9,1.1
		c1.6,0.5,2.4-0.8,3.2-0.4c0.3,0.1,0.9,0.7,1.1,0.9l2.2,1.8c0.5,0.4,0.7,0.3,1.4,0.6C40.6,33.8,40.3,34.2,39.7,34.1z M39.4,32.1
		c-0.7-0.5-3.1-2.5-3.4-2.7c-0.9-0.4-1.5,0.4-2.4,0.5c-0.4,0-1.1,0-1.2-0.4c-0.2-0.3,0.3-0.7,0.5-0.8c0.3-0.3,1.2-1.3,1.7-1.4
		c0.5-0.1,2.1,0.2,2.7,0.3c2.6,0.4,1.4,0,2.5-0.1c0.2,0.4,2,4.8,2,5.1C40.6,32.7,40.2,32.7,39.4,32.1z M42.6,32.6
		c-0.3-0.4-2.4-5.7-2.4-6c0.4-0.2,1.6-0.8,2-0.8c0.3,0.4,2.4,5.7,2.4,6C44.2,31.9,42.9,32.6,42.6,32.6z"/>
	<path class="st0" d="M36.1,39.3c0,0.7-0.1,1.2-1,1.2c-1.5,0.1-6.2,0-7.9,0c-1.8,0-3.5,0-5.3,0c-1,0-4.5,0.3-5-0.3
		c-0.4-0.5-0.2-4.1-0.2-5c0-5.2,0.1-10.8,0-15.9c0.7-0.1,4.5,0.2,4.8-0.1c0.2-0.2,0.1-0.1,0.1-0.5c0-0.2,0-0.5,0-0.7
		c0-0.4,0-0.9,0-1.3c0-0.6-0.1-2,0.1-2.5C22,14,33.7,14,35.1,14.1c1.3,0.1,1,1.2,1,2.4c0,2.6,0.1,7.7,0,10h0.6
		c-0.1-3.3,0-6.9,0-10.3c0-2.5-0.2-2.7-2.7-2.7l-10.7,0c-1.1,0-2-0.2-2.4,0.3l-4.6,4.8c-0.3,0.3-0.2,0.6-0.2,1.1c0,0.9,0,1.7,0,2.6
		l0,16.1c0,2.4,0.1,2.7,2.6,2.7c3.6,0,7.1,0,10.7,0c6.4,0,7.2,0.4,7.3-1.8H36.1z M20.9,14.7l0,4l-3.7,0
		C17.2,18.4,20.7,14.8,20.9,14.7z"/>
	<path class="st0" d="M23.4,16.1c0.5,0.2,7.8,0.1,9.1,0.1c0.6,0,1.7,0.1,2.1-0.2l0-0.3c-0.4-0.3-5.2-0.2-6.5-0.2h-3.5
		C24,15.6,23.3,15.4,23.4,16.1z"/>
	<path class="st0" d="M23.4,19.4c0.5,0.2,7.5,0.1,9,0.1c0.7,0,1.8,0.1,2.2-0.2l0-0.3c-0.4-0.3-5.3-0.2-6.5-0.2l-4,0
		C23.6,18.9,23.3,18.8,23.4,19.4z"/>
	<path class="st0" d="M18.2,22.7c1.1,0.1,10.4,0.2,10.9,0l0-0.4c-1.6-0.2-8.6-0.1-10.4-0.1C18.2,22.1,18.1,22.1,18.2,22.7z"/>
	<path class="st0" d="M18.2,38.9c0.5,0.2,6.7,0.1,7.6,0.1c0.6,0,2.2,0.1,2.6-0.1l0-0.4c-0.5-0.2-8.6-0.1-9.7-0.1
		C18.2,38.4,18.1,38.4,18.2,38.9z"/>
	<path class="st0" d="M18.2,25.9c0.4,0.1,7.8,0.2,8.1,0l0-0.4c-0.5-0.2-6.6-0.1-7.5-0.1C18.3,25.4,18.1,25.4,18.2,25.9z"/>
	<path class="st0" d="M18.2,35.7c0.5,0.2,5.7,0.1,6.6,0.1c0.6,0,1.1,0.1,1.5-0.2l0-0.3c-0.4-0.3-4.2-0.2-4.9-0.2l-2.6,0
		C18.2,35.2,18.1,35.2,18.2,35.7z"/>
	<path class="st0" d="M18.2,32.4c0.4,0.1,4.7,0.1,5.1,0l0-0.4c-0.4-0.2-3.9-0.1-4.6-0.1C18.2,31.9,18.1,31.9,18.2,32.4z"/>
	<path class="st0" d="M30.8,25.9c0.3,0.1,3.4,0.2,3.8-0.1l0-0.3c-0.4-0.3-1.6-0.2-2.3-0.2C31.6,25.4,30.7,25.1,30.8,25.9z"/>
	<path class="st0" d="M31.1,22.6c0.3,0.1,3.1,0.2,3.5-0.1l0-0.3c-0.3-0.3-2.2-0.2-3-0.2C31.1,22.1,31,22.1,31.1,22.6z"/>
	<path class="st0" d="M18.2,29.2c0.4,0.1,2.7,0.1,3.1,0l0-0.4c-0.4-0.2-1.9-0.1-2.5-0.1C18.3,28.6,18.1,28.6,18.2,29.2z"/>
</g>
</svg>
