<?xml version="1.0" encoding="utf-8"?>
<!-- Generator: Adobe Illustrator 26.0.1, SVG Export Plug-In . SVG Version: 6.00 Build 0)  -->
<svg version="1.1" id="Camada_1" xmlns="http://www.w3.org/2000/svg" xmlns:xlink="http://www.w3.org/1999/xlink" x="0px" y="0px"
	 viewBox="0 0 200 100" style="enable-background:new 0 0 200 100;" xml:space="preserve">
<style type="text/css">
	.st0{fill:#14152A;}
</style>
<path class="st0" d="M122.95,33.41l-4.38,3.01c4.23,6.04,6.33,11.46,6.1,15.7c-0.28,5.3-2.66,9.34-4.52,15.21l5.48,1.18l8.69-13.05
	l19.61,2.09c-0.3,11.51-3.1,37.65,2.14,39.34c4.72,1.8,8.2-10.28,9.26-16.74c1.13-6.85,2.31-14.68,4.22-20.98
	c7.23-1.09,21.22,2.19,29.17-4.12c3.93-5.09-1.67-10.66-10.21-11.21L175,43.1c-3.25-0.2-0.96,0.45-4.6-0.42
	c-4.19-11.44-7.1-41.8-15.35-39.64c-6.2,1.47-2.27,27.09-1.59,41.05c-6.75,1.3-12.85,1.68-19.23,1.72L122.95,33.41z"/>
<path class="st0" d="M122.55,51.97c0,3.93,4.85,7.12-40.12,7.12S1,55.9,1,51.97s36.46-7.12,81.43-7.12S122.55,48.03,122.55,51.97z"
	/>
</svg>
